<svg width="130" height="130" viewBox="0 0 130 130" fill="none" xmlns="http://www.w3.org/2000/svg">
<path d="M78.6133 3.28015C79.2525 6.48408 83.5702 7.70734 85.7949 5.31479C86.0507 8.57183 90.1934 10.2972 92.6855 8.18453C92.5543 11.449 96.4639 13.6522 99.1883 11.8491C98.6719 15.0751 102.293 17.7252 105.212 16.2571C104.318 19.3994 107.6 22.4592 110.672 21.3466C109.413 24.361 112.31 27.7876 115.492 27.0461C113.885 29.8904 116.357 33.6357 119.604 33.2757C117.671 35.9099 119.683 39.9213 122.95 39.9479C120.72 42.3351 122.243 46.5563 125.484 46.969C122.987 49.0756 124 53.4474 127.169 54.2406C124.441 56.037 124.93 60.4979 127.983 61.6604C125.061 63.1215 125.019 67.6089 127.913 69.1244C124.839 70.2296 124.266 74.6806 126.961 76.5277C123.778 77.2616 122.683 81.6136 125.14 83.7665C121.892 84.1186 120.29 88.3107 122.476 90.7391C119.209 90.7046 117.123 94.6778 119.006 97.3476C115.766 96.927 113.224 100.626 114.778 103.499C111.611 102.699 108.65 106.07 109.853 109.108C106.802 107.938 103.463 110.936 104.299 114.095C101.408 112.572 97.7375 115.154 98.1935 118.389C95.5032 116.536 91.5532 118.665 91.6234 121.932C89.1712 119.773 84.997 121.421 84.6805 124.672C82.5008 122.239 78.161 123.381 77.4621 126.573C75.5855 123.898 71.1411 124.519 70.0696 127.606C68.5226 124.728 64.0358 124.819 62.6069 127.757C61.411 124.717 56.945 124.277 55.1786 127.025C54.3507 123.865 49.9681 122.899 47.889 125.419C47.4407 122.183 43.2031 120.706 40.8405 122.963C40.7781 119.696 36.7449 117.729 34.132 119.69C34.4564 116.439 30.6842 114.008 27.8577 115.647C28.5643 112.457 25.1061 109.597 22.1057 110.889C23.1846 107.806 20.0889 104.557 16.9567 105.485C18.3927 102.551 15.703 98.9587 12.4829 99.5104C14.256 96.7663 12.01 92.8811 8.74725 93.0482C10.8324 90.5331 9.06179 86.4095 5.80214 86.1894C8.17014 83.9386 6.89963 79.6346 3.68889 79.0305C6.30649 77.0756 5.55394 72.6515 2.43717 71.6719C5.26763 70.0403 5.04362 65.5582 2.06457 64.2169C5.06814 62.9315 5.37581 58.4544 2.57632 56.7702C5.71083 55.8491 6.54585 51.4398 3.96521 49.4363C7.18668 48.8923 8.53734 44.6127 6.21178 42.3181C9.47497 42.1589 11.3223 38.0692 9.28446 35.5156C12.5436 35.7435 14.8616 31.9009 13.1401 29.1242C16.3494 29.736 19.1057 26.1945 17.7247 23.2337C20.8391 24.2208 23.9949 21.0302 22.9737 17.9268C25.9495 19.2753 29.4605 16.4803 28.8136 13.278C31.609 14.9689 35.4259 12.6089 35.1623 9.35245C37.7381 11.3622 41.8074 9.47012 41.9307 6.20538C44.2507 8.50565 48.5152 7.10815 49.0238 3.88091C51.0555 6.43944 55.4554 5.55612 56.3421 2.41169C58.0569 5.19255 62.5304 4.83582 63.7828 1.81834C65.1567 4.7825 69.6409 4.95736 71.2414 2.10919C72.2551 5.21503 76.6872 5.91903 78.6133 3.28015Z" stroke="white" stroke-width="0.726573"/>
</svg>
