<svg width="50" height="50" viewBox="0 0 50 50" fill="none" xmlns="http://www.w3.org/2000/svg">
<path d="M16.2812 7.44791C14.2866 7.44543 12.3323 8.00886 10.6452 9.07276C8.95807 10.1367 7.60739 11.6574 6.75003 13.4582C5.89267 15.2591 5.56382 17.2663 5.80167 19.2466C6.03951 21.227 6.83429 23.0992 8.0937 24.6458L25 44.4896L41.7395 24.8437L41.8229 24.75L41.9062 24.6458C42.8205 23.5433 43.5007 22.2661 43.9054 20.8922C44.3102 19.5183 44.431 18.0763 44.2604 16.6542C44.0899 15.2321 43.6317 13.8595 42.9136 12.6202C42.1956 11.3809 41.2327 10.3008 40.0837 9.44559C38.9347 8.59041 37.6237 7.97808 36.2304 7.64593C34.8372 7.31378 33.3909 7.26875 31.9796 7.51358C30.5684 7.75842 29.2218 8.28799 28.0219 9.07005C26.8219 9.8521 25.7937 10.8703 25 12.0625C24.0355 10.6408 22.7376 9.47686 21.2195 8.67245C19.7015 7.86805 18.0096 7.44762 16.2916 7.44791H16.2812Z" fill="#27AE60"/>
</svg>
