<svg width="197" height="249" viewBox="0 0 197 249" fill="none" xmlns="http://www.w3.org/2000/svg">
<path fill-rule="evenodd" clip-rule="evenodd" d="M217.732 172.246C275.236 162.402 319 112.312 319 52C319 -15.3787 264.379 -70 197 -70C149.24 -70 107.889 -42.5557 87.8585 -2.57708C87.8867 -2.99661 87.915 -3.41794 87.9431 -3.8411L38.0533 -7.1589C37.937 -5.41055 37.8147 -3.65324 37.6916 -1.88474L37.6913 -1.88126C36.5991 13.8087 35.4454 30.3815 37.9126 49.4234C31.9509 51.0643 26.0678 53.4079 20.7744 56.6996C13.3411 61.3219 5.23056 69.026 1.89225 80.8932C-1.47341 92.8575 1.30917 104.425 6.32977 114.056C11.5045 123.983 20.7948 132.138 29.0323 138.338C38.0108 145.097 49.0979 151.959 61.2419 158.689C81.7042 170.031 106.578 181.774 132.488 192.821C152.826 207.133 177.015 217.94 205.878 221.358C217.312 225.388 228.422 229.101 238.924 232.398C266.074 240.921 291.574 247.455 307.98 248.454L311.019 198.546C301.425 197.962 281.25 193.279 253.9 184.693C244.882 181.862 235.344 178.691 225.498 175.254V172.5C222.862 172.5 220.274 172.414 217.732 172.246Z" fill="#FF93CE" fill-opacity="0.5"/>
</svg>
