<svg width="74" height="44" viewBox="0 0 74 44" fill="none" xmlns="http://www.w3.org/2000/svg">
<path d="M0.545187 40.7923C0.43047 41.0435 0.541099 41.3401 0.792285 41.4548L4.8856 43.3242C5.13678 43.439 5.43341 43.3283 5.54813 43.0772C5.66284 42.826 5.55221 42.5293 5.30103 42.4146L1.66253 40.7529L3.32425 37.1144C3.43897 36.8632 3.32834 36.5666 3.07715 36.4519C2.82596 36.3372 2.52934 36.4478 2.41462 36.699L0.545187 40.7923ZM1.17472 41.4685C2.7404 40.8845 4.34699 40.2484 5.98626 39.5668L5.60233 38.6434C3.97316 39.3208 2.37813 39.9524 0.825276 40.5315L1.17472 41.4685ZM15.4211 35.3341C18.4596 33.8826 21.5536 32.3289 24.6593 30.7084L24.1967 29.8219C21.1 31.4376 18.0165 32.9861 14.99 34.4317L15.4211 35.3341ZM33.7514 25.803C36.7848 24.116 39.7887 22.3979 42.7216 20.6826L42.2167 19.8194C39.2895 21.5314 36.2919 23.2459 33.2654 24.9291L33.7514 25.803ZM51.5862 15.3828C54.6723 13.4986 57.6139 11.6621 60.3518 9.92151L59.8153 9.07761C57.0823 10.8151 54.1458 12.6484 51.0651 14.5293L51.5862 15.3828ZM69.0064 4.29906C70.5812 3.25172 72.0141 2.2834 73.283 1.4122L72.717 0.587805C71.4526 1.45594 70.0237 2.4215 68.4527 3.4664L69.0064 4.29906Z" fill="#27AE60"/>
</svg>
