<svg width="9" height="36" viewBox="0 0 9 36" fill="none" xmlns="http://www.w3.org/2000/svg">
<path d="M4.14645 35.3536C4.34171 35.5488 4.65829 35.5488 4.85355 35.3536L8.03553 32.1716C8.23079 31.9763 8.23079 31.6597 8.03553 31.4645C7.84027 31.2692 7.52369 31.2692 7.32843 31.4645L4.5 34.2929L1.67157 31.4645C1.47631 31.2692 1.15973 31.2692 0.964465 31.4645C0.769203 31.6597 0.769203 31.9763 0.964465 32.1716L4.14645 35.3536ZM4 -2.18557e-08L4 0.972222L5 0.972222L5 2.18557e-08L4 -2.18557e-08ZM4 2.91667L4 4.86111L5 4.86111L5 2.91667L4 2.91667ZM4 6.80556L4 8.75L5 8.75L5 6.80556L4 6.80556ZM4 10.6944L4 12.6389L5 12.6389L5 10.6944L4 10.6944ZM4 14.5833L4 16.5278L5 16.5278L5 14.5833L4 14.5833ZM4 18.4722L4 20.4167L5 20.4167L5 18.4722L4 18.4722ZM4 22.3611L4 24.3056L5 24.3056L5 22.3611L4 22.3611ZM4 26.25L4 28.1944L5 28.1944L5 26.25L4 26.25ZM4 30.1389L4 32.0833L5 32.0833L5 30.1389L4 30.1389ZM4 34.0278L4 35L5 35L5 34.0278L4 34.0278Z" fill="#27AE60"/>
</svg>
