<svg width="68" height="41" viewBox="0 0 68 41" fill="none" xmlns="http://www.w3.org/2000/svg">
<path d="M67.4285 3.25766C67.5708 3.02101 67.4943 2.7138 67.2577 2.5715L63.4012 0.25257C63.1645 0.110269 62.8573 0.186757 62.715 0.423411C62.5727 0.660064 62.6492 0.967268 62.8858 1.10957L66.3138 3.17084L64.2526 6.59884C64.1103 6.83549 64.1868 7.14269 64.4234 7.285C64.6601 7.4273 64.9673 7.35081 65.1096 7.11415L67.4285 3.25766ZM1.37825 40.327C2.24758 39.3214 3.33804 38.1656 4.64215 36.8943L3.94409 36.1782C2.62336 37.4658 1.51279 38.6423 0.621747 39.673L1.37825 40.327ZM11.8054 30.6074C14.0837 28.7827 16.6443 26.8698 19.4731 24.9272L18.907 24.1029C16.0579 26.0594 13.4776 27.9869 11.1803 29.8269L11.8054 30.6074ZM27.5193 19.7902C30.1479 18.2313 32.9398 16.6863 35.8877 15.185L35.4338 14.2939C32.4663 15.8052 29.6557 17.3606 27.0092 18.9301L27.5193 19.7902ZM44.5266 11.127C47.374 9.89889 50.3371 8.72634 53.4108 7.62968L53.0748 6.68783C49.9801 7.79195 46.9971 8.97242 44.1306 10.2087L44.5266 11.127ZM62.5026 4.71687C64.0195 4.28526 65.5591 3.87403 67.1208 3.48519L66.8792 2.51481C65.3066 2.90636 63.7563 3.32045 62.229 3.75505L62.5026 4.71687Z" fill="#27AE60"/>
</svg>
