<svg width="11" height="154" viewBox="0 0 11 154" fill="none" xmlns="http://www.w3.org/2000/svg">
<path d="M2.96872 153.269C3.11727 153.502 3.4264 153.57 3.65918 153.421L7.4526 151.001C7.68538 150.852 7.75367 150.543 7.60512 150.31C7.45657 150.077 7.14744 150.009 6.91466 150.158L3.54273 152.31L1.39096 148.938C1.24241 148.705 0.933283 148.637 0.7005 148.785C0.467717 148.934 0.399431 149.243 0.54798 149.476L2.96872 153.269ZM1.51092 1.10395C1.81605 2.5396 2.12863 4.09345 2.44505 5.75754L3.42745 5.57074C3.10981 3.90021 2.79582 2.33931 2.48908 0.896054L1.51092 1.10395ZM4.07453 15.162C4.5422 18.1169 5.00485 21.279 5.45114 24.6232L6.44235 24.4909C5.99501 21.1389 5.5312 17.9688 5.06223 15.0056L4.07453 15.162ZM6.61009 34.0941C6.95169 37.1549 7.27461 40.3276 7.57215 43.5972L8.56803 43.5065C8.26986 40.2301 7.94626 37.0507 7.60391 33.9832L6.61009 34.0941ZM8.34244 53.1185C8.563 56.2327 8.75759 59.4147 8.92126 62.6537L9.91998 62.6032C9.75597 59.3573 9.56097 56.1685 9.33995 53.0478L8.34244 53.1185ZM9.30485 72.1998C9.39837 75.3463 9.46017 78.5338 9.48611 81.753L10.4861 81.745C10.4601 78.5182 10.3981 75.3235 10.3044 72.1701L9.30485 72.1998ZM9.45519 91.2993C9.40851 94.4623 9.32454 97.6466 9.19955 100.844L10.1988 100.883C10.3241 97.6772 10.4083 94.4849 10.4551 91.314L9.45519 91.2993ZM8.70337 110.38C8.49627 113.551 8.24566 116.726 7.94797 119.897L8.94359 119.991C9.2422 116.809 9.49355 113.625 9.70124 110.445L8.70337 110.38ZM6.91094 129.386C6.51464 132.55 6.06744 135.703 5.56576 138.836L6.55318 138.994C7.05675 135.849 7.50554 132.686 7.90319 129.511L6.91094 129.386ZM3.88186 148.226C3.5703 149.789 3.24383 151.345 2.90198 152.892L3.87844 153.108C4.22181 151.553 4.54969 149.991 4.86256 148.421L3.88186 148.226Z" fill="#27AE60"/>
</svg>
