<svg width="71" height="41" viewBox="0 0 71 41" fill="none" xmlns="http://www.w3.org/2000/svg">
<path d="M70.0837 39.493C70.3559 39.4467 70.5392 39.1886 70.493 38.9163L69.7399 34.4798C69.6937 34.2075 69.4356 34.0243 69.1633 34.0705C68.8911 34.1167 68.7078 34.3749 68.754 34.6471L69.4234 38.5907L65.4798 39.2601C65.2075 39.3063 65.0243 39.5644 65.0705 39.8367C65.1167 40.1089 65.3749 40.2922 65.6471 40.246L70.0837 39.493ZM0.837052 1.4727C2.09251 1.90548 3.6333 2.48159 5.43076 3.2029L5.80319 2.27484C3.99404 1.54884 2.43741 0.966625 1.16295 0.527297L0.837052 1.4727ZM14.4591 7.11356C17.1715 8.36189 20.1441 9.78854 23.3378 11.3954L23.7872 10.5021C20.5833 8.8901 17.6002 7.45841 14.8772 6.20515L14.4591 7.11356ZM32.0788 15.9614C34.8373 17.4544 37.7089 19.0574 40.6753 20.7712L41.1755 19.9053C38.201 18.1868 35.3213 16.5793 32.5548 15.082L32.0788 15.9614ZM49.1461 25.8185C51.8687 27.4906 54.6502 29.2473 57.4784 31.0892L58.0242 30.2512C55.1884 28.4044 52.3994 26.643 49.6694 24.9664L49.1461 25.8185ZM65.6668 36.5782C67.0077 37.5031 68.356 38.4462 69.7106 39.4077L70.2894 38.5923C68.9311 37.6282 67.5791 36.6824 66.2347 35.755L65.6668 36.5782Z" fill="#27AE60"/>
</svg>
