<svg width="78" height="44" viewBox="0 0 78 44" fill="none" xmlns="http://www.w3.org/2000/svg">
<path d="M0.943033 1.50326C0.668689 1.53472 0.471794 1.78262 0.503256 2.05697L1.01596 6.52766C1.04742 6.80201 1.29533 6.9989 1.56967 6.96744C1.84401 6.93598 2.04091 6.68807 2.00945 6.41373L1.55371 2.43978L5.52766 1.98404C5.80201 1.95258 5.9989 1.70467 5.96744 1.43033C5.93598 1.15599 5.68807 0.959091 5.41373 0.990553L0.943033 1.50326ZM0.689031 2.39153C2.05569 3.47698 3.50345 4.5692 5.02016 5.66444L5.60559 4.85371C4.09971 3.7663 2.66426 2.6833 1.31097 1.60847L0.689031 2.39153ZM14.0252 11.7226C17.0001 13.6038 20.1151 15.4749 23.3096 17.317L23.8091 16.4507C20.6246 14.6144 17.5214 12.7503 14.5597 10.8774L14.0252 11.7226ZM32.7829 22.583C35.9841 24.3024 39.2053 25.9773 42.3908 27.5902L42.8425 26.698C39.6635 25.0884 36.4495 23.4173 33.2561 21.702L32.7829 22.583ZM52.1102 32.3822C55.5236 34.0217 58.8204 35.5611 61.9227 36.9761L62.3377 36.0663C59.2411 34.6539 55.9503 33.1172 52.5432 31.4808L52.1102 32.3822ZM71.8231 41.3646C73.6395 42.1445 75.3113 42.8468 76.81 43.4625L77.19 42.5375C75.6966 41.924 74.0297 41.2237 72.2176 40.4457L71.8231 41.3646Z" fill="#27AE60"/>
</svg>
