<svg width="125" height="125" viewBox="0 0 125 125" fill="none" xmlns="http://www.w3.org/2000/svg">
<path d="M112.792 61.07C116.952 34.465 94.7499 7.65002 65.6149 4.31752C65.2524 4.27752 64.8874 4.23752 64.5249 4.20252C44.1624 2.18002 25.5499 17.7325 20.2274 29.5975C14.9049 41.4625 0.977412 52.75 6.13991 74.735C11.3024 96.72 25.3274 108.44 58.2099 111.908C91.0924 115.375 97.1574 105.97 105.885 85.4275C109.161 77.6164 111.48 69.4379 112.792 61.07Z" fill="#92E3A9"/>
<path opacity="0.8" d="M112.792 61.07C116.952 34.465 94.7499 7.65002 65.6149 4.31752C65.2524 4.27752 64.8874 4.23752 64.5249 4.20252C44.1624 2.18002 25.5499 17.7325 20.2274 29.5975C14.9049 41.4625 0.977412 52.75 6.13991 74.735C11.3024 96.72 25.3274 108.44 58.2099 111.908C91.0924 115.375 97.1574 105.97 105.885 85.4275C109.161 77.6164 111.48 69.4379 112.792 61.07Z" fill="white"/>
<path d="M86.8953 70.68C86.8715 70.6792 86.8482 70.6723 86.8278 70.66C66.0778 57.6825 47.7753 56.91 36.0778 58.5625C23.3903 60.3425 15.5053 65.255 15.4278 65.3125C15.414 65.3216 15.3984 65.3277 15.3821 65.3306C15.3658 65.3335 15.3491 65.3331 15.333 65.3294C15.3169 65.3256 15.3017 65.3187 15.2883 65.3089C15.275 65.2991 15.2637 65.2867 15.2553 65.2725C15.2374 65.2446 15.2314 65.2108 15.2384 65.1785C15.2454 65.1462 15.265 65.1179 15.2928 65.1C15.3728 65.0525 23.2928 60.1 36.0428 58.3225C43.6101 57.2748 51.2993 57.4987 58.7928 58.985C68.3103 60.8475 77.7928 64.7075 86.9828 70.455C86.997 70.4634 87.0094 70.4747 87.0192 70.488C87.0289 70.5014 87.0359 70.5166 87.0396 70.5327C87.0434 70.5488 87.0438 70.5655 87.0409 70.5818C87.038 70.5981 87.0319 70.6137 87.0228 70.6275C87.009 70.6478 86.9896 70.6636 86.9669 70.6729C86.9443 70.6823 86.9193 70.6847 86.8953 70.68Z" fill="#263238"/>
<path d="M52.8678 67.445C50.7203 65.68 57.1178 58.88 57.1178 58.88C54.3178 58.38 54.6978 58.48 54.6978 58.48C54.6978 58.48 47.4178 65.5 47.3428 69.5C47.2678 73.5 58.4403 77.225 58.4403 77.225L62.6328 75.385L66.2953 74.0275C66.2953 74.0275 55.0178 69.21 52.8678 67.445Z" fill="#92E3A9"/>
<path d="M58.4403 77.345H58.4003C57.9403 77.1925 47.1503 73.535 47.2178 69.5C47.2903 65.635 53.8503 59.1325 54.5553 58.4475C54.5678 58.395 54.5803 58.3625 54.7228 58.3675C54.9728 58.3675 55.5728 58.4875 57.1303 58.765C57.1521 58.7697 57.1723 58.7801 57.1888 58.7951C57.2054 58.8102 57.2177 58.8292 57.2245 58.8505C57.2314 58.8718 57.2325 58.8945 57.2278 58.9163C57.2231 58.9382 57.2127 58.9584 57.1978 58.975C57.1503 59.025 52.3953 64.1125 52.5503 66.53C52.5531 66.6875 52.5896 66.8426 52.6573 66.9849C52.725 67.1272 52.8223 67.2534 52.9428 67.355C55.0528 69.09 66.2253 73.855 66.3378 73.915C66.361 73.9245 66.3808 73.9408 66.3946 73.9618C66.4085 73.9827 66.4157 74.0074 66.4153 74.0325C66.4138 74.0575 66.4053 74.0815 66.3907 74.1019C66.3761 74.1222 66.356 74.138 66.3328 74.1475L62.6778 75.5L58.5003 77.335C58.4816 77.3437 58.4608 77.3472 58.4403 77.345ZM54.7453 58.595C54.2053 59.125 47.5403 65.735 47.4678 69.49C47.3953 73.245 57.6603 76.8125 58.4353 77.0775L62.5828 75.2575L65.9578 74.0075C64.1453 73.23 54.7603 69.155 52.7903 67.5375C52.6433 67.4147 52.5242 67.262 52.441 67.0896C52.3578 66.9171 52.3124 66.7289 52.3078 66.5375C52.1578 64.24 56.0203 59.8875 56.8653 58.965C55.3678 58.6975 54.8953 58.6225 54.7503 58.6025L54.7453 58.595Z" fill="#263238"/>
<path d="M46.9128 84.9075C46.896 84.9077 46.8794 84.9045 46.8639 84.8981C46.8484 84.8916 46.8344 84.8821 46.8228 84.87C46.8111 84.8584 46.8018 84.8445 46.7954 84.8293C46.7891 84.8141 46.7858 84.7977 46.7858 84.7812C46.7858 84.7647 46.7891 84.7484 46.7954 84.7332C46.8018 84.7179 46.8111 84.7041 46.8228 84.6925C46.8903 84.63 53.7003 78.245 65.8453 74.01C73.0633 71.5091 80.6488 70.2332 88.2878 70.235H88.4703C98.1128 70.235 108.105 72.175 118.173 76.0025C118.204 76.0141 118.229 76.0376 118.243 76.0678C118.257 76.0981 118.258 76.1326 118.247 76.1637C118.235 76.1949 118.211 76.2202 118.181 76.234C118.151 76.2478 118.116 76.2491 118.085 76.2375C95.2128 67.5425 77.1053 70.355 65.9403 74.2375C53.8403 78.4525 47.0628 84.805 46.9953 84.87C46.9738 84.8928 46.9441 84.9063 46.9128 84.9075Z" fill="#263238"/>
<path d="M119.25 108.75C119.216 108.75 119.184 108.736 119.16 108.712C119.033 108.58 106.07 95.3525 84.8152 87.9325C62.4952 80.145 26.6252 86.3 11.8152 96.59C11.7877 96.6088 11.7538 96.616 11.721 96.6099C11.6882 96.6039 11.6591 96.585 11.6402 96.5575C11.6213 96.5299 11.6141 96.496 11.6202 96.4632C11.6263 96.4304 11.6452 96.4014 11.6727 96.3825C19.2177 91.1325 32.0752 86.9425 46.0677 85.145C60.7102 83.2625 74.8677 84.195 84.9052 87.6975C106.22 95.135 119.218 108.405 119.348 108.537C119.359 108.549 119.369 108.563 119.375 108.578C119.381 108.593 119.385 108.61 119.385 108.626C119.385 108.643 119.381 108.659 119.375 108.674C119.369 108.69 119.359 108.703 119.348 108.715C119.335 108.727 119.319 108.737 119.303 108.743C119.286 108.749 119.268 108.751 119.25 108.75Z" fill="#263238"/>
<path d="M36.6428 102.5C34.0278 103.42 31.7078 104.212 29.6428 104.897C37.0478 108.36 46.4178 110.665 58.2178 111.91C60.8228 112.185 63.2578 112.377 65.5403 112.492C80.6003 101.492 87.4928 88.7425 87.4928 88.7425C88.0053 88.91 79.1053 84.9925 69.0653 84.6475C69.0578 84.65 56.5003 95.5225 36.6428 102.5Z" fill="#92E3A9"/>
<path d="M45.7678 123.235C45.7423 123.236 45.7173 123.228 45.6962 123.214C45.6752 123.199 45.6591 123.179 45.6503 123.155C45.6442 123.14 45.6413 123.123 45.6417 123.107C45.6421 123.09 45.6458 123.074 45.6525 123.059C45.6593 123.044 45.669 123.03 45.681 123.019C45.6931 123.007 45.7073 122.998 45.7228 122.993C60.6253 117.493 71.1578 108.465 77.3678 101.853C83.5778 95.24 86.8328 89.65 87.3128 88.7975C86.2378 88.34 78.2328 85.1025 69.1028 84.7775C68.3228 85.4375 55.8078 95.9 36.6853 102.618C17.2353 109.45 13.9628 109.368 9.82277 109.243C9.27527 109.228 8.71027 109.213 8.09027 109.213C8.05712 109.213 8.02532 109.199 8.00188 109.176C7.97844 109.152 7.96527 109.121 7.96527 109.088C7.96527 109.054 7.97844 109.023 8.00188 108.999C8.02532 108.976 8.05712 108.963 8.09027 108.963C8.71277 108.963 9.28027 108.978 9.84027 108.993C13.9578 109.108 17.2078 109.198 36.6153 102.38C56.2228 95.4925 68.8653 84.665 68.9878 84.5575C69.012 84.5364 69.0431 84.5249 69.0753 84.525C78.2353 84.8425 86.3603 88.0525 87.4978 88.62H87.5353C87.5978 88.6525 87.6328 88.675 87.6353 88.685C87.6448 88.7069 87.6478 88.7311 87.6438 88.7546C87.6398 88.7782 87.629 88.8 87.6128 88.8175C87.6041 88.8278 87.5929 88.8356 87.5803 88.84C87.2428 89.445 83.9803 95.175 77.5653 102.005C71.3353 108.64 60.7728 117.705 45.8153 123.21L45.7678 123.235Z" fill="#263238"/>
<path d="M93.6702 91.3174C98.3502 93.2099 103.613 88.62 103.238 83.73C102.875 78.98 96.9252 76.4075 93.1902 74.8375C83.2827 70.675 76.8227 71.3925 76.8227 71.3925C76.8227 71.3925 86.8702 69.5274 97.3527 70.8174C106.425 71.9349 115.868 77.425 119.708 86C121.773 90.61 121.855 95.73 121.458 100.682C121.013 106.285 119.248 108.617 119.248 108.617C119.248 108.617 106.608 98.4474 93.6702 91.3174Z" fill="#92E3A9"/>
<path d="M119.25 108.75C119.222 108.75 119.195 108.74 119.173 108.723C119.045 108.62 106.39 98.4726 93.6104 91.4351C93.5829 91.4194 93.5624 91.394 93.5529 91.3638C93.5434 91.3337 93.5457 91.301 93.5594 91.2725C93.573 91.244 93.5969 91.2217 93.6263 91.2101C93.6557 91.1985 93.6884 91.1985 93.7179 91.2101C95.7179 92.0201 97.9679 91.6701 99.9179 90.2526C102.075 88.6726 103.3 86.1801 103.115 83.7526C102.75 79.0001 96.7504 76.4651 93.1429 74.9551C83.3929 70.8526 76.8929 71.5101 76.8354 71.5176C76.8031 71.5205 76.7709 71.511 76.7453 71.491C76.7198 71.471 76.7028 71.4421 76.6979 71.4101C76.6935 71.378 76.7017 71.3455 76.7209 71.3194C76.74 71.2933 76.7685 71.2756 76.8004 71.27C76.9004 71.25 86.9879 69.4151 97.3679 70.6951C102.069 71.2934 106.576 72.9351 110.56 75.5001C114.793 78.2501 117.995 81.8601 119.823 85.9401C122.033 90.8776 121.925 96.4126 121.573 100.69C121.128 106.265 119.41 108.595 119.338 108.69C119.328 108.704 119.315 108.715 119.3 108.724C119.286 108.732 119.27 108.738 119.253 108.74L119.25 108.75ZM94.7254 91.7726C106.56 98.4401 118.005 107.475 119.225 108.443C119.56 107.928 120.953 105.528 121.338 100.68C121.678 96.4301 121.785 90.9426 119.588 86.0576C116.088 78.2301 107.135 72.1575 97.3379 70.95C89.6079 69.9975 82.0354 70.7801 78.6679 71.2426C81.2779 71.3201 86.4854 71.8901 93.2429 74.7301C96.8879 76.2626 102.993 78.8301 103.365 83.7301C103.558 86.2501 102.295 88.8276 100.068 90.4551C98.4029 91.6626 96.5004 92.1176 94.7254 91.7651V91.7726Z" fill="#263238"/>
<path d="M77.0004 73.2226C76.9022 73.2226 76.8079 73.1841 76.7378 73.1154C76.6677 73.0467 76.6273 72.9532 76.6254 72.8551L75.6604 24.8301C75.6584 24.7306 75.696 24.6344 75.7649 24.5627C75.8338 24.491 75.9284 24.4496 76.0279 24.4476C76.1273 24.4456 76.2235 24.4832 76.2952 24.5521C76.367 24.621 76.4084 24.7156 76.4104 24.8151L77.3754 72.8401C77.3767 72.8894 77.3682 72.9385 77.3504 72.9845C77.3326 73.0306 77.3058 73.0726 77.2716 73.1082C77.2374 73.1438 77.1965 73.1722 77.1512 73.1918C77.106 73.2115 77.0572 73.2219 77.0079 73.2226H77.0004Z" fill="#263238"/>
<path d="M82.4228 30.92L86.9103 33.47L85.3803 35.655L86.4978 38.485L80.5253 36.6125L82.4228 30.92Z" fill="#27AE60"/>
<path d="M86.5003 38.61C86.4879 38.6125 86.4752 38.6125 86.4628 38.61L80.5003 36.7325C80.4845 36.7276 80.47 36.7196 80.4575 36.7088C80.445 36.6981 80.4349 36.6849 80.4278 36.67C80.4205 36.6548 80.4167 36.6382 80.4167 36.6213C80.4167 36.6044 80.4205 36.5877 80.4278 36.5725L82.3253 30.88C82.3312 30.8627 82.3408 30.8469 82.3532 30.8335C82.3657 30.8202 82.3809 30.8096 82.3978 30.8025C82.4147 30.7952 82.433 30.7914 82.4515 30.7914C82.47 30.7914 82.4883 30.7952 82.5053 30.8025L86.9928 33.3525C87.0079 33.3614 87.0211 33.3733 87.0314 33.3875C87.0417 33.4017 87.049 33.4179 87.0528 33.435C87.0564 33.4518 87.0566 33.4691 87.0531 33.4859C87.0497 33.5027 87.0427 33.5186 87.0328 33.5325L85.5328 35.6625L86.6253 38.4325C86.6337 38.4544 86.6358 38.4781 86.6314 38.5011C86.627 38.5241 86.6162 38.5454 86.6003 38.5625C86.5885 38.5777 86.5733 38.59 86.5559 38.5982C86.5386 38.6065 86.5195 38.6105 86.5003 38.61ZM80.6878 36.5325L86.2878 38.2825L85.2678 35.695C85.2604 35.6758 85.2577 35.6552 85.2599 35.6348C85.2621 35.6144 85.269 35.5947 85.2803 35.5775L86.7328 33.505L82.5003 31.1025L80.6878 36.5325Z" fill="#263238"/>
<path d="M82.1978 35.985L80.5253 36.6125L82.4228 30.92L82.1978 35.985Z" fill="#263238"/>
<path d="M80.5252 36.75C80.5052 36.7504 80.4854 36.746 80.4676 36.737C80.4497 36.7281 80.4344 36.7149 80.4228 36.6986C80.4112 36.6823 80.4038 36.6635 80.4011 36.6437C80.3985 36.6239 80.4007 36.6037 80.4077 36.585L82.3052 30.8925C82.3081 30.8761 82.3143 30.8604 82.3233 30.8464C82.3323 30.8324 82.344 30.8202 82.3577 30.8107C82.3714 30.8012 82.3868 30.7945 82.4031 30.7909C82.4194 30.7874 82.4363 30.7871 82.4527 30.79C82.4691 30.793 82.4848 30.7991 82.4988 30.8081C82.5128 30.8172 82.525 30.8288 82.5345 30.8425C82.544 30.8562 82.5507 30.8717 82.5543 30.888C82.5578 30.9043 82.5581 30.9211 82.5552 30.9375L82.3302 36.005C82.3292 36.0292 82.3211 36.0526 82.3068 36.0721C82.2926 36.0917 82.2729 36.1066 82.2502 36.115L80.5777 36.7425C80.5608 36.7483 80.543 36.7508 80.5252 36.75ZM82.2502 31.8075L80.7202 36.405L82.0702 35.905L82.2502 31.8075Z" fill="#263238"/>
<path d="M76.2128 25.5901L82.7378 28.3676L82.1978 35.9851L76.3753 33.8776L76.2128 25.5901Z" fill="#27AE60"/>
<path d="M82.1978 36.11H82.1553L76.3303 34C76.3069 33.9909 76.2867 33.9751 76.272 33.9547C76.2574 33.9343 76.249 33.9101 76.2478 33.885L76.0878 25.5975C76.0876 25.5768 76.0925 25.5564 76.1021 25.5381C76.1117 25.5198 76.1257 25.5041 76.1428 25.4925C76.1613 25.4827 76.1819 25.4775 76.2028 25.4775C76.2237 25.4775 76.2443 25.4827 76.2628 25.4925L82.7878 28.25C82.8123 28.2597 82.8329 28.2772 82.8465 28.2998C82.86 28.3224 82.8658 28.3488 82.8628 28.375L82.3228 36C82.3221 36.0191 82.3167 36.0378 82.3071 36.0543C82.2975 36.0709 82.284 36.0849 82.2678 36.095C82.2465 36.107 82.2221 36.1123 82.1978 36.11ZM76.5003 33.7875L82.0878 35.8125L82.6103 28.4475L76.3428 25.7825L76.5003 33.7875Z" fill="#263238"/>
<path d="M52.5653 59.6075C52.499 59.6075 52.4354 59.5812 52.3885 59.5343C52.3416 59.4874 52.3153 59.4238 52.3153 59.3575L51.7503 39.205C51.7483 39.1387 51.7727 39.0744 51.8182 39.0261C51.8637 38.9778 51.9265 38.9495 51.9928 38.9475C52.0591 38.9456 52.1234 38.97 52.1717 39.0155C52.22 39.0609 52.2483 39.1237 52.2503 39.19L52.8103 59.35C52.8103 59.4163 52.7839 59.4799 52.737 59.5268C52.6902 59.5737 52.6266 59.6 52.5603 59.6L52.5653 59.6075Z" fill="#263238"/>
<path d="M54.7103 41.7376L56.6528 43.0351L55.9678 43.7151L56.6803 44.7876L53.9328 44.1326L54.7103 41.7376Z" fill="#27AE60"/>
<path d="M56.6828 44.9126H56.6528L53.9028 44.2601C53.8861 44.2561 53.8703 44.2487 53.8565 44.2383C53.8428 44.2279 53.8313 44.2148 53.8228 44.1998C53.8144 44.1847 53.8091 44.1681 53.8074 44.151C53.8057 44.1338 53.8075 44.1165 53.8128 44.1001L54.5903 41.7026C54.5962 41.6844 54.6062 41.6679 54.6197 41.6545C54.6332 41.641 54.6497 41.6309 54.6678 41.6251C54.686 41.6189 54.7052 41.6169 54.7242 41.619C54.7432 41.6212 54.7616 41.6275 54.7778 41.6376L56.7178 42.9351C56.733 42.9456 56.7456 42.9592 56.755 42.975C56.7644 42.9908 56.7702 43.0085 56.7721 43.0267C56.774 43.045 56.7719 43.0635 56.766 43.0809C56.7601 43.0983 56.7505 43.1142 56.7378 43.1276L56.1278 43.7351L56.7828 44.7351C56.7968 44.7558 56.8043 44.7801 56.8043 44.8051C56.8043 44.83 56.7968 44.8544 56.7828 44.8751C56.77 44.8883 56.7543 44.8986 56.737 44.9051C56.7198 44.9115 56.7012 44.9141 56.6828 44.9126ZM54.0953 44.0426L56.4028 44.5926L55.8653 43.7851C55.8486 43.7609 55.841 43.7316 55.8437 43.7024C55.8465 43.6731 55.8594 43.6457 55.8803 43.6251L56.4553 43.0526L54.7803 41.9326L54.0953 44.0426Z" fill="#263238"/>
<path d="M54.6328 43.8651L53.9328 44.1326L54.7103 41.7376L54.6328 43.8651Z" fill="#263238"/>
<path d="M53.9327 44.25C53.9012 44.2508 53.8707 44.2391 53.8477 44.2175C53.8308 44.201 53.8188 44.1801 53.813 44.1572C53.8073 44.1342 53.8081 44.1101 53.8152 44.0876L54.5927 41.69C54.6024 41.6619 54.6218 41.6381 54.6475 41.6229C54.6732 41.6078 54.7034 41.6024 54.7327 41.6075C54.7625 41.6124 54.7895 41.6282 54.8084 41.6517C54.8273 41.6752 54.8369 41.7049 54.8352 41.735L54.7577 43.8625C54.7573 43.8872 54.7494 43.9111 54.7351 43.9311C54.7208 43.9512 54.7008 43.9665 54.6777 43.975L53.9777 44.2425C53.9632 44.2474 53.9481 44.25 53.9327 44.25ZM54.5527 42.62L54.1327 43.9151L54.5127 43.77L54.5527 42.62Z" fill="#263238"/>
<path d="M52.0878 39.5201L54.8578 40.7226L54.6328 43.8651L52.1803 42.9976L52.0878 39.5201Z" fill="#27AE60"/>
<path d="M54.6327 44.0001C54.6195 44.0024 54.6059 44.0024 54.5927 44.0001L52.1402 43.1326C52.1164 43.1247 52.0957 43.1097 52.0809 43.0895C52.0661 43.0694 52.058 43.0451 52.0577 43.0201L51.9627 39.5401C51.9617 39.5193 51.9663 39.4986 51.976 39.4801C51.9856 39.4617 52 39.4461 52.0177 39.4351C52.036 39.4248 52.0567 39.4194 52.0777 39.4194C52.0987 39.4194 52.1194 39.4248 52.1377 39.4351L54.9077 40.6376C54.9317 40.6472 54.952 40.6643 54.9655 40.6863C54.979 40.7084 54.9851 40.7343 54.9827 40.7601L54.7577 43.9026C54.7565 43.9219 54.751 43.9408 54.7415 43.9577C54.7319 43.9746 54.7187 43.9891 54.7027 44.0001C54.6798 44.0062 54.6556 44.0062 54.6327 44.0001ZM52.3052 42.9201L54.5202 43.7026L54.7277 40.8126L52.2277 39.7226L52.3052 42.9201Z" fill="#263238"/>
<path d="M69.4027 62.1525C69.3701 62.1519 69.3391 62.1389 69.3158 62.1161C69.2926 62.0933 69.2789 62.0625 69.2777 62.03L68.8652 48.96C68.8645 48.9273 68.8767 48.8956 68.8991 48.8717C68.9216 48.8479 68.9525 48.8338 68.9852 48.8325C69.0018 48.8311 69.0184 48.8332 69.0342 48.8386C69.0499 48.844 69.0643 48.8526 69.0766 48.8639C69.0888 48.8752 69.0985 48.8889 69.1052 48.9041C69.1118 48.9194 69.1152 48.9359 69.1152 48.9525L69.5277 62.0225C69.5283 62.0389 69.5258 62.0553 69.5201 62.0707C69.5144 62.0862 69.5058 62.1003 69.4946 62.1124C69.4835 62.1245 69.4701 62.1342 69.4551 62.1411C69.4402 62.148 69.4241 62.1519 69.4077 62.1525H69.4027Z" fill="#263238"/>
<path d="M70.9828 50.8276L72.4103 51.7826L71.9078 52.2826L72.4328 53.0701L70.4103 52.5901L70.9828 50.8276Z" fill="#27AE60"/>
<path d="M72.4327 53.1975H72.4052L70.3802 52.7175C70.3469 52.7083 70.3184 52.6868 70.3002 52.6575C70.2934 52.6417 70.2899 52.6247 70.2899 52.6075C70.2899 52.5903 70.2934 52.5733 70.3002 52.5575L70.8727 50.7925C70.8789 50.7739 70.8894 50.757 70.9033 50.7431C70.9172 50.7293 70.9341 50.7188 70.9527 50.7125C70.9709 50.7064 70.9903 50.7045 71.0094 50.7071C71.0285 50.7097 71.0467 50.7167 71.0627 50.7275L72.4902 51.6825C72.506 51.6924 72.5193 51.706 72.5289 51.7221C72.5384 51.7382 72.544 51.7563 72.5452 51.775C72.5465 51.7932 72.5441 51.8115 72.5381 51.8287C72.5321 51.8459 72.5226 51.8616 72.5102 51.875L72.0802 52.3025L72.5477 53.0075C72.5616 53.0282 72.5691 53.0526 72.5691 53.0775C72.5691 53.1025 72.5616 53.1268 72.5477 53.1475C72.5348 53.1654 72.5173 53.1795 72.497 53.1883C72.4768 53.1971 72.4546 53.2003 72.4327 53.1975ZM70.5702 52.5L72.1527 52.875L71.8027 52.3525C71.7867 52.3279 71.7798 52.2985 71.783 52.2694C71.7862 52.2403 71.7993 52.2131 71.8202 52.1925L72.2152 51.8L71.0502 51.0225L70.5702 52.5Z" fill="#263238"/>
<path d="M70.9253 52.3926L70.4103 52.5901L70.9828 50.8276L70.9253 52.3926Z" fill="#92E3A9"/>
<path d="M70.4102 52.7151C70.3777 52.7148 70.3465 52.7023 70.3227 52.6801C70.3057 52.6641 70.2936 52.6437 70.2879 52.6211C70.2821 52.5985 70.2829 52.5747 70.2902 52.5526L70.8627 50.7876C70.8683 50.7544 70.8869 50.7249 70.9143 50.7054C70.9418 50.686 70.9758 50.6782 71.009 50.6838C71.0421 50.6895 71.0717 50.7081 71.0911 50.7355C71.1106 50.7629 71.1183 50.7969 71.1127 50.8301L71.0552 52.3976C71.0541 52.422 71.0459 52.4457 71.0317 52.4656C71.0176 52.4856 70.9979 52.501 70.9752 52.5101L70.4602 52.7076L70.4102 52.7151ZM70.8252 51.7176L70.6102 52.3801L70.8027 52.3051L70.8252 51.7176Z" fill="#263238"/>
<path d="M69.0502 49.195L71.0902 50.08L70.9252 52.3925L69.1202 51.755L69.0502 49.195Z" fill="#27AE60"/>
<path d="M70.9253 52.5176H70.8828L69.0778 51.8801C69.0527 51.8695 69.0316 51.8512 69.0177 51.8278C69.0038 51.8044 68.9977 51.7772 69.0003 51.75L68.9303 49.19C68.9303 49.1691 68.9353 49.1484 68.9449 49.1297C68.9544 49.111 68.9683 49.0948 68.9853 49.0826C69.0038 49.0727 69.0244 49.0676 69.0453 49.0676C69.0663 49.0676 69.0869 49.0727 69.1053 49.0826L71.1453 49.9675C71.1694 49.9771 71.1897 49.9943 71.2032 50.0163C71.2167 50.0384 71.2227 50.0643 71.2203 50.09L71.0553 52.405C71.054 52.424 71.0483 52.4424 71.0388 52.4589C71.0293 52.4754 71.0161 52.4894 71.0003 52.5C70.9774 52.5127 70.9515 52.5187 70.9253 52.5176ZM69.2503 51.6651L70.8203 52.2201L70.9678 50.1576L69.1878 49.3876L69.2503 51.6651Z" fill="#263238"/>
<path d="M88.7052 92.9275C88.5726 92.9275 88.4454 92.8749 88.3517 92.7811C88.2579 92.6873 88.2052 92.5602 88.2052 92.4275L88.7652 12.44C88.7652 12.3074 88.8179 12.1803 88.9117 12.0865C89.0054 11.9927 89.1326 11.94 89.2652 11.94C89.3978 11.94 89.525 11.9927 89.6188 12.0865C89.7126 12.1803 89.7652 12.3074 89.7652 12.44L89.2052 92.44C89.202 92.5705 89.1479 92.6945 89.0544 92.7855C88.961 92.8766 88.8357 92.9276 88.7052 92.9275Z" fill="#263238"/>
<path d="M97.6503 20.8575L103.715 25.2175L101.455 27.32L103.62 30.8275L95.9228 29.83L97.6503 20.8575Z" fill="#27AE60"/>
<path d="M103.62 30.95H103.605L95.9077 29.95C95.8907 29.9484 95.8744 29.943 95.8597 29.9344C95.845 29.9258 95.8324 29.914 95.8227 29.9C95.8027 29.8717 95.7947 29.8367 95.8002 29.8025L97.5252 20.83C97.5295 20.8094 97.5388 20.7902 97.5523 20.774C97.5658 20.7579 97.5831 20.7454 97.6027 20.7375C97.6224 20.7299 97.6436 20.7273 97.6646 20.7299C97.6855 20.7325 97.7055 20.7403 97.7227 20.7525L103.788 25.115C103.803 25.1255 103.815 25.1393 103.825 25.1553C103.834 25.1713 103.839 25.1892 103.84 25.2075C103.841 25.2261 103.838 25.2448 103.832 25.2621C103.825 25.2794 103.814 25.2949 103.8 25.3075L101.615 27.34L103.728 30.75C103.741 30.7702 103.747 30.7936 103.747 30.8175C103.747 30.8415 103.741 30.8649 103.728 30.885C103.717 30.9044 103.702 30.9206 103.683 30.932C103.664 30.9434 103.642 30.9497 103.62 30.95ZM96.0727 29.7225L103.378 30.6675L101.35 27.385C101.335 27.3605 101.328 27.3314 101.332 27.3027C101.336 27.274 101.349 27.2474 101.37 27.2275L103.518 25.2275L97.7352 21.0725L96.0727 29.7225Z" fill="#263238"/>
<path d="M100.24 29.4325L95.9228 29.83L97.6503 20.8575L100.24 29.4325Z" fill="#263238"/>
<path d="M95.9228 29.955C95.9052 29.9548 95.8879 29.951 95.872 29.9436C95.8561 29.9363 95.8418 29.9257 95.8303 29.9125C95.8173 29.8982 95.8078 29.881 95.8026 29.8623C95.7974 29.8437 95.7966 29.8241 95.8003 29.805L97.5253 20.8325C97.5312 20.8053 97.546 20.7808 97.5672 20.7627C97.5884 20.7447 97.6149 20.7341 97.6428 20.7325C97.6703 20.7313 97.6976 20.7392 97.7202 20.755C97.7428 20.7708 97.7595 20.7937 97.7678 20.82L100.36 29.395C100.365 29.4131 100.367 29.4322 100.364 29.4507C100.361 29.4693 100.353 29.487 100.343 29.5025C100.332 29.5177 100.318 29.5304 100.302 29.5399C100.286 29.5493 100.269 29.5554 100.25 29.5575L95.9353 29.955H95.9228ZM97.6728 21.3775L96.0753 29.69L100.075 29.3225L97.6728 21.3775Z" fill="#263238"/>
<path d="M89.4929 13.48L101.04 19.265L100.24 29.4325L89.4179 24.6175L89.4929 13.48Z" fill="#27AE60"/>
<path d="M100.25 29.5575C100.233 29.561 100.215 29.561 100.198 29.5575L89.3679 24.73C89.3457 24.72 89.3269 24.7039 89.3136 24.6835C89.3003 24.6631 89.2931 24.6394 89.2929 24.615L89.3679 13.48C89.3677 13.4585 89.3732 13.4372 89.3837 13.4184C89.3942 13.3995 89.4094 13.3837 89.4279 13.3725C89.4463 13.3627 89.4669 13.3575 89.4879 13.3575C89.5088 13.3575 89.5294 13.3627 89.5479 13.3725L101.098 19.1575C101.12 19.1686 101.139 19.1863 101.151 19.2082C101.163 19.2301 101.168 19.2552 101.165 19.28L100.365 29.4475C100.363 29.4674 100.356 29.4865 100.345 29.5033C100.334 29.5202 100.32 29.5344 100.303 29.545C100.286 29.5526 100.269 29.5569 100.25 29.5575ZM89.5454 24.535L100.128 29.25L100.91 19.3425L89.6154 13.6825L89.5454 24.535Z" fill="#263238"/>
<path d="M58.9451 15.7349H36.3976C36.3757 15.7353 36.3541 15.7297 36.3352 15.7187C36.3162 15.7077 36.3006 15.6917 36.2901 15.6724C36.2796 15.6537 36.2741 15.6326 36.2741 15.6112C36.2741 15.5897 36.2796 15.5686 36.2901 15.5499C36.3326 15.4749 37.3126 13.7299 38.7126 12.9299C39.5751 12.4299 40.9801 12.8074 42.1051 13.1049C42.7701 13.2799 43.4576 13.4599 43.6526 13.3299C43.8215 13.1531 43.948 12.9403 44.0226 12.7074C44.3926 11.8774 45.0226 10.4874 47.4401 9.77744C48.7276 9.40244 49.7126 9.81994 50.5026 10.1549C51.2926 10.4899 51.8101 10.7074 52.3401 10.1799C52.5847 9.91905 52.8143 9.64443 53.0276 9.35744C53.4257 8.82425 53.8645 8.32275 54.3401 7.85744C54.3521 7.84611 54.3662 7.83726 54.3816 7.83138C54.397 7.8255 54.4134 7.82271 54.4299 7.82318C54.4464 7.82364 54.4626 7.82735 54.4777 7.83408C54.4927 7.84082 54.5063 7.85046 54.5176 7.86244C54.529 7.87442 54.5378 7.88852 54.5437 7.90392C54.5496 7.91933 54.5524 7.93574 54.5519 7.95222C54.5514 7.96871 54.5477 7.98494 54.541 7.99999C54.5343 8.01504 54.5246 8.02861 54.5126 8.03994C54.0455 8.49712 53.615 8.9903 53.2251 9.51494C53.0053 9.81034 52.7682 10.0925 52.5151 10.3599C51.8701 11.0049 51.1901 10.7199 50.4051 10.3874C49.6201 10.0549 48.7126 9.66994 47.5101 10.0199C45.1926 10.6974 44.6276 11.9699 44.2601 12.8124C44.1721 13.0911 44.0126 13.3419 43.7976 13.5399C43.5101 13.7324 42.8976 13.5724 42.0476 13.3474C40.9651 13.0624 39.6151 12.7049 38.8426 13.1499C37.7651 13.7649 36.9176 15.0149 36.6251 15.4874H58.9526C58.9858 15.4874 59.0176 15.5006 59.041 15.5241C59.0645 15.5475 59.0776 15.5793 59.0776 15.6124C59.0773 15.6293 59.0736 15.6459 59.0667 15.6613C59.0598 15.6767 59.0499 15.6905 59.0375 15.7019C59.0251 15.7134 59.0106 15.7222 58.9947 15.7279C58.9788 15.7336 58.962 15.736 58.9451 15.7349Z" fill="#263238"/>
<path d="M75.3778 15.735H61.4803C61.4471 15.735 61.4154 15.7218 61.3919 15.6983C61.3685 15.6749 61.3553 15.6431 61.3553 15.61C61.3553 15.5768 61.3685 15.545 61.3919 15.5216C61.4154 15.4981 61.4471 15.485 61.4803 15.485H75.2153C75.0278 14.825 74.1928 12.235 72.3653 11.5725C70.8828 11.0325 70.1153 11.88 69.5428 12.5C69.3662 12.7337 69.141 12.9265 68.8828 13.065C68.7797 13.1157 68.6664 13.1421 68.5515 13.1421C68.4367 13.1421 68.3234 13.1157 68.2203 13.065C68.1475 13.0216 68.0844 12.9637 68.0349 12.8949C67.9855 12.826 67.9507 12.7478 67.9328 12.665C67.9103 12.6175 64.9328 5.45745 59.9528 5.84245C58.5757 5.91198 57.2306 6.28323 56.0128 6.92995C55.9839 6.94615 55.9498 6.95024 55.918 6.94134C55.8861 6.93243 55.8591 6.91126 55.8428 6.88245C55.8344 6.86825 55.829 6.85251 55.8269 6.83617C55.8248 6.81982 55.826 6.80322 55.8304 6.78735C55.8348 6.77148 55.8424 6.75666 55.8527 6.74379C55.863 6.73092 55.8758 6.72026 55.8903 6.71245C57.1396 6.04775 58.5196 5.66542 59.9328 5.59245C65.1128 5.19745 68.1428 12.5225 68.1828 12.5925C68.1935 12.6435 68.2143 12.6919 68.2439 12.7348C68.2735 12.7777 68.3114 12.8143 68.3553 12.8425C68.4273 12.8716 68.5046 12.8851 68.5822 12.8821C68.6598 12.8791 68.7358 12.8596 68.8053 12.825C69.0236 12.6956 69.2154 12.526 69.3703 12.325C69.9478 11.6925 70.8203 10.735 72.4628 11.325C74.6753 12.13 75.4753 15.43 75.5078 15.575C75.5123 15.593 75.5126 15.6119 75.5087 15.63C75.5048 15.6482 75.4968 15.6653 75.4853 15.68C75.4733 15.6973 75.4572 15.7114 75.4385 15.721C75.4197 15.7306 75.3989 15.7354 75.3778 15.735Z" fill="#263238"/>
<path d="M108.955 46.8724H94.4702C94.4483 46.8723 94.4269 46.8665 94.4081 46.8555C94.3892 46.8445 94.3736 46.8288 94.3627 46.8099C94.3521 46.7912 94.3466 46.7701 94.3466 46.7487C94.3466 46.7272 94.3521 46.7061 94.3627 46.6874C94.3877 46.6449 94.9352 45.6674 95.7227 45.2174C96.2227 44.9349 97.0052 45.1424 97.6402 45.3099C97.9602 45.3949 98.3602 45.4999 98.4477 45.4424C98.53 45.3491 98.5929 45.2403 98.6327 45.1224C98.8402 44.6549 99.1902 43.8724 100.555 43.4724C101.285 43.2599 101.84 43.4949 102.285 43.6824C102.73 43.8699 102.985 43.9624 103.238 43.7074C103.371 43.5659 103.497 43.4165 103.613 43.2599C103.874 42.9032 104.173 42.5747 104.503 42.2799C104.526 42.2569 104.558 42.244 104.591 42.244C104.625 42.244 104.656 42.2569 104.68 42.2799C104.692 42.2913 104.701 42.3049 104.707 42.32C104.714 42.335 104.717 42.3511 104.717 42.3674C104.717 42.3837 104.714 42.3999 104.707 42.4149C104.701 42.4299 104.692 42.4435 104.68 42.4549C104.363 42.7398 104.075 43.0565 103.823 43.3999C103.7 43.5649 103.568 43.7227 103.428 43.8724C103.043 44.2574 102.633 44.0824 102.2 43.8999C101.768 43.7174 101.283 43.5124 100.638 43.6999C99.3877 44.0649 99.0752 44.7549 98.8727 45.1999C98.8227 45.3653 98.7274 45.5134 98.5977 45.6274C98.4177 45.7474 98.0702 45.6549 97.5977 45.5274C97.0102 45.3724 96.2777 45.1799 95.8702 45.4124C95.4041 45.7188 95.0114 46.1242 94.7202 46.5999H108.97C109.003 46.5999 109.035 46.6131 109.059 46.6365C109.082 46.66 109.095 46.6918 109.095 46.7249C109.095 46.7581 109.082 46.7899 109.059 46.8133C109.035 46.8368 109.003 46.8499 108.97 46.8499L108.955 46.8724Z" fill="#263238"/>
<path d="M116 46.8724H110.138C110.104 46.8724 110.073 46.8593 110.049 46.8358C110.026 46.8124 110.013 46.7806 110.013 46.7474C110.013 46.7143 110.026 46.6825 110.049 46.659C110.073 46.6356 110.104 46.6224 110.138 46.6224H115.838C115.703 46.1799 115.248 44.9074 114.32 44.5699C113.533 44.2849 113.138 44.7174 112.82 45.0699C112.717 45.2064 112.584 45.3183 112.433 45.3974C112.368 45.4286 112.298 45.4448 112.226 45.4448C112.155 45.4448 112.084 45.4286 112.02 45.3974C111.974 45.3705 111.934 45.3344 111.902 45.2914C111.87 45.2484 111.847 45.1995 111.835 45.1474C111.835 45.1299 110.21 41.2074 107.485 41.4224C106.904 41.46 106.333 41.5865 105.79 41.7974C105.775 41.8039 105.759 41.8074 105.742 41.8075C105.726 41.8076 105.71 41.8044 105.695 41.7981C105.679 41.7918 105.666 41.7825 105.654 41.7708C105.643 41.7591 105.634 41.7452 105.628 41.7299C105.621 41.7149 105.618 41.6986 105.618 41.6822C105.618 41.6658 105.621 41.6496 105.627 41.6344C105.633 41.6192 105.643 41.6055 105.654 41.594C105.666 41.5825 105.68 41.5735 105.695 41.5674C106.262 41.346 106.86 41.2128 107.468 41.1724C110.358 40.9499 112.005 44.9074 112.073 45.0774C112.082 45.1228 112.108 45.163 112.145 45.1899C112.211 45.2111 112.283 45.2057 112.345 45.1749C112.457 45.1104 112.555 45.0256 112.635 44.9249C112.965 44.5649 113.463 44.0199 114.405 44.3624C115.655 44.8174 116.105 46.6674 116.123 46.7474C116.127 46.7655 116.127 46.7843 116.124 46.8025C116.12 46.8207 116.112 46.8378 116.1 46.8524C116.086 46.8625 116.069 46.8694 116.052 46.8729C116.035 46.8763 116.017 46.8762 116 46.8724Z" fill="#263238"/>
<path d="M67.1127 53.3775H54.5002C54.4781 53.3773 54.4564 53.3714 54.4371 53.3605C54.4179 53.3496 54.4017 53.3339 54.3902 53.315C54.3792 53.296 54.3735 53.2744 54.3735 53.2525C54.3735 53.2305 54.3792 53.209 54.3902 53.19C54.5889 52.8366 54.8681 52.5351 55.2052 52.31C55.5152 52.1325 55.9877 52.2575 56.3677 52.3575C56.5088 52.406 56.6562 52.4338 56.8052 52.44C56.8401 52.3895 56.8686 52.3349 56.8902 52.2775C56.9845 52.0271 57.1401 51.8043 57.3428 51.6296C57.5455 51.4549 57.7887 51.3339 58.0502 51.2775C58.4026 51.1851 58.7769 51.2298 59.0977 51.4025C59.3727 51.5175 59.4802 51.5475 59.5977 51.4275C59.6747 51.3489 59.7466 51.2654 59.8127 51.1775C60.069 50.8017 60.411 50.4923 60.8105 50.275C61.21 50.0576 61.6555 49.9385 62.1102 49.9275C63.8602 49.795 64.8227 52.1475 64.8602 52.2475V52.27C64.8802 52.2925 64.9027 52.295 64.9477 52.27C65.0043 52.2309 65.0548 52.1837 65.0977 52.13C65.2877 51.9225 65.5977 51.5725 66.1902 51.785C66.9402 52.0625 67.2177 53.1725 67.2302 53.22C67.2344 53.2386 67.2343 53.2579 67.23 53.2766C67.2256 53.2952 67.2172 53.3126 67.2052 53.3275C67.1945 53.3421 67.1806 53.3542 67.1646 53.3629C67.1486 53.3715 67.1309 53.3765 67.1127 53.3775ZM54.7202 53.1275H66.9452C66.8502 52.8325 66.5902 52.2 66.1102 52.0225C65.6827 51.8675 65.4727 52.0975 65.2877 52.3C65.2205 52.3866 65.1352 52.4574 65.0377 52.5075C64.9932 52.5286 64.9445 52.5395 64.8952 52.5395C64.8459 52.5395 64.7973 52.5286 64.7527 52.5075C64.6887 52.4684 64.6415 52.4069 64.6202 52.335C64.5627 52.195 63.6202 50.065 62.1202 50.1775C61.7 50.1853 61.2879 50.2943 60.9188 50.4954C60.5497 50.6965 60.2346 50.9836 60.0002 51.3325C59.928 51.4315 59.8495 51.5259 59.7652 51.615C59.5152 51.865 59.2477 51.7525 58.9877 51.6425C58.7191 51.4952 58.4051 51.4542 58.1077 51.5275C57.8823 51.5746 57.6725 51.678 57.4977 51.8279C57.3229 51.9778 57.1887 52.1694 57.1077 52.385C57.0754 52.4906 57.0128 52.5845 56.9277 52.655C56.8027 52.74 56.6002 52.685 56.2952 52.605C55.9902 52.525 55.5452 52.4075 55.3202 52.5325C55.0806 52.6863 54.8761 52.8891 54.7202 53.1275Z" fill="#263238"/>
<path d="M23.4127 34.5299H10.7902C10.7685 34.5293 10.7473 34.5233 10.7285 34.5124C10.7097 34.5014 10.694 34.486 10.6827 34.4674C10.6717 34.4484 10.666 34.4269 10.666 34.4049C10.666 34.383 10.6717 34.3614 10.6827 34.3424C10.8821 33.9888 11.1622 33.6873 11.5002 33.4624C11.8102 33.2849 12.2827 33.4099 12.6627 33.5099C12.8038 33.5585 12.9511 33.5863 13.1002 33.5924C13.1351 33.5419 13.1636 33.4874 13.1852 33.4299C13.2795 33.1795 13.4351 32.9568 13.6378 32.7821C13.8404 32.6074 14.0837 32.4863 14.3452 32.4299C14.6976 32.3376 15.0719 32.3823 15.3927 32.5549C15.6677 32.6699 15.7752 32.6999 15.8927 32.5799C15.9696 32.5013 16.0414 32.4178 16.1077 32.3299C16.3639 31.9542 16.706 31.6448 17.1055 31.4274C17.505 31.2101 17.9505 31.091 18.4052 31.0799C20.1552 30.9474 21.1177 33.2999 21.1552 33.3999C21.1564 33.4074 21.1564 33.415 21.1552 33.4224C21.1752 33.4449 21.2002 33.4474 21.2427 33.4224C21.3003 33.3847 21.3511 33.3373 21.3927 33.2824C21.5827 33.0749 21.8927 32.7249 22.4877 32.9399C23.2377 33.2149 23.5152 34.3249 23.5277 34.3724C23.5319 34.3911 23.5318 34.4104 23.5274 34.429C23.5231 34.4476 23.5147 34.465 23.5027 34.4799C23.4922 34.4943 23.4788 34.5062 23.4632 34.5148C23.4477 34.5235 23.4304 34.5286 23.4127 34.5299ZM11.0202 34.2799H23.2502C23.1552 33.9849 22.8952 33.3524 22.4127 33.1749C21.9852 33.0199 21.7752 33.2499 21.5902 33.4524C21.524 33.54 21.4385 33.611 21.3402 33.6599C21.2952 33.6809 21.2461 33.6918 21.1965 33.6918C21.1468 33.6918 21.0977 33.6809 21.0527 33.6599C20.9884 33.6217 20.9417 33.5598 20.9227 33.4874C20.8627 33.3474 19.9427 31.2174 18.4227 31.3299C18.0024 31.3373 17.5901 31.4462 17.221 31.6473C16.8518 31.8484 16.5368 32.1358 16.3027 32.4849C16.2256 32.5845 16.1421 32.6788 16.0527 32.7674C15.8027 33.0174 15.5377 32.9049 15.2777 32.7949C15.0091 32.6479 14.6951 32.6069 14.3977 32.6799C14.1723 32.7271 13.9625 32.8304 13.7876 32.9803C13.6128 33.1302 13.4787 33.3219 13.3977 33.5374C13.3654 33.6431 13.3028 33.737 13.2177 33.8074C13.0927 33.8924 12.8902 33.8374 12.5827 33.7574C12.2752 33.6774 11.8327 33.5574 11.6102 33.6849C11.3742 33.8399 11.1732 34.0426 11.0202 34.2799Z" fill="#263238"/>
<path d="M38.1948 26.5C38.4794 27.2428 38.7083 28.0057 38.8798 28.7825C38.9923 29.5525 39.3148 29.97 39.2273 30.1975C39.1398 30.425 38.8573 30.9475 38.8573 31.11C39.0516 31.7942 39.2973 32.4628 39.5923 33.11C39.8198 33.595 39.1648 33.7375 38.9648 34.0225C38.7648 34.3075 38.7148 34.965 38.6223 35.7925C38.5298 36.62 38.7923 37.0775 38.5948 37.505C38.3973 37.9325 37.1098 37.99 36.5673 37.8475C36.272 37.7813 35.9974 37.644 35.7673 37.4475L35.5973 38.1625C34.7571 37.5113 33.8484 36.9539 32.8873 36.5C31.7039 36.0282 30.4934 35.6275 29.2623 35.3L29.4048 33.7025C29.4048 33.7025 27.8923 31.4525 27.2923 29.565C26.6923 27.6775 27.7773 25.54 28.4048 24.7125C29.0323 23.885 32.1548 23.2575 33.7423 23.23C35.3298 23.2025 37.8798 24.4275 37.9923 24.455C38.1048 24.4825 39.0773 24.2275 39.1048 24.6C39.0943 24.8985 39.0165 25.1908 38.8773 25.455C38.8773 25.455 40.1048 24.885 39.9898 25.54C39.8748 26.195 38.4498 26.5725 38.1948 26.5Z" fill="white"/>
<path d="M35.5972 38.285C35.5691 38.2846 35.5418 38.275 35.5197 38.2575C34.6861 37.6162 33.7859 37.0664 32.8347 36.6175C31.6578 36.1496 30.454 35.7522 29.2297 35.4275C29.2014 35.4195 29.1767 35.4019 29.1598 35.3778C29.1429 35.3536 29.135 35.3244 29.1372 35.295L29.2772 33.74C29.0772 33.4375 27.7297 31.355 27.1722 29.6075C26.5572 27.6725 27.6447 25.5125 28.3072 24.6425C28.9697 23.7725 32.2147 23.1425 33.7397 23.11C35.1247 23.0825 37.1772 23.9725 37.8497 24.265C37.9447 24.3075 38.0072 24.335 38.0272 24.34L38.2022 24.3175C38.5822 24.2675 38.9372 24.235 39.1222 24.385C39.1541 24.4105 39.1803 24.4423 39.1993 24.4784C39.2182 24.5146 39.2294 24.5543 39.2322 24.595C39.236 24.8124 39.1961 25.0283 39.1147 25.23C39.3972 25.13 39.7972 25.0325 39.9972 25.1875C40.0522 25.2321 40.0928 25.292 40.1137 25.3596C40.1346 25.4273 40.135 25.4996 40.1147 25.5675C40.0754 25.7114 40.0055 25.8451 39.9097 25.9594C39.8139 26.0738 39.6945 26.1661 39.5597 26.23C39.1965 26.4398 38.794 26.5726 38.3772 26.62C38.6394 27.3128 38.8476 28.025 38.9997 28.75C39.0518 29.0529 39.1356 29.3496 39.2497 29.635C39.35 29.8152 39.3853 30.0244 39.3497 30.2275C39.3197 30.3075 39.2647 30.425 39.2072 30.5475C39.1136 30.7221 39.0399 30.9065 38.9872 31.0975C39.1833 31.7648 39.4247 32.418 39.7097 33.0525C39.9097 33.475 39.5772 33.705 39.3322 33.8725C39.2388 33.9324 39.1546 34.0057 39.0822 34.09C38.9122 34.34 38.8497 34.9475 38.7772 35.66L38.7622 35.8C38.7349 36.1031 38.7416 36.4083 38.7822 36.71C38.8433 36.9908 38.8225 37.2832 38.7222 37.5525C38.4722 38.0875 37.0747 38.1025 36.5497 37.9625C36.3044 37.9011 36.0711 37.7989 35.8597 37.66L35.7347 38.185C35.7294 38.2056 35.7191 38.2246 35.7047 38.2403C35.6903 38.256 35.6723 38.2679 35.6522 38.275C35.635 38.2829 35.6161 38.2863 35.5972 38.285ZM29.3947 35.2125C30.5982 35.5333 31.7812 35.9265 32.9372 36.39C33.8502 36.8163 34.7158 37.3375 35.5197 37.945L35.6472 37.4175C35.6519 37.3955 35.6626 37.3753 35.678 37.359C35.6934 37.3427 35.7131 37.3309 35.7347 37.325C35.7562 37.319 35.7789 37.3188 35.8004 37.3246C35.8219 37.3303 35.8416 37.3416 35.8572 37.3575C36.0748 37.5373 36.3318 37.6632 36.6072 37.725C37.1522 37.8675 38.3322 37.7825 38.4872 37.45C38.5658 37.2215 38.5796 36.9758 38.5272 36.74C38.484 36.421 38.4765 36.0982 38.5047 35.7775L38.5197 35.635C38.6022 34.8275 38.6622 34.245 38.8697 33.95C38.9602 33.8377 39.0703 33.7428 39.1947 33.67C39.4722 33.4775 39.5847 33.37 39.4872 33.17C39.2747 32.72 38.7372 31.3225 38.7372 31.1075C38.7817 30.8762 38.8664 30.6546 38.9872 30.4525C39.0422 30.335 39.0947 30.225 39.1222 30.15C39.1245 30.0038 39.0901 29.8594 39.0222 29.73C38.9066 29.4278 38.8228 29.1145 38.7722 28.795C38.6023 28.0293 38.3758 27.2772 38.0947 26.545C38.0861 26.5226 38.0841 26.4982 38.089 26.4747C38.0939 26.4512 38.1054 26.4296 38.1222 26.4125C38.1389 26.3958 38.1598 26.3839 38.1827 26.3782C38.2056 26.3725 38.2297 26.3731 38.2522 26.38C38.6756 26.371 39.089 26.2493 39.4497 26.0275C39.5522 25.9774 39.6437 25.9074 39.7189 25.8216C39.794 25.7357 39.8512 25.6357 39.8872 25.5275C39.8997 25.455 39.8872 25.41 39.8647 25.3875C39.7447 25.2975 39.2972 25.415 38.9497 25.575C38.9261 25.5863 38.8996 25.5898 38.8738 25.5852C38.8481 25.5806 38.8244 25.568 38.8062 25.5492C38.788 25.5305 38.7761 25.5064 38.7722 25.4806C38.7684 25.4547 38.7728 25.4282 38.7847 25.405C38.914 25.1608 38.9875 24.891 38.9997 24.615C39.0001 24.6081 38.9986 24.6013 38.9956 24.5952C38.9925 24.5891 38.9879 24.5838 38.9822 24.58C38.8672 24.4875 38.4522 24.5425 38.2522 24.58C38.1636 24.5995 38.0724 24.6046 37.9822 24.595C37.9029 24.5681 37.8252 24.5364 37.7497 24.5C37.0897 24.2125 35.0797 23.3325 33.7497 23.365C32.0872 23.3925 29.0797 24.0475 28.4997 24.7975C27.9997 25.47 26.7997 27.63 27.4072 29.5475C27.9997 31.375 29.4997 33.615 29.4997 33.6375C29.5165 33.6606 29.5245 33.689 29.5222 33.7175L29.3947 35.2125Z" fill="#263238"/>
<path d="M38.4873 31.6025C38.577 31.6025 38.6498 31.3842 38.6498 31.115C38.6498 30.8457 38.577 30.6275 38.4873 30.6275C38.3975 30.6275 38.3248 30.8457 38.3248 31.115C38.3248 31.3842 38.3975 31.6025 38.4873 31.6025Z" fill="#263238"/>
<path d="M38.3047 30.28C38.2732 30.2807 38.2426 30.269 38.2197 30.2475C38.2079 30.2359 38.1986 30.222 38.1923 30.2068C38.1859 30.1916 38.1827 30.1752 38.1827 30.1587C38.1827 30.1422 38.1859 30.1259 38.1923 30.1107C38.1986 30.0954 38.2079 30.0816 38.2197 30.07C38.2814 29.9869 38.3617 29.9194 38.4541 29.873C38.5466 29.8265 38.6487 29.8024 38.7522 29.8025C38.8152 29.8088 38.8761 29.8288 38.9305 29.8612C38.9849 29.8936 39.0316 29.9376 39.0672 29.99C39.085 30.0178 39.0911 30.0516 39.0841 30.084C39.077 30.1163 39.0575 30.1445 39.0297 30.1625C39.0019 30.1799 38.9685 30.186 38.9364 30.1795C38.9043 30.173 38.8759 30.1544 38.8572 30.1275C38.8424 30.1059 38.8231 30.0878 38.8007 30.0744C38.7782 30.061 38.7531 30.0527 38.7272 30.05C38.6628 30.0575 38.6007 30.0783 38.5448 30.111C38.4889 30.1437 38.4403 30.1876 38.4022 30.24C38.3903 30.2539 38.3752 30.2648 38.3583 30.2718C38.3413 30.2788 38.3229 30.2816 38.3047 30.28Z" fill="#263238"/>
<path d="M38.5947 37.5C38.7922 37.0725 38.5372 36.615 38.6222 35.7875C38.7072 34.96 38.7647 34.305 38.9647 34.0175C38.3947 33.82 37.2147 34.675 37.0822 34.475C36.9497 34.275 36.8322 30.7075 36.9097 30.165C36.9872 29.6225 37.7372 29.625 38.0522 28.94C38.3672 28.255 37.3022 27.4825 37.2522 27.0275C37.2022 26.5725 38.1947 26.485 38.1947 26.485C38.4447 26.57 39.8772 26.2 39.9922 25.5425C40.1072 24.885 38.8797 25.4575 38.8797 25.4575C39.019 25.1933 39.0968 24.901 39.1072 24.6025C39.0797 24.23 38.1072 24.4875 37.9947 24.4575C37.8822 24.4275 35.3397 23.2075 33.7447 23.2325C32.1497 23.2575 29.0347 23.8875 28.4072 24.715C27.7797 25.5425 26.6947 27.6825 27.2947 29.5675C27.7947 31.1725 28.9772 33.0425 29.3122 33.5675C29.4116 33.6384 29.5201 33.6956 29.6347 33.7375C30.6425 34.0406 31.7064 34.109 32.7447 33.9375C34.1722 33.6875 35.3147 33.1675 35.1147 32.7675C34.9147 32.3675 34.7997 30.7125 35.2572 29.9425C35.7147 29.1725 36.2272 30.3425 36.1122 31.74C35.9972 33.1375 35.6847 34.0225 35.5997 34.9075C35.5147 35.7925 35.7697 37.4475 35.7697 37.4475C35.9998 37.644 36.2744 37.7813 36.5697 37.8475C37.1097 38 38.3947 37.93 38.5947 37.5Z" fill="#263238"/>
<path d="M37.2497 38.04C37.0068 38.0436 36.7643 38.0184 36.5272 37.965C36.2116 37.893 35.9182 37.7454 35.6722 37.535C35.6548 37.5151 35.6427 37.4909 35.6372 37.465C35.6372 37.3975 35.3872 35.785 35.4647 34.895C35.5114 34.4959 35.579 34.0995 35.6672 33.7075C35.8155 33.0552 35.9199 32.3937 35.9797 31.7275C36.0647 30.6875 35.7897 29.8925 35.5722 29.825C35.4872 29.7975 35.3922 29.94 35.3547 30.005C34.9297 30.72 35.0297 32.335 35.2172 32.71C35.2431 32.7589 35.2566 32.8134 35.2566 32.8688C35.2566 32.9241 35.2431 32.9786 35.2172 33.0275C34.9672 33.505 33.7472 33.8825 32.7647 34.0575C31.7203 34.2309 30.6501 34.1651 29.6347 33.865H29.5997C29.4725 33.8181 29.3523 33.7542 29.2422 33.675C29.2269 33.6668 29.214 33.6547 29.2047 33.64C28.8597 33.1025 27.6872 31.2275 27.1722 29.615C26.5572 27.68 27.6447 25.52 28.3072 24.65C28.9697 23.78 32.2147 23.15 33.7397 23.1175C35.1347 23.0975 37.1772 23.98 37.8497 24.2725C37.9447 24.315 38.0072 24.3425 38.0272 24.3475L38.2022 24.325C38.5822 24.275 38.9372 24.2425 39.1222 24.3925C39.1541 24.418 39.1803 24.4498 39.1993 24.486C39.2182 24.5221 39.2294 24.5618 39.2322 24.6025C39.236 24.8199 39.1961 25.0359 39.1147 25.2375C39.3972 25.1375 39.7972 25.04 39.9972 25.195C40.0522 25.2396 40.0928 25.2995 40.1137 25.3672C40.1346 25.4348 40.135 25.5072 40.1147 25.575C40.0754 25.7189 40.0055 25.8526 39.9097 25.967C39.8139 26.0813 39.6945 26.1736 39.5597 26.2375C39.0997 26.5125 38.4322 26.6725 38.1847 26.6225C37.9997 26.64 37.5572 26.72 37.4147 26.8975C37.3991 26.914 37.3876 26.9338 37.3811 26.9555C37.3746 26.9773 37.3733 27.0002 37.3772 27.0225C37.4486 27.2274 37.5599 27.416 37.7047 27.5775C38.0122 27.99 38.3947 28.5025 38.1647 29C38.0081 29.3042 37.7644 29.5549 37.4647 29.72C37.2422 29.865 37.0672 29.97 37.0322 30.195C36.9472 30.7475 37.0597 33.965 37.1772 34.39C37.3444 34.3449 37.5068 34.2838 37.6622 34.2075C38.0947 34.0175 38.6372 33.78 39.0047 33.91C39.0233 33.9163 39.0402 33.9268 39.0541 33.9406C39.068 33.9545 39.0785 33.9714 39.0847 33.99C39.09 34.0085 39.0911 34.0279 39.0881 34.0469C39.0851 34.0659 39.078 34.084 39.0672 34.1C38.8972 34.35 38.8347 34.9575 38.7622 35.67L38.7472 35.81C38.7199 36.1131 38.7266 36.4184 38.7672 36.72C38.8283 37.0008 38.8075 37.2932 38.7072 37.5625C38.5397 37.9175 37.8472 38.04 37.2497 38.04ZM35.8772 37.3825C36.0881 37.5468 36.332 37.6636 36.5922 37.725C37.1372 37.8675 38.3172 37.7825 38.4722 37.45C38.5508 37.2216 38.5646 36.9758 38.5122 36.74C38.469 36.421 38.4615 36.0982 38.4897 35.7775L38.5047 35.635C38.5243 35.1199 38.6083 34.6092 38.7547 34.115C38.4046 34.1562 38.0653 34.2631 37.7547 34.43C37.3422 34.61 37.0922 34.72 36.9722 34.55C36.7822 34.3 36.7022 30.6375 36.7797 30.15C36.8297 29.8225 37.0797 29.65 37.3222 29.5025C37.5822 29.3647 37.7941 29.1511 37.9297 28.89C38.0972 28.525 37.7797 28.0975 37.4972 27.7175C37.3212 27.5254 37.192 27.2953 37.1197 27.045C37.113 26.9894 37.1177 26.9329 37.1336 26.8792C37.1495 26.8254 37.1763 26.7755 37.2122 26.7325C37.4622 26.4325 38.1022 26.37 38.1747 26.3625C38.192 26.3588 38.2099 26.3588 38.2272 26.3625C38.6506 26.3535 39.064 26.2318 39.4247 26.01C39.5272 25.96 39.6187 25.89 39.6939 25.8041C39.769 25.7182 39.8262 25.6183 39.8622 25.51C39.8747 25.4375 39.8622 25.3925 39.8397 25.37C39.7197 25.28 39.2722 25.3975 38.9247 25.5575C38.9011 25.5688 38.8746 25.5724 38.8488 25.5677C38.8231 25.5631 38.7994 25.5505 38.7812 25.5318C38.763 25.513 38.7511 25.489 38.7472 25.4631C38.7434 25.4372 38.7478 25.4108 38.7597 25.3875C38.889 25.1433 38.9625 24.8735 38.9747 24.5975C38.9751 24.5907 38.9736 24.5838 38.9706 24.5777C38.9675 24.5716 38.9629 24.5664 38.9572 24.5625C38.8422 24.47 38.4272 24.525 38.2272 24.5625C38.1386 24.582 38.0475 24.5871 37.9572 24.5775C37.8867 24.5554 37.8175 24.5296 37.7497 24.5C37.0897 24.2125 35.0797 23.3325 33.7497 23.365C32.0872 23.3925 29.0797 24.0475 28.4997 24.7975C27.9997 25.47 26.7997 27.63 27.4072 29.5475C27.9072 31.1075 29.0372 32.93 29.4072 33.4875C29.4836 33.5462 29.5678 33.5942 29.6572 33.63H29.6897C30.6706 33.9218 31.705 33.9868 32.7147 33.82C34.0147 33.585 34.8572 33.1825 34.9872 32.9225C34.9953 32.9084 34.9996 32.8925 34.9996 32.8763C34.9996 32.86 34.9953 32.8441 34.9872 32.83C34.7822 32.4175 34.6447 30.71 35.1347 29.885C35.3322 29.5525 35.5372 29.56 35.6347 29.5925C36.0422 29.7225 36.3022 30.6925 36.2147 31.755C36.1543 32.4279 36.0491 33.0961 35.8997 33.755C35.8128 34.1378 35.7468 34.525 35.7022 34.915C35.6869 35.7414 35.748 36.5674 35.8847 37.3825H35.8772Z" fill="#263238"/>
<path d="M35.9622 37.8949C35.9622 37.8949 36.0922 37.3099 33.8172 36.2374C31.5422 35.1649 29.1347 34.7074 28.8422 34.8374C28.5497 34.9674 28.2247 35.5874 28.2247 35.5874C29.7436 35.8573 31.2199 36.3281 32.6147 36.9874C34.5972 37.9874 36.2872 38.8724 36.2872 38.8724L35.9622 37.8949Z" fill="white"/>
<path d="M36.2873 39C36.2683 39.0035 36.2488 39.0035 36.2298 39C36.2148 39 34.5173 38.11 32.5573 37.1125C31.1739 36.4609 29.7104 35.9951 28.2048 35.7275C28.1853 35.7241 28.1668 35.7162 28.1507 35.7045C28.1347 35.6928 28.1216 35.6776 28.1123 35.66C28.1037 35.6421 28.0992 35.6224 28.0992 35.6025C28.0992 35.5826 28.1037 35.563 28.1123 35.545C28.1473 35.4775 28.4673 34.885 28.7898 34.7425C29.1548 34.58 31.6048 35.0725 33.8698 36.14C35.9248 37.11 36.0948 37.7125 36.0898 37.89L36.4073 38.84C36.4149 38.8637 36.4154 38.8892 36.4088 38.9131C36.4021 38.9371 36.3886 38.9586 36.3698 38.975C36.3461 38.9929 36.3169 39.0017 36.2873 39ZM28.4198 35.5C29.8899 35.774 31.3185 36.237 32.6698 36.8775C34.1698 37.6275 35.5148 38.335 36.0723 38.6275L35.8448 37.945C35.8399 37.9262 35.8399 37.9064 35.8448 37.8875C35.8448 37.86 35.8073 37.32 33.7673 36.36C31.4748 35.2775 29.1523 34.86 28.8973 34.9625C28.6982 35.1018 28.5346 35.2859 28.4198 35.5Z" fill="#263238"/>
<path d="M37.2323 39.4999C36.9461 38.9366 36.4747 38.489 35.8973 38.2324C34.8573 37.7124 33.7648 36.5699 29.5248 35.6299C28.7198 35.4524 28.4523 35.4999 28.2248 35.5974C27.7631 35.9102 27.3651 36.3082 27.0523 36.7699L26.7498 37.2124C26.7498 37.2124 29.5148 37.1799 31.4323 37.7649C33.3498 38.3499 37.8073 40.0724 37.8073 40.0724L37.2323 39.4999Z" fill="#27AE60"/>
<path d="M37.8172 40.1975C37.8023 40.1999 37.7871 40.1999 37.7722 40.1975C37.7272 40.18 33.2997 38.47 31.4072 37.8925C29.5147 37.315 26.7872 37.345 26.7622 37.345C26.74 37.3441 26.7183 37.3377 26.6991 37.3263C26.6799 37.315 26.6638 37.2991 26.6522 37.28C26.6405 37.2608 26.6343 37.2387 26.6343 37.2163C26.6343 37.1938 26.6405 37.1717 26.6522 37.1525L26.9447 36.6975C27.2684 36.2137 27.6858 35.7997 28.1722 35.48C28.4447 35.3625 28.7572 35.33 29.5497 35.505C32.9022 36.255 34.3172 37.125 35.2547 37.7075C35.5047 37.8675 35.7322 38.0075 35.9522 38.115C36.5471 38.3841 37.034 38.8455 37.3347 39.425L37.9022 39.9925C37.9225 40.0129 37.9352 40.0396 37.9384 40.0682C37.9416 40.0968 37.935 40.1256 37.9197 40.15C37.9073 40.1651 37.8917 40.1772 37.8739 40.1855C37.8562 40.1937 37.8368 40.1978 37.8172 40.1975ZM26.9997 37.0875C27.7072 37.0875 29.8972 37.16 31.4997 37.645C32.9997 38.1025 36.0772 39.2675 37.3322 39.7475L37.1622 39.5775C37.1508 39.5649 37.1415 39.5506 37.1347 39.535C36.8597 39.0011 36.4108 38.5769 35.8622 38.3325C35.6322 38.2175 35.4072 38.0825 35.1447 37.9125C34.2222 37.34 32.8272 36.4725 29.5172 35.74C28.7147 35.5625 28.4797 35.62 28.2922 35.7C27.856 36.005 27.4783 36.3861 27.1772 36.825L26.9997 37.0875Z" fill="#263238"/>
<path d="M47.1023 67.4725L49.7948 70.1275C49.8906 70.2805 49.9538 70.4516 49.9805 70.6301C50.0071 70.8086 49.9967 70.9907 49.9498 71.165C49.8323 71.475 47.6798 73.165 47.2548 73.36C46.8298 73.555 46.6023 72.975 46.5623 72.82C46.5223 72.665 46.3323 72.2425 46.2948 72.1275C46.2573 72.0125 45.2173 70.8575 44.9098 69.9725C44.7562 69.5742 44.6398 69.1624 44.5623 68.7425L47.1023 67.4725Z" fill="white"/>
<path d="M47.0898 73.5225C47.0187 73.5228 46.9485 73.5066 46.8848 73.475C46.6635 73.3302 46.5054 73.1068 46.4423 72.85C46.4198 72.765 46.3348 72.56 46.2723 72.41C46.2298 72.305 46.1898 72.2125 46.1748 72.16C46.1598 72.1075 46.0723 72.02 45.9823 71.91C45.6473 71.48 45.0223 70.68 44.7923 70.0125C44.6338 69.6085 44.5157 69.1898 44.4398 68.7625C44.4365 68.7369 44.4412 68.7109 44.4533 68.688C44.4654 68.6652 44.4843 68.6467 44.5073 68.635L47.0448 67.365C47.0687 67.354 47.0953 67.3506 47.1212 67.355C47.1471 67.3595 47.171 67.3717 47.1898 67.39C47.1898 67.39 49.7298 69.89 49.8823 70.045C49.9961 70.215 50.0713 70.4078 50.1028 70.6098C50.1344 70.8119 50.1214 71.0185 50.0648 71.215C49.9223 71.5975 47.6773 73.31 47.3148 73.4775C47.2439 73.5085 47.1672 73.5238 47.0898 73.5225ZM44.7023 68.8125C44.7838 69.1931 44.8924 69.5674 45.0273 69.9325C45.2448 70.56 45.8523 71.34 46.1798 71.76C46.2706 71.8591 46.3486 71.9692 46.4123 72.0875C46.4273 72.13 46.4623 72.215 46.5023 72.3125C46.5712 72.4685 46.6321 72.6279 46.6848 72.79C46.7313 72.9762 46.843 73.1394 46.9998 73.25C47.0327 73.2667 47.0691 73.2754 47.1061 73.2754C47.143 73.2754 47.1794 73.2667 47.2123 73.25C47.6798 73.0375 49.7423 71.37 49.8398 71.1275C49.9176 70.8203 49.8728 70.4948 49.7148 70.22L47.0773 67.625L44.7023 68.8125Z" fill="#263238"/>
<path d="M16.7772 69.25C16.9651 69.7035 17.1787 70.1459 17.4172 70.575C17.5397 70.695 18.7022 71.94 18.8222 72.26C18.9422 72.58 18.8222 73.665 19.2647 74.4675C19.7072 75.27 19.4247 75.59 18.9422 75.43C18.4597 75.27 18.0997 74.3075 18.0997 74.3075C18.0997 74.3075 18.5422 75.9125 18.6222 76.1925C18.7022 76.4725 19.9072 76.795 19.7047 77.075C19.5022 77.355 17.3772 77.4775 16.8972 77.4375C16.4172 77.3975 15.5322 76.2725 15.2522 76.1125C14.9722 75.9525 14.2522 72.9025 14.0472 72.34C13.8422 71.7775 13.5247 69.34 13.5247 69.34L16.7772 69.25Z" fill="white"/>
<path d="M17.0997 77.5775H16.8872C16.5522 77.5475 16.1372 77.1525 15.6372 76.64C15.5027 76.4932 15.3564 76.3578 15.1997 76.235C14.9947 76.12 14.7397 75.2875 14.2447 73.4675C14.1147 72.985 13.9947 72.5675 13.9397 72.3975C13.7372 71.83 13.4247 69.4625 13.4122 69.3625C13.4097 69.3452 13.4109 69.3276 13.4156 69.3108C13.4204 69.294 13.4286 69.2784 13.4397 69.265C13.4636 69.2386 13.4967 69.2224 13.5322 69.22L16.7822 69.14C16.8071 69.139 16.8317 69.1457 16.8527 69.1591C16.8737 69.1725 16.8901 69.192 16.8997 69.215C17.0745 69.6546 17.2749 70.0837 17.4997 70.5C17.4997 70.5125 18.7922 71.855 18.9322 72.23C18.9819 72.4177 19.0079 72.6108 19.0097 72.805C19.0139 73.3625 19.1357 73.9128 19.3672 74.42C19.6947 75.02 19.6172 75.3175 19.4997 75.4625C19.4213 75.5391 19.3212 75.5899 19.213 75.6077C19.1047 75.6256 18.9936 75.6098 18.8947 75.5625C18.7392 75.4926 18.6035 75.3852 18.4997 75.25C18.6097 75.645 18.7172 76.0425 18.7497 76.1675C18.7722 76.2425 19.0597 76.39 19.2322 76.48C19.5422 76.64 19.8097 76.78 19.8547 76.965C19.8625 76.998 19.863 77.0324 19.8561 77.0657C19.8492 77.0989 19.835 77.1302 19.8147 77.1575C19.5722 77.5 17.7697 77.5775 17.0997 77.5775ZM13.6672 69.4625C13.7397 69.985 13.9972 71.8425 14.1672 72.3075C14.2322 72.4875 14.3397 72.89 14.4797 73.3975C14.7147 74.2625 15.1497 75.87 15.3222 76.0175C15.4979 76.1479 15.6596 76.2962 15.8047 76.46C16.1372 76.795 16.6397 77.3 16.9097 77.3225C17.4897 77.37 19.4372 77.2175 19.6072 77.0125C19.4577 76.8837 19.289 76.7791 19.1072 76.7025C18.8072 76.5475 18.5497 76.4125 18.4997 76.2375C18.4197 75.955 17.9772 74.35 17.9772 74.35C17.9669 74.3168 17.9702 74.2809 17.9864 74.2502C18.0026 74.2195 18.0303 74.1965 18.0635 74.1862C18.0966 74.1759 18.1325 74.1793 18.1632 74.1954C18.1939 74.2116 18.2169 74.2393 18.2272 74.2725C18.3222 74.5225 18.6447 75.205 18.9922 75.3225C19.1472 75.3725 19.2722 75.365 19.3247 75.3C19.3772 75.235 19.3972 74.9625 19.1647 74.5375C18.9143 73.9992 18.7821 73.4136 18.7772 72.82C18.7747 72.6515 18.7537 72.4839 18.7147 72.32C18.6147 72.0475 17.5297 70.87 17.3397 70.6775C17.0953 70.2661 16.883 69.8365 16.7047 69.3925L13.6672 69.4625Z" fill="#263238"/>
<path d="M18.2496 76.97C18.2292 76.9699 18.209 76.9648 18.191 76.9551C18.173 76.9453 18.1576 76.9314 18.1462 76.9143C18.1349 76.8973 18.1279 76.8777 18.1259 76.8574C18.1238 76.837 18.1268 76.8164 18.1346 76.7975C17.8256 76.6919 17.5064 76.619 17.1821 76.58C16.9573 76.5646 16.7367 76.5114 16.5296 76.4225C16.3596 76.295 16.0296 75.4725 15.8871 75.125C15.8845 75.1118 15.8845 75.0982 15.8871 75.085C15.8681 74.6045 15.9385 74.1248 16.0946 73.67C16.3221 73.0625 16.2096 71.8525 16.2071 71.84C16.2056 71.8236 16.2074 71.807 16.2123 71.7913C16.2173 71.7756 16.2252 71.761 16.2358 71.7483C16.2463 71.7357 16.2593 71.7252 16.2739 71.7176C16.2885 71.7099 16.3045 71.7052 16.3209 71.7037C16.3373 71.7023 16.3538 71.704 16.3696 71.709C16.3853 71.7139 16.3999 71.7218 16.4126 71.7324C16.4252 71.743 16.4357 71.7559 16.4433 71.7705C16.451 71.7851 16.4556 71.8011 16.4571 71.8175C16.4571 71.87 16.5771 73.0975 16.3296 73.76C16.1892 74.176 16.1231 74.6135 16.1346 75.0525C16.2794 75.4611 16.4654 75.854 16.6896 76.225C16.868 76.2721 17.0492 76.308 17.2321 76.3325C17.9821 76.4575 18.3446 76.5375 18.4046 76.73C18.4151 76.7657 18.4153 76.8037 18.4051 76.8395C18.3949 76.8754 18.3748 76.9076 18.3471 76.9325C18.3344 76.9453 18.3192 76.9552 18.3024 76.9617C18.2856 76.9681 18.2676 76.971 18.2496 76.97Z" fill="#263238"/>
<path d="M36.2747 111.565C36.2747 111.565 37.3147 112.355 37.8097 112.652C38.3047 112.95 40.4297 113.152 40.5797 113.542C40.7297 113.932 40.3547 114.31 40.1472 114.495C39.9397 114.68 38.4522 115.245 37.3147 115.125C36.9162 115.105 36.5168 115.139 36.1272 115.225C35.7822 115.275 33.3572 115.57 32.3197 115.67C31.2822 115.77 31.0322 114.92 30.9822 113.89C30.9322 112.86 30.9822 111.662 30.9822 111.662L35.1372 111.07L36.2747 111.565Z" fill="white"/>
<path d="M32.1597 115.803C31.8874 115.815 31.6203 115.725 31.4097 115.553C31.0747 115.263 30.9097 114.755 30.8647 113.903C30.8172 112.87 30.8647 111.678 30.8647 111.665C30.8661 111.636 30.8777 111.608 30.8973 111.587C30.9169 111.565 30.9434 111.552 30.9722 111.548L35.1272 110.953C35.1493 110.946 35.1726 110.946 35.1947 110.953L36.3322 111.453L36.3597 111.468C36.3597 111.468 37.3972 112.258 37.8822 112.548C38.2611 112.701 38.6561 112.811 39.0597 112.875C40.0147 113.083 40.5997 113.228 40.7047 113.503C40.8922 114.003 40.3997 114.448 40.2372 114.593C39.9872 114.815 38.4872 115.378 37.3097 115.253C36.9975 115.229 36.6835 115.25 36.3772 115.315L36.1522 115.35C35.7822 115.405 33.3522 115.7 32.3372 115.798L32.1597 115.803ZM31.1047 111.773C31.1047 112.083 31.0672 113.038 31.1047 113.883C31.1422 114.65 31.2872 115.118 31.5622 115.358C31.6666 115.44 31.7875 115.5 31.9169 115.532C32.0462 115.565 32.181 115.569 32.3122 115.545C33.3247 115.45 35.7472 115.153 36.1147 115.1C36.1847 115.1 36.2572 115.08 36.3322 115.065C36.6608 114.997 36.9976 114.976 37.3322 115.003C38.4647 115.123 39.8897 114.563 40.0697 114.403C40.4247 114.085 40.5547 113.82 40.4672 113.588C40.4047 113.42 39.5272 113.233 39.0047 113.118C38.5751 113.049 38.1554 112.929 37.7547 112.76C37.2822 112.478 36.3447 111.76 36.2222 111.673L35.1297 111.198L31.1047 111.773Z" fill="#263238"/>
<path d="M37.6672 114.467C36.7747 114.41 36.1396 114.64 33.6896 114.755C32.8191 114.82 31.9441 114.792 31.0797 114.67C31.2247 115.312 31.5597 115.742 32.3297 115.67C33.3672 115.57 35.7922 115.275 36.1372 115.225C36.5267 115.139 36.9261 115.105 37.3247 115.125C38.4622 115.247 39.9297 114.7 40.1572 114.495C40.3851 114.32 40.5464 114.072 40.6147 113.792C39.8347 114.302 38.3797 114.512 37.6672 114.467Z" fill="white"/>
<path d="M32.1548 115.802C31.5173 115.802 31.1248 115.44 30.9573 114.697C30.9524 114.678 30.9528 114.657 30.9585 114.637C30.9642 114.617 30.975 114.599 30.9898 114.585C31.0036 114.57 31.0209 114.559 31.0401 114.552C31.0593 114.546 31.0798 114.544 31.0998 114.547C31.956 114.667 32.8227 114.695 33.6848 114.63C34.9098 114.572 35.6848 114.485 36.2548 114.42C36.7255 114.35 37.2018 114.324 37.6773 114.342C38.3723 114.385 39.7923 114.18 40.5373 113.69C40.5571 113.677 40.5801 113.67 40.6037 113.67C40.6272 113.669 40.6504 113.676 40.6706 113.688C40.6907 113.7 40.7069 113.718 40.7174 113.739C40.7279 113.76 40.7322 113.784 40.7298 113.808C40.6638 114.12 40.4861 114.399 40.2298 114.59C39.9798 114.812 38.4798 115.375 37.3023 115.25C36.9901 115.227 36.6761 115.248 36.3698 115.312L36.1448 115.348C35.7748 115.403 33.3448 115.697 32.3298 115.795L32.1548 115.802ZM31.2498 114.825C31.4223 115.375 31.7498 115.6 32.3073 115.545C33.3198 115.45 35.7423 115.152 36.1098 115.1C36.1798 115.1 36.2523 115.08 36.3273 115.065C36.6559 114.997 36.9927 114.976 37.3273 115.002C38.4598 115.122 39.8848 114.562 40.0648 114.402C40.1771 114.305 40.277 114.194 40.3623 114.072C39.5092 114.438 38.5875 114.615 37.6598 114.592C37.1992 114.574 36.7379 114.6 36.2823 114.67C35.7123 114.735 34.9298 114.822 33.6973 114.88C32.8814 114.934 32.0624 114.916 31.2498 114.825Z" fill="#263238"/>
<path d="M20.0997 70.8725C20.0997 70.8725 21.1872 74.8301 22.5247 78.2926C23.8622 81.7551 25.5897 86.9476 25.5897 86.9476L26.8397 94.4675C26.8397 94.4675 27.0372 98.2176 27.7297 100.995C28.4222 103.773 31.0947 112.158 31.0947 112.158C31.7834 112.413 32.5158 112.529 33.2497 112.5C34.4847 112.45 36.2647 111.56 36.2647 111.56C36.2647 111.56 36.4147 110.423 36.3147 109.928C36.2147 109.433 35.6222 109.178 35.4747 108.79C35.3272 108.403 33.4447 96.835 33.4447 96.835C33.4447 96.835 32.8522 88.6251 32.6547 87.0426C32.4572 85.4601 31.9622 72.1051 31.9622 72.1051L20.0997 70.8725Z" fill="#263238"/>
<path d="M33.0421 112.635C32.3588 112.639 31.6807 112.516 31.0421 112.272C31.0251 112.266 31.0098 112.255 30.9972 112.242C30.9847 112.228 30.9753 112.212 30.9696 112.195C30.9446 112.112 28.2896 103.767 27.6046 101.027C26.9196 98.2875 26.7121 94.51 26.7096 94.4725L25.4746 86.9725C25.4621 86.9375 23.7246 81.76 22.4146 78.34C21.1046 74.92 19.9996 70.945 19.9796 70.905C19.9742 70.8856 19.9737 70.8652 19.9781 70.8456C19.9824 70.826 19.9916 70.8077 20.0046 70.7925C20.0175 70.7769 20.0341 70.7648 20.0529 70.7574C20.0717 70.75 20.0921 70.7474 20.1121 70.75L31.9846 71.985C32.0147 71.988 32.0427 72.0018 32.0634 72.0239C32.0841 72.0459 32.0961 72.0747 32.0971 72.105C32.0971 72.2375 32.5971 85.4725 32.7871 87.0325C32.9771 88.5925 33.5746 96.75 33.5796 96.8325C34.3296 101.457 35.4946 108.462 35.6021 108.75C35.686 108.916 35.8045 109.061 35.9496 109.177C36.1882 109.363 36.3629 109.618 36.4496 109.907C36.5521 110.407 36.4071 111.532 36.4021 111.58C36.3998 111.601 36.3925 111.62 36.3807 111.637C36.3689 111.654 36.3531 111.668 36.3346 111.677C36.2596 111.712 34.5146 112.58 33.2671 112.63L33.0421 112.635ZM31.1821 112.062C31.8465 112.299 32.5499 112.407 33.2546 112.38C34.3246 112.337 35.8421 111.63 36.1596 111.482C36.2311 110.977 36.2454 110.466 36.2021 109.957C36.1238 109.719 35.9757 109.51 35.7771 109.357C35.6029 109.217 35.4627 109.04 35.3671 108.837C35.2196 108.442 33.5246 98.045 33.3321 96.8625C33.3321 96.7675 32.7346 88.625 32.5396 87.0625C32.3496 85.55 31.9021 73.585 31.8496 72.2225L20.2696 71.0175C20.4996 71.8225 21.4821 75.25 22.6396 78.25C23.9621 81.675 25.6921 86.86 25.7096 86.9125L26.9596 94.45C26.9596 94.5 27.1671 98.2425 27.8496 100.967C28.4996 103.58 30.9471 111.32 31.1821 112.062Z" fill="#263238"/>
<path d="M11.5547 105.307C11.5547 105.307 7.78219 106.037 6.83969 106.337C5.89719 106.637 5.89719 107.192 6.11219 108.222C6.32719 109.252 6.75469 109.765 6.92719 109.892C7.09969 110.02 7.22719 111.642 7.69719 112.677C8.16719 113.712 9.24969 115.765 10.2247 116.277C11.1997 116.79 12.2822 116.792 12.4122 116.62C12.5422 116.447 12.1622 115.25 12.1622 115.25L11.1772 112.077C11.1772 112.077 12.3247 108.95 12.4997 108.78C12.6747 108.61 13.5272 107.707 13.5272 107.707L11.5547 105.307Z" fill="white"/>
<path d="M11.9247 116.847C11.3144 116.829 10.7161 116.672 10.1747 116.39C9.06972 115.812 7.92472 113.442 7.59222 112.73C7.33539 112.085 7.1493 111.415 7.03722 110.73C6.99994 110.474 6.93713 110.223 6.84972 109.98C6.63972 109.822 6.21222 109.27 5.99722 108.242C5.79472 107.27 5.73472 106.555 6.80972 106.212C7.74972 105.912 11.3847 105.212 11.5372 105.18C11.5592 105.176 11.5819 105.177 11.603 105.185C11.6241 105.192 11.6429 105.205 11.6572 105.222L13.6297 107.622C13.6498 107.645 13.6608 107.675 13.6608 107.705C13.6608 107.735 13.6498 107.765 13.6297 107.787C13.5922 107.825 12.7697 108.692 12.5972 108.862C12.4722 109.015 11.7497 110.897 11.3122 112.077L12.2872 115.207C12.4697 115.782 12.6622 116.507 12.5247 116.69C12.4402 116.755 12.3436 116.802 12.2406 116.829C12.1375 116.856 12.0302 116.862 11.9247 116.847ZM11.4997 105.445C10.9697 105.547 7.72722 106.195 6.87222 106.445C6.06472 106.695 6.00472 107.105 6.22972 108.195C6.42972 109.152 6.81722 109.657 6.99722 109.79C7.09972 109.867 7.14722 110.072 7.26972 110.682C7.37933 111.347 7.55952 111.998 7.80722 112.625C8.46222 114.055 9.45472 115.735 10.2797 116.165C11.2547 116.665 12.2047 116.63 12.3097 116.54C12.3472 116.437 12.1972 115.805 12.0297 115.29L11.0497 112.115C11.041 112.089 11.041 112.061 11.0497 112.035C11.3222 111.285 12.2297 108.867 12.4072 108.69C12.5447 108.552 13.1422 107.925 13.3572 107.702L11.4997 105.445Z" fill="#263238"/>
<path d="M10.2248 116.277C11.2248 116.792 12.2823 116.792 12.4123 116.62C12.4473 116.504 12.4473 116.381 12.4123 116.265C11.5373 116.222 10.0598 116.015 9.45225 115.077C8.67975 113.877 7.90975 111.307 7.56725 109.892C7.29975 108.792 7.00725 107.042 6.88975 106.32L6.83725 106.337C5.89475 106.637 5.89475 107.192 6.10975 108.222C6.32475 109.252 6.75225 109.765 6.92475 109.892C7.09725 110.02 7.22475 111.642 7.69475 112.677C8.16475 113.712 9.24975 115.765 10.2248 116.277Z" fill="white"/>
<path d="M11.9247 116.847C11.3144 116.829 10.7161 116.672 10.1747 116.39C9.06972 115.812 7.92472 113.442 7.59222 112.73C7.33539 112.085 7.1493 111.415 7.03722 110.73C6.99994 110.474 6.93713 110.223 6.84972 109.98C6.63972 109.822 6.21222 109.27 5.99722 108.242C5.79472 107.27 5.73472 106.555 6.80972 106.212L6.86472 106.195C6.88186 106.19 6.89993 106.189 6.91763 106.191C6.93534 106.194 6.95227 106.2 6.96722 106.21C6.99683 106.23 7.01749 106.26 7.02472 106.295C7.13722 107 7.43222 108.76 7.69722 109.857C7.99972 111.107 8.77722 113.777 9.56722 115.005C10.1097 115.85 11.4222 116.085 12.4272 116.135C12.4559 116.136 12.4832 116.148 12.5046 116.167C12.526 116.186 12.5402 116.212 12.5447 116.24C12.5847 116.49 12.5772 116.612 12.5197 116.69C12.4622 116.767 12.2222 116.847 11.9247 116.847ZM6.79222 106.485C6.06722 106.735 6.01722 107.155 6.23472 108.197C6.43472 109.155 6.82222 109.66 7.00222 109.792C7.10472 109.87 7.15222 110.075 7.27472 110.685C7.38433 111.35 7.56452 112.001 7.81222 112.627C8.46722 114.057 9.45972 115.737 10.2847 116.167C11.2547 116.667 12.1997 116.632 12.3147 116.542C12.3147 116.542 12.3147 116.502 12.3147 116.385C11.2647 116.32 9.93972 116.05 9.35972 115.135C8.55222 113.885 7.76222 111.17 7.45722 109.912C7.19472 108.885 6.91972 107.265 6.79222 106.485Z" fill="#263238"/>
<path d="M23.9573 71.96C23.9573 71.96 25.3923 73.84 25.5423 74.0875C25.6923 74.335 26.7273 83.7325 26.8273 84.6725C26.8826 85.4298 26.8826 86.1902 26.8273 86.9475C26.8273 86.9475 23.3498 90.4175 21.0748 93.25C18.7998 96.0825 11.3948 105.18 11.3948 105.18L14.6448 110.24C14.6448 110.24 18.7073 106.99 21.6198 104.207C26.2298 99.815 30.5673 95.17 30.8698 94.9225C31.1723 94.675 33.1673 92.555 33.3148 91.9625C33.4623 91.37 35.0498 83.0525 35.5948 80.3825C36.1398 77.7125 36.8798 70.49 36.8798 70.49L23.2773 70.835" fill="#263238"/>
<path d="M14.6372 110.353H14.6173C14.5825 110.345 14.5519 110.325 14.5323 110.295L11.2823 105.235C11.2664 105.214 11.2579 105.189 11.2579 105.163C11.2579 105.136 11.2664 105.111 11.2823 105.09C11.3573 104.998 18.7122 95.945 20.9622 93.1575C23.0972 90.5125 26.3273 87.2575 26.6898 86.8925C26.744 86.1585 26.744 85.4215 26.6898 84.6875C26.5198 83.065 25.5623 74.5175 25.4172 74.1425C25.3073 73.9625 24.3422 72.685 23.8472 72.0375C23.836 72.0247 23.8275 72.0097 23.8223 71.9934C23.8171 71.9772 23.8152 71.96 23.8169 71.9431C23.8185 71.9261 23.8236 71.9096 23.8319 71.8947C23.8402 71.8798 23.8514 71.8667 23.8649 71.8562C23.8784 71.8458 23.8939 71.8383 23.9104 71.834C23.927 71.8298 23.9442 71.829 23.961 71.8317C23.9779 71.8344 23.994 71.8406 24.0084 71.8497C24.0228 71.8589 24.0352 71.8709 24.0448 71.885C24.1048 71.9625 25.4848 73.7725 25.6348 74.025C25.8148 74.3225 26.9273 84.5575 26.9398 84.66C26.9943 85.4249 26.9943 86.1927 26.9398 86.9575C26.9374 86.9879 26.9241 87.0163 26.9023 87.0375C26.8673 87.0725 23.4023 90.5375 21.1523 93.315C19.0073 95.9725 12.2223 104.315 11.5273 105.178L14.6473 110.043C15.3123 109.505 18.8972 106.59 21.5047 104.103C24.8072 100.96 27.9272 97.7275 29.6047 95.99C30.2897 95.28 30.6672 94.89 30.7572 94.815C31.1073 94.5225 33.0272 92.4525 33.1622 91.92C33.2397 91.605 33.7322 89.0725 34.2522 86.39C34.7122 84.03 35.1872 81.5875 35.4397 80.345C35.9397 77.9175 36.6022 71.63 36.7097 70.595L23.2498 70.9375C23.2333 70.9382 23.2169 70.9356 23.2015 70.93C23.1861 70.9243 23.1719 70.9156 23.1599 70.9045C23.1478 70.8933 23.138 70.8799 23.1312 70.865C23.1243 70.8501 23.1204 70.8339 23.1198 70.8175C23.1197 70.7843 23.1324 70.7523 23.1551 70.7282C23.1779 70.704 23.2091 70.6894 23.2423 70.6875L36.8448 70.3425C36.8626 70.3413 36.8805 70.3443 36.897 70.3513C36.9135 70.3582 36.9281 70.3689 36.9397 70.3825C36.9522 70.3953 36.9616 70.4106 36.9672 70.4275C36.9729 70.4444 36.9746 70.4624 36.9722 70.48C36.9722 70.5525 36.2223 77.73 35.6848 80.385C35.4348 81.635 34.9573 84.0675 34.4998 86.4275C33.9773 89.1125 33.4848 91.65 33.4023 91.97C33.2397 92.6225 31.1523 94.7975 30.9172 94.9975C30.8372 95.0625 30.3948 95.52 29.7847 96.1525C28.1073 97.9025 24.9823 101.128 21.6772 104.275C18.7948 107.025 14.7372 110.275 14.6947 110.315C14.6801 110.333 14.6599 110.346 14.6372 110.353Z" fill="#263238"/>
<path d="M27.0521 36.75C27.0521 36.75 24.6471 38.0175 23.3796 38.635C22.1121 39.2525 17.8796 40.5225 17.4596 41.205C17.0396 41.8875 17.1021 42.955 17.1021 42.955C17.1021 42.955 12.9521 54.38 12.8521 56.3725C12.7521 58.365 13.1571 69.7025 13.1571 69.7025C13.1571 69.7025 13.4646 70.16 15.0996 70.11C16.7346 70.06 17.3971 69.7525 17.3971 69.7525C17.3971 69.7525 18.2146 58.3125 18.3671 57.6475C18.4667 57.2277 18.6039 56.8177 18.7771 56.4225L20.5621 52.8475C20.5621 52.8475 21.1771 56.525 21.1771 56.6775C21.1771 56.83 17.8046 70.62 17.8046 70.62C17.8046 70.62 17.8046 71.54 23.7796 72.37C29.7546 73.2 34.9646 73.6975 35.2196 73.6975C35.4746 73.6975 36.8546 71.4 36.8546 71.4C36.8546 71.4 37.2121 72.675 37.1046 72.83C36.9971 72.985 38.1271 72.58 38.3821 72.37L39.4021 71.5525C39.4021 71.5525 37.8196 62.7675 37.8196 62.105C37.8196 61.4425 38.2296 59.04 38.2296 59.04L44.1521 69.8675C44.1521 69.8675 44.1521 70.02 45.5821 69.2025C46.3752 68.7693 47.0983 68.219 47.7271 67.57L42.9271 55.7725C42.9271 55.7725 41.8046 42.7475 41.7021 42.085C41.5996 41.4225 41.8546 41.2675 41.2421 40.96C40.6296 40.6525 37.8146 40.0725 37.8146 40.0725C37.8146 40.0725 33.1796 38.2975 31.4396 37.765C29.6996 37.2325 27.0521 36.75 27.0521 36.75Z" fill="#27AE60"/>
<path d="M35.2173 73.8225C34.9198 73.8225 29.5748 73.2875 23.7623 72.4925C17.9498 71.6975 17.6773 70.805 17.6773 70.6325C17.6761 70.6226 17.6761 70.6125 17.6773 70.6025C18.8248 65.905 21.0073 56.945 21.0448 56.68C21.0448 56.565 20.7348 54.6925 20.4948 53.26L18.8848 56.5C18.7223 56.8848 18.5935 57.283 18.4998 57.69C18.3498 58.335 17.5398 69.66 17.5323 69.7725C17.531 69.795 17.5236 69.8167 17.5108 69.8352C17.498 69.8537 17.4804 69.8684 17.4598 69.8775C17.4323 69.8925 16.7548 70.195 15.1123 70.2475C13.4698 70.3 13.1123 69.835 13.0648 69.7825C13.0518 69.7632 13.0441 69.7408 13.0423 69.7175C13.0423 69.605 12.6348 58.3525 12.7373 56.3775C12.8398 54.4025 16.7248 43.6775 16.9873 42.95C16.9873 42.7725 16.9573 41.8025 17.3648 41.145C17.6398 40.7 19.1373 40.125 21.2198 39.36C22.0823 39.0425 22.8973 38.7425 23.3348 38.53C24.5848 37.92 26.9798 36.66 27.0048 36.645C27.0306 36.6352 27.059 36.6352 27.0848 36.645C27.1123 36.645 29.7623 37.1275 31.4898 37.645C33.2173 38.1625 37.8248 39.94 37.8723 39.9575C37.9673 39.975 40.6898 40.54 41.3098 40.85C41.7898 41.1 41.8098 41.2775 41.8098 41.6175C41.807 41.7672 41.8162 41.9168 41.8373 42.065C41.9373 42.72 42.9973 54.9875 43.0623 55.7425L47.8573 67.5225C47.8655 67.5438 47.8678 67.5669 47.8638 67.5894C47.8599 67.6119 47.8498 67.6329 47.8348 67.65C47.1981 68.3121 46.4637 68.8727 45.6573 69.3125C44.2948 70.09 44.1773 70.0225 44.1073 69.9825C44.0864 69.9686 44.0692 69.9497 44.0573 69.9275L38.3073 59.4275C38.1948 60.12 37.9598 61.62 37.9598 62.115C37.9598 62.61 38.9948 68.505 39.5423 71.54C39.5458 71.5622 39.5435 71.5849 39.5356 71.606C39.5277 71.627 39.5145 71.6456 39.4973 71.66L38.4748 72.4775C38.3273 72.595 37.2248 73.1225 37.0323 72.9575C37.0159 72.9466 37.0019 72.9324 36.9912 72.9157C36.9806 72.8991 36.9735 72.8804 36.9704 72.8609C36.9674 72.8414 36.9684 72.8215 36.9735 72.8024C36.9785 72.7833 36.9875 72.7655 36.9998 72.75C36.9717 72.3956 36.9055 72.0453 36.8023 71.705C35.9573 73.115 35.4223 73.8225 35.2173 73.8225ZM17.9298 70.6375C17.9673 70.7075 18.4773 71.5175 23.7948 72.245C29.8223 73.07 34.9873 73.5725 35.2173 73.5725C35.3698 73.4975 36.1223 72.375 36.7448 71.3225C36.7576 71.3015 36.7763 71.2847 36.7984 71.2741C36.8206 71.2634 36.8454 71.2594 36.8698 71.2625C36.8939 71.2657 36.9165 71.2759 36.9347 71.2919C36.953 71.308 36.9661 71.3291 36.9723 71.3525C37.1155 71.7922 37.2077 72.2468 37.2473 72.7075C37.6187 72.6053 37.9751 72.4549 38.3073 72.26L39.2698 71.4875C39.1073 70.5825 37.6973 62.7375 37.6973 62.0925C37.6973 61.4475 38.0923 59.105 38.1073 59.0075C38.1116 58.9819 38.1238 58.9583 38.1422 58.9399C38.1605 58.9215 38.1842 58.9093 38.2098 58.905C38.2353 58.8999 38.2618 58.9033 38.2852 58.9146C38.3087 58.9258 38.3278 58.9444 38.3398 58.9675L44.2298 69.75C44.6807 69.5759 45.1136 69.3582 45.5223 69.1C46.2781 68.6801 46.9722 68.1576 47.5848 67.5475L42.8148 55.8225C42.8134 55.8109 42.8134 55.7992 42.8148 55.7875C42.8148 55.6575 41.6898 42.76 41.5898 42.11C41.5665 41.9444 41.5565 41.7772 41.5598 41.61C41.5598 41.325 41.5598 41.25 41.1998 41.0675C40.6073 40.7725 37.8298 40.1975 37.8023 40.19C37.7348 40.1675 33.1323 38.405 31.4173 37.88C29.8223 37.3925 27.4298 36.945 27.0823 36.88C26.7698 37.045 24.6123 38.1775 23.4423 38.7475C22.9948 38.9675 22.1748 39.2675 21.3048 39.5875C19.8373 40.125 17.8298 40.8625 17.5773 41.27C17.1798 41.9125 17.2373 42.9425 17.2373 42.9525C17.2399 42.9691 17.2399 42.986 17.2373 43.0025C17.1973 43.1175 13.0923 54.4325 12.9873 56.3825C12.8898 58.2825 13.2648 68.87 13.2923 69.6575C13.3798 69.735 13.7923 70.0325 15.1048 69.99C15.8442 69.9933 16.5799 69.8855 17.2873 69.67C17.3673 68.575 18.1073 58.27 18.2548 57.625C18.3565 57.1968 18.4962 56.7784 18.6723 56.375L20.4623 52.795C20.4741 52.7715 20.493 52.7524 20.5164 52.7402C20.5397 52.7281 20.5663 52.7237 20.5923 52.7275C20.6182 52.7317 20.6422 52.7438 20.661 52.7622C20.6798 52.7805 20.6925 52.8042 20.6973 52.83C20.7998 53.445 21.3123 56.525 21.3123 56.68C21.3123 56.835 18.7298 67.37 17.9298 70.6375Z" fill="#263238"/>
<path d="M20.5623 52.8599L18.8748 43.8199L19.5898 54.5974L20.5623 52.8599Z" fill="#263238"/>
<path d="M19.5897 54.7224H19.5622C19.536 54.7158 19.5126 54.7011 19.4951 54.6805C19.4776 54.6599 19.467 54.6344 19.4647 54.6074L18.7497 43.8299C18.7482 43.7981 18.7586 43.7668 18.779 43.7423C18.7993 43.7178 18.8281 43.7018 18.8597 43.6974C18.8913 43.6936 18.9232 43.7018 18.9491 43.7203C18.975 43.7388 18.9931 43.7663 18.9997 43.7974L20.6847 52.8374C20.6898 52.8667 20.6845 52.8967 20.6697 52.9224L19.6997 54.6574C19.6887 54.677 19.6728 54.6933 19.6535 54.7047C19.6341 54.7161 19.6122 54.7222 19.5897 54.7224ZM19.1397 45.9224L19.6872 54.1724L20.4372 52.8449L19.1397 45.9224Z" fill="#263238"/>
<path d="M29.1398 50.3299C29.1216 50.3299 29.1036 50.3259 29.0872 50.3181C29.0708 50.3104 29.0563 50.299 29.0448 50.2849C28.7756 49.9612 28.5426 49.6091 28.3498 49.2349C28.3389 49.2063 28.3389 49.1747 28.3498 49.1461C28.3606 49.1175 28.3816 49.0939 28.4087 49.0798C28.4358 49.0656 28.4672 49.0618 28.4969 49.0693C28.5265 49.0767 28.5525 49.0947 28.5698 49.1199C28.755 49.4761 28.9779 49.8114 29.2348 50.1199C29.2464 50.1313 29.2557 50.1449 29.262 50.16C29.2683 50.175 29.2715 50.1911 29.2715 50.2074C29.2715 50.2237 29.2683 50.2399 29.262 50.2549C29.2557 50.2699 29.2464 50.2835 29.2348 50.2949C29.2221 50.3068 29.2071 50.316 29.1908 50.3221C29.1745 50.3281 29.1571 50.3307 29.1398 50.3299Z" fill="#263238"/>
<path d="M28.2197 48.8025C28.1953 48.8025 28.1714 48.7955 28.1509 48.7822C28.1305 48.7688 28.1144 48.7498 28.1047 48.7275C26.9372 46.09 26.8197 42.3799 26.8197 42.3424C26.8193 42.326 26.8222 42.3097 26.8282 42.2944C26.8342 42.2791 26.8431 42.2652 26.8545 42.2533C26.8659 42.2415 26.8795 42.232 26.8945 42.2254C26.9096 42.2188 26.9257 42.2153 26.9422 42.215C26.9749 42.2155 27.0063 42.2285 27.0299 42.2512C27.0536 42.2739 27.0678 42.3047 27.0697 42.3375C27.0697 42.3725 27.1872 46.0324 28.3197 48.6274C28.3267 48.6423 28.3307 48.6585 28.3313 48.675C28.332 48.6914 28.3293 48.7078 28.3235 48.7232C28.3177 48.7386 28.3088 48.7527 28.2974 48.7646C28.286 48.7765 28.2723 48.786 28.2572 48.7924C28.2453 48.7977 28.2326 48.8011 28.2197 48.8025Z" fill="#263238"/>
<path d="M27.4547 48.6449C27.4329 48.6448 27.4115 48.639 27.3926 48.628C27.3737 48.617 27.3581 48.6013 27.3472 48.5824C26.7708 47.5631 26.3368 46.4696 26.0572 45.3324C26.0535 45.3163 26.053 45.2997 26.0558 45.2834C26.0586 45.2671 26.0646 45.2516 26.0734 45.2376C26.0822 45.2237 26.0938 45.2116 26.1073 45.2021C26.1208 45.1927 26.1361 45.186 26.1522 45.1824C26.1681 45.1788 26.1846 45.1783 26.2007 45.1811C26.2168 45.184 26.2322 45.19 26.246 45.1988C26.2597 45.2077 26.2715 45.2192 26.2808 45.2327C26.29 45.2462 26.2964 45.2614 26.2997 45.2774C26.5742 46.391 26.9998 47.4618 27.5647 48.4599C27.5802 48.4889 27.5839 48.5228 27.5751 48.5545C27.5662 48.5862 27.5455 48.6132 27.5172 48.6299C27.4982 48.6409 27.4765 48.6461 27.4547 48.6449Z" fill="#263238"/>
<path d="M26.2172 60.7625C26.1893 60.7619 26.1623 60.7523 26.1403 60.7352C26.1182 60.7181 26.1022 60.6943 26.0947 60.6675C26.0871 60.635 26.0926 60.6008 26.1099 60.5723C26.1271 60.5438 26.1549 60.5232 26.1872 60.515C28.1697 60.015 30.7072 59.4 32.0872 59.1025C31.4447 59.1325 30.5472 59.1975 29.7122 59.2675C29.6791 59.2701 29.6462 59.2595 29.6209 59.2379C29.5956 59.2163 29.5799 59.1856 29.5772 59.1525C29.5746 59.1193 29.5852 59.0865 29.6068 59.0611C29.6283 59.0358 29.6591 59.0201 29.6922 59.0175C33.1022 58.73 33.1172 58.84 33.1372 58.9775C33.1572 59.115 33.0347 59.165 32.5372 59.265C31.3122 59.515 28.4397 60.2125 26.2472 60.765L26.2172 60.7625Z" fill="#263238"/>
<path d="M23.8297 61.36C23.8133 61.362 23.7966 61.3607 23.7807 61.3562C23.7648 61.3518 23.7499 61.3442 23.7369 61.334C23.7239 61.3238 23.713 61.3111 23.7049 61.2967C23.6968 61.2823 23.6916 61.2664 23.6897 61.25C23.6877 61.2336 23.689 61.2169 23.6935 61.201C23.6979 61.1851 23.7055 61.1702 23.7157 61.1572C23.7259 61.1442 23.7386 61.1334 23.753 61.1253C23.7674 61.1171 23.7833 61.112 23.7997 61.11L24.8772 60.8375C24.9093 60.83 24.9431 60.8355 24.9713 60.8528C24.9994 60.8701 25.0195 60.8979 25.0272 60.93C25.0313 60.9458 25.0322 60.9622 25.0299 60.9783C25.0276 60.9944 25.0221 61.0099 25.0137 61.0239C25.0053 61.0379 24.9942 61.05 24.9811 61.0596C24.9679 61.0693 24.953 61.0762 24.9372 61.08L23.8597 61.3525L23.8297 61.36Z" fill="#263238"/>
<path d="M38.2322 59.04C38.2322 59.04 37.0572 57.1 36.9547 56.64C36.8522 56.18 36.0347 51.175 36.0347 51.175C36.0347 51.175 36.5972 59.1425 36.8022 60.215C36.9687 60.9243 37.3207 61.5766 37.8222 62.105L38.2322 59.04Z" fill="#263238"/>
<path d="M37.8221 62.2299C37.8058 62.2302 37.7895 62.2269 37.7744 62.2205C37.7594 62.214 37.7458 62.2045 37.7346 62.1925C37.2138 61.6474 36.8494 60.972 36.6796 60.2374C36.4746 59.1699 35.9296 51.51 35.9096 51.185C35.9077 51.1685 35.909 51.1519 35.9134 51.136C35.9179 51.1201 35.9254 51.1052 35.9357 51.0922C35.9459 51.0792 35.9585 51.0683 35.973 51.0602C35.9874 51.0521 36.0032 51.0469 36.0196 51.0449C36.0361 51.043 36.0527 51.0443 36.0686 51.0487C36.0845 51.0532 36.0994 51.0607 36.1124 51.071C36.1254 51.0812 36.1363 51.0938 36.1444 51.1083C36.1525 51.1227 36.1577 51.1385 36.1596 51.1549C36.1596 51.2049 36.9771 56.1549 37.0771 56.6124C37.1571 56.9724 38.0146 58.4399 38.3271 58.9749C38.3428 58.9994 38.349 59.0287 38.3447 59.0574L37.9371 62.1199C37.9338 62.1432 37.9241 62.1651 37.9091 62.1832C37.8941 62.2013 37.8744 62.2149 37.8521 62.2225C37.8426 62.2265 37.8325 62.229 37.8221 62.2299ZM36.3621 53.935C36.5446 56.345 36.8021 59.5475 36.9246 60.185C37.0604 60.783 37.3382 61.3395 37.7346 61.8074L38.1021 59.0574C37.9321 58.7749 36.9321 57.1 36.8321 56.6575C36.7821 56.445 36.5721 55.1875 36.3621 53.935Z" fill="#263238"/>
<path d="M35.7298 50.1775C35.7013 50.1776 35.6737 50.168 35.6514 50.1503C35.6291 50.1326 35.6136 50.1078 35.6073 50.08C35.6073 50.08 35.5098 49.6575 35.3998 49.02C35.397 49.0036 35.3975 48.9868 35.4012 48.9705C35.4049 48.9543 35.4118 48.9389 35.4214 48.9254C35.431 48.9118 35.4432 48.9002 35.4573 48.8914C35.4714 48.8825 35.4871 48.8765 35.5036 48.8737C35.52 48.8709 35.5368 48.8714 35.553 48.8751C35.5692 48.8788 35.5846 48.8857 35.5982 48.8953C35.6117 48.9049 35.6233 48.9172 35.6322 48.9313C35.641 48.9454 35.647 48.9611 35.6498 48.9775C35.7598 49.6075 35.8548 50.02 35.8548 50.0225C35.8589 50.0384 35.8597 50.055 35.8572 50.0713C35.8547 50.0875 35.849 50.1031 35.8404 50.1171C35.8318 50.1311 35.8204 50.1432 35.807 50.1527C35.7936 50.1622 35.7784 50.169 35.7623 50.1725L35.7298 50.1775Z" fill="#263238"/>
<path d="M35.4023 48.3699C35.3721 48.3697 35.343 48.3588 35.3201 48.3391C35.2972 48.3194 35.282 48.2923 35.2773 48.2624C35.0609 46.9256 34.9996 45.5683 35.0948 44.2174C35.3448 41.6574 37.4123 41.0999 37.4348 41.0949C37.4507 41.0908 37.4673 41.0899 37.4836 41.0921C37.4999 41.0944 37.5156 41.0999 37.5297 41.1083C37.5439 41.1166 37.5563 41.1277 37.5662 41.1409C37.576 41.154 37.5832 41.169 37.5873 41.1849C37.595 41.2171 37.5899 41.2509 37.5731 41.2794C37.5563 41.3078 37.5291 41.3286 37.4973 41.3374C37.4198 41.3574 35.5848 41.8599 35.3423 44.2424C35.251 45.5734 35.3123 46.9104 35.5248 48.2274C35.5292 48.2602 35.5206 48.2933 35.5011 48.3199C35.4815 48.3465 35.4523 48.3644 35.4198 48.3699H35.4023Z" fill="#263238"/>
<path d="M35.1147 47.8274C35.0901 47.827 35.0661 47.8194 35.0457 47.8057C35.0253 47.7919 35.0093 47.7726 34.9997 47.7499C34.6993 46.5694 34.5266 45.3599 34.4847 44.1424C34.4847 44.1093 34.4978 44.0775 34.5213 44.0541C34.5447 44.0306 34.5765 44.0174 34.6097 44.0174C34.6428 44.0174 34.6746 44.0306 34.6981 44.0541C34.7215 44.0775 34.7347 44.1093 34.7347 44.1424C34.7747 45.3377 34.9423 46.5253 35.2347 47.6849C35.2396 47.7007 35.2413 47.7173 35.2397 47.7337C35.2381 47.7501 35.2332 47.7661 35.2252 47.7806C35.2173 47.795 35.2065 47.8078 35.1935 47.818C35.1805 47.8282 35.1656 47.8356 35.1497 47.8399L35.1147 47.8274Z" fill="#263238"/>
</svg>
