<svg width="125" height="125" viewBox="0 0 125 125" fill="none" xmlns="http://www.w3.org/2000/svg">
<path d="M83.4373 9.09264C81.6023 10.3251 79.7898 11.5926 77.6873 12.1701C71.0373 14.0126 64.2498 9.39764 58.2898 7.06764C40.6523 0.165137 20.1873 9.26514 10.2498 24.7501C2.62229 36.6326 15.4998 48.4176 9.70479 60.7501C4.70479 71.3901 3.40728 87.2501 16.2198 97.2276C29.0323 107.205 37.4973 108.3 52.0448 101.57C66.5923 94.8401 77.6723 102.86 91.5698 105.25C105.467 107.64 116.972 98.7376 119.145 87.6651C121.41 76.1151 112.572 65.8526 112.702 54.3876C112.77 48.4526 115.985 42.9651 117.37 37.2676C118.87 31.0601 119.317 24.1751 115.892 18.4951C109.922 8.59764 96.8323 1.34764 85.8048 7.59514C84.9998 8.05264 84.2148 8.57014 83.4373 9.09264Z" fill="#92E3A9"/>
<path opacity="0.7" d="M83.4373 9.09264C81.6023 10.3251 79.7898 11.5926 77.6873 12.1701C71.0373 14.0126 64.2498 9.39764 58.2898 7.06764C40.6523 0.165137 20.1873 9.26514 10.2498 24.7501C2.62229 36.6326 15.4998 48.4176 9.70479 60.7501C4.70479 71.3901 3.40728 87.2501 16.2198 97.2276C29.0323 107.205 37.4973 108.3 52.0448 101.57C66.5923 94.8401 77.6723 102.86 91.5698 105.25C105.467 107.64 116.972 98.7376 119.145 87.6651C121.41 76.1151 112.572 65.8526 112.702 54.3876C112.77 48.4526 115.985 42.9651 117.37 37.2676C118.87 31.0601 119.317 24.1751 115.892 18.4951C109.922 8.59764 96.8323 1.34764 85.8048 7.59514C84.9998 8.05264 84.2148 8.57014 83.4373 9.09264Z" fill="white"/>
<path d="M64.1254 120.75C86.1478 120.75 104 119.127 104 117.125C104 115.123 86.1478 113.5 64.1254 113.5C42.1031 113.5 24.2504 115.123 24.2504 117.125C24.2504 119.127 42.1031 120.75 64.1254 120.75Z" fill="#92E3A9"/>
<path d="M99.9476 39.1751C99.9476 39.1751 100.525 40.3551 100.293 40.8676C100.06 41.3801 99.5976 44.6176 101.885 46.2401C104.173 47.8626 106.385 46.5476 107.465 45.8626C108.545 45.1776 108.86 45.1901 109.005 45.4601C109.15 45.7301 99.7326 53.1526 99.2551 53.2901C98.7776 53.4276 97.6751 53.4276 95.8226 52.6101C93.9701 51.7926 92.0001 50.1801 91.9751 49.5001C91.9501 48.8201 91.5426 47.4876 91.7701 47.0776C91.9976 46.6676 99.0001 38.1351 99.0001 38.1351C99.4142 38.3775 99.7447 38.7402 99.9476 39.1751Z" stroke="#263238" stroke-width="0.236" stroke-linecap="round" stroke-linejoin="round"/>
<path d="M91.9752 49.4976L96.5652 44.3726" stroke="#263238" stroke-width="0.118" stroke-linecap="round" stroke-linejoin="round"/>
<path d="M97.0577 43.9225L98.8277 41.905" stroke="#263238" stroke-width="0.118" stroke-linecap="round" stroke-linejoin="round"/>
<path d="M99.0001 38.135L101.793 33.275C101.793 33.275 102.635 33.2075 102.793 33.3725C102.95 33.5375 102.908 34.27 102.908 34.27L99.9576 39.175" stroke="#263238" stroke-width="0.236" stroke-linecap="round" stroke-linejoin="round"/>
<path d="M99.4852 38.4175L102.215 34.0975L102.9 34.27" stroke="#263238" stroke-width="0.118" stroke-linecap="round" stroke-linejoin="round"/>
<path d="M100.975 37.5C100.975 37.5 103.383 34.4825 103.693 34.2C104.003 33.9175 104.538 34.435 104.538 34.435C104.538 34.435 104.67 35.1325 104.465 35.32C104.26 35.5075 100.75 39.5275 100.395 40.17C100.395 40.17 104.943 35.635 105.145 35.3175C105.348 35 105.693 34.88 105.978 35.1225C106.263 35.365 106.4 35.9325 106.158 36.2175C105.915 36.5025 102.088 40.3775 101.408 41.07C100.922 41.5924 100.498 42.1697 100.145 42.79" stroke="#263238" stroke-width="0.236" stroke-linecap="round" stroke-linejoin="round"/>
<path d="M102.95 33.8676C102.95 33.8676 103.7 32.4201 103.95 32.2676C104.2 32.1151 104.743 32.1701 104.7 32.5301C104.658 32.8901 103.7 34.1976 103.7 34.1976" stroke="#263238" stroke-width="0.236" stroke-linecap="round" stroke-linejoin="round"/>
<path d="M104.128 38.3975L100.803 44.96" stroke="#263238" stroke-width="0.236" stroke-linecap="round" stroke-linejoin="round"/>
<path d="M105.653 36.6876L101.58 45.9501" stroke="#263238" stroke-width="0.236" stroke-linecap="round" stroke-linejoin="round"/>
<path d="M100.395 43.8225L102.36 41.8375" stroke="#263238" stroke-width="0.236" stroke-linecap="round" stroke-linejoin="round"/>
<path d="M106.353 35.7976C106.353 35.7976 107.508 34.2376 107.728 34.4776C107.948 34.7176 108.858 34.9576 108.515 35.2701C108.173 35.5826 106.16 37.8626 105.128 40.3176C104.095 42.7726 103.33 44.4151 103.33 44.4151" stroke="#263238" stroke-width="0.236" stroke-linecap="round" stroke-linejoin="round"/>
<path d="M101.948 45.1101C101.948 45.1101 104.67 43.8851 105.25 43.4176C105.83 42.9501 110.655 39.6126 110.858 39.4901C111.06 39.3676 111.548 40.2401 111.57 40.4776C111.593 40.7151 111.163 41.4776 110.835 41.4776C110.508 41.4776 105.385 44.8176 104.875 45.1576C104.365 45.4976 102.97 45.8276 102.625 46.0101C102.389 46.1312 102.136 46.2155 101.875 46.2601" stroke="#263238" stroke-width="0.236" stroke-linecap="round" stroke-linejoin="round"/>
<path d="M107.113 43.73C107.113 43.73 105.983 45.3925 105.558 46.0975C105.133 46.8025 105.02 47.0275 105.02 47.0275" stroke="#263238" stroke-width="0.236" stroke-linecap="round" stroke-linejoin="round"/>
<path d="M104.333 45.515L103.48 46.925" stroke="#263238" stroke-width="0.236" stroke-linecap="round" stroke-linejoin="round"/>
<path d="M109.228 40.6026L111.045 38.2476C111.71 37.3901 110.77 37.0501 110.32 36.8326C109.87 36.6151 109.688 37.7251 108.57 39.1251C107.453 40.5251 105.82 43.0151 105.82 43.0151" stroke="#263238" stroke-width="0.236" stroke-linecap="round" stroke-linejoin="round"/>
<path d="M104.508 41.6401L108.57 39.1251" stroke="#263238" stroke-width="0.236" stroke-linecap="round" stroke-linejoin="round"/>
<path d="M110.585 39.6751C110.585 39.6751 112.085 38.5576 112.428 38.2451C112.77 37.9326 112.108 37.3426 112.013 37.2451C111.918 37.1476 111.2 37.7451 111.2 37.7451" stroke="#263238" stroke-width="0.236" stroke-linecap="round" stroke-linejoin="round"/>
<path d="M105.525 40.96C105.725 40.21 108.09 35.91 108.225 35.85C108.392 35.8157 108.566 35.8226 108.73 35.8701C108.894 35.9175 109.044 36.0042 109.168 36.1225C109.45 36.4325 108.868 36.9 108.543 37.575C108.218 38.25 107.293 39.9225 107.293 39.9225" stroke="#263238" stroke-width="0.236" stroke-linecap="round" stroke-linejoin="round"/>
<path d="M108.838 42.6575L111.338 42.08C111.338 42.08 111.8 42.79 111.553 43.1425C111.305 43.495 106.34 44.8925 106.34 44.8925" stroke="#263238" stroke-width="0.236" stroke-linecap="round" stroke-linejoin="round"/>
<path d="M106.665 46.3451L108.603 44.2601" stroke="#263238" stroke-width="0.236" stroke-linecap="round" stroke-linejoin="round"/>
<path d="M104.465 35.3176L103.805 35.3551C103.805 35.3551 100.36 38.7526 100.09 39.6301" stroke="#263238" stroke-width="0.118" stroke-linecap="round" stroke-linejoin="round"/>
<path d="M105.425 35.1976C105.425 35.1976 105.443 35.4951 105.46 35.8576C105.478 36.2201 101 40.6901 100.75 40.9751C100.5 41.2601 100.085 41.8351 100.085 41.8351" stroke="#263238" stroke-width="0.118" stroke-linecap="round" stroke-linejoin="round"/>
<path d="M107.875 34.8475C107.875 34.8475 105.14 37.8475 104.955 38.27" stroke="#263238" stroke-width="0.118" stroke-linecap="round" stroke-linejoin="round"/>
<path d="M104.11 43.1351L106.853 41.4476" stroke="#263238" stroke-width="0.118" stroke-linecap="round" stroke-linejoin="round"/>
<path d="M111.41 40.3701C111.41 40.3701 110.355 41.1476 108.69 42.2876C107.025 43.4276 104.263 44.8851 103.763 45.0376C103.263 45.1901 101.828 45.6076 101.828 45.6076" stroke="#263238" stroke-width="0.118" stroke-linecap="round" stroke-linejoin="round"/>
<path d="M111.475 42.58C111.475 42.58 109.7 43.255 108.475 43.6275C107.863 43.7947 107.268 44.0216 106.7 44.305" stroke="#263238" stroke-width="0.118" stroke-linecap="round" stroke-linejoin="round"/>
<path d="M110.32 36.8325C110.32 36.8325 110.858 37.285 110.613 37.6375C110.368 37.99 107.32 42.03 107.32 42.03" stroke="#263238" stroke-width="0.118" stroke-linecap="round" stroke-linejoin="round"/>
<path d="M108.685 35.8701C108.685 35.8701 106.25 40.2501 106.2 40.5976" stroke="#263238" stroke-width="0.118" stroke-linecap="round" stroke-linejoin="round"/>
<path d="M104.03 69.7926C103.293 69.0851 102.438 68.6101 101.548 68.6501C100.912 68.7201 100.312 68.9817 99.8276 69.4001C99.1444 69.0375 98.3457 68.9594 97.6051 69.1826C96.9606 69.3889 96.3894 69.777 95.9601 70.3001C95.9601 70.3001 94.5776 70.0351 93.7101 70.5501C93.1963 70.85 92.8062 71.3233 92.6101 71.8851C92.6101 71.8851 90.8351 71.9726 89.9476 72.8526C89.0601 73.7326 88.8426 74.28 88.8426 74.28C88.7807 74.6088 88.789 74.9469 88.867 75.2722C88.945 75.5975 89.0909 75.9026 89.2951 76.1676C89.9901 77.0451 90.5626 76.7975 91.4501 77.5925C92.3376 78.3875 95.0326 80.1226 98.4276 82.6426C101.823 85.1626 105.105 86.4651 106.678 88.4151C108.25 90.3651 109.153 90.7901 110.228 91.5026C111.303 92.2151 111.52 90.085 110.928 89.0275C110.335 87.97 111.475 85.8925 109.768 81.5125C108.06 77.1325 106.518 74.6251 106.298 73.6801C105.891 72.21 105.109 70.8706 104.03 69.7926Z" stroke="#263238" stroke-width="0.236" stroke-linecap="round" stroke-linejoin="round"/>
<path d="M88.8451 74.265C88.8451 74.265 89.2176 72.6101 91.3976 73.5726C93.5776 74.5351 93.1251 75.9975 93.8151 76.9675C94.5051 77.9375 97.8826 79.15 98.9176 80.6075C99.9526 82.065 102.218 83.5775 103.115 84.1875C104.013 84.7975 106.643 87.28 107.545 87.7975C108.422 88.3247 109.176 89.034 109.755 89.8776C110.095 90.4551 110.24 91.2075 110.533 90.945C110.825 90.6825 110.923 89.0125 110.923 89.0125" stroke="#263238" stroke-width="0.236" stroke-linecap="round" stroke-linejoin="round"/>
<path d="M93.5477 75.0901C93.5477 75.0901 93.4877 74.5276 95.3702 74.1676C97.2527 73.8076 97.4177 72.5126 98.3702 72.1026C99.3227 71.6926 101.263 71.9851 101.82 72.0176C102.332 72.0002 102.838 71.9032 103.32 71.7301C103.605 71.6526 104.72 70.8176 104.72 70.8176" stroke="#263238" stroke-width="0.236" stroke-linecap="round" stroke-linejoin="round"/>
<path d="M98.1927 74.9151C97.5952 75.1351 97.1477 75.5376 97.0652 76.1801C96.9077 77.4051 98.8727 78.8151 99.9777 78.3376C100.55 78.0876 102.618 76.0651 102 75.4726C101.298 74.7976 99.4227 74.4651 98.1927 74.9151Z" stroke="#263238" stroke-width="0.236" stroke-linecap="round" stroke-linejoin="round"/>
<path d="M105.198 78.2175C104.78 78.1919 104.36 78.2153 103.948 78.2875C103.468 78.37 102.805 78.44 102.74 78.995C102.665 79.6275 103.74 80.225 104.24 80.245C104.89 80.2825 106.778 79.83 106.715 79.2675C106.64 78.53 105.93 78.27 105.198 78.2175Z" stroke="#263238" stroke-width="0.236" stroke-linecap="round" stroke-linejoin="round"/>
<path d="M104.91 75.09C104.328 75.1325 103.868 75.3926 104.218 75.7826C104.918 76.5676 106.333 76.2825 106.353 75.9025C106.388 75.27 105.57 75.04 104.91 75.09Z" stroke="#263238" stroke-width="0.236" stroke-linecap="round" stroke-linejoin="round"/>
<path d="M105.848 82.9775C105.298 82.885 104.768 83.135 104.883 83.83C105.02 84.675 106.575 85.135 106.788 84.6825C107.25 83.7275 106.53 83.09 105.848 82.9775Z" stroke="#263238" stroke-width="0.236" stroke-linecap="round" stroke-linejoin="round"/>
<path d="M92.6127 71.87C92.6127 71.87 94.7952 71.155 95.5402 72.78" stroke="#263238" stroke-width="0.118" stroke-linecap="round" stroke-linejoin="round"/>
<path d="M96.9552 70.8126C96.9552 70.8126 98.0527 71.1526 98.2052 71.6276" stroke="#263238" stroke-width="0.118" stroke-linecap="round" stroke-linejoin="round"/>
<path d="M99.7252 69.5701C99.7252 69.5701 100.823 69.9126 100.975 70.3876" stroke="#263238" stroke-width="0.118" stroke-linecap="round" stroke-linejoin="round"/>
<path d="M92.5201 76.8C92.5201 76.8 91.0201 73.83 90.3251 74.4425C89.6301 75.055 89.7976 75.53 90.7001 76.045C91.6026 76.56 93.1276 77.58 93.5826 77.795C94.0376 78.01 92.5201 76.8 92.5201 76.8Z" stroke="#263238" stroke-width="0.118" stroke-linecap="round" stroke-linejoin="round"/>
<path d="M106.15 16.1175C106.15 21.685 102.01 20.95 96.9 20.95C91.79 20.95 87.65 22.0025 87.65 16.1175C87.65 12.6925 91.79 9.91754 96.9 9.91754C102.01 9.91754 106.15 12.6925 106.15 16.1175Z" stroke="#263238" stroke-width="0.236" stroke-linecap="round" stroke-linejoin="round"/>
<path d="M106.113 26.5376C106.138 26.7616 106.151 26.987 106.15 27.2126C106.15 29.6826 102.01 30.7376 96.9001 30.7376C91.7901 30.7376 87.6501 29.6826 87.6501 27.2126C87.6224 26.9078 87.6435 26.6006 87.7126 26.3026" stroke="#263238" stroke-width="0.236" stroke-linecap="round" stroke-linejoin="round"/>
<path d="M106.133 17.415C106.133 17.415 106.503 18.165 107.02 18.97C107.538 19.775 106.575 19.86 105.983 20.75C105.39 21.64 105.835 22.23 104.28 22.0825C102.725 21.935 102.798 21.12 101.91 21.6375C101.023 22.155 100.205 22.8875 99.2427 22.305C98.2802 21.7225 97.7602 21.6375 97.0927 22.0825C96.4252 22.5275 95.6127 23.1925 94.5002 22.4525C93.3877 21.7125 93.0177 21.935 92.0552 22.75C91.0927 23.565 89.9802 23.12 89.6852 22.0825C89.3902 21.045 89.0927 21.5 88.2027 20.75C87.3127 20 88.1302 19.12 88.1302 19.12" stroke="#263238" stroke-width="0.236" stroke-linecap="round" stroke-linejoin="round"/>
<path d="M96.4151 12.885C96.3355 12.9955 96.2307 13.0855 96.1094 13.1476C95.9881 13.2096 95.8539 13.242 95.7176 13.242C95.5814 13.242 95.4472 13.2096 95.3259 13.1476C95.2046 13.0855 95.0998 12.9955 95.0201 12.885C95.0991 12.7736 95.2037 12.6827 95.3251 12.62C95.4464 12.5573 95.581 12.5245 95.7176 12.5245C95.8543 12.5245 95.9889 12.5573 96.1102 12.62C96.2316 12.6827 96.3361 12.7736 96.4151 12.885Z" stroke="#263238" stroke-width="0.118" stroke-linecap="round" stroke-linejoin="round"/>
<path d="M99.43 12.0176C99.3503 12.128 99.2456 12.218 99.1243 12.2801C99.003 12.3421 98.8687 12.3745 98.7325 12.3745C98.5963 12.3745 98.462 12.3421 98.3408 12.2801C98.2195 12.218 98.1147 12.128 98.035 12.0176C98.1147 11.9071 98.2195 11.8171 98.3408 11.7551C98.462 11.693 98.5963 11.6606 98.7325 11.6606C98.8687 11.6606 99.003 11.693 99.1243 11.7551C99.2456 11.8171 99.3503 11.9071 99.43 12.0176Z" stroke="#263238" stroke-width="0.118" stroke-linecap="round" stroke-linejoin="round"/>
<path d="M101.465 11.6025C101.386 11.713 101.281 11.803 101.159 11.865C101.038 11.9271 100.904 11.9594 100.768 11.9594C100.631 11.9594 100.497 11.9271 100.376 11.865C100.255 11.803 100.15 11.713 100.07 11.6025C100.15 11.492 100.255 11.4021 100.376 11.34C100.497 11.278 100.631 11.2456 100.768 11.2456C100.904 11.2456 101.038 11.278 101.159 11.34C101.281 11.4021 101.386 11.492 101.465 11.6025Z" stroke="#263238" stroke-width="0.118" stroke-linecap="round" stroke-linejoin="round"/>
<path d="M93.68 12.0176C93.6003 12.128 93.4956 12.218 93.3743 12.2801C93.253 12.3421 93.1187 12.3745 92.9825 12.3745C92.8463 12.3745 92.712 12.3421 92.5908 12.2801C92.4695 12.218 92.3647 12.128 92.285 12.0176C92.3647 11.9071 92.4695 11.8171 92.5908 11.7551C92.712 11.693 92.8463 11.6606 92.9825 11.6606C93.1187 11.6606 93.253 11.693 93.3743 11.7551C93.4956 11.8171 93.6003 11.9071 93.68 12.0176Z" stroke="#263238" stroke-width="0.118" stroke-linecap="round" stroke-linejoin="round"/>
<path d="M92.2276 13.5251C92.148 13.6355 92.0432 13.7255 91.9219 13.7876C91.8006 13.8496 91.6664 13.882 91.5301 13.882C91.3939 13.882 91.2597 13.8496 91.1384 13.7876C91.0171 13.7255 90.9123 13.6355 90.8326 13.5251C90.9123 13.4146 91.0171 13.3246 91.1384 13.2626C91.2597 13.2005 91.3939 13.1682 91.5301 13.1682C91.6664 13.1682 91.8006 13.2005 91.9219 13.2626C92.0432 13.3246 92.148 13.4146 92.2276 13.5251Z" stroke="#263238" stroke-width="0.118" stroke-linecap="round" stroke-linejoin="round"/>
<path d="M95.1503 14.2225C95.0706 14.333 94.9658 14.423 94.8445 14.485C94.7232 14.5471 94.589 14.5794 94.4528 14.5794C94.3165 14.5794 94.1823 14.5471 94.061 14.485C93.9397 14.423 93.8349 14.333 93.7552 14.2225C93.8349 14.112 93.9397 14.0221 94.061 13.96C94.1823 13.898 94.3165 13.8656 94.4528 13.8656C94.589 13.8656 94.7232 13.898 94.8445 13.96C94.9658 14.0221 95.0706 14.112 95.1503 14.2225Z" stroke="#263238" stroke-width="0.118" stroke-linecap="round" stroke-linejoin="round"/>
<path d="M90.4376 14.6C90.3579 14.7105 90.2531 14.8005 90.1319 14.8625C90.0106 14.9246 89.8763 14.9569 89.7401 14.9569C89.6039 14.9569 89.4696 14.9246 89.3483 14.8625C89.2271 14.8005 89.1223 14.7105 89.0426 14.6C89.1223 14.4895 89.2271 14.3996 89.3483 14.3375C89.4696 14.2755 89.6039 14.2431 89.7401 14.2431C89.8763 14.2431 90.0106 14.2755 90.1319 14.3375C90.2531 14.3996 90.3579 14.4895 90.4376 14.6Z" stroke="#263238" stroke-width="0.118" stroke-linecap="round" stroke-linejoin="round"/>
<path d="M96.5826 11.2825C96.5029 11.393 96.3981 11.483 96.2769 11.545C96.1556 11.6071 96.0213 11.6394 95.8851 11.6394C95.7489 11.6394 95.6146 11.6071 95.4934 11.545C95.3721 11.483 95.2673 11.393 95.1876 11.2825C95.2673 11.172 95.3721 11.0821 95.4934 11.02C95.6146 10.958 95.7489 10.9256 95.8851 10.9256C96.0213 10.9256 96.1556 10.958 96.2769 11.02C96.3981 11.0821 96.5029 11.172 96.5826 11.2825Z" stroke="#263238" stroke-width="0.118" stroke-linecap="round" stroke-linejoin="round"/>
<path d="M101.41 12.9775C101.331 13.089 101.227 13.1799 101.105 13.2426C100.984 13.3053 100.849 13.338 100.713 13.338C100.576 13.338 100.442 13.3053 100.32 13.2426C100.199 13.1799 100.094 13.089 100.015 12.9775C100.095 12.867 100.2 12.7771 100.321 12.715C100.442 12.653 100.577 12.6206 100.713 12.6206C100.849 12.6206 100.983 12.653 101.105 12.715C101.226 12.7771 101.331 12.867 101.41 12.9775Z" stroke="#263238" stroke-width="0.118" stroke-linecap="round" stroke-linejoin="round"/>
<path d="M102.955 13.9225C102.875 14.033 102.771 14.123 102.649 14.185C102.528 14.2471 102.394 14.2794 102.258 14.2794C102.121 14.2794 101.987 14.2471 101.866 14.185C101.745 14.123 101.64 14.033 101.56 13.9225C101.639 13.8111 101.744 13.7202 101.865 13.6575C101.986 13.5947 102.121 13.562 102.258 13.562C102.394 13.562 102.529 13.5947 102.65 13.6575C102.772 13.7202 102.876 13.8111 102.955 13.9225Z" stroke="#263238" stroke-width="0.118" stroke-linecap="round" stroke-linejoin="round"/>
<path d="M98.7701 13.94C98.6904 14.0505 98.5856 14.1405 98.4644 14.2025C98.3431 14.2646 98.2088 14.297 98.0726 14.297C97.9364 14.297 97.8021 14.2646 97.6809 14.2025C97.5596 14.1405 97.4548 14.0505 97.3751 13.94C97.4548 13.8296 97.5596 13.7396 97.6809 13.6775C97.8021 13.6155 97.9364 13.5831 98.0726 13.5831C98.2088 13.5831 98.3431 13.6155 98.4644 13.6775C98.5856 13.7396 98.6904 13.8296 98.7701 13.94Z" stroke="#263238" stroke-width="0.118" stroke-linecap="round" stroke-linejoin="round"/>
<path d="M92.0551 22.7501C92.0551 22.7501 92.4876 24.7801 94.9126 25.0751C97.3376 25.3701 99.2051 23.5351 98.9126 22.1176" stroke="#263238" stroke-width="0.236" stroke-linecap="round" stroke-linejoin="round"/>
<path d="M92.5477 22.535C92.5477 22.535 93.4352 23.48 93.7977 23.535C94.1602 23.59 94.6727 22.5575 94.6727 22.5575" stroke="#263238" stroke-width="0.236" stroke-linecap="round" stroke-linejoin="round"/>
<path d="M95.0302 22.72C95.0302 22.72 94.8527 23.72 95.0877 23.9525C95.3227 24.185 96.2702 24.425 96.7427 24.07C97.2152 23.715 96.3302 22.5925 96.3302 22.5925" stroke="#263238" stroke-width="0.236" stroke-linecap="round" stroke-linejoin="round"/>
<path d="M96.8226 22.2975C96.8226 22.2975 97.2151 23.25 97.6301 23.25C98.0451 23.25 98.5976 22.25 98.3026 21.8375" stroke="#263238" stroke-width="0.236" stroke-linecap="round" stroke-linejoin="round"/>
<path d="M101.91 21.6375C101.91 21.6375 102.595 23.065 104.603 23.3025C106.61 23.54 105.785 21.235 105.785 21.235" stroke="#263238" stroke-width="0.236" stroke-linecap="round" stroke-linejoin="round"/>
<path d="M103.068 21.825C103.068 21.825 103.835 22.475 104.603 22.5925C105.37 22.71 105.253 21.9425 105.253 21.9425" stroke="#263238" stroke-width="0.236" stroke-linecap="round" stroke-linejoin="round"/>
<path d="M88.2026 20.7501C88.0564 20.7979 87.9239 20.8803 87.8163 20.9903C87.7088 21.1003 87.6294 21.2347 87.585 21.382C87.5406 21.5293 87.5324 21.6851 87.5611 21.8363C87.5899 21.9874 87.6547 22.1294 87.7501 22.2501C88.4001 23.3126 89.3451 23.2501 89.9376 23.2501C90.5301 23.2501 91.4726 23.6651 91.8276 23.6651C92.0819 23.6753 92.3338 23.7172 92.5776 23.7901" stroke="#263238" stroke-width="0.236" stroke-linecap="round" stroke-linejoin="round"/>
<path d="M105.103 23.295C104.648 23.5813 104.136 23.7655 103.603 23.835C102.833 23.8925 101.353 23.9525 100.173 23.9525C99.4593 23.953 98.7488 24.0428 98.0577 24.22" stroke="#263238" stroke-width="0.236" stroke-linecap="round" stroke-linejoin="round"/>
<path d="M105.793 22.95C105.793 22.95 107.205 22.6525 107.323 21.6475C107.44 20.6425 106.25 20.2875 106.25 20.2875" stroke="#263238" stroke-width="0.236" stroke-linecap="round" stroke-linejoin="round"/>
<path d="M88.0476 22.65C87.9626 22.81 87.8676 22.98 87.7676 23.15C87.2876 23.9875 88.2526 24.0175 88.8876 24.8775C89.5226 25.7375 89.1026 26.35 90.6501 26.1275C92.1976 25.905 92.0851 25.0975 92.9976 25.5725C93.9101 26.0475 94.7476 26.7525 95.6926 26.1175C96.6376 25.4825 97.1426 25.3825 97.8276 25.795C98.5126 26.2075 99.3601 26.8375 100.435 26.045C101.51 25.2525 101.893 25.4575 102.893 26.2275C103.893 26.9975 104.98 26.5025 105.23 25.4525C105.48 24.4025 105.795 24.835 106.648 24.0525C107.5 23.27 106.648 22.42 106.648 22.42" stroke="#263238" stroke-width="0.236" stroke-linecap="round" stroke-linejoin="round"/>
<path d="M102.893 26.2501C102.893 26.2501 102.553 28.3001 100.143 28.7051C97.7327 29.1101 95.7852 27.3651 96.0152 25.9326" stroke="#263238" stroke-width="0.236" stroke-linecap="round" stroke-linejoin="round"/>
<path d="M102.39 26.0475C102.39 26.0475 101.548 27.0475 101.198 27.11C100.848 27.1725 100.28 26.1725 100.28 26.1725" stroke="#263238" stroke-width="0.236" stroke-linecap="round" stroke-linejoin="round"/>
<path d="M99.9201 26.3475C99.9201 26.3475 100.143 27.3475 99.9201 27.5825C99.6976 27.8175 98.7601 28.11 98.2726 27.7775C97.7851 27.445 98.6176 26.2775 98.6176 26.2775" stroke="#263238" stroke-width="0.236" stroke-linecap="round" stroke-linejoin="round"/>
<path d="M98.1102 26C98.1102 26 97.7602 26.965 97.3452 26.9825C96.9302 27 96.3327 26.0275 96.6102 25.6" stroke="#263238" stroke-width="0.236" stroke-linecap="round" stroke-linejoin="round"/>
<path d="M93.0001 25.5826C93.0001 25.5826 92.3801 27.0426 90.3851 27.3701C88.3901 27.6976 89.1101 25.3701 89.1101 25.3701" stroke="#263238" stroke-width="0.236" stroke-linecap="round" stroke-linejoin="round"/>
<path d="M91.8502 25.8226C91.8502 25.8226 91.1127 26.5076 90.3502 26.6626C89.5877 26.8176 89.6702 26.0426 89.6702 26.0426" stroke="#263238" stroke-width="0.236" stroke-linecap="round" stroke-linejoin="round"/>
<path d="M106.648 24.0651C106.793 24.1087 106.926 24.1863 107.035 24.2916C107.144 24.3968 107.227 24.5266 107.275 24.6701C107.324 24.8137 107.338 24.9668 107.316 25.1168C107.294 25.2668 107.236 25.4094 107.148 25.5326C106.548 26.6251 105.6 26.6101 105.01 26.6376C104.42 26.6651 103.495 27.1226 103.14 27.1376C102.885 27.1591 102.633 27.2129 102.39 27.2976" stroke="#263238" stroke-width="0.236" stroke-linecap="round" stroke-linejoin="round"/>
<path d="M89.8851 27.3851C90.353 27.6514 90.8735 27.8118 91.4101 27.8551C92.1801 27.8801 93.6601 27.8701 94.8401 27.8151C95.5528 27.7836 96.2665 27.8407 96.9651 27.9851" stroke="#263238" stroke-width="0.236" stroke-linecap="round" stroke-linejoin="round"/>
<path d="M89.1801 27.0726C89.1801 27.0726 87.7551 26.8401 87.5901 25.8426C87.4251 24.8451 88.5901 24.4351 88.5901 24.4351" stroke="#263238" stroke-width="0.236" stroke-linecap="round" stroke-linejoin="round"/>
<path d="M87.8776 18.28C88.253 18.5121 88.6488 18.7096 89.0601 18.87C90.0051 19.285 90.0601 19.12 91.0601 19.12C92.0601 19.12 92.0601 19.65 93.3651 19.65C94.6701 19.65 95.0201 18.8825 95.9651 19.12C96.9101 19.3575 96.7326 19.71 98.3301 19.5325C99.9276 19.355 100.515 19.06 101.165 19.12C101.815 19.18 101.875 19.77 103.115 19.12C104.355 18.47 105.42 17.995 105.953 18.055" stroke="#263238" stroke-width="0.118" stroke-linecap="round" stroke-linejoin="round"/>
<path d="M94.3278 65.8476C94.4507 65.3016 94.6292 64.7697 94.8603 64.2601C95.1328 63.7801 95.9453 63.1651 97.5728 62.6626C99.2003 62.1601 115.46 58.3051 115.515 58.2926C116.94 57.9551 116.095 59.7001 115.765 60.2926C114.015 63.4201 109.6 64.6376 106.353 65.4501C103.355 66.1798 100.294 66.6226 97.2128 66.7726C93.9628 66.9451 94.9853 66.3601 94.9853 66.3601" stroke="#263238" stroke-width="0.236" stroke-linecap="round" stroke-linejoin="round"/>
<path d="M94.8601 64.25C94.8601 64.25 93.0751 65.145 91.9676 64.8875C90.8601 64.63 89.4276 62.98 90.3676 61.45C91.3076 59.92 96.2176 58.935 97.1026 58.54C97.9876 58.145 108.318 55.6275 109.378 55.3575C111.49 54.8225 113.903 54.595 114.933 54.985C116.388 55.535 116.545 57.595 115.515 58.2825" stroke="#263238" stroke-width="0.236" stroke-linecap="round" stroke-linejoin="round"/>
<path d="M90.3677 61.46C90.2412 60.7264 90.2923 59.9731 90.5167 59.2632C90.7412 58.5534 91.1324 57.9076 91.6577 57.38C93.4677 55.555 95.6377 55.8075 97.9627 55.505C100.288 55.2025 108.585 52.74 110.17 52.53C113.36 52.105 113.838 53.9075 113.52 54.695" stroke="#263238" stroke-width="0.236" stroke-linecap="round" stroke-linejoin="round"/>
<path d="M93.1827 59.8751C93.1827 59.8751 93.6702 58.5926 95.9502 57.8751C98.2302 57.1576 99.8752 57.2776 103.653 56.2426C107.43 55.2076 109.415 53.6126 111.153 53.8526C112.89 54.0926 112.815 54.6026 112.815 54.6026" stroke="#263238" stroke-width="0.236" stroke-linecap="round" stroke-linejoin="round"/>
<path d="M91.9677 64.8975C91.9677 64.8975 92.5577 66.6475 96.5877 66.7825" stroke="#263238" stroke-width="0.236" stroke-linecap="round" stroke-linejoin="round"/>
<path d="M94.6552 62.6275C94.0085 62.621 93.363 62.5717 92.7227 62.48C92.5882 62.4588 92.4674 62.3856 92.3862 62.2763C92.3051 62.1669 92.2701 62.0301 92.2887 61.8951C92.3074 61.7602 92.3782 61.638 92.486 61.5548C92.5938 61.4716 92.73 61.434 92.8652 61.45C94.1427 61.6275 95.4702 61.625 95.8652 61.45C95.8377 61.2825 95.7827 61.085 95.7302 60.895C95.5727 60.3375 95.3927 59.705 95.7877 59.25C96.1502 58.835 96.7527 58.865 97.1727 58.9225C97.784 59.0209 98.3793 59.2009 98.9427 59.4575C99.7377 59.7875 100.035 59.885 100.443 59.5475C100.708 59.3023 100.888 58.9793 100.958 58.625C101.13 58.055 101.368 57.27 102.723 57.205C103.549 57.179 104.37 57.3361 105.128 57.665C105.599 57.8679 106.099 57.9969 106.61 58.0475H106.663C106.654 57.8966 106.635 57.7463 106.608 57.5975C106.535 57.1575 106.445 56.5975 106.763 56.2025C106.86 56.0819 106.983 55.9836 107.122 55.9146C107.26 55.8456 107.413 55.8073 107.568 55.8025C108.503 55.72 109.233 55.9825 109.94 56.24C110.349 56.4054 110.774 56.527 111.208 56.6025C111.415 56.6325 111.423 56.6325 111.553 56.195C111.683 55.7575 111.868 55.115 112.658 55.0525C113.673 54.9675 114.158 55.135 114.233 55.1675C114.359 55.2203 114.459 55.3205 114.512 55.4465C114.565 55.5725 114.566 55.7143 114.515 55.8411C114.464 55.9679 114.365 56.0695 114.24 56.1241C114.114 56.1786 113.973 56.1817 113.845 56.1325C113.483 56.0543 113.11 56.0391 112.743 56.0875C112.73 56.0855 112.718 56.0855 112.705 56.0875C112.631 56.2074 112.579 56.3394 112.55 56.4775C112.428 56.9 112.168 57.7775 111.065 57.625C110.558 57.5408 110.062 57.4016 109.585 57.21C108.958 56.9825 108.365 56.7675 107.66 56.83C107.634 56.8311 107.608 56.8353 107.583 56.8425C107.575 57.0364 107.592 57.2304 107.633 57.42C107.708 57.8775 107.793 58.395 107.453 58.77C107.336 58.8889 107.192 58.9784 107.034 59.0314C106.876 59.0844 106.708 59.0994 106.543 59.075C105.93 59.0197 105.329 58.8696 104.763 58.63C104.135 58.3488 103.451 58.2137 102.763 58.235C102.14 58.265 102.098 58.4025 101.943 58.9175C101.817 59.4644 101.524 59.9588 101.105 60.3325C100.2 61.0825 99.3552 60.745 98.5427 60.4075C98.0617 60.1853 97.553 60.0289 97.0302 59.9425C96.8837 59.9183 96.7342 59.9183 96.5877 59.9425C96.6109 60.1704 96.6587 60.395 96.7302 60.6125C96.82 60.8941 96.882 61.1839 96.9152 61.4775C96.9265 61.6054 96.9082 61.7341 96.8618 61.8537C96.8155 61.9733 96.7422 62.0807 96.6477 62.1675C96.2652 62.525 95.4652 62.6275 94.6552 62.6275Z" stroke="#263238" stroke-width="0.236" stroke-linecap="round" stroke-linejoin="round"/>
<path d="M91.4476 62.225C91.4476 62.225 90.7901 62.5075 90.8376 63.07C90.7885 63.1001 90.7326 63.1175 90.6751 63.1205C90.6176 63.1234 90.5603 63.112 90.5083 63.0871C90.4564 63.0623 90.4115 63.0248 90.3777 62.9782C90.344 62.9315 90.3224 62.8771 90.3151 62.82" stroke="#263238" stroke-width="0.118" stroke-linecap="round" stroke-linejoin="round"/>
<path d="M90.8626 63.3226C90.8626 63.3226 90.8126 63.6876 91.3626 63.7001" stroke="#263238" stroke-width="0.118" stroke-linecap="round" stroke-linejoin="round"/>
<path d="M15.8754 56.0649C19.12 56.0649 21.7504 53.4346 21.7504 50.1899C21.7504 46.9453 19.12 44.3149 15.8754 44.3149C12.6307 44.3149 10.0004 46.9453 10.0004 50.1899C10.0004 53.4346 12.6307 56.0649 15.8754 56.0649Z" stroke="#263238" stroke-width="0.236" stroke-linecap="round" stroke-linejoin="round"/>
<path d="M10.6278 52.0824C10.9791 53.0503 11.5913 53.9022 12.3968 54.5437C13.2023 55.1852 14.1695 55.5913 15.1915 55.7171C16.2135 55.8429 17.2504 55.6834 18.1873 55.2563C19.1243 54.8293 19.9248 54.1513 20.5003 53.2974" stroke="#263238" stroke-width="0.236" stroke-linecap="round" stroke-linejoin="round"/>
<path d="M10.3827 51.1574C10.4144 51.3369 10.4553 51.5146 10.5052 51.6899" stroke="#263238" stroke-width="0.236" stroke-linecap="round" stroke-linejoin="round"/>
<path d="M14.7928 44.7199C13.5256 44.9699 12.3843 45.6518 11.5637 46.6494C10.743 47.6469 10.2939 48.8982 10.2928 50.1899C10.2931 50.4214 10.3073 50.6526 10.3353 50.8824" stroke="#263238" stroke-width="0.236" stroke-linecap="round" stroke-linejoin="round"/>
<path d="M20.7179 52.9549C21.2014 52.1068 21.4539 51.1467 21.45 50.1704C21.4462 49.1942 21.1861 48.2361 20.6959 47.3918C20.2057 46.5475 19.5025 45.8467 18.6566 45.3594C17.8106 44.8721 16.8516 44.6154 15.8754 44.6149C15.6456 44.6152 15.416 44.6293 15.1879 44.6574" stroke="#263238" stroke-width="0.236" stroke-linecap="round" stroke-linejoin="round"/>
<path d="M16.2927 45.4324C16.6764 45.4036 17.0621 45.4417 17.4327 45.5449C17.9727 45.6949 18.3327 46.1449 18.3327 46.2949C18.3139 46.4822 18.2632 46.6648 18.1827 46.8349C18.0927 47.0724 16.2352 49.7424 16.2352 49.7424C16.2352 49.7424 15.9652 49.7724 15.9352 49.5924L15.2152 45.8149C15.2152 45.8149 15.2152 45.5649 15.8152 45.4849" stroke="#263238" stroke-width="0.236" stroke-linecap="round" stroke-linejoin="round"/>
<path d="M14.3604 48.9549L12.3154 47.5624C12.3154 47.5624 12.1454 47.3924 12.5054 46.9049C12.8144 46.4537 13.22 46.0771 13.6929 45.8024C14.1804 45.5274 14.7529 45.5924 14.8579 45.6974C14.978 45.8467 15.0711 46.016 15.1329 46.1974C15.2404 46.4299 15.8129 49.6299 15.8129 49.6299C15.8129 49.6299 15.6429 49.8424 15.4929 49.7374L14.6504 49.1624" stroke="#263238" stroke-width="0.236" stroke-linecap="round" stroke-linejoin="round"/>
<path d="M11.2854 48.4674C11.4704 48.0199 11.8454 47.7324 11.9779 47.7324C12.1651 47.7512 12.3478 47.8019 12.5179 47.8824C12.7679 47.9724 15.4254 49.8299 15.4254 49.8299C15.4254 49.8299 15.4554 50.0999 15.2754 50.1299L11.5004 50.8499C11.5004 50.8499 11.2504 50.8499 11.1729 50.2499C11.1019 49.8462 11.0926 49.434 11.1454 49.0274" stroke="#263238" stroke-width="0.236" stroke-linecap="round" stroke-linejoin="round"/>
<path d="M14.4277 52.0149L13.2502 53.7499C13.2502 53.7499 13.0802 53.9199 12.5927 53.5574C12.145 53.2496 11.7717 52.8456 11.5002 52.3749C11.2252 51.8874 11.2877 51.3149 11.3952 51.2074C11.5404 51.088 11.7054 50.9949 11.8827 50.9324C12.1152 50.8274 15.3152 50.2549 15.3152 50.2549C15.3152 50.2549 15.5277 50.4249 15.4202 50.5724L14.6852 51.6574" stroke="#263238" stroke-width="0.236" stroke-linecap="round" stroke-linejoin="round"/>
<path d="M15.2502 54.9574C14.9369 54.9628 14.6244 54.9224 14.3227 54.8374C13.7827 54.6874 13.4227 54.2374 13.4227 54.0874C13.4415 53.9002 13.4923 53.7175 13.5727 53.5474C13.6627 53.2974 15.5202 50.6399 15.5202 50.6399C15.5202 50.6399 15.7902 50.6099 15.8202 50.7899L16.5402 54.5674C16.5402 54.5674 16.5402 54.8174 15.9402 54.8974C15.8252 54.9149 15.7152 54.9274 15.6077 54.9374" stroke="#263238" stroke-width="0.236" stroke-linecap="round" stroke-linejoin="round"/>
<path d="M16.2503 50.6574L19.4278 52.8199C19.4278 52.8199 19.5978 52.9874 19.2378 53.4749C18.9295 53.9267 18.5237 54.3035 18.0503 54.5774C17.5503 54.8549 16.9903 54.7899 16.8853 54.6849C16.7657 54.5352 16.6727 54.3661 16.6103 54.1849C16.5028 53.9499 15.9303 50.7499 15.9303 50.7499C15.9303 50.7499 16.1078 50.5499 16.2503 50.6574Z" stroke="#263238" stroke-width="0.236" stroke-linecap="round" stroke-linejoin="round"/>
<path d="M16.4754 50.2499L20.2504 49.5324C20.2504 49.5324 20.4879 49.5324 20.5779 50.1299C20.6792 50.6676 20.6587 51.2212 20.5179 51.7499C20.3679 52.2899 19.9204 52.6499 19.7679 52.6499C19.5806 52.6311 19.398 52.5804 19.2279 52.4999C18.9779 52.4099 16.3204 50.5499 16.3204 50.5499C16.3204 50.5499 16.2954 50.2799 16.4754 50.2499Z" stroke="#263238" stroke-width="0.236" stroke-linecap="round" stroke-linejoin="round"/>
<path d="M20.0003 47.6049C20.0971 47.7301 20.1849 47.8621 20.2628 47.9999C20.5378 48.4874 20.4753 49.0599 20.3678 49.1649C20.219 49.2865 20.0497 49.3805 19.8678 49.4424C19.6353 49.5474 16.4353 50.1199 16.4353 50.1199C16.4353 50.1199 16.2228 49.9499 16.3303 49.8024L18.5003 46.6299C18.5003 46.6299 18.6703 46.4599 19.1578 46.8199C19.3416 46.9511 19.5162 47.0947 19.6803 47.2499" stroke="#263238" stroke-width="0.236" stroke-linecap="round" stroke-linejoin="round"/>
<path d="M33.7303 27.2324C38.2522 27.2324 41.9178 23.5668 41.9178 19.0449C41.9178 14.5231 38.2522 10.8574 33.7303 10.8574C29.2085 10.8574 25.5428 14.5231 25.5428 19.0449C25.5428 23.5668 29.2085 27.2324 33.7303 27.2324Z" stroke="#263238" stroke-width="0.236" stroke-linecap="round" stroke-linejoin="round"/>
<path d="M26.4178 21.6799C26.9053 23.0316 27.7579 24.2216 28.8809 25.1179C30.0039 26.0143 31.3534 26.5817 32.7795 26.7573C34.2056 26.9329 35.6524 26.7098 36.9593 26.1127C38.2662 25.5156 39.382 24.5679 40.1828 23.3749" stroke="#263238" stroke-width="0.236" stroke-linecap="round" stroke-linejoin="round"/>
<path d="M26.0753 20.3899C26.1188 20.6427 26.1756 20.893 26.2453 21.1399" stroke="#263238" stroke-width="0.236" stroke-linecap="round" stroke-linejoin="round"/>
<path d="M32.2203 11.4224C30.4577 11.774 28.8715 12.7258 27.7319 14.1157C26.5923 15.5056 25.9697 17.2476 25.9703 19.0449C25.9705 19.3674 25.9897 19.6897 26.0278 20.0099" stroke="#263238" stroke-width="0.236" stroke-linecap="round" stroke-linejoin="round"/>
<path d="M40.4804 22.8949C41.1545 21.7131 41.5066 20.375 41.5012 19.0144C41.4959 17.6539 41.1334 16.3185 40.45 15.1421C39.7665 13.9656 38.7862 12.9892 37.607 12.3105C36.4277 11.6319 35.091 11.2747 33.7304 11.2749C33.4094 11.2746 33.0888 11.2947 32.7704 11.3349" stroke="#263238" stroke-width="0.236" stroke-linecap="round" stroke-linejoin="round"/>
<path d="M34.3127 12.4124C34.8478 12.3727 35.3858 12.426 35.9027 12.5699C36.6527 12.7799 37.1527 13.4049 37.1527 13.6149C37.1253 13.8749 37.0544 14.1285 36.9427 14.3649C36.8177 14.6974 34.2277 18.4149 34.2277 18.4149C34.2277 18.4149 33.8527 18.4574 33.8102 18.2074L32.8102 12.9424C32.8102 12.9424 32.8102 12.6099 33.6452 12.4849" stroke="#263238" stroke-width="0.236" stroke-linecap="round" stroke-linejoin="round"/>
<path d="M31.6204 17.3224L28.7679 15.3824C28.7679 15.3824 28.5304 15.1324 29.0329 14.4674C29.4629 13.8379 30.0284 13.3126 30.6879 12.9299C31.3654 12.5474 32.1629 12.6349 32.3129 12.7824C32.4782 12.9856 32.6076 13.2156 32.6954 13.4624C32.8429 13.7874 33.6404 18.2474 33.6404 18.2474C33.6404 18.2474 33.4054 18.5424 33.1979 18.3949L32.0229 17.5949" stroke="#263238" stroke-width="0.236" stroke-linecap="round" stroke-linejoin="round"/>
<path d="M27.3328 16.6449C27.5828 16.0224 28.1128 15.6199 28.2978 15.6199C28.5579 15.6456 28.8116 15.7158 29.0478 15.8274C29.3828 15.9549 33.1003 18.5449 33.1003 18.5449C33.1003 18.5449 33.1428 18.9199 32.8903 18.9624L27.6403 19.9624C27.6403 19.9624 27.3053 19.9624 27.1803 19.1249C27.082 18.5625 27.0702 17.9884 27.1453 17.4224" stroke="#263238" stroke-width="0.236" stroke-linecap="round" stroke-linejoin="round"/>
<path d="M31.7127 21.5849L30.0677 23.9999C30.0677 23.9999 29.8177 24.2349 29.1502 23.7349C28.522 23.3041 27.9976 22.7388 27.6152 22.0799C27.2302 21.3999 27.3202 20.6024 27.4677 20.4549C27.6709 20.2896 27.9009 20.1602 28.1477 20.0724C28.4727 19.9224 32.9327 19.1249 32.9327 19.1249C32.9327 19.1249 33.2277 19.3749 33.0802 19.5699L32.0527 21.0699" stroke="#263238" stroke-width="0.236" stroke-linecap="round" stroke-linejoin="round"/>
<path d="M32.8527 25.6874C32.4153 25.6943 31.9791 25.6379 31.5577 25.5199C30.8077 25.3099 30.3077 24.6849 30.3077 24.4749C30.334 24.215 30.4042 23.9614 30.5152 23.7249C30.6402 23.3924 33.2302 19.6749 33.2302 19.6749C33.2302 19.6749 33.6077 19.6324 33.6477 19.8824L34.6477 25.1474C34.6477 25.1474 34.6477 25.4799 33.8127 25.6049C33.6527 25.6299 33.5002 25.6499 33.3502 25.6624" stroke="#263238" stroke-width="0.236" stroke-linecap="round" stroke-linejoin="round"/>
<path d="M34.2502 19.6949L38.6827 22.6949C38.6827 22.6949 38.9177 22.9449 38.4152 23.6099C37.9854 24.2388 37.4209 24.764 36.7627 25.1474C36.0827 25.5299 35.2852 25.4424 35.1377 25.2949C34.9714 25.092 34.8412 24.862 34.7527 24.6149C34.6052 24.2899 33.8077 19.8299 33.8077 19.8299C33.8077 19.8299 34.0552 19.5474 34.2502 19.6949Z" stroke="#263238" stroke-width="0.236" stroke-linecap="round" stroke-linejoin="round"/>
<path d="M34.5653 19.1274L39.8278 18.1274C39.8278 18.1274 40.1628 18.1274 40.2878 18.9649C40.4275 19.7118 40.3994 20.4803 40.2053 21.2149C39.9953 21.9649 39.3678 22.4649 39.1603 22.4649C38.9003 22.439 38.6467 22.3688 38.4103 22.2574C38.0753 22.1324 34.3578 19.5424 34.3578 19.5424C34.3578 19.5424 34.3153 19.1699 34.5653 19.1274Z" stroke="#263238" stroke-width="0.236" stroke-linecap="round" stroke-linejoin="round"/>
<path d="M39.4703 15.4399C39.6075 15.6176 39.732 15.8047 39.8428 15.9999C40.2278 16.6799 40.1403 17.4774 39.9903 17.6249C39.7875 17.7877 39.5584 17.9145 39.3128 17.9999C38.9878 18.1499 34.5278 18.9474 34.5278 18.9474C34.5278 18.9474 34.2328 18.6974 34.3803 18.5024L37.3803 14.0724C37.3803 14.0724 37.6153 13.8374 38.2953 14.3374C38.5497 14.5233 38.7919 14.7254 39.0203 14.9424" stroke="#263238" stroke-width="0.236" stroke-linecap="round" stroke-linejoin="round"/>
<path d="M25.4127 90.3924C25.4127 90.3924 25.1627 90.9874 25.1052 91.1424C25.0734 91.2992 25.0734 91.4607 25.1052 91.6174L25.3052 91.5274L25.3302 92.1174L25.6252 92.0624L25.8352 92.5299L26.0852 92.0999L26.2552 92.3024C26.2552 92.3024 26.5477 91.9724 26.5377 91.8574C26.5277 91.7424 27.0377 91.9949 27.0377 91.9949C27.0377 91.9949 27.4102 91.3074 27.3877 91.0774C27.3823 90.9184 27.4231 90.7612 27.5052 90.6249L27.7552 91.0774L28.1727 90.8499L28.3627 90.6449L28.6127 91.0149L28.8027 90.3699L28.8552 89.9474L29.1052 90.3174L29.5027 90.5674L29.7202 89.7099L29.6177 89.3949L29.5302 89.1949L29.8102 89.1099C29.8102 89.1099 29.7252 88.8274 29.6802 88.7274L29.5452 88.4274L29.5277 88.1149L29.6777 88.0074L29.9602 87.9224L29.8602 87.6074L30.1852 87.6224L30.4952 88.0424L31.0427 87.8374L31.2477 88.0274L31.2177 88.3199L31.3252 88.4724L31.2252 88.8749C31.2252 88.8749 31.0902 89.0174 31.1352 89.1249C31.1621 89.2901 31.1705 89.4578 31.1602 89.6249L31.1202 89.8024L31.6877 89.5524L31.8902 89.3824L32.0327 89.5174C32.1725 89.5425 32.3167 89.5205 32.4427 89.4549C32.6364 89.2699 32.8144 89.0692 32.9752 88.8549L33.1927 89.1599L33.3052 88.7874V88.2649L33.0552 87.5349H33.3327L33.8502 88.0624L34.3777 88.3474L34.3327 87.8874L34.8177 87.9899L35.2302 87.9274L34.8202 87.1899L35.1677 87.0749L34.8302 86.5749L34.5952 86.3249L34.2102 86.1774L33.8002 85.7999C33.8002 85.7999 33.5102 85.6899 33.9777 85.1224C34.3814 84.6551 34.8095 84.2095 35.2602 83.7874C35.2602 83.7874 38.0977 82.4399 40.1777 81.5374C42.2577 80.6349 43.4752 79.7874 44.3702 78.7449C45.2652 77.7024 45.7852 76.6324 45.8202 75.8149C45.8552 74.9974 45.1902 73.3374 45.0352 73.1674C44.8802 72.9974 44.8227 72.7824 42.8752 72.4524C40.9277 72.1224 38.0502 72.9299 36.9502 73.4224C35.8502 73.9149 32.4177 75.8099 32.0652 76.0074C31.7127 76.2049 30.8152 76.7224 30.8152 76.7224L31.1027 75.7524C31.045 75.7342 30.9945 75.6983 30.9581 75.6499C30.9218 75.6015 30.9016 75.5429 30.9002 75.4824C30.8777 75.2524 30.7677 75.9024 30.7677 75.9024L30.6202 75.2099L30.5852 74.8649L30.2927 74.8349L30.1902 74.5199L29.9602 73.8249L29.6627 73.8774L29.5877 73.7099L29.0877 74.1774L29.0002 73.9999L28.6002 73.8199L28.4952 74.3874L28.8577 75.0249L28.1677 74.3724L27.6677 74.1224L27.3577 74.1424L27.4902 74.4424L27.1002 74.3749L27.1602 74.5099L26.8202 74.8224L26.7477 75.0149L26.5277 74.4324L26.1652 74.8749L26.1127 74.5774L25.9027 74.1124C25.8577 74.0124 25.4902 73.4574 25.4902 73.4574L25.3952 73.7799L25.2577 73.5599L24.8227 73.3949L24.6477 73.2724L24.4152 73.7374L24.1827 73.8424C24.1601 73.9653 24.1492 74.09 24.1502 74.2149C24.1502 74.3299 24.1927 74.7574 24.1927 74.7574C24.2444 74.9089 24.287 75.0634 24.3202 75.2199C24.3592 75.3738 24.4128 75.5237 24.4802 75.6674L24.0352 75.7474H23.7852L23.4702 75.8474L23.7002 76.1849L23.3127 76.4774L23.7752 76.7099L23.9852 76.8174L23.8277 77.0074L24.2627 77.1724L24.6527 77.2399L24.4627 77.4424L24.0377 77.4749L23.5002 77.2499C23.2229 77.0383 22.9598 76.8087 22.7127 76.5624C22.6677 76.4624 22.4352 76.1274 22.4352 76.1274L22.1652 76.3274L21.8777 76.2174L21.7252 76.3249L21.1527 75.9399L21.0452 76.4999L20.6102 76.6949L20.6527 76.8749L20.1227 77.0324L19.2777 77.2824L19.0002 77.4999L19.5002 77.7649L19.7502 77.9374L19.5002 78.0899L19.8377 78.2199L20.0127 78.3424L19.9227 78.5024L20.2052 78.7749C20.0055 78.8182 19.802 78.8425 19.5977 78.8474C19.4624 78.8326 19.3263 78.8268 19.1902 78.8299L18.9227 78.9474L19.1127 79.1049L18.6452 79.3124L18.3427 79.5274L17.7502 79.8624L17.5177 79.9674L17.6727 80.1374L17.0652 80.5699L16.8577 80.8199L17.1477 80.9299L17.4377 81.0399L17.8577 81.1724L18.2752 81.3049L18.4127 81.5249L18.6952 81.7974L19.1527 82.1924L19.2277 82.3599L18.8577 82.6099L18.5752 82.3374L18.1452 82.0874L17.9527 82.0124L17.6402 82.0324L17.0627 82.1699C17.076 82.2683 17.1168 82.361 17.1802 82.4374C17.3052 82.6224 16.9302 82.7049 16.9302 82.7049H16.6527L17.1827 82.9074L17.4502 83.1574C17.4502 83.1574 16.9877 83.2849 16.8202 83.3599C16.6877 83.4289 16.5636 83.5127 16.4502 83.6099L16.5402 83.8099L16.1377 84.0599L15.5902 84.6249L15.9277 84.7524C15.8488 84.8353 15.7653 84.9138 15.6777 84.9874C15.5577 85.0799 16.2102 85.1099 16.2102 85.1099C16.2102 85.1099 16.5302 85.2874 16.6627 85.2274C16.7952 85.1674 17.4902 85.0174 17.4902 85.0174L17.2402 85.4474L17.7402 85.2249L17.8327 85.3424L18.2802 85.1824L18.4477 85.1074L18.4077 85.6449L18.5902 85.6049L18.8902 85.4699L19.0902 85.3799L19.1752 85.7499L18.7952 86.2499L18.8477 86.5449C18.7661 86.6103 18.6915 86.684 18.6252 86.7649C18.555 86.8651 18.5104 86.981 18.4952 87.1024C18.4952 87.1024 18.7727 87.1024 18.9377 87.1024C19.1494 87.1291 19.3635 87.1291 19.5752 87.1024C19.6752 87.0574 19.7527 87.5024 19.7527 87.5024L19.9677 87.4449L20.6702 87.4924L21.4202 87.0349L21.6902 86.8349L21.8902 86.7449L21.5377 87.3024C21.4247 87.4237 21.2999 87.5334 21.1652 87.6299C21.0652 87.6724 20.9577 87.8799 20.9577 87.8799L21.2777 88.0549L20.3502 88.3049L20.4727 88.4899L20.1702 88.7049C20.3846 88.8366 20.6096 88.9503 20.8427 89.0449C20.9727 89.0674 21.3802 89.0849 21.3802 89.0849L21.2052 89.3224L21.6652 89.2774L22.0277 89.1949L21.9952 89.5699L22.4652 89.2799L22.8702 89.0299L22.9052 90.0924L23.4252 89.8199L23.1302 90.5924L22.8227 91.6099L23.2952 91.3199L23.7602 91.1099L24.2602 90.9674L24.4777 90.8299L25.4127 90.3924Z" stroke="#263238" stroke-width="0.236" stroke-linecap="round" stroke-linejoin="round"/>
<path d="M29.5453 84.0674C29.5453 84.0674 30.6253 83.8174 32.1428 83.3649C33.8101 82.8786 35.445 82.2874 37.0378 81.5949C40.4728 80.0599 42.4053 77.6749 42.9153 77.2074C43.4293 76.659 43.903 76.0741 44.3328 75.4574L44.2603 74.8474C44.2603 74.8474 43.8003 74.8949 43.8903 74.7349L44.0678 74.4149" stroke="#263238" stroke-width="0.236" stroke-linecap="round" stroke-linejoin="round"/>
<path d="M42.9154 73.8074C41.3108 73.9728 39.726 74.2926 38.1829 74.7624C36.0604 75.4724 33.3254 76.7774 32.0729 77.3749C30.8204 77.9724 28.5729 79.1374 28.3479 79.2424C28.1229 79.3474 25.5979 80.6274 25.5979 80.6274C25.5057 80.9968 25.3688 81.3536 25.1904 81.6899C24.8879 82.2649 24.7854 82.7499 24.6304 82.9399C24.5296 83.0619 24.421 83.1771 24.3054 83.2849L24.1904 82.9374C24.093 83.1794 23.968 83.4092 23.8179 83.6224C23.6979 83.7174 23.5454 83.8249 23.5454 83.8249L22.8454 84.1374L22.6529 84.0624L22.7704 83.6099C22.7704 83.6099 22.2704 83.9974 22.1629 84.0424C22.0554 84.0874 21.9279 84.2274 21.7929 84.2924C21.6579 84.3574 21.3754 84.5199 21.1429 84.6249C20.9456 84.7125 20.731 84.7536 20.5154 84.7449C20.3072 84.7408 20.099 84.7533 19.8929 84.7824C19.7454 84.8099 19.4329 84.8274 19.4329 84.8274C19.4329 84.8274 19.3004 84.8874 19.4804 84.4874C19.6604 84.0874 20.1454 83.1099 20.1454 83.1099C20.2751 83.0196 20.4094 82.9362 20.5479 82.8599C20.6479 82.8149 21.2554 82.3849 21.2554 82.3849L21.5754 82.2024C21.5754 82.2024 21.2654 82.1399 21.3704 82.0124C21.4754 81.8849 21.9629 81.9074 22.0929 81.9299C22.2229 81.9524 21.9929 81.6149 21.9929 81.6149L22.3104 81.4324C22.1879 81.2474 21.8979 80.7774 21.8979 80.7774L21.9404 80.5274C21.895 80.4235 21.8266 80.3311 21.7404 80.2574L21.6279 80.1874C21.8824 80.1032 22.1499 80.0651 22.4179 80.0749C22.6454 80.1324 22.9179 80.1774 23.1304 80.2349C23.3429 80.2924 23.5979 80.3874 23.7754 80.4274C23.9603 80.4822 24.1505 80.5174 24.3429 80.5324C24.4579 80.5324 24.6329 80.6424 24.8429 80.5549C25.0529 80.4674 25.4354 80.4499 25.7579 80.1849C26.0804 79.9199 27.2054 79.2174 27.3754 79.0624C27.6738 78.8225 27.9944 78.6115 28.3329 78.4324C28.5929 78.2814 28.8434 78.1144 29.0829 77.9324C28.6504 78.0883 28.2017 78.1948 27.7454 78.2499C27.2704 78.2624 25.8354 78.1849 25.8354 78.1849C25.5296 78.19 25.224 78.1657 24.9229 78.1124C24.6235 78.0398 24.3194 77.988 24.0129 77.9574C24.0129 77.9574 23.5329 78.1324 23.3979 78.1924C23.2629 78.2524 23.1929 78.4424 23.0854 78.6549C22.9779 78.8674 23.0554 78.9474 22.8679 79.1549C22.6437 79.3529 22.4009 79.5287 22.1429 79.6799L21.8429 79.8149C21.7049 79.8594 21.5582 79.8697 21.4154 79.8449L21.5654 79.3774L21.1054 79.2499L21.2179 78.9599C21.2179 78.9599 21.2179 78.7974 20.9854 78.6249C20.7231 78.4033 20.4728 78.168 20.2354 77.9199L19.9329 77.6949" stroke="#263238" stroke-width="0.236" stroke-linecap="round" stroke-linejoin="round"/>
<path d="M24.7203 77.6624L25.0603 77.6974C25.3703 77.7274 25.8103 77.7724 26.0228 77.8024C26.3653 77.8499 26.8378 77.8374 27.0228 77.8774C27.2224 77.9098 27.4258 77.9098 27.6253 77.8774C27.7671 77.8584 27.9098 77.8484 28.0528 77.8475L26.7503 77.5224L25.8003 77.5474V77.3824L25.1403 77.5174L24.7203 77.6624Z" stroke="#263238" stroke-width="0.236" stroke-linecap="round" stroke-linejoin="round"/>
<path d="M27.9354 75.5474L28.2129 75.9024L27.7504 76.0299L28.0179 76.2799L27.8579 76.5499L27.9929 76.8499L28.3779 76.9974L28.7404 77.3574L29.3854 77.1874C29.3854 77.1874 28.5779 77.7099 28.4354 77.5724C28.2929 77.4349 27.0829 77.1374 27.0829 77.1374C27.0829 77.1374 26.8329 76.5724 26.9529 76.3149C27.062 76.0734 27.2285 75.8623 27.4379 75.6999C27.5919 75.6159 27.7627 75.5672 27.9379 75.5574L27.2679 75.1349L27.7679 74.7974H27.3254" stroke="#263238" stroke-width="0.236" stroke-linecap="round" stroke-linejoin="round"/>
<path d="M30.6479 76.6924C30.6479 76.6924 30.1479 76.6724 29.9904 76.3874C29.8329 76.1024 29.5504 75.5849 29.5504 75.5849L29.6704 76.2099L28.0629 74.8499L29.5304 76.4324L28.5554 76.6674L29.6729 76.5699C29.7879 76.5699 30.0879 76.7849 30.0879 76.7849L30.3104 76.9249L29.6929 77.2499" stroke="#263238" stroke-width="0.236" stroke-linecap="round" stroke-linejoin="round"/>
<path d="M27.0827 77.1274C27.0827 77.1274 26.5102 77.1024 26.4202 76.9024C26.3302 76.7024 26.4552 75.7274 26.4552 75.7274C26.3189 75.9485 26.2097 76.1852 26.1302 76.4324C26.1281 76.5484 26.1399 76.6642 26.1652 76.7774C26.1652 76.7774 25.2552 75.9049 25.1352 75.6374C25.0152 75.3699 24.7477 74.4124 24.7477 74.4124C24.7477 74.4124 25.0502 75.7174 25.1552 75.9499C25.2336 76.1647 25.3725 76.3523 25.5552 76.4899C25.7308 76.6043 25.8979 76.7313 26.0552 76.8699C26.1825 76.9937 26.334 77.0899 26.5002 77.1524C26.6632 77.2109 26.8185 77.289 26.9627 77.3849" stroke="#263238" stroke-width="0.236" stroke-linecap="round" stroke-linejoin="round"/>
<path d="M23.7503 77.6549C23.7503 77.6549 22.4703 77.3874 22.2928 77.3474C22.1153 77.3074 21.4578 77.3599 21.3478 77.2899C21.2378 77.2199 20.6578 77.3574 20.5428 77.3699" stroke="#263238" stroke-width="0.236" stroke-linecap="round" stroke-linejoin="round"/>
<path d="M23.3152 77.6524C23.0463 77.795 22.7682 77.9194 22.4827 78.0249C22.2497 78.1124 22.0376 78.2478 21.8602 78.4224" stroke="#263238" stroke-width="0.236" stroke-linecap="round" stroke-linejoin="round"/>
<path d="M21.3177 78.1049C21.3177 78.1049 21.8553 77.7849 21.9403 77.7074C22.0618 77.6263 22.1907 77.5568 22.3253 77.4999H22.5227L22.6702 77.4724" stroke="#263238" stroke-width="0.236" stroke-linecap="round" stroke-linejoin="round"/>
<path d="M20.8954 83.7749C20.8954 83.7749 21.9629 82.8574 22.6304 82.5574C23.139 82.2932 23.6099 81.9619 24.0304 81.5724C24.3004 81.3724 25.1429 80.7549 25.2429 80.7099" stroke="#263238" stroke-width="0.236" stroke-linecap="round" stroke-linejoin="round"/>
<path d="M24.1804 81.4649C24.1642 81.6943 24.1324 81.9223 24.0854 82.1474C24.0029 82.5849 23.9504 83.0074 23.8504 83.0524C23.6767 83.2255 23.5209 83.4156 23.3854 83.6199" stroke="#263238" stroke-width="0.236" stroke-linecap="round" stroke-linejoin="round"/>
<path d="M22.6304 82.5574C22.5059 82.7101 22.3899 82.8695 22.2829 83.0349C22.1582 83.2621 22.0496 83.4976 21.9579 83.7399" stroke="#263238" stroke-width="0.236" stroke-linecap="round" stroke-linejoin="round"/>
<path d="M24.5404 81.1049L23.7504 81.0199C23.5025 81.0238 23.2556 80.9858 23.0204 80.9074" stroke="#263238" stroke-width="0.236" stroke-linecap="round" stroke-linejoin="round"/>
<path d="M21.6254 87.6474L22.3154 87.5799L23.2879 86.6249C23.482 86.5109 23.6631 86.3759 23.8279 86.2224L24.3279 85.3949L24.7279 84.8549L24.4154 84.8749L24.7629 84.3999L25.0304 83.9199L25.2629 83.8174L24.6104 83.7874L24.7429 83.3699L24.9654 83.1499C24.9654 83.1499 24.9204 83.3999 24.4129 83.7974C23.9479 84.188 23.5285 84.63 23.1629 85.1149C23.0429 85.2899 22.8279 85.7049 22.7404 85.8649C22.6529 86.0249 22.6329 86.4324 22.5479 86.5099C22.4586 86.6109 22.3751 86.7169 22.2979 86.8274" stroke="#263238" stroke-width="0.236" stroke-linecap="round" stroke-linejoin="round"/>
<path d="M19.7003 86.4699L20.2003 86.3599L22.2503 85.4499C22.7178 85.2424 23.6353 84.4324 23.6353 84.4324C23.6353 84.4324 22.8128 84.9199 22.4203 84.9324C22.0278 84.9449 21.0428 85.0699 21.0428 85.0699L20.7128 85.1374" stroke="#263238" stroke-width="0.236" stroke-linecap="round" stroke-linejoin="round"/>
<path d="M23.6278 84.4324C24.0569 84.1402 24.4366 83.7816 24.7528 83.3699C25.1954 82.7119 25.7515 82.138 26.3953 81.6749C27.029 81.2119 27.7144 80.8243 28.4378 80.5199C28.9314 80.3089 29.4115 80.0676 29.8753 79.7974C30.0973 79.6955 30.3252 79.607 30.5578 79.5324C30.8167 79.4261 31.0674 79.3008 31.3078 79.1574C31.4253 79.0649 32.1803 78.6074 32.1803 78.6074C32.1803 78.6074 30.7753 78.9549 30.5828 78.8799C30.2816 78.8272 29.976 78.8037 29.6703 78.8099L29.2753 78.9074L28.9303 78.9399" stroke="#263238" stroke-width="0.236" stroke-linecap="round" stroke-linejoin="round"/>
<path d="M27.3754 79.0374C26.8634 78.9539 26.3464 78.9038 25.8279 78.8874C25.4854 78.9224 24.2504 79.4749 24.0779 79.5149C23.9054 79.5549 23.2804 79.7924 23.2804 79.7924L23.6229 80.1974" stroke="#263238" stroke-width="0.236" stroke-linecap="round" stroke-linejoin="round"/>
<path d="M22.8602 79.1349L23.0927 79.3849C23.0927 79.3849 24.3602 78.8174 24.8202 78.7724C25.2802 78.7274 25.9902 78.5224 26.3477 78.6099C26.7056 78.653 27.0674 78.653 27.4252 78.6099H27.9477" stroke="#263238" stroke-width="0.236" stroke-linecap="round" stroke-linejoin="round"/>
<path d="M21.5103 82.0199L21.5778 81.1899L21.2303 81.3049L21.2103 80.6349L20.8278 80.7649L20.7278 80.4499L20.1978 80.9674L20.0703 80.5024L19.6653 80.8449L19.3603 80.3424L19.1703 80.5449L18.7878 80.3174L18.7928 80.5949L18.3778 80.7399L17.8053 80.7149L18.2128 81.1749" stroke="#263238" stroke-width="0.236" stroke-linecap="round" stroke-linejoin="round"/>
<path d="M20.5577 82.8449C20.5577 82.8449 19.3827 82.8099 18.7452 83.1749C18.3071 83.4355 17.8892 83.7289 17.4952 84.0524" stroke="#263238" stroke-width="0.236" stroke-linecap="round" stroke-linejoin="round"/>
<path d="M20.6628 82.7174C20.1596 82.5242 19.7408 82.1594 19.4803 81.6874" stroke="#263238" stroke-width="0.236" stroke-linecap="round" stroke-linejoin="round"/>
<path d="M34.3754 84.2249C34.074 84.6263 33.7944 85.0435 33.5379 85.4749C32.9579 86.4149 32.9554 86.8574 32.7404 87.2724C32.5254 87.6874 32.4754 88.1099 32.2404 88.3774C32.0054 88.6449 31.8954 88.7724 31.8954 88.7724" stroke="#263238" stroke-width="0.236" stroke-linecap="round" stroke-linejoin="round"/>
<path d="M33.4479 85.64C33.4727 86.1004 33.6298 86.544 33.9004 86.9175" stroke="#263238" stroke-width="0.236" stroke-linecap="round" stroke-linejoin="round"/>
<path d="M34.2503 84.2849C33.4248 84.277 32.5995 84.3129 31.7778 84.3924C30.7778 84.5124 29.7778 84.7299 29.7778 84.7299L30.0278 85.5749L29.8103 86.0749L29.7003 86.3624L29.3928 86.6599L29.1428 86.6174L28.7828 87.4174L28.4328 86.4549L28.2628 87.6899C28.2628 87.6899 28.2278 86.6274 28.2378 86.3824C28.2371 86.1251 28.2872 85.8703 28.3853 85.6324C28.495 85.3701 28.5885 85.1012 28.6653 84.8274L28.0003 85.9999L27.6328 86.6049L27.3178 87.0649L27.0178 87.1999L26.8603 86.3099L26.3203 87.0599H25.6028C25.6393 86.6487 25.7113 86.2413 25.8178 85.8424C25.9253 85.6349 25.1278 86.2699 25.1278 86.2699C25.1278 86.2699 25.5878 85.5074 25.6578 85.3949C25.7652 85.2112 25.8873 85.0365 26.0228 84.8724C26.2303 84.6224 26.4553 84.3174 26.4553 84.3174L26.6078 84.2099L26.2178 84.1449L26.3478 83.8074L25.6953 83.4999L25.2303 83.2674L25.4978 83.1499L25.4778 82.8374L26.0228 82.7149L26.5553 82.4649C26.5346 82.3694 26.5062 82.2758 26.4703 82.1849C26.4253 82.0849 26.6878 82.0449 26.8478 82.1349C27.0078 82.2249 26.9778 82.1574 27.4903 82.4074C27.8603 82.5726 28.2422 82.7096 28.6328 82.8174C28.826 82.8575 29.023 82.8768 29.2203 82.8749C29.2203 82.8749 29.4928 82.9524 30.2703 82.3749C31.0478 81.7974 32.5403 80.5599 32.5403 80.5599C34.1242 79.3246 35.7724 78.1738 37.4778 77.1124C39.9603 75.5999 41.5328 74.8174 42.0528 74.4649C42.4212 74.2224 42.8017 73.9988 43.1928 73.7949" stroke="#263238" stroke-width="0.236" stroke-linecap="round" stroke-linejoin="round"/>
<path d="M29.6003 84.6399C29.6003 84.6399 29.2078 84.2974 29.6928 83.6799C30.1778 83.0624 32.9203 81.5974 34.4953 80.2924C36.0703 78.9874 41.7578 76.7649 42.4228 76.5424C43.0878 76.3199 43.5003 76.1799 43.5003 76.1799" stroke="#263238" stroke-width="0.236" stroke-linecap="round" stroke-linejoin="round"/>
<path d="M29.8978 78.4999C29.8978 78.4999 32.3678 78.1174 34.0528 77.3224C35.6226 76.5767 37.1277 75.702 38.5528 74.7074" stroke="#263238" stroke-width="0.236" stroke-linecap="round" stroke-linejoin="round"/>
<path d="M39.4302 80.3249C39.4302 80.3249 35.7952 80.8724 34.8827 81.1599C34.4357 81.284 34.0058 81.4628 33.6027 81.6924L33.3202 82.9424" stroke="#263238" stroke-width="0.236" stroke-linecap="round" stroke-linejoin="round"/>
<path d="M30.9552 83.5549L30.4552 83.3049C30.4552 83.3049 31.5952 82.6349 31.7052 82.5899C31.8528 82.4961 31.994 82.3926 32.1277 82.2799L31.8077 82.9049L32.2227 82.7599L32.2827 83.2599" stroke="#263238" stroke-width="0.236" stroke-linecap="round" stroke-linejoin="round"/>
<path d="M28.6327 82.8349L30.1327 81.8024L27.7977 82.4874" stroke="#263238" stroke-width="0.236" stroke-linecap="round" stroke-linejoin="round"/>
<path d="M36.7103 78.9824C37.9063 78.7209 39.0773 78.3562 40.2103 77.8924C41.6778 77.2349 41.9953 76.6924 41.9953 76.6924" stroke="#263238" stroke-width="0.236" stroke-linecap="round" stroke-linejoin="round"/>
<path d="M27.2203 87.1849C27.2203 87.1849 27.6003 87.8549 27.5628 88.3124C27.5253 88.7699 27.6653 89.3474 27.4703 89.7149C27.2753 90.0824 26.9053 90.6874 26.9053 90.6874V89.9999L26.6803 90.3024V89.0249L26.2853 89.4824L26.1853 90.2474L25.7503 91.0449L25.6628 90.4049L25.3978 90.5224L25.2653 90.1424" stroke="#263238" stroke-width="0.236" stroke-linecap="round" stroke-linejoin="round"/>
<path d="M23.9202 89.3799L23.5477 89.3474L24.0852 88.5874L23.5477 88.5474L24.5552 87.9374L24.6327 87.6624L24.3327 87.7974L24.7877 87.4724L24.5127 87.3949L25.0327 87.1249L25.2327 87.0349L25.4477 86.9799" stroke="#263238" stroke-width="0.236" stroke-linecap="round" stroke-linejoin="round"/>
<path d="M29.0579 83.3849C28.7021 83.7255 28.398 84.1163 28.1554 84.5449C27.8779 85.1124 27.4054 86.0449 27.4054 86.0449" stroke="#263238" stroke-width="0.236" stroke-linecap="round" stroke-linejoin="round"/>
<path d="M28.4352 83.9749C28.1371 83.8393 27.8467 83.6874 27.5652 83.5199C27.2744 83.3324 26.9565 83.1907 26.6227 83.0999" stroke="#263238" stroke-width="0.236" stroke-linecap="round" stroke-linejoin="round"/>
<path d="M28.9228 83.5799C28.9179 83.89 28.9661 84.1986 29.0653 84.4924C29.2278 84.9524 29.2753 85.9524 29.1953 86.0774" stroke="#263238" stroke-width="0.236" stroke-linecap="round" stroke-linejoin="round"/>
<path d="M28.1552 84.5449C28.1552 84.5449 27.3702 85.0724 26.8502 85.3949" stroke="#263238" stroke-width="0.236" stroke-linecap="round" stroke-linejoin="round"/>
<path d="M26.5953 87.4999C26.5953 87.4999 26.0503 88.7624 25.5603 89.1599C25.167 89.4556 24.7487 89.7166 24.3103 89.9399L23.9828 90.3974" stroke="#263238" stroke-width="0.236" stroke-linecap="round" stroke-linejoin="round"/>
<path d="M26.4552 87.7899C26.4552 87.7899 25.7477 88.1949 25.3052 88.3949L24.6752 88.6749" stroke="#263238" stroke-width="0.236" stroke-linecap="round" stroke-linejoin="round"/>
<path d="M27.5003 43.0199C27.3424 43.0382 27.1825 43.0289 27.0278 42.9924C26.6078 42.9349 26.8303 42.3774 26.6628 42.2649C26.4953 42.1524 25.4628 42.3774 25.4628 42.3774C25.4628 42.3774 26.3003 42.3499 26.3853 42.3774C26.4703 42.4049 26.4678 42.9649 26.4678 43.1024C26.4678 43.2399 27.0828 43.4099 27.3328 43.4099C27.4824 43.4097 27.6318 43.4189 27.7803 43.4374C27.7803 43.4374 27.6128 43.4949 27.5853 43.8024C27.5578 44.1099 27.4178 44.2774 27.2228 44.3024C27.0278 44.3274 26.5003 44.4999 26.5003 44.7224C26.6503 44.6257 26.8222 44.5681 27.0003 44.5549C27.2503 44.5549 27.6428 44.6949 27.7503 44.4999C27.8644 44.2727 27.967 44.0399 28.0578 43.8024C28.1953 43.9097 28.3596 43.9771 28.5328 43.9974C28.794 43.9685 29.048 43.8931 29.2828 43.7749C29.3678 43.7174 29.8703 43.2999 29.8978 43.1599C29.9253 43.0199 29.9828 42.5999 29.9828 42.5999C30.0612 42.396 30.1745 42.2074 30.3178 42.0424C30.5103 41.8775 30.6386 41.65 30.6803 41.3999C30.6802 41.1626 30.6126 40.9302 30.4853 40.7299C30.3488 40.6156 30.1852 40.5381 30.0103 40.5049H29.6178C29.8153 40.5747 30.0035 40.6687 30.1778 40.7849C30.254 40.9014 30.2932 41.0383 30.2903 41.1774C30.2903 41.1774 30.1778 41.5674 30.0928 41.6224L29.8428 41.7899L29.6178 42.0149C29.5353 42.0974 29.2828 42.2924 29.2828 42.2924C29.1912 42.1095 29.1344 41.9111 29.1153 41.7074V40.8699C29.1153 40.7849 29.1453 40.4774 29.1453 40.4774V40.1699L29.0878 40.0599C28.9522 40.3231 28.8312 40.5935 28.7253 40.8699C28.6687 41.0359 28.5941 41.1952 28.5028 41.3449C28.4178 41.5124 28.3053 41.8199 28.3053 41.8199L28.2228 42.1249C28.1331 42.2418 28.0187 42.3374 27.8878 42.4049C27.8277 42.2729 27.7897 42.1318 27.7753 41.9874C27.7614 41.801 27.7614 41.6138 27.7753 41.4274C27.7953 41.2615 27.8045 41.0945 27.8028 40.9274C27.7209 41.087 27.6555 41.2546 27.6078 41.4274C27.5908 41.5693 27.5632 41.7097 27.5253 41.8474C27.4678 42.0424 27.4128 42.2099 27.4128 42.2099C27.4128 42.2099 27.4128 42.2374 27.2728 42.2374C27.1977 42.2392 27.1227 42.2299 27.0503 42.2099L26.9653 41.8474C26.9653 41.8474 26.7428 41.6799 26.6028 41.5674C26.4628 41.4549 26.2128 41.2874 26.2128 41.0924C26.2463 40.8461 26.3024 40.6035 26.3803 40.3674C26.2338 40.6111 26.1211 40.8735 26.0453 41.1474C26.0529 41.2899 26.0919 41.4289 26.1593 41.5546C26.2267 41.6803 26.3209 41.7897 26.4353 41.8749C26.5753 41.9299 26.6303 42.0424 26.7703 42.1824C26.9185 42.3237 27.0587 42.4731 27.1903 42.6299C27.2503 42.7124 27.5003 43.0199 27.5003 43.0199Z" stroke="#263238" stroke-width="0.236" stroke-linecap="round" stroke-linejoin="round"/>
<path d="M29.8729 43.2699C29.8723 43.1212 29.8632 42.9726 29.8454 42.8249C29.8179 42.6299 29.7904 42.0424 29.7904 42.0424C29.7904 42.0424 29.3979 43.1324 29.2904 43.4099C29.1829 43.6874 29.0404 43.8024 28.8454 43.7449C28.7811 43.7276 28.7184 43.705 28.6579 43.6774C28.5815 43.6455 28.5167 43.5911 28.4721 43.5214C28.4274 43.4517 28.405 43.3701 28.4079 43.2874C28.4079 43.1649 28.4204 43.0224 28.4204 42.9074C28.3945 42.6814 28.3373 42.4601 28.2504 42.2499C28.2504 42.2499 28.3904 42.0549 28.5579 42.1674C28.7254 42.2799 28.9479 43.0049 28.9779 43.2274C28.9935 43.3854 28.9935 43.5445 28.9779 43.7024" stroke="#263238" stroke-width="0.236" stroke-linecap="round" stroke-linejoin="round"/>
<path d="M28.7829 40.7299C27.9494 40.7255 27.1334 40.9682 26.4379 41.4274" stroke="#263238" stroke-width="0.236" stroke-linecap="round" stroke-linejoin="round"/>
<path d="M26.0753 41.6224C25.8334 41.7857 25.6089 41.9734 25.4053 42.1824C25.2928 42.3499 25.1803 42.5449 25.1803 42.5449C24.8287 42.7282 24.5005 42.9531 24.2028 43.2149C23.8678 43.5499 23.4778 44.4649 23.3928 45.4649C23.3078 46.4649 23.4778 47.3074 23.6178 47.5599C23.7578 47.8124 23.9803 48.2499 23.9803 48.2499C23.9803 48.2499 24.3153 49.7024 25.3203 50.5399C26.3253 51.3774 27.6953 51.9074 30.0953 51.5399C32.4953 51.1724 33.2803 50.8149 34.3703 49.7524C34.8588 49.279 35.2442 48.7097 35.5023 48.0803C35.7604 47.4509 35.8857 46.775 35.8703 46.0949C35.8567 44.9759 35.6196 43.8709 35.1728 42.8449C35.015 42.5325 34.8176 42.2417 34.5853 41.9799C34.0155 41.2697 33.2626 40.7286 32.4078 40.4149C30.9828 39.9149 30.0878 40.0524 29.7253 40.1924C29.5223 40.2671 29.3266 40.36 29.1403 40.4699" stroke="#263238" stroke-width="0.236" stroke-linecap="round" stroke-linejoin="round"/>
<path d="M27.6603 46.6499C27.6603 46.7674 27.6603 46.8999 27.6603 47.0124" stroke="#263238" stroke-width="0.236" stroke-linecap="round" stroke-linejoin="round"/>
<path d="M28.3378 44.1374C28.3378 44.1374 27.7428 44.6224 27.6678 46.3149" stroke="#263238" stroke-width="0.236" stroke-linecap="round" stroke-linejoin="round"/>
<path d="M31.8578 44.0199C31.9936 44.1474 32.1144 44.29 32.2178 44.4449" stroke="#263238" stroke-width="0.236" stroke-linecap="round" stroke-linejoin="round"/>
<path d="M29.7504 43.3549C30.3613 43.2946 30.9754 43.4341 31.5004 43.7524" stroke="#263238" stroke-width="0.236" stroke-linecap="round" stroke-linejoin="round"/>
<path d="M27.6102 43.6624C27.131 43.6334 26.651 43.7027 26.1995 43.8661C25.7481 44.0295 25.3349 44.2835 24.9852 44.6124" stroke="#263238" stroke-width="0.236" stroke-linecap="round" stroke-linejoin="round"/>
<path d="M31.5177 41.455C31.7717 41.3622 32.0348 41.2968 32.3027 41.2599" stroke="#263238" stroke-width="0.236" stroke-linecap="round" stroke-linejoin="round"/>
<path d="M29.9852 42.5999C30.3166 42.1371 30.7677 41.7733 31.2902 41.5474" stroke="#263238" stroke-width="0.236" stroke-linecap="round" stroke-linejoin="round"/>
<path d="M28.2504 42.2499C28.2504 42.2499 28.4179 42.4724 28.6129 42.4174C28.8079 42.3624 28.5579 42.1674 28.5579 42.1674" stroke="#263238" stroke-width="0.236" stroke-linecap="round" stroke-linejoin="round"/>
<path d="M27.4154 42.2099C27.4154 42.2099 27.4429 42.1549 27.5554 42.3499C27.6679 42.5449 27.6379 42.7124 27.7229 42.7974C27.8079 42.8824 28.1704 43.1599 28.1704 43.1599" stroke="#263238" stroke-width="0.236" stroke-linecap="round" stroke-linejoin="round"/>
<path d="M29.2854 42.2924C29.2854 42.2924 29.3429 42.3224 29.3429 42.4324C29.3429 42.5424 29.0929 42.8524 29.0929 42.8524" stroke="#263238" stroke-width="0.236" stroke-linecap="round" stroke-linejoin="round"/>
<path d="M28.5628 60.2974C28.5628 60.2974 28.6303 59.0024 27.1728 58.2549C25.7153 57.5074 23.6728 57.3324 22.5728 57.8949C21.4728 58.4574 20.5728 59.5524 20.7128 60.9424C20.8528 62.3324 21.6528 63.5574 22.7878 64.0924C23.9228 64.6274 26.5628 63.6399 27.6153 62.6874C28.6678 61.7349 28.5628 60.2974 28.5628 60.2974Z" stroke="#263238" stroke-width="0.236" stroke-linecap="round" stroke-linejoin="round"/>
<path d="M32.0552 55.0649C32.0552 55.0649 27.2327 55.5649 24.0827 56.6149C20.9327 57.6649 18.9002 58.5174 17.9502 59.7499C17.0002 60.9824 16.1477 63.0624 16.5177 64.3249C16.8877 65.5874 17.5502 66.7424 19.5927 67.4049C21.6352 68.0674 24.5052 67.6099 26.3177 66.8349C28.1302 66.0599 31.4802 62.9324 32.3177 62.1799C33.1552 61.4274 34.5477 59.3699 34.9677 58.4799C35.3877 57.5899 35.4402 56.7124 34.5927 55.9499C33.7452 55.1874 32.0552 55.0649 32.0552 55.0649Z" stroke="#263238" stroke-width="0.236" stroke-linecap="round" stroke-linejoin="round"/>
<path d="M16.9103 65.4249C16.9103 65.4249 17.5003 67.4999 20.0003 68.8699C22.5003 70.2399 26.7778 69.4724 28.7178 67.7924C30.6578 66.1124 33.4478 63.2624 34.6353 60.7449C35.8228 58.2274 35.4503 56.8424 35.0978 56.4374" stroke="#263238" stroke-width="0.236" stroke-linecap="round" stroke-linejoin="round"/>
<path d="M29.5528 55.9374C28.5178 56.1024 27.4278 56.3174 26.4228 56.5124C24.4228 56.8999 22.4878 57.4324 21.0653 58.1499C19.6428 58.8674 18.3428 59.8224 18.2728 59.9724" stroke="#263238" stroke-width="0.236" stroke-linecap="round" stroke-linejoin="round"/>
<path d="M33.0554 60.4099C33.5979 59.8599 34.5104 58.7874 34.6079 57.7174C34.7254 56.4449 33.8779 55.6824 32.3154 55.6699C31.6729 55.675 31.0314 55.7235 30.3954 55.8149" stroke="#263238" stroke-width="0.236" stroke-linecap="round" stroke-linejoin="round"/>
<path d="M31.9078 61.6074L32.5303 60.9374" stroke="#263238" stroke-width="0.236" stroke-linecap="round" stroke-linejoin="round"/>
<path d="M26.7628 65.6999C27.2153 65.4499 27.6453 65.2149 28.0353 64.9974C29.1753 64.3649 30.5353 63.0574 31.5028 62.0324" stroke="#263238" stroke-width="0.236" stroke-linecap="round" stroke-linejoin="round"/>
<path d="M18.1152 60.5624C18.1152 60.5624 16.6552 61.8649 16.9452 63.8124C17.2352 65.7599 19.3127 66.9799 21.3227 67.3249C22.7627 67.5749 24.6152 66.8099 26.2402 65.9724" stroke="#263238" stroke-width="0.236" stroke-linecap="round" stroke-linejoin="round"/>
<path d="M13.7828 25.8974C13.7828 25.8974 11.7828 26.2599 11.3053 26.2424C10.8278 26.2249 10.3453 26.0924 10.3053 26.4924L10.2503 26.9099C10.2503 26.9099 9.87529 26.7699 9.70029 27.2349C9.52529 27.6999 10.3728 28.9849 11.5503 29.9649C12.7278 30.9449 14.6178 32.7149 15.8003 33.4399C16.9828 34.1649 20.1953 35.7949 20.1953 35.7949C20.1953 35.7949 20.9178 36.7099 21.1953 37.1324C21.4728 37.5549 22.2628 38.7724 22.2503 38.4999C22.2378 38.2274 22.2903 37.1274 22.2903 37.1274L21.7253 36.2174C21.7253 36.2174 25.3128 37.0424 25.9553 37.1774C26.5978 37.3124 27.4553 37.4274 27.4553 37.4274L28.8428 38.6999C28.8428 38.6999 30.1478 38.0724 30.8428 37.7999C31.5378 37.5274 33.5003 37.4199 33.5003 37.4199L33.6078 37.1374L35.4478 37.7824C35.4478 37.7824 36.5703 39.3274 37.3678 40.3249C37.94 41.0059 38.5828 41.6243 39.2853 42.1699C39.2853 42.1699 38.7853 39.5749 38.5953 38.9199C38.4053 38.2649 38.2253 37.4999 38.2253 37.4999C38.2253 37.4999 40.7253 36.0974 41.0703 35.4799C41.4059 34.9221 41.7706 34.3821 42.1628 33.8624C42.1628 33.8624 38.8053 34.8349 38.1203 34.9499C37.4353 35.0649 36.7803 35.6724 36.0428 35.4999C35.3053 35.3274 33.0428 34.0999 32.3953 33.4249C31.7478 32.7499 27.8953 29.9099 27.3678 29.4949C26.8403 29.0799 26.5403 28.8599 26.5403 28.8599L27.4478 28.7224C26.9788 28.1323 26.5542 27.5081 26.1778 26.8549C25.8806 26.2907 25.6394 25.6987 25.4578 25.0874L25.4328 24.7499L22.3228 26.6174C22.3228 26.6174 19.0578 25.6499 17.0528 25.5849C15.9534 25.5301 14.8519 25.6353 13.7828 25.8974Z" stroke="#263238" stroke-width="0.236" stroke-linecap="round" stroke-linejoin="round"/>
<path d="M12.2503 27.0224C12.2671 26.9851 12.276 26.9448 12.2766 26.9039C12.2772 26.863 12.2694 26.8225 12.2537 26.7847C12.238 26.7469 12.2148 26.7128 12.1855 26.6843C12.1561 26.6559 12.1213 26.6337 12.083 26.6192C12.0448 26.6047 12.004 26.5981 11.9632 26.6C11.9224 26.6018 11.8823 26.612 11.8455 26.6298C11.8088 26.6477 11.776 26.6729 11.7493 26.7038C11.7227 26.7348 11.7026 26.7709 11.6903 26.8099C11.6759 26.8465 11.669 26.8855 11.6699 26.9248C11.6708 26.9641 11.6795 27.0028 11.6956 27.0387C11.7117 27.0746 11.7347 27.1069 11.7635 27.1337C11.7922 27.1605 11.826 27.1813 11.8629 27.1949C11.9371 27.2234 12.0196 27.2212 12.0923 27.1889C12.165 27.1565 12.2218 27.0967 12.2503 27.0224Z" fill="#263238"/>
<path d="M16.0502 27.0149C16.1247 27.1569 16.1502 27.3195 16.1227 27.4774C16.0277 28.2949 15.6777 29.9249 15.1377 30.3624C14.5977 30.7999 13.6527 30.7499 13.6527 30.7499" stroke="#263238" stroke-width="0.236" stroke-linecap="round" stroke-linejoin="round"/>
<path d="M15.3954 26.7199C15.5599 26.7133 15.7232 26.7513 15.8679 26.8299" stroke="#263238" stroke-width="0.236" stroke-linecap="round" stroke-linejoin="round"/>
<path d="M14.9203 31.0799C14.9203 31.0799 16.1128 31.3299 17.4078 31.7024C18.7028 32.0749 18.2728 32.2424 17.7803 32.2699C17.2878 32.2974 16.5003 32.6924 16.0503 32.4699C15.6003 32.2474 14.9828 31.4699 14.9828 31.4699" stroke="#263238" stroke-width="0.236" stroke-linecap="round" stroke-linejoin="round"/>
<path d="M13.6129 27.9524C13.6181 27.8129 13.6114 27.6733 13.5929 27.5349" stroke="#263238" stroke-width="0.236" stroke-linecap="round" stroke-linejoin="round"/>
<path d="M10.2503 26.9099C10.2503 26.9099 10.0553 27.4249 10.6253 28.1749C10.9113 28.5865 11.2988 28.9172 11.7503 29.1349C11.7503 29.1349 12.4853 29.7349 13.1228 29.1749C13.2961 29.024 13.4263 28.8299 13.5003 28.6124" stroke="#263238" stroke-width="0.236" stroke-linecap="round" stroke-linejoin="round"/>
<path d="M11.7504 29.4524C11.7504 29.4524 12.7229 30.4074 13.4079 30.2924C14.0929 30.1774 14.4654 28.7699 14.3604 28.1974" stroke="#263238" stroke-width="0.236" stroke-linecap="round" stroke-linejoin="round"/>
<path d="M23.8653 26.3924L23.0978 26.8724" stroke="#263238" stroke-width="0.236" stroke-linecap="round" stroke-linejoin="round"/>
<path d="M25.5729 25.325L24.1554 26.2099" stroke="#263238" stroke-width="0.236" stroke-linecap="round" stroke-linejoin="round"/>
<path d="M27.9728 37.3724C27.9728 37.3724 32.4728 37.0449 32.8953 37.0624" stroke="#263238" stroke-width="0.236" stroke-linecap="round" stroke-linejoin="round"/>
<path d="M24.3254 26.7974L23.7179 27.1949" stroke="#263238" stroke-width="0.236" stroke-linecap="round" stroke-linejoin="round"/>
<path d="M25.7453 25.8674L24.7203 26.5374" stroke="#263238" stroke-width="0.236" stroke-linecap="round" stroke-linejoin="round"/>
<path d="M24.6477 27.3674L24.3077 27.5924" stroke="#263238" stroke-width="0.236" stroke-linecap="round" stroke-linejoin="round"/>
<path d="M25.9403 26.5099L25.0553 27.0974" stroke="#263238" stroke-width="0.236" stroke-linecap="round" stroke-linejoin="round"/>
<path d="M26.2778 27.1174L25.0428 27.9574" stroke="#263238" stroke-width="0.236" stroke-linecap="round" stroke-linejoin="round"/>
<path d="M25.9302 28.1874L25.6727 28.3699" stroke="#263238" stroke-width="0.236" stroke-linecap="round" stroke-linejoin="round"/>
<path d="M26.6278 27.6849L26.1053 28.0624" stroke="#263238" stroke-width="0.236" stroke-linecap="round" stroke-linejoin="round"/>
<path d="M26.9327 28.1499L26.2052 28.5724" stroke="#263238" stroke-width="0.236" stroke-linecap="round" stroke-linejoin="round"/>
<path d="M28.4428 37.8074L28.2103 37.5774" stroke="#263238" stroke-width="0.236" stroke-linecap="round" stroke-linejoin="round"/>
<path d="M29.1277 38.4924L28.6627 38.0274" stroke="#263238" stroke-width="0.236" stroke-linecap="round" stroke-linejoin="round"/>
<path d="M29.6402 38.2924L28.9352 37.5024" stroke="#263238" stroke-width="0.236" stroke-linecap="round" stroke-linejoin="round"/>
<path d="M30.0852 38.1549L29.6327 37.5049" stroke="#263238" stroke-width="0.236" stroke-linecap="round" stroke-linejoin="round"/>
<path d="M30.6103 37.9174L30.1678 37.3574" stroke="#263238" stroke-width="0.236" stroke-linecap="round" stroke-linejoin="round"/>
<path d="M31.0854 37.7049L30.8029 37.2924" stroke="#263238" stroke-width="0.236" stroke-linecap="round" stroke-linejoin="round"/>
<path d="M31.8253 37.5924L31.6302 37.2999" stroke="#263238" stroke-width="0.236" stroke-linecap="round" stroke-linejoin="round"/>
<path d="M41.9129 33.9924L37.8954 35.6149" stroke="#263238" stroke-width="0.236" stroke-linecap="round" stroke-linejoin="round"/>
<path d="M39.4853 35.4249L38.1678 35.9349" stroke="#263238" stroke-width="0.236" stroke-linecap="round" stroke-linejoin="round"/>
<path d="M41.5903 34.6124L39.8678 35.2774" stroke="#263238" stroke-width="0.236" stroke-linecap="round" stroke-linejoin="round"/>
<path d="M40.9952 35.6074L38.3802 36.4074" stroke="#263238" stroke-width="0.236" stroke-linecap="round" stroke-linejoin="round"/>
<path d="M38.4178 36.8299L38.1178 36.8749" stroke="#263238" stroke-width="0.236" stroke-linecap="round" stroke-linejoin="round"/>
<path d="M39.6903 36.6399L38.9078 36.7574" stroke="#263238" stroke-width="0.236" stroke-linecap="round" stroke-linejoin="round"/>
<path d="M38.3628 38.1899L37.6903 37.5424" stroke="#263238" stroke-width="0.236" stroke-linecap="round" stroke-linejoin="round"/>
<path d="M37.9803 38.5424L37.4178 37.9199" stroke="#263238" stroke-width="0.236" stroke-linecap="round" stroke-linejoin="round"/>
<path d="M38.7402 39.3799L38.1527 38.7299" stroke="#263238" stroke-width="0.236" stroke-linecap="round" stroke-linejoin="round"/>
<path d="M37.9152 39.3999L37.0277 38.2524" stroke="#263238" stroke-width="0.236" stroke-linecap="round" stroke-linejoin="round"/>
<path d="M39.0802 40.9049L38.1927 39.7574" stroke="#263238" stroke-width="0.236" stroke-linecap="round" stroke-linejoin="round"/>
<path d="M36.8278 38.8299L36.4703 38.3474" stroke="#263238" stroke-width="0.236" stroke-linecap="round" stroke-linejoin="round"/>
<path d="M39.2929 42.1699L37.1354 39.2474" stroke="#263238" stroke-width="0.236" stroke-linecap="round" stroke-linejoin="round"/>
<path d="M15.8828 32.0424L15.5878 31.8424" stroke="#263238" stroke-width="0.236" stroke-linecap="round" stroke-linejoin="round"/>
<path d="M16.5953 32.5274L16.1278 32.2099" stroke="#263238" stroke-width="0.236" stroke-linecap="round" stroke-linejoin="round"/>
<path d="M17.0002 32.3774L16.1102 31.7349" stroke="#263238" stroke-width="0.236" stroke-linecap="round" stroke-linejoin="round"/>
<path d="M17.5877 32.2074L16.8302 31.7874" stroke="#263238" stroke-width="0.236" stroke-linecap="round" stroke-linejoin="round"/>
<path d="M22.2378 38.0224L20.8153 36.1324" stroke="#263238" stroke-width="0.236" stroke-linecap="round" stroke-linejoin="round"/>
<path d="M22.1979 37.4399L21.2404 36.1624" stroke="#263238" stroke-width="0.236" stroke-linecap="round" stroke-linejoin="round"/>
<path d="M91.9604 21.75H37.4054C34.7296 21.75 32.5604 23.9192 32.5604 26.595V75.8325C32.5604 78.5083 34.7296 80.6775 37.4054 80.6775H91.9604C94.6362 80.6775 96.8054 78.5083 96.8054 75.8325V26.595C96.8054 23.9192 94.6362 21.75 91.9604 21.75Z" fill="white" stroke="#263238" stroke-width="0.236" stroke-linecap="round" stroke-linejoin="round"/>
<path d="M79.5954 37.8325C77.6804 38.57 73.2804 38.385 73.2804 38.385H56.0854C56.0854 38.385 51.6854 38.57 49.7704 37.8325C47.8554 37.095 45.7504 33.035 52.4479 28.7875C58.1729 25.1625 62.6379 25.0375 63.8154 25.08V25.03C63.8154 25.03 70.2179 24.53 76.9179 28.78C83.6179 33.03 81.5004 37.0925 79.5954 37.8325Z" stroke="#263238" stroke-width="0.236" stroke-linecap="round" stroke-linejoin="round"/>
<path d="M77.0355 38.31C75.7878 38.4032 74.5359 38.4282 73.2855 38.385H56.0855C56.0855 38.385 54.4155 38.455 52.683 38.3375C53.8405 36.1468 55.5675 34.3089 57.6821 33.0175C59.7967 31.7262 62.2205 31.0292 64.698 31H64.8655C67.3665 30.9991 69.8205 31.679 71.9645 32.9668C74.1085 34.2546 75.8615 36.1017 77.0355 38.31Z" stroke="#263238" stroke-width="0.236" stroke-linecap="round" stroke-linejoin="round"/>
<path d="M64.698 31V38.385H56.0855C56.0855 38.385 54.4155 38.455 52.683 38.3375C53.8405 36.1468 55.5675 34.3089 57.6821 33.0175C59.7967 31.7262 62.2205 31.0292 64.698 31Z" fill="#92E3A9" stroke="#263238" stroke-width="0.236" stroke-linecap="round" stroke-linejoin="round"/>
<path d="M64.683 26.2375V29.5225" stroke="#263238" stroke-width="0.236" stroke-linecap="round" stroke-linejoin="round"/>
<path d="M55.4205 28.885L57.088 31.73" stroke="#263238" stroke-width="0.236" stroke-linecap="round" stroke-linejoin="round"/>
<path d="M48.743 35.45L51.633 37.0925" stroke="#263238" stroke-width="0.236" stroke-linecap="round" stroke-linejoin="round"/>
<path d="M62.6705 26.15L62.8755 27.7875" stroke="#263238" stroke-width="0.236" stroke-linecap="round" stroke-linejoin="round"/>
<path d="M60.7455 26.4975L61.123 28.1025" stroke="#263238" stroke-width="0.236" stroke-linecap="round" stroke-linejoin="round"/>
<path d="M58.8654 27.04L59.4129 28.6" stroke="#263238" stroke-width="0.236" stroke-linecap="round" stroke-linejoin="round"/>
<path d="M57.0555 27.775L57.7655 29.27" stroke="#263238" stroke-width="0.236" stroke-linecap="round" stroke-linejoin="round"/>
<path d="M53.7179 29.78L54.7254 31.0975" stroke="#263238" stroke-width="0.236" stroke-linecap="round" stroke-linejoin="round"/>
<path d="M52.2255 31.03L53.368 32.235" stroke="#263238" stroke-width="0.236" stroke-linecap="round" stroke-linejoin="round"/>
<path d="M50.8754 32.425L52.1404 33.505" stroke="#263238" stroke-width="0.236" stroke-linecap="round" stroke-linejoin="round"/>
<path d="M49.6805 33.9525L51.053 34.8975" stroke="#263238" stroke-width="0.236" stroke-linecap="round" stroke-linejoin="round"/>
<path d="M73.8779 28.885L72.2079 31.73" stroke="#263238" stroke-width="0.236" stroke-linecap="round" stroke-linejoin="round"/>
<path d="M80.5554 35.45L77.6654 37.0925" stroke="#263238" stroke-width="0.236" stroke-linecap="round" stroke-linejoin="round"/>
<path d="M66.628 26.15L66.423 27.7875" stroke="#263238" stroke-width="0.236" stroke-linecap="round" stroke-linejoin="round"/>
<path d="M68.5529 26.4975L68.1754 28.1025" stroke="#263238" stroke-width="0.236" stroke-linecap="round" stroke-linejoin="round"/>
<path d="M70.4304 27.04L69.8854 28.6" stroke="#263238" stroke-width="0.236" stroke-linecap="round" stroke-linejoin="round"/>
<path d="M72.2403 27.775L71.5328 29.27" stroke="#263238" stroke-width="0.236" stroke-linecap="round" stroke-linejoin="round"/>
<path d="M75.5804 29.78L74.5729 31.0975" stroke="#263238" stroke-width="0.236" stroke-linecap="round" stroke-linejoin="round"/>
<path d="M77.0704 31.03L75.9279 32.235" stroke="#263238" stroke-width="0.236" stroke-linecap="round" stroke-linejoin="round"/>
<path d="M78.4228 32.425L77.1578 33.505" stroke="#263238" stroke-width="0.236" stroke-linecap="round" stroke-linejoin="round"/>
<path d="M79.618 33.9525L78.2455 34.8975" stroke="#263238" stroke-width="0.236" stroke-linecap="round" stroke-linejoin="round"/>
<path d="M91.1704 22.955H90.7104L86.3854 34.2325C85.739 35.9239 84.5944 37.3791 83.103 38.4059C81.6115 39.4326 79.8436 39.9824 78.0329 39.9825H52.0629C50.2913 39.9823 48.5597 39.4562 47.0875 38.4708C45.6152 37.4854 44.4686 36.0852 43.7929 34.4475L39.0604 22.955H38.1929C37.0472 22.955 35.9484 23.4102 35.1382 24.2203C34.3281 25.0305 33.8729 26.1293 33.8729 27.275V75.1525C33.8729 76.2983 34.3281 77.3971 35.1382 78.2072C35.9484 79.0174 37.0472 79.4725 38.1929 79.4725H91.1704C91.7386 79.4739 92.3014 79.3631 92.8267 79.1466C93.352 78.9301 93.8294 78.612 94.2316 78.2108C94.6338 77.8095 94.9529 77.3328 95.1706 76.808C95.3884 76.2833 95.5004 75.7207 95.5004 75.1525V27.275C95.5004 26.7069 95.3884 26.1443 95.1706 25.6195C94.9529 25.0947 94.6338 24.6181 94.2316 24.2168C93.8294 23.8155 93.352 23.4975 92.8267 23.281C92.3014 23.0645 91.7386 22.9537 91.1704 22.955Z" fill="white" stroke="#263238" stroke-width="0.236" stroke-linecap="round" stroke-linejoin="round"/>
<path d="M65.3329 38.385H63.1854L59.5704 30.52L65.3329 38.385Z" fill="#263238" stroke="#263238" stroke-width="0.236" stroke-linecap="round" stroke-linejoin="round"/>
<path d="M64.4377 52.1375C64.4377 52.1375 63.9227 54.945 63.1202 56.1375C62.3177 57.33 61.5727 57.915 60.4827 58.0875C59.3927 58.26 56.8152 58.145 56.0127 59.0625C55.2102 59.98 52.4677 68.5 52.4677 68.5C52.4677 68.5 51.7727 70.3175 52.2877 71.52C52.8027 72.7225 53.8927 73.47 54.8102 72.61C55.7277 71.75 57.9627 64.585 57.9627 64.585L59.9627 70.375C59.9627 70.375 57.4452 74.2025 57.2752 75.75C57.2752 75.75 55.7752 81.5375 56.2427 85.205C56.7102 88.8725 59.7952 91.5675 59.6802 94.835C59.5652 98.1025 57.7902 99.1325 57.6177 101.713C57.4452 104.293 58.1352 110.998 58.1352 111.685C58.1352 112.373 58.1902 113.003 58.9352 113.233C59.388 113.367 59.8726 113.347 60.3127 113.175C60.3127 113.175 61.0002 109.048 62.3127 105.895C63.6252 102.743 64.3127 99.82 64.8927 96.725C65.4727 93.63 65.8077 87.555 65.8077 86.64C65.8077 85.725 65.7527 84.2325 65.7527 84.2325L66.5527 83.83C66.5527 83.83 66.6677 92.08 67.0127 94.8925C67.3577 97.705 67.9302 100.508 67.9302 101.195C67.9302 101.883 67.8152 103.833 68.2152 105.725C68.6152 107.618 68.7502 111.913 68.7502 111.913C68.7502 111.913 68.5777 112.715 68.8652 112.945C69.1527 113.175 70.5827 113.06 70.8652 113.003C71.1477 112.945 71.3802 111.913 71.3802 111.685C71.6295 109.504 72.0128 107.341 72.5277 105.208C73.2077 102.515 73.5002 101.25 73.5002 98.675C73.5002 96.1 72.5277 95.465 73.1577 92.8275C73.7877 90.19 75.8502 87.4975 75.8502 83.545C75.8502 79.5925 74.2502 76.0925 73.4377 75C73.4377 75 74.0677 73.1075 71.3152 69.2675L72.0652 63.135C72.0652 63.135 78.5427 65.83 79.7452 66.115C80.9477 66.4 82.0377 65.1425 81.9227 64.115C81.8077 63.0875 79.1152 61.65 77.3377 60.675C75.5602 59.7 74.2652 58.0475 72.0877 57.425C69.9102 56.8025 68.5127 57.475 68.2827 57.475C68.0527 57.475 67.5327 54.0925 67.5327 54.0925L64.4377 52.1375Z" fill="white" stroke="#263238" stroke-width="0.236" stroke-linecap="round" stroke-linejoin="round"/>
<path d="M67.5325 54.085L64.4375 52.1375C64.4375 52.1375 64.405 52.315 64.3425 52.6025C64.82 53.2325 66.6625 55.6025 67.9275 56.3275C67.725 55.345 67.5325 54.085 67.5325 54.085Z" fill="#263238" stroke="#263238" stroke-width="0.236" stroke-linecap="round" stroke-linejoin="round"/>
<path d="M66.3151 72.435C66.3093 72.4724 66.293 72.5073 66.268 72.5356C66.243 72.564 66.2104 72.5846 66.1741 72.5949C66.1377 72.6053 66.0992 72.605 66.063 72.5942C66.0268 72.5833 65.9945 72.5622 65.9699 72.5336C65.9453 72.5049 65.9295 72.4697 65.9243 72.4323C65.919 72.3949 65.9247 72.3567 65.9405 72.3224C65.9563 72.2881 65.9816 72.259 66.0134 72.2386C66.0453 72.2183 66.0823 72.2075 66.1201 72.2075C66.1758 72.2126 66.2273 72.2392 66.2637 72.2817C66.3001 72.3242 66.3186 72.3792 66.3151 72.435Z" stroke="#263238" stroke-width="0.236" stroke-linecap="round" stroke-linejoin="round"/>
<path d="M75.8426 83.5451C75.8426 79.6601 74.2951 76.2176 73.4801 75.0651C72.3951 75.8301 69.8051 77.2676 65.7576 77.1826C61.3551 77.0901 58.3501 75.9326 57.3226 75.4776C57.3006 75.5672 57.2847 75.6582 57.2751 75.7501C57.2751 75.7501 55.7751 81.5376 56.2426 85.2051C56.7101 88.8726 59.7951 91.5676 59.6801 94.8351C59.5651 98.1026 57.7901 99.1326 57.6176 101.713C57.5743 102.884 57.5927 104.058 57.6726 105.228C59.3051 106.06 61.3651 105.868 62.4026 105.69C63.6526 102.615 64.3351 99.7526 64.9026 96.7251C65.4751 93.6301 65.8176 87.5551 65.8176 86.6401C65.8176 85.7251 65.7626 84.2326 65.7626 84.2326L66.5626 83.8301C66.5626 83.8301 66.6776 92.0801 67.0226 94.8926C67.3676 97.7051 67.9401 100.508 67.9401 101.195C67.9401 101.883 67.8251 103.833 68.2251 105.725C68.2385 105.783 68.251 105.843 68.2626 105.905C68.6726 105.905 69.1501 105.905 69.7151 105.905C70.6331 105.888 71.5466 105.773 72.4401 105.563C72.4676 105.445 72.4951 105.33 72.5251 105.218C73.2076 102.515 73.5001 101.25 73.5001 98.6751C73.5001 96.1001 72.5276 95.4651 73.1576 92.8276C73.7876 90.1901 75.8426 87.5001 75.8426 83.5451Z" fill="#263238" stroke="#263238" stroke-width="0.236" stroke-linecap="round" stroke-linejoin="round"/>
<path d="M71.0875 43.655C71.0875 43.655 66.615 41.19 64.495 41.3625C62.375 41.535 59.165 45.9475 58.765 48.0675C58.365 50.1875 60.4275 51.335 60.54 51.505C60.6525 51.675 58.8225 51.5625 58.9925 52.94C59.1625 54.3175 61.3425 54.5425 62.605 54.315C63.8675 54.0875 64.725 52.48 64.725 52.25C64.725 52.02 64.1525 50.475 64.1525 50.475C64.1525 50.475 65.355 50.59 65.5275 49.5575C65.7 48.525 66.6725 46.2325 67.9925 46.175C69.3125 46.1175 70.3425 46.29 70.455 46.5775C70.5652 47.0296 70.6421 47.4892 70.685 47.9525C71.1572 48.0407 71.6429 48.0248 72.1084 47.9061C72.5738 47.7873 73.0078 47.5686 73.38 47.265C74.5825 46.2325 75.04 43.425 73.4375 42.8525C73.015 42.6794 72.5441 42.6654 72.112 42.8129C71.6799 42.9605 71.3159 43.2597 71.0875 43.655Z" fill="#263238" stroke="#263238" stroke-width="0.236" stroke-linecap="round" stroke-linejoin="round"/>
<path d="M63.6101 49.5225L61.3076 50.83C61.3076 50.83 62.1776 51.89 62.5576 52.015C62.8911 52.0751 63.2342 52.0536 63.5576 51.9525C63.5576 51.9525 64.6176 53.2025 65.4276 53.7575C66.2376 54.3125 68.1776 55.3775 69.2251 55.0075C70.2726 54.6375 71.8426 51.83 71.7251 50.895C71.6076 49.96 71.0401 48.4675 71.1026 47.72C71.1651 46.9725 71.2876 45.79 71.2876 45.79C71.2876 45.79 68.7351 44.54 66.6801 45.7275C64.6251 46.915 64.7326 49.0875 63.6101 49.5225Z" fill="white" stroke="#263238" stroke-width="0.236" stroke-linecap="round" stroke-linejoin="round"/>
<path d="M69.2151 48.4025L69.2776 49.1525C69.2776 49.1525 70.8976 49.34 70.2776 49.9025C69.8463 50.2584 69.329 50.4946 68.7776 50.5875" stroke="#263238" stroke-width="0.236" stroke-linecap="round" stroke-linejoin="round"/>
<path d="M70.15 51.64C69.5835 51.8334 68.9961 51.9592 68.4 52.015C68.0027 52.0118 67.6067 51.97 67.2175 51.89C67.2175 51.89 67.7775 52.45 68.2775 52.89C68.5967 53.1582 68.9848 53.3314 69.3975 53.39L69.335 52.33L70.15 51.64Z" fill="#263238" stroke="#263238" stroke-width="0.236" stroke-linecap="round" stroke-linejoin="round"/>
<path d="M66.2275 47.905C66.2275 47.905 66.85 47.2825 67.5975 47.3425" stroke="#263238" stroke-width="0.236" stroke-linecap="round" stroke-linejoin="round"/>
<path d="M69.4651 47.1575C69.6774 47.0888 69.9039 47.0757 70.1227 47.1195C70.3415 47.1633 70.5455 47.2625 70.7151 47.4075" stroke="#263238" stroke-width="0.236" stroke-linecap="round" stroke-linejoin="round"/>
<path d="M67.3677 49.41C67.5168 49.41 67.6376 49.1985 67.6376 48.9375C67.6376 48.6766 67.5168 48.465 67.3677 48.465C67.2185 48.465 67.0977 48.6766 67.0977 48.9375C67.0977 49.1985 67.2185 49.41 67.3677 49.41Z" fill="#263238"/>
<path d="M70.1577 49.1226C70.3068 49.1226 70.4277 48.911 70.4277 48.6501C70.4277 48.3891 70.3068 48.1776 70.1577 48.1776C70.0086 48.1776 69.8877 48.3891 69.8877 48.6501C69.8877 48.911 70.0086 49.1226 70.1577 49.1226Z" fill="#263238"/>
<path d="M69.2501 57.23C68.9101 57.3025 68.6451 57.38 68.4751 57.425C68.7851 58.215 69.3802 59.775 69.5502 60.4475C69.6723 60.8774 69.7486 61.3191 69.7776 61.765C69.7776 61.765 69.4927 62.4525 66.7977 63.14C64.1027 63.8275 61.6402 63.14 61.0677 62.74C60.7634 62.5338 60.4758 62.3039 60.2077 62.0525L61.4427 57.8025C61.1971 57.9191 60.9374 58.0031 60.6701 58.0525C60.2276 59.3275 59.5676 61.3025 59.1701 62.8425C58.8485 64.2849 58.7557 65.7689 58.8952 67.24L59.9727 70.35C59.9727 70.35 59.7727 70.655 59.4726 71.1275C61.0276 71.3775 63.8451 71.7825 66.1551 71.7825C68.6751 71.7825 70.9051 70.67 71.8826 70.1C71.7101 69.8325 71.5226 69.5525 71.3126 69.26L72.0626 63.1275L69.2501 57.23Z" fill="#27AE60" stroke="#263238" stroke-width="0.236" stroke-linecap="round" stroke-linejoin="round"/>
<path d="M65.02 68.66L68.105 67.095" stroke="#263238" stroke-width="0.236" stroke-linecap="round" stroke-linejoin="round"/>
<path d="M63.8076 69.2726L64.3626 68.9926" stroke="#263238" stroke-width="0.236" stroke-linecap="round" stroke-linejoin="round"/>
<path d="M67.1902 68.1276L64.6677 69.5026" stroke="#263238" stroke-width="0.236" stroke-linecap="round" stroke-linejoin="round"/>
<path d="M59.9675 112.83C59.9675 112.83 59.68 112.028 59.1075 111.97C58.535 111.913 57.675 111.743 57.3875 112.258C57.1613 112.754 56.9886 113.272 56.8725 113.805C56.8725 113.805 55.2675 114.95 54.5225 115.805C53.7775 116.66 54.0075 117.238 54.6375 117.698C55.2675 118.158 56.815 118.213 57.5025 117.985C58.19 117.758 58.88 116.78 58.88 116.78C58.88 116.78 60.4275 116.78 60.655 116.323C60.8825 115.865 60.7125 114.088 60.7125 114.088C60.8661 113.786 60.945 113.451 60.9425 113.113C60.9051 112.869 60.783 112.645 60.5975 112.483C60.4284 112.661 60.2083 112.782 59.9675 112.83Z" fill="white" stroke="#263238" stroke-width="0.236" stroke-linecap="round" stroke-linejoin="round"/>
<path d="M56.7001 117.415C55.7801 117.627 54.7301 117.207 54.0601 116.852C54.0877 117.028 54.1538 117.195 54.2537 117.342C54.3535 117.489 54.4846 117.612 54.6376 117.702C55.2676 118.16 56.8151 118.217 57.5026 117.99C58.1901 117.762 58.8801 116.785 58.8801 116.785C58.8801 116.785 60.4276 116.785 60.6551 116.327C60.7602 115.975 60.8008 115.607 60.7751 115.24C60.3901 115.527 59.5976 116.085 59.0501 116.212C58.3051 116.385 58.1901 117.072 56.7001 117.415Z" fill="white" stroke="#263238" stroke-width="0.236" stroke-linecap="round" stroke-linejoin="round"/>
<path d="M68.75 111.913C68.75 111.913 67.9475 112.603 67.9475 113.233C67.9475 113.863 68.005 114.665 68.005 114.665C68.005 114.665 67.545 116.213 67.89 116.555C68.235 116.898 68.9775 117.073 69.495 117.073C70.0125 117.073 70.9275 117.188 70.9275 117.188C71.7397 117.621 72.6043 117.948 73.5 118.16C74.705 118.39 75.965 118.103 76.08 117.358C76.195 116.613 75.33 115.858 74.83 115.583C74.33 115.308 73.51 114.723 73.2825 114.32C73.055 113.918 72.0775 113.07 72.0775 113.07C72.0775 113.07 72.3075 111.868 71.62 111.82C70.9325 111.773 70.415 112.735 70.415 112.735C70.415 112.735 69.7275 112.678 69.3275 112.678H68.6975L68.75 111.913Z" fill="white" stroke="#263238" stroke-width="0.236" stroke-linecap="round" stroke-linejoin="round"/>
<path d="M76.0727 117.358C76.0928 117.218 76.0825 117.075 76.0427 116.94C75.7038 117.223 75.3289 117.46 74.9277 117.645C74.0102 118.045 72.8052 117.415 72.0027 117.13C71.2002 116.845 70.8577 116.443 69.5977 116.38C68.932 116.347 68.2939 116.104 67.7752 115.685C67.7302 116.05 67.7327 116.408 67.8777 116.55C68.2202 116.895 68.9652 117.068 69.4827 117.068C70.0002 117.068 70.9152 117.183 70.9152 117.183C71.7311 117.619 72.6 117.947 73.5002 118.16C74.6977 118.39 75.9577 118.103 76.0727 117.358Z" fill="white" stroke="#263238" stroke-width="0.236" stroke-linecap="round" stroke-linejoin="round"/>
<path d="M48.8261 61.854C49.6989 60.9812 49.6989 59.5661 48.8261 58.6932C47.9533 57.8204 46.5382 57.8204 45.6653 58.6932C44.7925 59.5661 44.7925 60.9812 45.6653 61.854C46.5382 62.7268 47.9533 62.7268 48.8261 61.854Z" fill="#263238" stroke="#263238" stroke-width="0.236" stroke-linecap="round" stroke-linejoin="round"/>
<path d="M49.25 59.8725L49.8225 59.015C50.1603 59.1476 50.5049 59.2619 50.855 59.3575C51.3125 59.4725 51.7725 59.415 51.605 59.7025C51.4375 59.99 50.6875 60.2175 50.4025 60.2175C50.0071 60.144 49.6207 60.0284 49.25 59.8725Z" fill="white" stroke="#263238" stroke-width="0.236" stroke-linecap="round" stroke-linejoin="round"/>
<path d="M55.6702 71.05C55.696 71.4354 55.6572 71.8224 55.5552 72.195C55.3827 72.945 54.5227 73.9725 54.1227 74.0875C53.7227 74.2025 52.6227 73.9725 52.0027 72.7125C51.3827 71.4525 49.9377 67.2125 49.9377 67.2125C49.9377 67.2125 48.1052 62.4625 48.1052 62.1125C48.1052 61.7625 48.9627 59.59 48.9627 59.59C48.9627 59.59 48.9077 59.3025 49.2502 59.36C49.5787 59.4633 49.8885 59.6186 50.1677 59.82L51.7152 60.45C51.7152 60.45 52.1727 60.7925 52.1152 61.2525C52.0562 61.6048 51.9607 61.95 51.8302 62.2825C51.8 62.7025 51.7424 63.12 51.6577 63.5325C51.4592 64.1168 51.2297 64.6901 50.9702 65.25C51.4657 66.3047 52.0406 67.3201 52.6902 68.2875C53.4927 69.3775 55.1527 70.4675 55.1527 70.4675" fill="white"/>
<path d="M55.6702 71.05C55.696 71.4354 55.6572 71.8224 55.5552 72.195C55.3827 72.945 54.5227 73.9725 54.1227 74.0875C53.7227 74.2025 52.6227 73.9725 52.0027 72.7125C51.3827 71.4525 49.9377 67.2125 49.9377 67.2125C49.9377 67.2125 48.1052 62.4625 48.1052 62.1125C48.1052 61.7625 48.9627 59.59 48.9627 59.59C48.9627 59.59 48.9077 59.3025 49.2502 59.36C49.5787 59.4633 49.8885 59.6186 50.1677 59.82L51.7152 60.45C51.7152 60.45 52.1727 60.7925 52.1152 61.2525C52.0562 61.6048 51.9607 61.95 51.8302 62.2825C51.8 62.7025 51.7424 63.12 51.6577 63.5325C51.4592 64.1168 51.2297 64.6901 50.9702 65.25C51.4657 66.3047 52.0406 67.3201 52.6902 68.2875C53.4927 69.3775 55.1527 70.4675 55.1527 70.4675" stroke="#263238" stroke-width="0.236" stroke-linecap="round" stroke-linejoin="round"/>
<path d="M49.9375 59.75C49.9375 59.75 49.02 61 49.02 61.9275" stroke="#263238" stroke-width="0.236" stroke-linecap="round" stroke-linejoin="round"/>
<path d="M50.8551 60.275C50.8551 60.275 50.0526 61.365 49.9951 62.0525" stroke="#263238" stroke-width="0.236" stroke-linecap="round" stroke-linejoin="round"/>
<path d="M51.8301 60.675C51.4431 61.161 51.0977 61.6786 50.7976 62.2225" stroke="#263238" stroke-width="0.236" stroke-linecap="round" stroke-linejoin="round"/>
<path d="M54.1904 63.8025C55.4087 63.6043 56.2357 62.456 56.0375 61.2376C55.8393 60.0193 54.6909 59.1923 53.4726 59.3905C52.2543 59.5887 51.4273 60.737 51.6255 61.9554C51.8237 63.1737 52.972 64.0007 54.1904 63.8025Z" fill="#263238" stroke="#263238" stroke-width="0.236" stroke-linecap="round" stroke-linejoin="round"/>
<path d="M74.525 54.2175C75.7179 54.2175 76.685 53.2941 76.685 52.155C76.685 51.0159 75.7179 50.0925 74.525 50.0925C73.3321 50.0925 72.365 51.0159 72.365 52.155C72.365 53.2941 73.3321 54.2175 74.525 54.2175Z" fill="#27AE60" stroke="#263238" stroke-width="0.236" stroke-linecap="round" stroke-linejoin="round"/>
<path d="M74.8125 50.17L75.08 48.945H75.5L75.1925 50.17H74.8125Z" fill="#8C8C8C" stroke="#263238" stroke-width="0.236" stroke-linecap="round" stroke-linejoin="round"/>
<path d="M74.8875 49.8625C74.7477 49.5807 74.5194 49.3524 74.2375 49.2125C73.8752 49.0337 73.4899 48.9059 73.0925 48.8325C73.3435 49.1638 73.6387 49.4591 73.97 49.71C74.2596 49.8322 74.574 49.8845 74.8875 49.8625Z" fill="#92E3A9" stroke="#263238" stroke-width="0.236" stroke-linecap="round" stroke-linejoin="round"/>
<path d="M75.2127 53.11C75.2127 53.11 73.4377 55.575 73.6077 56.1475C73.7777 56.72 77.7352 64 78.2502 64.9175C78.4759 65.3517 78.8119 65.7188 79.2244 65.9821C79.6369 66.2454 80.1113 66.3955 80.6002 66.4175C81.5177 66.4175 82.6002 65.1675 82.4927 64.125C82.3852 63.0825 79.6252 60.3425 78.7102 59.375C77.7952 58.4075 75.3852 55.995 75.3852 55.995C75.3852 55.995 77.6777 53.415 77.9077 52.9C78.1377 52.385 78.3077 52.04 78.1352 51.6375C77.9627 51.235 76.8177 49.7475 76.8177 49.7475C76.7136 49.6996 76.5972 49.685 76.4845 49.7055C76.3718 49.7261 76.2681 49.7809 76.1877 49.8625C76.0107 50.0418 75.8735 50.2565 75.7852 50.4925C75.7852 50.4925 75.2702 50.8925 75.2702 51.295C75.2702 51.6975 75.2127 53.11 75.2127 53.11Z" fill="white" stroke="#263238" stroke-width="0.236" stroke-linecap="round" stroke-linejoin="round"/>
<path d="M75.7852 50.475C75.7852 50.475 76.0352 52.8225 76.0352 53.1575C76.0245 53.385 75.9584 53.6064 75.8427 53.8025" stroke="#263238" stroke-width="0.236" stroke-linecap="round" stroke-linejoin="round"/>
<path d="M76.2051 49.75C76.2051 49.75 76.8276 52.38 76.8526 52.8575C76.8776 53.335 76.8751 53.5025 76.8751 53.5025" stroke="#263238" stroke-width="0.236" stroke-linecap="round" stroke-linejoin="round"/>
<path d="M76.9001 49.7875C76.9001 49.7875 77.6651 52.1525 77.7126 52.44C77.7601 52.7275 77.3526 53.11 77.3051 53.205" stroke="#263238" stroke-width="0.236" stroke-linecap="round" stroke-linejoin="round"/>
</svg>
