<svg width="125" height="125" viewBox="0 0 125 125" fill="none" xmlns="http://www.w3.org/2000/svg">
<path d="M29.2253 95.8801C30.6888 97.1267 32.0881 98.4467 33.4178 99.8351C35.2703 101.793 37.0228 103.645 39.2803 105.305C46.9653 110.955 56.6128 113.923 66.1953 114.95L66.5853 114.99C92.7003 117.655 105.035 102.74 106.905 92.9576C107.685 88.8851 107.338 84.6851 107.488 80.5451C107.638 76.4051 108.54 73.2951 110.543 69.6301C114.913 61.6451 120.118 53.2276 120.363 43.9426C120.83 26.2726 97.8303 17.6926 82.2353 12.2251C74.8078 9.6276 66.4978 7.4176 58.6103 8.4751C49.1403 9.7251 43.6103 16.3926 36.4403 20.9751C28.1228 26.2826 18.0278 29.9751 11.8028 37.3926C6.92117 43.1797 4.26989 50.5217 4.32783 58.0926C4.42033 69.4251 10.7028 79.3951 19.5978 87.7201C22.6228 90.5426 26.0453 93.1301 29.2253 95.8801Z" fill="#92E3A9"/>
<path opacity="0.7" d="M29.2253 95.8801C30.6888 97.1267 32.0881 98.4467 33.4178 99.8351C35.2703 101.793 37.0228 103.645 39.2803 105.305C46.9653 110.955 56.6128 113.923 66.1953 114.95L66.5853 114.99C92.7003 117.655 105.035 102.74 106.905 92.9576C107.685 88.8851 107.338 84.6851 107.488 80.5451C107.638 76.4051 108.54 73.2951 110.543 69.6301C114.913 61.6451 120.118 53.2276 120.363 43.9426C120.83 26.2726 97.8303 17.6926 82.2353 12.2251C74.8078 9.6276 66.4978 7.4176 58.6103 8.4751C49.1403 9.7251 43.6103 16.3926 36.4403 20.9751C28.1228 26.2826 18.0278 29.9751 11.8028 37.3926C6.92117 43.1797 4.26989 50.5217 4.32783 58.0926C4.42033 69.4251 10.7028 79.3951 19.5978 87.7201C22.6228 90.5426 26.0453 93.1301 29.2253 95.8801Z" fill="white"/>
<g opacity="0.3">
<path d="M36.1103 13.5772H6.01282V55.4597H36.1103V13.5772Z" stroke="black" stroke-width="0.412" stroke-linejoin="round"/>
<path d="M35.3252 14.6722H6.79773V54.3672H35.3252V14.6722Z" stroke="black" stroke-width="0.412" stroke-linejoin="round"/>
<path d="M29.9853 22.1023H12.1378V46.9373H29.9853V22.1023Z" stroke="black" stroke-width="0.412" stroke-linejoin="round"/>
</g>
<path opacity="0.2" d="M117.292 12.2725C116.998 12.273 116.711 12.366 116.473 12.5382C116.234 12.7105 116.056 12.9533 115.962 13.2325H47.0749C46.9681 12.9155 46.7522 12.6468 46.4657 12.4744C46.1792 12.3019 45.8406 12.2369 45.5106 12.291C45.1806 12.3451 44.8805 12.5147 44.664 12.7696C44.4475 13.0245 44.3286 13.348 44.3286 13.6825C44.3286 14.0169 44.4475 14.3404 44.664 14.5953C44.8805 14.8502 45.1806 15.0198 45.5106 15.0739C45.8406 15.128 46.1792 15.063 46.4657 14.8905C46.7522 14.7181 46.9681 14.4494 47.0749 14.1325H115.962C116.046 14.3776 116.195 14.5951 116.394 14.7609C116.593 14.9267 116.833 15.0345 117.089 15.0723C117.346 15.1102 117.607 15.0767 117.845 14.9754C118.084 14.8742 118.289 14.7092 118.44 14.4986C118.591 14.288 118.68 14.04 118.699 13.7817C118.718 13.5235 118.665 13.2651 118.546 13.035C118.428 12.8049 118.248 12.6119 118.027 12.4774C117.805 12.3429 117.551 12.272 117.292 12.2725Z" fill="black"/>
<g opacity="0.2">
<path d="M63.3671 14.3875C64.3496 38.27 65.2071 62.3875 66.2346 86.1775L66.1346 90.8425C66.1346 90.8425 61.7171 90.8425 59.3846 91.075C57.0521 91.3075 53.4596 91.3075 50.9021 91.3075C48.3446 91.3075 46.9521 90.3775 46.9521 90.3775L47.1196 86.17C47.6346 62.3875 48.1896 38.2725 48.5546 14.3875" stroke="black" stroke-width="0.412" stroke-linejoin="round"/>
<path d="M52.3596 82.23L52.3471 85.0425" stroke="black" stroke-width="0.412" stroke-linejoin="round"/>
<path d="M52.5996 27.44L52.3696 79.7325" stroke="black" stroke-width="0.412" stroke-linejoin="round"/>
<path d="M52.6596 13.8575L52.6071 25.88" stroke="black" stroke-width="0.412" stroke-linejoin="round"/>
<path d="M56.6197 41.33L56.0947 76.145" stroke="black" stroke-width="0.412" stroke-linejoin="round"/>
<path d="M57.0295 14.17L56.652 39.15" stroke="black" stroke-width="0.412" stroke-linejoin="round"/>
<path d="M60.3171 51.0099L60.4646 83.3249" stroke="black" stroke-width="0.412" stroke-linejoin="round"/>
<path d="M60.2145 28.065L60.307 48.3575" stroke="black" stroke-width="0.412" stroke-linejoin="round"/>
<path d="M60.152 14.4825L60.202 25.5675" stroke="black" stroke-width="0.412" stroke-linejoin="round"/>
</g>
<g opacity="0.2">
<path d="M98.9996 14.3875C98.0546 39.675 96.8521 65.2175 95.9471 90.37C95.9471 90.37 98.9471 90.825 100.89 90.825H110.76C112.292 90.7913 113.82 90.6333 115.327 90.3525C114.882 65.2175 114.577 39.675 113.802 14.3875" stroke="black" stroke-width="0.412" stroke-linejoin="round"/>
<path d="M110.015 82.23L110.027 85.0425" stroke="black" stroke-width="0.412" stroke-linejoin="round"/>
<path d="M109.775 27.4399L110.002 79.7324" stroke="black" stroke-width="0.412" stroke-linejoin="round"/>
<path d="M109.715 13.8575L109.767 25.88" stroke="black" stroke-width="0.412" stroke-linejoin="round"/>
<path d="M105.755 41.33L106.28 76.145" stroke="black" stroke-width="0.412" stroke-linejoin="round"/>
<path d="M105.342 14.1699L105.72 39.1499" stroke="black" stroke-width="0.412" stroke-linejoin="round"/>
<path d="M102.055 51.0099L101.91 83.3249" stroke="black" stroke-width="0.412" stroke-linejoin="round"/>
<path d="M102.16 28.0649L102.067 48.3574" stroke="black" stroke-width="0.412" stroke-linejoin="round"/>
<path d="M102.222 14.4824L102.17 25.5674" stroke="black" stroke-width="0.412" stroke-linejoin="round"/>
</g>
<g opacity="0.2">
<path d="M63.8048 21.1749H70.7373V29.2624H64.2673" stroke="black" stroke-width="0.412" stroke-linejoin="round"/>
<path d="M79.1949 21.1948H71.9474V29.3073H79.1949V21.1948Z" stroke="black" stroke-width="0.412" stroke-linejoin="round"/>
</g>
<g opacity="0.2">
<path d="M98.6622 21.1747H91.7297V29.2622H98.1997" stroke="black" stroke-width="0.412" stroke-linejoin="round"/>
<path d="M83.2722 29.3072H90.5197V21.1947H83.2722V29.3072Z" stroke="black" stroke-width="0.412" stroke-linejoin="round"/>
</g>
<path opacity="0.2" d="M64.9498 57.9299H79.3798V33.6799H64.3148" stroke="black" stroke-width="0.412" stroke-linejoin="round"/>
<path opacity="0.2" d="M97.9322 33.4749H83.1847V57.9299H96.8222" stroke="black" stroke-width="0.412" stroke-linejoin="round"/>
<path opacity="0.2" d="M65.4247 63.6824H79.3797V88.0599H66.4822" stroke="black" stroke-width="0.412" stroke-linejoin="round"/>
<path opacity="0.2" d="M96.9797 63.4774H83.1847V88.2849H95.7622" stroke="black" stroke-width="0.412" stroke-linejoin="round"/>
<path opacity="0.2" d="M66.4198 89.8349H95.9548" stroke="black" stroke-width="0.412" stroke-linejoin="round"/>
<path opacity="0.2" d="M63.7472 18.3674H98.6447" stroke="black" stroke-width="0.412" stroke-linejoin="round"/>
<path opacity="0.2" d="M81.2797 18.5349V89.4998" stroke="black" stroke-width="0.412" stroke-linejoin="round"/>
<path opacity="0.2" d="M64.1898 31.8049H98.1348" stroke="black" stroke-width="0.412" stroke-linejoin="round"/>
<path d="M53.475 61.8402L54.0225 62.5002" stroke="#263238" stroke-width="0.412" stroke-miterlimit="10"/>
<path d="M51.9799 60.2301L53.1849 61.4926" stroke="#263238" stroke-width="0.412" stroke-miterlimit="10"/>
<path d="M56.1374 58.9777L56.9824 60.6702" stroke="#263238" stroke-width="0.412" stroke-miterlimit="10"/>
<path d="M61.6298 61.5151L62.7548 59.6826" stroke="#263238" stroke-width="0.412" stroke-miterlimit="10"/>
<path d="M65.77 63.0701L66.84 62.5001" stroke="#263238" stroke-width="0.412" stroke-miterlimit="10"/>
<path d="M64.7275 63.6276L65.3475 63.2976" stroke="#263238" stroke-width="0.412" stroke-miterlimit="10"/>
<path d="M63.0003 51.8601C62.8281 51.6458 62.61 51.4728 62.362 51.354C62.1141 51.2351 61.8427 51.1734 61.5678 51.1734C61.2928 51.1734 61.0214 51.2351 60.7735 51.354C60.5255 51.4728 60.3074 51.6458 60.1353 51.8601L59.6128 52.4626L59.0903 51.8601C58.9181 51.6458 58.7 51.4728 58.452 51.354C58.2041 51.2351 57.9327 51.1734 57.6578 51.1734C57.3828 51.1734 57.1114 51.2351 56.8635 51.354C56.6155 51.4728 56.3974 51.6458 56.2253 51.8601C55.8423 52.3262 55.633 52.9107 55.633 53.5139C55.633 54.1171 55.8423 54.7016 56.2253 55.1676L59.5953 59.0601L59.6128 59.0401L59.6303 59.0601L63.0003 55.1676C63.3832 54.7016 63.5925 54.1171 63.5925 53.5139C63.5925 52.9107 63.3832 52.3262 63.0003 51.8601Z" fill="#27AE60" stroke="#263238" stroke-width="0.412" stroke-miterlimit="10"/>
<path d="M65.1953 81.6926C65.1953 81.6926 64.4277 77.8526 64.4277 77.1626V76.4701C64.4277 76.4701 66.7303 73.4001 67.2678 72.7076C67.8053 72.0151 67.8828 69.4826 67.8828 68.7076C67.8828 67.9326 65.5003 67.0251 65.5003 67.0251C65.5003 67.0251 61.2753 67.1026 60.2003 67.1801C59.1253 67.2576 57.2703 67.2101 57.5003 68.0551C57.7303 68.9001 58.6653 74.7826 59.1253 76.3051C59.5853 77.8276 60.3553 82.9101 60.3553 82.9101C60.3553 82.9101 60.4303 83.9101 61.0453 84.4451C61.6603 84.9801 63.1178 85.4451 63.9628 84.8301C64.8078 84.2151 65.1178 83.0751 65.1953 81.6926Z" fill="white" stroke="#263238" stroke-width="0.412" stroke-miterlimit="10"/>
<path d="M58.3526 67.3751L58.2251 67.5001" stroke="#263238" stroke-width="0.412" stroke-miterlimit="10"/>
<path d="M57.7927 69.0451L57.4927 68.2351L57.3477 67.5901C57.5283 67.0637 57.8208 66.5827 58.2052 66.1801C58.8202 65.5651 59.5127 66.1026 60.1252 66.4101C60.7377 66.7176 61.5852 67.3326 60.7402 67.6401C59.8952 67.9476 59.4902 67.5176 59.4902 67.5176L58.3427 67.3751" fill="white"/>
<path d="M57.7927 69.0451L57.4927 68.2351L57.3477 67.5901C57.5283 67.0637 57.8208 66.5827 58.2052 66.1801C58.8202 65.5651 59.5127 66.1026 60.1252 66.4101C60.7377 66.7176 61.5852 67.3326 60.7402 67.6401C59.8952 67.9476 59.4902 67.5176 59.4902 67.5176L58.3427 67.3751" stroke="#263238" stroke-width="0.412" stroke-miterlimit="10"/>
<path d="M64.0226 66.8801C64.0226 66.8801 64.4151 66.4551 64.8076 66.8151C65.2001 67.1751 65.3951 68.1226 65.3301 69.1676C65.2651 70.2126 65.1026 71.2601 64.7426 71.3251C64.3826 71.3901 64.2426 71.3901 64.0226 70.5751C63.8381 69.9201 63.7068 69.2513 63.6301 68.5751C63.6301 68.3851 64.0226 66.8801 64.0226 66.8801Z" fill="white" stroke="#263238" stroke-width="0.412" stroke-miterlimit="10"/>
<path d="M60.7502 67.6401C60.7502 67.6401 60.7652 70.6401 61.2877 71.3576C61.8102 72.0751 62.5377 71.5876 62.4327 70.0176C62.3277 68.4476 62.7902 67.3051 62.2677 66.3251C61.7452 65.3451 60.6677 66.2926 60.6677 66.6526C60.6677 67.0126 60.7502 67.6401 60.7502 67.6401Z" fill="white" stroke="#263238" stroke-width="0.412" stroke-miterlimit="10"/>
<path d="M62.5202 66.8152C62.5202 66.8152 62.6177 66.1602 63.4677 66.2277C64.3177 66.2952 63.9902 67.1102 63.8927 68.4502C63.7952 69.7902 63.7952 71.4502 63.4352 71.6202C63.0752 71.7902 62.6177 71.1952 62.4552 70.2802C62.2927 69.3652 62.5202 66.8152 62.5202 66.8152Z" fill="white" stroke="#263238" stroke-width="0.412" stroke-miterlimit="10"/>
<path d="M66.9603 70.3276C66.9603 70.3276 64.8103 68.5601 64.5803 67.4851C64.3503 66.4101 64.8878 66.0276 65.4253 66.3351C65.9628 66.6426 67.1153 68.255 67.8828 68.715C68.6503 69.175 67.5752 71.2501 67.5752 71.2501" fill="white"/>
<path d="M66.9603 70.3276C66.9603 70.3276 64.8103 68.5601 64.5803 67.4851C64.3503 66.4101 64.8878 66.0276 65.4253 66.3351C65.9628 66.6426 67.1153 68.255 67.8828 68.715C68.6503 69.175 67.5752 71.2501 67.5752 71.2501" stroke="#263238" stroke-width="0.412" stroke-miterlimit="10"/>
<path d="M64.2677 71.4426C64.2677 71.4426 62.7527 72.2551 62.2677 73.0676C61.7827 73.8801 61.8876 74.5276 62.3751 75.1776" fill="white"/>
<path d="M64.2677 71.4426C64.2677 71.4426 62.7527 72.2551 62.2677 73.0676C61.7827 73.8801 61.8876 74.5276 62.3751 75.1776" stroke="#263238" stroke-width="0.412" stroke-miterlimit="10"/>
<path d="M68.5727 101.275C69.8777 100.585 72.1052 98.0501 74.7177 95.1326C77.3302 92.2151 78.1727 90.8301 78.1727 90.8301C78.1727 90.8301 78.2502 94.9776 77.8652 95.9776C77.4802 96.9776 73.7202 107.128 73.6427 107.338H111.893C111.933 107.233 113.353 103.518 113.655 93.9801C113.963 84.3026 113.425 75.3951 112.888 73.8601C112.35 72.3251 112.735 72.8601 112.35 72.3251C111.965 71.7901 105.75 69.1751 101.21 68.7926C96.6702 68.4101 92.4602 68.1776 90.1527 68.1776C87.8452 68.1776 84.0002 68.8676 84.0002 68.8676C82.0684 68.8023 80.1721 69.3985 78.6252 70.5576C76.1677 72.4776 75.3227 77.9301 74.7102 79.4651C74.0977 81.0001 71.5602 84.6876 70.9477 85.6101C70.3352 86.5326 69.4102 87.8351 69.4102 87.8351C68.6763 87.1008 68.0072 86.3045 67.4102 85.4551C66.9955 84.8101 66.4758 84.2389 65.8727 83.7651L65.1827 81.6926C65.1827 81.6926 64.7202 82.7676 62.8002 83.2276C60.8802 83.6876 60.3452 82.9226 60.3452 82.9226V85.9226C60.3452 85.9226 59.7302 85.6901 59.7302 87.6101C59.7302 89.5301 61.6502 93.0626 63.4152 96.9026C65.1802 100.743 67.2677 101.965 68.5727 101.275Z" fill="#92E3A9" stroke="#263238" stroke-width="0.412" stroke-miterlimit="10"/>
<path d="M105.405 79.0126C105.926 78.2541 106.5 77.5331 107.123 76.8551" stroke="#263238" stroke-width="0.412" stroke-miterlimit="10"/>
<path d="M99.6826 105.565C101.085 101.473 100.585 97.2226 100.835 92.9726C101.335 88.7226 102.335 84.2226 104.585 80.3676" stroke="#263238" stroke-width="0.412" stroke-miterlimit="10"/>
<path d="M104.158 90.5751C104.352 89.7543 104.471 88.9175 104.513 88.0751" stroke="#263238" stroke-width="0.412" stroke-miterlimit="10"/>
<path d="M100.29 103.195C100.29 103.195 100.828 100.815 102.67 95.6701C103.188 94.2251 103.56 92.9901 103.828 91.9651" stroke="#263238" stroke-width="0.412" stroke-miterlimit="10"/>
<path d="M112.043 88.2976C112.043 88.8526 112.043 89.4176 112.043 89.9876" stroke="#263238" stroke-width="0.412" stroke-miterlimit="10"/>
<path d="M111.425 74.55C111.425 74.55 111.96 80.085 112.035 87.0675L111.425 74.55Z" fill="white"/>
<path d="M111.425 74.55C111.425 74.55 111.96 80.085 112.035 87.0675" stroke="#263238" stroke-width="0.412" stroke-miterlimit="10"/>
<path d="M78.1726 90.8302C78.1726 90.8302 78.0201 87.9127 78.6326 85.6102C79.2451 83.3077 79.6326 82.3852 80.1701 80.6102C80.7076 78.8352 81.4751 76.5402 81.4751 76.5402" stroke="#263238" stroke-width="0.412" stroke-miterlimit="10"/>
<path d="M79.9678 76.0776C80.0003 75.6626 80.0403 75.2951 80.0928 75.0126" stroke="#263238" stroke-width="0.412" stroke-miterlimit="10"/>
<path d="M79.8626 81.3851C79.8626 81.3851 79.8176 78.7326 79.9276 76.7001" stroke="#263238" stroke-width="0.412" stroke-miterlimit="10"/>
<path d="M71.9077 91.6951C72.0501 92.0369 72.1646 92.3898 72.2502 92.7501" stroke="#263238" stroke-width="0.412" stroke-miterlimit="10"/>
<path d="M69.4177 87.8351C70.2775 88.8382 71.0214 89.9351 71.6352 91.1051" stroke="#263238" stroke-width="0.412" stroke-miterlimit="10"/>
<path d="M71.3376 89.7501C71.3376 89.7501 72.6426 90.3651 73.0276 92.2851" stroke="#263238" stroke-width="0.412" stroke-miterlimit="10"/>
<path d="M60.3577 85.9176C60.3577 85.9176 64.2727 87.9176 65.8852 83.7651" stroke="#263238" stroke-width="0.412" stroke-miterlimit="10"/>
<path d="M89.6151 64.7976C89.6151 64.7976 89.3101 64.7976 88.9026 64.7976C88.2501 64.8301 87.3352 64.9476 87.0027 65.3251C86.4736 66.0114 85.9868 66.7294 85.5451 67.4751C85.5451 67.4751 83.5451 67.4001 84.0076 68.8576C84.4701 70.3151 88.1551 73.0826 89.6926 73.8576C91.2301 74.6326 95.6052 73.7051 95.6052 73.7051C99.4253 73.8617 103.252 73.7096 107.048 73.2501C113.575 72.4826 112.268 72.7126 112.268 72.7126C112.268 72.7126 112.73 72.0976 111.885 70.7126C111.04 69.3276 110.118 68.7926 109.81 68.4076C109.503 68.0226 108.198 66.6426 107.2 66.1801C106.304 65.8218 105.379 65.5391 104.435 65.3351C104.435 65.3351 104.36 64.1076 102.9 63.8776C101.44 63.6476 97.9852 63.4151 97.3702 63.2626C96.7552 63.1101 89.6151 64.7976 89.6151 64.7976Z" fill="#92E3A9" stroke="#263238" stroke-width="0.412" stroke-miterlimit="10"/>
<path d="M101.695 68.3776C99.3302 69.6276 93.5077 71.9951 92.7627 72.4001" stroke="#263238" stroke-width="0.412" stroke-miterlimit="10"/>
<path d="M104.053 66.0276C104.053 66.0276 103.948 66.6576 103.083 67.4426" stroke="#263238" stroke-width="0.412" stroke-miterlimit="10"/>
<path d="M86.6978 66.6426C86.6978 66.6426 86.7728 67.3326 87.8478 68.4851C88.9228 69.6376 89.3078 72.5551 89.7678 72.9376" stroke="#263238" stroke-width="0.412" stroke-miterlimit="10"/>
<path d="M95.6051 73.0151C95.902 73.0151 96.1426 72.7744 96.1426 72.4776C96.1426 72.1807 95.902 71.9401 95.6051 71.9401C95.3083 71.9401 95.0676 72.1807 95.0676 72.4776C95.0676 72.7744 95.3083 73.0151 95.6051 73.0151Z" fill="white" stroke="#263238" stroke-width="0.412" stroke-miterlimit="10"/>
<path d="M87.3876 71.5551C87.6844 71.5551 87.9251 71.3145 87.9251 71.0176C87.9251 70.7207 87.6844 70.4801 87.3876 70.4801C87.0907 70.4801 86.8501 70.7207 86.8501 71.0176C86.8501 71.3145 87.0907 71.5551 87.3876 71.5551Z" fill="white" stroke="#263238" stroke-width="0.412" stroke-miterlimit="10"/>
<path d="M93.0003 85.4476H92.9253C92.8762 85.438 92.8294 85.4188 92.7877 85.3911C92.746 85.3634 92.7102 85.3278 92.6823 85.2862C92.6544 85.2446 92.635 85.1979 92.6252 85.1488C92.6155 85.0997 92.6155 85.0492 92.6253 85.0001C93.4603 80.8226 95.2203 72.4876 95.2378 72.4026C95.2584 72.3051 95.3168 72.2198 95.4002 72.1654C95.4837 72.111 95.5853 72.092 95.6828 72.1126C95.7803 72.1331 95.8656 72.1916 95.92 72.275C95.9743 72.3585 95.9934 72.4601 95.9728 72.5576C95.9528 72.6401 94.1953 80.9751 93.3603 85.1476C93.3433 85.231 93.2984 85.3062 93.2329 85.3607C93.1675 85.4153 93.0855 85.4459 93.0003 85.4476Z" fill="white" stroke="#263238" stroke-width="0.412" stroke-miterlimit="10"/>
<path d="M85.1602 84.6026H85.1301C85.0809 84.5989 85.033 84.5854 84.989 84.5629C84.9451 84.5404 84.9061 84.5095 84.8742 84.4718C84.8423 84.4341 84.8183 84.3904 84.8034 84.3434C84.7886 84.2963 84.7832 84.2468 84.7877 84.1976C84.7877 84.1601 85.1002 80.4626 85.5577 77.1126C85.8507 74.997 86.3455 72.9141 87.0352 70.8926C87.0488 70.8429 87.0725 70.7966 87.1049 70.7565C87.1373 70.7164 87.1776 70.6833 87.2233 70.6595C87.269 70.6356 87.3191 70.6215 87.3705 70.6179C87.4219 70.6143 87.4735 70.6213 87.5221 70.6385C87.5707 70.6557 87.6152 70.6828 87.6528 70.718C87.6905 70.7532 87.7205 70.7958 87.741 70.8431C87.7614 70.8904 87.7719 70.9414 87.7718 70.9929C87.7716 71.0445 87.7609 71.0954 87.7401 71.1426C87.0728 73.116 86.5907 75.1473 86.3002 77.2101C85.8452 80.5401 85.5377 84.2101 85.5352 84.2551C85.5282 84.3498 85.4856 84.4382 85.416 84.5027C85.3465 84.5672 85.255 84.6029 85.1602 84.6026Z" fill="white" stroke="#263238" stroke-width="0.412" stroke-miterlimit="10"/>
<path d="M77.6351 43.2951C77.6351 43.2951 75.3301 47.2951 75.3301 49.4401C75.3301 51.5851 78.0201 49.1326 78.0201 49.1326C78.0201 49.1326 78.0951 51.2826 78.9401 51.0526C79.7851 50.8226 80.6301 49.5176 80.6301 49.5176C80.6301 49.5176 80.0926 50.2076 81.0126 50.2851C81.9326 50.3626 82.3951 49.5926 83.2401 47.8276C84.0851 46.0626 85.2501 43.0001 85.2501 43.0001C85.2501 43.0001 79.9376 41.6076 77.6351 43.2951Z" fill="#263238" stroke="#263238" stroke-width="0.412" stroke-miterlimit="10"/>
<path d="M82.1403 45.8776C82.1403 45.8776 80.3053 50.5376 80.3778 51.0401C80.4503 51.5426 81.0253 53.0401 80.8778 53.6851C80.7303 54.3301 80.6278 55.6351 80.6278 55.6351C80.6278 55.6351 80.0003 56.2501 80.5003 56.5476C80.8248 56.7552 81.0847 57.0497 81.2503 57.3976C81.2503 57.3976 82.6503 60.9926 83.0803 62.3551C83.5103 63.7176 84.3003 63.8551 85.0803 63.7176C85.8603 63.5801 87.3753 62.8576 87.3753 62.8576C87.3753 62.8576 88.6653 64.2901 88.8753 64.7201C89.0853 65.1501 89.1628 65.5826 89.4503 68.2351C89.7378 70.8876 90.2503 72.2501 90.7628 72.4651C91.2753 72.6801 97.0728 69.0226 98.7928 67.8051C100.513 66.5876 101.293 65.9401 101.015 65.5826C100.738 65.2251 99.4878 64.8551 98.1203 60.6376C97.6728 59.2576 97.8703 55.6376 97.8703 55.6376C97.8703 55.6376 96.5578 59.2626 97.4178 53.8876C98.2778 48.5126 100.788 49.0826 94.4178 44.8526C88.0478 40.6226 83.8628 41.3601 82.1403 45.8776Z" fill="white" stroke="#263238" stroke-width="0.412" stroke-miterlimit="10"/>
<path d="M86.6751 51.8076C85.1301 50.9176 84.4526 52.3801 84.4526 52.3801C84.4526 52.3801 85.7001 51.5251 86.6751 51.8076Z" fill="#263238" stroke="#263238" stroke-width="0.412" stroke-linejoin="round"/>
<path d="M82.0152 52.7501L81.0527 53.1976C81.0527 53.1976 81.3477 52.0601 82.0152 52.7501Z" fill="#263238" stroke="#263238" stroke-width="0.412" stroke-miterlimit="10"/>
<path d="M84.0527 50.3301C84.0527 50.3301 84.3827 49.0526 87.1727 50.2051" stroke="#263238" stroke-width="0.824" stroke-miterlimit="10" stroke-linecap="round"/>
<path d="M82.2302 51.8151C82.3727 52.5326 81.1327 54.9201 80.6302 55.6351C80.6302 55.6351 80.1452 56.3401 80.1927 56.5826C80.2402 56.8251 81.2677 57.3176 82.1477 57.2676C82.6924 57.2306 83.2165 57.0446 83.6627 56.7301" fill="white"/>
<path d="M82.2302 51.8151C82.3727 52.5326 81.1327 54.9201 80.6302 55.6351C80.6302 55.6351 80.1452 56.3401 80.1927 56.5826C80.2402 56.8251 81.2677 57.3176 82.1477 57.2676C82.6924 57.2306 83.2165 57.0446 83.6627 56.7301" stroke="#263238" stroke-width="0.412" stroke-miterlimit="10"/>
<path d="M84.2302 58.2076C84.2302 58.2076 86.1677 57.9926 86.9552 56.3451" stroke="#263238" stroke-width="0.412" stroke-miterlimit="10"/>
<path d="M87.3926 62.8576L90.9776 59.9901L88.8976 64.7201L87.3926 62.8576Z" fill="#263238" stroke="#263238" stroke-width="0.412" stroke-miterlimit="10"/>
<path d="M109.228 45.8176C108.888 41.2151 105.665 38.2276 105.665 38.2276C105.665 38.2276 106.97 38.9201 106.665 37.9976C106.36 37.0751 104.975 36.6926 104.975 36.6926C104.975 36.6926 107.358 36.0001 105.975 35.5401C104.593 35.0801 102.903 35.5401 102.903 35.5401C102.903 35.5401 99.5202 32.1601 97.7502 32.2501C95.9802 32.3401 96.3677 32.8651 96.3677 32.8651C96.3677 32.8651 93.1427 30.9451 87.6177 31.9426C82.0927 32.9401 81.7052 34.5426 82.2502 35.0001C82.5696 35.2735 82.9034 35.5297 83.2502 35.7676C83.2502 35.7676 81.6377 36.1526 79.1802 37.8426C76.7227 39.5326 74.1127 44.0626 75.4952 44.2926C76.8777 44.5226 78.9502 43.8301 78.9502 43.8301C78.9502 43.8301 78.2602 47.1326 82.7902 45.6751C82.7902 45.6751 84.7902 44.4451 85.0177 44.3676C85.2452 44.2901 83.4052 46.2126 85.3252 46.2126C87.2452 46.2126 88.3252 45.5976 88.3252 45.5976C88.3252 45.5976 87.1727 47.2101 88.0177 47.8251C88.8627 48.4401 90.3977 47.2101 90.3977 47.2101C90.3977 47.2101 88.6302 51.9726 89.7827 52.2776C90.9352 52.5826 91.8577 50.8951 91.8577 50.8951C91.8577 50.8951 90.7052 53.8951 91.2427 55.1976C91.7802 56.5001 93.2427 55.2726 93.2427 55.2726C93.2427 55.2726 94.5477 60.7251 95.8527 60.4176C97.1577 60.1101 97.5427 58.4176 97.5427 58.4176C97.5427 58.4176 98.3877 60.8751 99.5427 60.4176C100.698 59.9601 100.85 58.6526 100.925 58.4176C101 58.1826 101.388 60.6451 102.538 59.8751C103.688 59.1051 104.613 56.6501 104.613 56.6501C104.613 56.6501 104.458 57.8801 105.533 56.6501L105.965 56.1501C106.31 56.4651 106.918 56.7651 107.793 56.2751C109.235 55.4626 108.875 52.9351 108.875 52.9351C108.875 52.9351 109.598 53.9351 110.048 52.1226C110.318 50.9676 109.7 47.8576 109.228 45.8176Z" fill="#263238" stroke="#263238" stroke-width="0.412" stroke-miterlimit="10"/>
<path d="M82.0227 51.1351C82.0227 51.1351 81.2277 50.1751 80.3777 51.0401L82.0227 51.1351Z" fill="white"/>
<path d="M82.0227 51.1351C82.0227 51.1351 81.2277 50.1751 80.3777 51.0401" stroke="#263238" stroke-width="0.824" stroke-miterlimit="10" stroke-linecap="round"/>
<path d="M46.8526 44.3777C46.8526 44.3777 47.0676 40.6502 42.7651 38.0677C38.4626 35.4852 33.2276 34.8402 28.6401 38.7852C24.0526 42.7302 23.8351 44.1627 23.4776 46.7502C23.1201 49.3377 19.3901 49.4027 15.6601 55.4252C11.9301 61.4477 16.8801 62.7402 15.4451 64.3876C14.0101 66.0351 13.2226 63.8102 12.0001 67.2502C10.7776 70.6902 12.0701 71.4827 13.0751 72.4852C14.0801 73.4877 44.3376 73.2752 44.3376 73.2752C44.3376 73.2752 46.9901 75.7127 45.8376 71.8401C44.6851 67.9676 42.8376 69.2602 43.9726 67.3227C45.1076 65.3852 46.4726 66.5352 45.4076 63.3802C44.3426 60.2252 42.7551 59.3626 43.0426 57.8577C43.3301 56.3527 44.6901 53.9852 45.9101 53.3402C47.1301 52.6952 49.9251 52.4802 49.4951 48.3927C49.0651 44.3052 46.8526 44.3777 46.8526 44.3777Z" fill="#263238" stroke="#263238" stroke-width="0.412" stroke-miterlimit="10"/>
<path d="M17.0527 95.8401L15.5877 107.34H54.6302C54.2652 105.485 52.4927 96.4576 52.0427 94.3401C51.5427 91.9726 51.3977 86.3801 51.2552 82.2226C51.1127 78.0651 49.1752 72.4726 47.3827 70.8926C45.5902 69.3126 44.2277 69.7451 40.5702 68.5976C36.9127 67.4501 35.5502 66.9501 34.4027 66.5976C33.2552 66.2451 26.4452 64.9501 24.1527 65.3076C24.1527 65.3076 21.7852 65.5226 19.2052 65.8801C16.6252 66.2376 12.3927 66.3801 13.0377 72.1301C13.6827 77.8801 17.0527 95.8401 17.0527 95.8401Z" fill="#92E3A9" stroke="#263238" stroke-width="0.412" stroke-miterlimit="10"/>
<path d="M46.6477 92.1552V94.2776C46.6477 96.1026 48.3302 107.338 48.3302 107.338" stroke="#263238" stroke-width="0.412" stroke-miterlimit="10"/>
<path d="M46.6477 88.1001V90.3501" stroke="#263238" stroke-width="0.412" stroke-miterlimit="10"/>
<path d="M28.5852 59.9201C28.5852 59.9201 27.1502 59.2751 26.8627 60.1351C26.5752 60.9951 25.7177 62.7151 24.9277 64.7226C24.4502 65.9426 24.4452 67.0551 25.6427 67.8001C27.0177 68.6576 28.8927 69.2251 30.4552 69.5501C32.0177 69.8751 36.6177 70.1226 36.9752 67.8001C37.1177 66.8676 37.1177 65.1451 37.1902 64.0701C37.2627 62.9951 37.4052 62.7076 36.4002 62.1351C35.3952 61.5626 28.5852 59.9201 28.5852 59.9201Z" fill="#92E3A9" stroke="#263238" stroke-width="0.412" stroke-miterlimit="10"/>
<path d="M27.6701 61.5001C27.5083 61.683 27.388 61.8988 27.3176 62.1326C27.1776 62.5526 25.9851 65.7776 25.9851 65.7776" stroke="#263238" stroke-width="0.412" stroke-miterlimit="10"/>
<path d="M27.5201 66.2501C27.2701 67.0001 27.0376 67.6076 27.0376 67.6076" stroke="#263238" stroke-width="0.412" stroke-miterlimit="10"/>
<path d="M29.0001 62.5476C29.0001 62.5476 28.1601 62.6876 28.2301 63.4601C28.2601 63.7901 28.0426 64.6026 27.7876 65.4201" stroke="#263238" stroke-width="0.412" stroke-miterlimit="10"/>
<path d="M30.5428 63.3901C30.5428 63.3901 29.9828 63.6701 30.0428 64.2301C30.1028 64.7901 29.3428 67.5951 29.3428 67.5951" stroke="#263238" stroke-width="0.412" stroke-miterlimit="10"/>
<path d="M29.4451 53.8251L27.7151 60.7676C27.7151 60.7676 28.4151 62.4826 30.9976 63.1276C32.5999 63.5175 34.2511 63.6683 35.8976 63.5751L36.8301 61.0001L29.4451 53.8251Z" fill="white" stroke="#263238" stroke-width="0.412" stroke-miterlimit="10"/>
<path d="M31.7502 56.0626L29.4277 56.2801C29.4277 56.2801 30.0302 58.9851 31.0977 61.0026C31.5352 61.8326 32.4352 62.7526 33.3477 63.5226C34.1966 63.6093 35.0511 63.6269 35.9027 63.5751L36.8302 61.0001L31.7502 56.0626Z" fill="#263238" stroke="#263238" stroke-width="0.412" stroke-miterlimit="10"/>
<path d="M45.1303 45.0951C45.1303 45.0951 43.6978 45.3826 40.4703 45.9551C37.2428 46.5276 36.0953 46.3126 36.0953 46.3126C36.0953 46.3126 36.2403 47.1026 34.2328 48.2501C33.1603 48.8626 31.9478 49.2501 30.9278 49.6101C30.7603 50.2176 30.3678 51.5576 29.7878 51.9076C29.3278 52.1826 29.1328 51.2251 29.0528 50.4976C29.0078 50.5376 28.9628 50.5751 28.9253 50.6151C28.1378 51.4776 27.4253 53.1151 27.4253 53.1151C27.4253 53.1151 27.4253 54.6926 28.4253 55.4826L29.4253 56.2701C29.5932 57.2758 29.9314 58.2456 30.4253 59.1376C31.2128 60.5001 34.6553 62.7251 36.2328 63.5126C37.8103 64.3001 38.3128 64.0126 39.3878 63.2251C40.4628 62.4376 42.8878 59.6401 43.8328 57.3451C44.7778 55.0501 44.7653 54.3451 45.3328 53.3301C45.9003 52.3151 46.4103 51.8301 46.6253 50.3301C46.8403 48.8301 45.7753 45.7501 45.1303 45.0951Z" fill="white" stroke="#263238" stroke-width="0.412" stroke-miterlimit="10"/>
<path d="M39.2502 57.1401C40.3277 58.4326 41.4027 57.7151 41.6902 56.9976C41.9777 56.2801 41.6902 53.7001 41.8327 53.1251C41.9752 52.5501 43.3327 51.8351 43.3327 51.8351C43.3327 51.8351 44.6952 51.7626 44.7677 53.1251" stroke="#263238" stroke-width="0.412" stroke-miterlimit="10"/>
<path d="M36.3127 56.5676C36.3127 56.5676 36.7427 58.8626 39.0352 58.8626" stroke="#263238" stroke-width="0.412" stroke-miterlimit="10"/>
<path d="M38.8653 52.3451C38.6828 52.8276 38.3653 53.1501 38.1328 53.0651C37.9003 52.9801 37.8828 52.5226 38.0603 52.0426C38.2378 51.5626 38.5603 51.2376 38.7928 51.3201C39.0253 51.4026 39.0478 51.8626 38.8653 52.3451Z" fill="#263238"/>
<path d="M43.6077 54.3476C43.4252 54.8326 43.0952 55.1601 42.8577 55.0751C42.6202 54.9901 42.6078 54.5276 42.7828 54.0401C42.9578 53.5526 43.2978 53.2276 43.5328 53.3126C43.7678 53.3976 43.7927 53.8601 43.6077 54.3476Z" fill="#263238"/>
<path d="M37.2502 49.4676C37.2502 49.4676 39.4727 49.0376 40.7652 50.4676" stroke="#263238" stroke-width="0.412" stroke-miterlimit="10"/>
<path d="M39.4226 84.7276C39.4226 84.7276 47.1726 78.0576 47.8851 77.1251C48.5976 76.1926 49.4626 74.9751 49.4626 74.9751C49.4626 74.9751 48.9626 72.9751 48.6001 71.7476C48.2376 70.5201 47.8126 69.7476 48.2426 68.9526C48.6726 68.1576 49.6776 65.6526 49.8926 65.3676C50.1076 65.0826 51.6851 64.5776 51.6851 64.5776C51.6851 64.5776 52.7601 63.8601 52.6176 64.5776C52.4751 65.2951 52.3301 65.8676 51.4701 66.3701C50.6101 66.8726 50.7526 67.3701 50.7526 67.3701C50.7526 67.3701 52.3301 66.5101 52.8326 66.0776C53.3351 65.6451 53.7626 64.7151 54.2651 64.7151C54.7676 64.7151 55.3401 64.8601 55.4126 65.5776L55.4851 66.2926C55.4851 66.2926 56.2026 66.2926 56.4176 66.7926C56.6326 67.2926 57.2051 66.9376 57.3476 67.5826L57.4926 68.2276L58.3526 67.3676L59.5001 67.5101C59.5001 67.5101 59.1426 68.0101 58.8551 69.2301C58.5859 70.4217 58.1764 71.5773 57.6351 72.6726C56.9176 74.2501 53.7626 77.7626 52.9751 78.7676C52.1876 79.7726 43.0801 90.8151 43.0801 90.8151L39.4226 84.7276Z" fill="white" stroke="#263238" stroke-width="0.412" stroke-miterlimit="10"/>
<path d="M55.4853 66.2976L53.4053 68.4501" stroke="#263238" stroke-width="0.412" stroke-miterlimit="10"/>
<path d="M56.4177 66.8L55.5552 69.8125" stroke="#263238" stroke-width="0.412" stroke-miterlimit="10"/>
<path d="M57.4926 68.2351L57.2776 70.2426" stroke="#263238" stroke-width="0.412" stroke-miterlimit="10"/>
<path d="M50.7502 67.3751C50.7502 67.3751 49.5302 68.5226 49.2502 69.1676" stroke="#263238" stroke-width="0.412" stroke-miterlimit="10"/>
<path d="M17.4827 66.0126C17.4827 66.0126 13.5377 66.2976 11.7327 67.8751C9.92769 69.4526 7.93269 71.4626 9.43769 76.7676C10.9427 82.0726 11.7502 86.2326 14.9727 92.0401C18.1952 97.8476 21.0677 101.72 22.2852 102.58C23.5027 103.44 25.4402 103.44 26.3727 102.94C27.3052 102.44 37.7027 96.2701 39.2077 95.1901C40.0207 94.6329 40.7664 93.9836 41.4302 93.2551C41.4302 93.2551 38.3477 87.4451 37.9177 87.0876C37.587 86.7972 37.2756 86.4857 36.9852 86.1551C36.9852 86.1551 34.5477 87.5901 32.8977 88.0926C31.2477 88.5951 29.6002 89.1676 29.6002 89.1676C29.6002 89.1676 28.9552 88.2351 28.4527 88.3776L27.9527 88.5226C27.9527 88.5226 27.0202 87.7326 26.5177 87.6626C26.0886 87.623 25.6568 87.623 25.2277 87.6626C25.2277 87.6626 23.0752 82.6476 21.0002 77.5551" fill="#92E3A9"/>
<path d="M17.4827 66.0126C17.4827 66.0126 13.5377 66.2976 11.7327 67.8751C9.92769 69.4526 7.93269 71.4626 9.43769 76.7676C10.9427 82.0726 11.7502 86.2326 14.9727 92.0401C18.1952 97.8476 21.0677 101.72 22.2852 102.58C23.5027 103.44 25.4402 103.44 26.3727 102.94C27.3052 102.44 37.7027 96.2701 39.2077 95.1901C40.0207 94.6329 40.7664 93.9836 41.4302 93.2551C41.4302 93.2551 38.3477 87.4451 37.9177 87.0876C37.587 86.7972 37.2756 86.4857 36.9852 86.1551C36.9852 86.1551 34.5477 87.5901 32.8977 88.0926C31.2477 88.5951 29.6002 89.1676 29.6002 89.1676C29.6002 89.1676 28.9552 88.2351 28.4527 88.3776L27.9527 88.5226C27.9527 88.5226 27.0202 87.7326 26.5177 87.6626C26.0886 87.623 25.6568 87.623 25.2277 87.6626C25.2277 87.6626 23.0752 82.6476 21.0002 77.5551" stroke="#263238" stroke-width="0.412" stroke-miterlimit="10"/>
<path d="M23.2901 89.8151C22.753 90.2303 22.176 90.5913 21.5676 90.8926" stroke="#263238" stroke-width="0.412" stroke-miterlimit="10"/>
<path d="M25.2253 87.6676C24.8491 88.3211 24.3637 88.9054 23.7903 89.3951" stroke="#263238" stroke-width="0.412" stroke-miterlimit="10"/>
<path d="M27.4478 89.0276C27.4478 89.0276 26.9478 90.4626 24.9478 92.9001" stroke="#263238" stroke-width="0.412" stroke-miterlimit="10"/>
<path d="M26.2128 98.2501C26.0999 98.581 25.962 98.9027 25.8003 99.2126" stroke="#263238" stroke-width="0.412" stroke-miterlimit="10"/>
<path d="M28.2502 90.0326C28.2502 90.0326 27.4352 94.2276 26.6052 97.0601" stroke="#263238" stroke-width="0.412" stroke-miterlimit="10"/>
<path d="M30.2502 89.8901C30.2502 89.8901 31.3252 91.1076 30.8227 93.8326" stroke="#263238" stroke-width="0.412" stroke-miterlimit="10"/>
<path d="M35.2651 87.1651C36.1538 88.0144 36.9248 88.9788 37.5576 90.0326C38.7776 91.9676 40.1401 94.5501 40.4276 94.6226C40.7151 94.6951 40.9276 94.6926 41.7176 93.7601C42.5076 92.8276 44.2176 92.2601 44.2176 90.6051C44.2176 88.9501 41.3501 85.8026 40.4176 84.7976C39.4851 83.7926 38.9176 83.5801 38.4176 83.9376C37.9176 84.2951 35.2626 86.0901 34.7601 86.5901C34.2576 87.0901 35.2651 87.1651 35.2651 87.1651Z" fill="#92E3A9" stroke="#263238" stroke-width="0.412" stroke-miterlimit="10"/>
<path d="M117.36 107.338H120.645" stroke="#263238" stroke-width="0.412" stroke-miterlimit="10"/>
<path d="M6.06738 107.338H115.88" stroke="#263238" stroke-width="0.412" stroke-miterlimit="10"/>
</svg>
