<svg width="130" height="130" viewBox="0 0 130 130" fill="none" xmlns="http://www.w3.org/2000/svg">
<path d="M16.289 81.5412C19.8822 92.2376 28.3114 100.901 38.4098 105.721C50.0344 111.267 61.5498 110.297 72.9196 104.515C80.2853 100.766 86.1276 94.9286 92.4898 89.7884C100.269 83.5016 111.16 77.363 110.139 65.8034C109.236 55.6036 99.9205 47.2992 90.5085 44.6394C78.2885 41.1866 65.3744 46.4594 53.222 42.5438C44.3378 39.6838 35.542 34.0392 26.988 40.9552C15.4102 50.3178 11.6324 67.691 16.289 81.5412Z" fill="#92E3A9"/>
<path opacity="0.7" d="M16.289 81.5412C19.8822 92.2376 28.3114 100.901 38.4098 105.721C50.0344 111.267 61.5498 110.297 72.9196 104.515C80.2853 100.766 86.1276 94.9286 92.4898 89.7884C100.269 83.5016 111.16 77.363 110.139 65.8034C109.236 55.6036 99.9205 47.2992 90.5085 44.6394C78.2885 41.1866 65.3744 46.4594 53.222 42.5438C44.3378 39.6838 35.542 34.0392 26.988 40.9552C15.4102 50.3178 11.6324 67.691 16.289 81.5412Z" fill="white"/>
<path d="M109.77 39.2159C108.428 38.4853 107.82 39.0937 107.333 38.4853C106.847 37.8769 108.672 36.2909 105.017 34.7075C105.017 34.7075 104.772 31.2963 99.7778 31.1741C94.7832 31.0519 96.1222 34.5801 94.7806 35.4381C93.439 36.2961 93.075 34.9519 91.736 35.8047C90.397 36.6575 91.0028 38.3631 89.916 38.6075C88.8292 38.8519 87.355 37.5103 86.016 38.3631C84.677 39.2159 84.6744 39.9465 84.066 39.9465C83.4576 39.9465 82.246 39.4603 81.5076 39.9465C80.7692 40.4327 79.9242 41.0437 79.9242 41.0437H110.745C110.745 41.0437 111.109 39.9465 109.77 39.2159Z" fill="#92E3A9"/>
<g opacity="0.8">
<path d="M109.77 39.2159C108.428 38.4853 107.82 39.0937 107.333 38.4853C106.847 37.8769 108.672 36.2909 105.017 34.7075C105.017 34.7075 104.772 31.2963 99.7778 31.1741C94.7832 31.0519 96.1222 34.5801 94.7806 35.4381C93.439 36.2961 93.075 34.9519 91.736 35.8047C90.397 36.6575 91.0028 38.3631 89.916 38.6075C88.8292 38.8519 87.355 37.5103 86.016 38.3631C84.677 39.2159 84.6744 39.9465 84.066 39.9465C83.4576 39.9465 82.246 39.4603 81.5076 39.9465C80.7692 40.4327 79.9242 41.0437 79.9242 41.0437H110.745C110.745 41.0437 111.109 39.9465 109.77 39.2159Z" fill="white"/>
</g>
<path d="M78.1405 32.1802C77.5997 31.8864 77.3605 32.1308 77.1603 31.8864C76.9601 31.642 77.6985 31.005 76.2295 30.368C76.2295 30.368 76.1307 28.9952 74.1209 28.9458C72.1111 28.8964 72.6519 30.3186 72.1137 30.6618C71.5755 31.005 71.4273 30.4642 70.8865 30.8074C70.3457 31.1506 70.5927 31.8474 70.1533 31.9358C69.7139 32.0242 69.1133 31.4938 68.5933 31.837C68.0733 32.1802 68.0525 32.474 67.8133 32.474C67.5741 32.474 67.0801 32.279 66.7733 32.474C66.4665 32.669 66.1389 32.916 66.1389 32.916H78.5201C78.5201 32.916 78.6787 32.474 78.1405 32.1802Z" fill="#92E3A9"/>
<g opacity="0.8">
<path d="M78.1403 32.1802C77.5995 31.8864 77.3603 32.1308 77.1601 31.8864C76.9599 31.642 77.6983 31.005 76.2293 30.368C76.2293 30.368 76.1305 28.9952 74.1207 28.9458C72.1109 28.8964 72.6517 30.3186 72.1135 30.6618C71.5753 31.005 71.4271 30.4642 70.8863 30.8074C70.3455 31.1506 70.5925 31.8474 70.1531 31.9358C69.7137 32.0242 69.1131 31.4938 68.5931 31.837C68.0731 32.1802 68.0523 32.474 67.8131 32.474C67.5739 32.474 67.0799 32.279 66.7731 32.474C66.4663 32.669 66.1387 32.916 66.1387 32.916H78.5199C78.5199 32.916 78.6785 32.474 78.1403 32.1802Z" fill="white"/>
</g>
<path d="M37.3701 33.579C36.8943 33.319 36.6785 33.5374 36.5069 33.319C36.3353 33.1006 36.9801 32.539 35.6879 31.9826C35.6879 31.9826 35.6021 30.7762 33.8341 30.732C32.0661 30.6878 32.5341 31.9384 32.0687 32.2426C31.6033 32.5468 31.4655 32.0684 30.9897 32.37C30.5139 32.6716 30.7297 33.2748 30.3449 33.3606C29.9601 33.4464 29.4401 32.9732 28.9643 33.2748C28.4885 33.5764 28.4911 33.8364 28.2753 33.8364C28.0595 33.8364 27.6279 33.6648 27.3705 33.8364C27.1131 34.008 26.8089 34.2238 26.8089 34.2238H37.7133C37.7435 34.093 37.7254 33.9557 37.6623 33.8372C37.5993 33.7187 37.4955 33.627 37.3701 33.579Z" fill="#92E3A9"/>
<g opacity="0.8">
<path d="M37.3701 33.579C36.8943 33.319 36.6785 33.5374 36.5069 33.319C36.3353 33.1006 36.9801 32.539 35.6879 31.9826C35.6879 31.9826 35.6021 30.7762 33.8341 30.732C32.0661 30.6878 32.5341 31.9384 32.0687 32.2426C31.6033 32.5468 31.4655 32.0684 30.9897 32.37C30.5139 32.6716 30.7297 33.2748 30.3449 33.3606C29.9601 33.4464 29.4401 32.9732 28.9643 33.2748C28.4885 33.5764 28.4911 33.8364 28.2753 33.8364C28.0595 33.8364 27.6279 33.6648 27.3705 33.8364C27.1131 34.008 26.8089 34.2238 26.8089 34.2238H37.7133C37.7435 34.093 37.7254 33.9557 37.6623 33.8372C37.5993 33.7187 37.4955 33.627 37.3701 33.579Z" fill="white"/>
</g>
<path d="M48.7031 57.7459C48.7031 57.7459 52.3093 58.1047 54.1371 60.3459C54.793 59.5482 55.618 58.9062 56.5524 58.4665C57.4868 58.0267 58.5072 57.8001 59.5399 57.8031C60.3912 56.7799 60.934 55.5357 61.105 54.2157C61.276 52.8957 61.0683 51.5543 60.5059 50.3479C59.9436 49.1414 59.0499 48.1198 57.929 47.4019C56.8081 46.6841 55.5062 46.2998 54.1752 46.2937C52.8442 46.2876 51.5389 46.6601 50.4115 47.3677C49.2841 48.0752 48.3811 49.0887 47.8078 50.29C47.2345 51.4912 47.0145 52.8307 47.1735 54.1522C47.3325 55.4737 47.8639 56.7228 48.7057 57.7537L48.7031 57.7459Z" fill="#92E3A9"/>
<path opacity="0.5" d="M48.7031 57.7459C48.7031 57.7459 52.3093 58.1047 54.1371 60.3459C54.793 59.5482 55.618 58.9062 56.5524 58.4665C57.4868 58.0267 58.5072 57.8001 59.5399 57.8031C60.3912 56.7799 60.934 55.5357 61.105 54.2157C61.276 52.8957 61.0683 51.5543 60.5059 50.3479C59.9436 49.1414 59.0499 48.1198 57.929 47.4019C56.8081 46.6841 55.5062 46.2998 54.1752 46.2937C52.8442 46.2876 51.5389 46.6601 50.4115 47.3677C49.2841 48.0752 48.3811 49.0887 47.8078 50.29C47.2345 51.4912 47.0145 52.8307 47.1735 54.1522C47.3325 55.4737 47.8639 56.7228 48.7057 57.7537L48.7031 57.7459Z" fill="white"/>
<path d="M54.0176 46.8156L53.8954 64.8934H54.5038L54.0176 46.8156Z" fill="#263238"/>
<path d="M54.1995 59.6569C54.1995 59.6569 55.4163 57.4677 57.6081 56.7969C57.6081 56.7969 55.294 57.3455 54.1396 59.2331L54.1995 59.6569Z" fill="#263238"/>
<path d="M54.1995 53.4481C54.1995 53.4481 55.4163 51.2589 57.6081 50.5881C57.6081 50.5881 55.294 51.1367 54.1396 53.0243L54.1995 53.4481Z" fill="#263238"/>
<path d="M54.1995 56.5526C54.1995 56.5526 55.4163 54.3634 57.6081 53.6926C57.6081 53.6926 55.294 54.2412 54.1396 56.1288L54.1995 56.5526Z" fill="#263238"/>
<path d="M54.02 55.0315C54.02 55.0315 52.8448 52.8397 50.7284 52.1715C50.7284 52.1715 52.9618 52.7201 54.0772 54.6051L54.02 55.0315Z" fill="#263238"/>
<path d="M54.02 58.0761C54.02 58.0761 52.8448 55.8843 50.7284 55.2161C50.7284 55.2161 52.9618 55.7647 54.0772 57.6523L54.02 58.0761Z" fill="#263238"/>
<path d="M65.6862 56.3757C65.6862 56.3757 69.984 56.802 72.1628 59.4671C72.1628 59.4671 74.4638 56.3808 78.5978 56.4432C79.6078 55.2248 80.251 53.7445 80.4524 52.1747C80.6538 50.6049 80.4051 49.0102 79.7353 47.5763C79.0655 46.1423 78.0021 44.9281 76.669 44.0751C75.3359 43.2221 73.7879 42.7654 72.2052 42.758C70.6226 42.7507 69.0704 43.1931 67.7294 44.0337C66.3885 44.8744 65.3139 46.0786 64.6308 47.5063C63.9477 48.934 63.6843 50.5263 63.8711 52.0979C64.058 53.6695 64.6874 55.1557 65.6862 56.3834V56.3757Z" fill="#92E3A9"/>
<path opacity="0.5" d="M65.6862 56.3757C65.6862 56.3757 69.984 56.802 72.1628 59.4671C72.1628 59.4671 74.4638 56.3808 78.5978 56.4432C79.6078 55.2248 80.251 53.7445 80.4524 52.1747C80.6538 50.6049 80.4051 49.0102 79.7353 47.5763C79.0655 46.1423 78.0021 44.9281 76.669 44.0751C75.3359 43.2221 73.7879 42.7654 72.2052 42.758C70.6226 42.7507 69.0704 43.1931 67.7294 44.0337C66.3885 44.8744 65.3139 46.0786 64.6308 47.5063C63.9477 48.934 63.6843 50.5263 63.8711 52.0979C64.058 53.6695 64.6874 55.1557 65.6862 56.3834V56.3757Z" fill="white"/>
<path d="M72.0224 43.3471L71.8768 64.8933H72.6022L72.0224 43.3471Z" fill="#263238"/>
<path d="M72.2383 58.6534C72.2383 58.6534 73.6891 56.0534 76.3021 55.2448C76.3021 55.2448 73.5461 55.8974 72.1655 58.1464L72.2383 58.6534Z" fill="#263238"/>
<path d="M72.2383 51.2538C72.2383 51.2538 73.6891 48.6538 76.3021 47.8452C76.3021 47.8452 73.5461 48.4978 72.1655 50.7468L72.2383 51.2538Z" fill="#263238"/>
<path d="M72.2383 54.9535C72.2383 54.9535 73.6891 52.3535 76.3021 51.5449C76.3021 51.5449 73.5461 52.1975 72.1655 54.4465L72.2383 54.9535Z" fill="#263238"/>
<path d="M72.0199 53.1414C72.0199 53.1414 70.6186 50.5414 68.0992 49.7302C68.0992 49.7302 70.7589 50.3854 72.0901 52.6344L72.0199 53.1414Z" fill="#263238"/>
<path d="M72.0199 56.7683C72.0199 56.7683 70.6186 54.1553 68.0992 53.3597C68.0992 53.3597 70.7589 54.0123 72.0901 56.2613L72.0199 56.7683Z" fill="#263238"/>
<path d="M82.9866 58.864C82.9866 58.864 86.0286 59.1656 87.5704 61.0506C88.1246 60.3796 88.8204 59.8398 89.608 59.4698C90.3957 59.0998 91.2554 58.9089 92.1256 58.9108C92.8403 58.0483 93.2953 57.0006 93.4377 55.8896C93.58 54.7786 93.4038 53.65 92.9297 52.6353C92.4555 51.6205 91.7028 50.7613 90.7593 50.1577C89.8158 49.5541 88.7202 49.231 87.6001 49.2259C86.48 49.2208 85.3816 49.534 84.4326 50.1289C83.4836 50.7239 82.7231 51.5762 82.2397 52.5866C81.7564 53.597 81.5699 54.7239 81.7021 55.8362C81.8344 56.9484 82.2798 58.0002 82.9866 58.8692V58.864Z" fill="#92E3A9"/>
<path opacity="0.5" d="M82.9866 58.864C82.9866 58.864 86.0286 59.1656 87.5704 61.0506C88.1246 60.3796 88.8204 59.8398 89.608 59.4698C90.3957 59.0998 91.2554 58.9089 92.1256 58.9108C92.8403 58.0483 93.2953 57.0006 93.4377 55.8896C93.58 54.7786 93.4038 53.65 92.9297 52.6353C92.4555 51.6205 91.7028 50.7613 90.7593 50.1577C89.8158 49.5541 88.7202 49.231 87.6001 49.2259C86.48 49.2208 85.3816 49.534 84.4326 50.1289C83.4836 50.7239 82.7231 51.5762 82.2397 52.5866C81.7564 53.597 81.5699 54.7239 81.7021 55.8362C81.8344 56.9484 82.2798 58.0002 82.9866 58.8692V58.864Z" fill="white"/>
<path d="M87.4716 49.6417L87.3676 64.8933H87.8824L87.4716 49.6417Z" fill="#263238"/>
<path d="M87.6199 60.4759C87.6199 60.4759 88.6599 58.6273 90.4955 58.0631C90.4955 58.0631 88.5429 58.5259 87.5679 60.1171L87.6199 60.4759Z" fill="#263238"/>
<path d="M87.6199 55.2395C87.6199 55.2395 88.6599 53.3909 90.4955 52.8267C90.4955 52.8267 88.5429 53.2869 87.5679 54.8807L87.6199 55.2395Z" fill="#263238"/>
<path d="M87.6199 57.8577C87.6199 57.8577 88.6599 56.0091 90.4955 55.4449C90.4955 55.4449 88.5429 55.9077 87.5679 57.4989L87.6199 57.8577Z" fill="#263238"/>
<path d="M87.4717 56.5733C87.4717 56.5733 86.4811 54.7247 84.6975 54.1605C84.6975 54.1605 86.5799 54.6233 87.5211 56.2145L87.4717 56.5733Z" fill="#263238"/>
<path d="M87.4717 59.1421C87.4717 59.1421 86.4811 57.2935 84.6975 56.7293C84.6975 56.7293 86.5799 57.1895 87.5211 58.7833L87.4717 59.1421Z" fill="#263238"/>
<path d="M115.128 64.9115H20.8259" stroke="#263238" stroke-width="0.496" stroke-linecap="round" stroke-linejoin="round"/>
<path d="M102.923 57.7459C102.923 57.7459 106.53 58.1047 108.357 60.3459C108.357 60.3459 110.289 57.7459 113.758 57.8109C114.609 56.7877 115.152 55.5435 115.323 54.2235C115.494 52.9035 115.286 51.5621 114.724 50.3557C114.161 49.1493 113.268 48.1276 112.147 47.4098C111.026 46.6919 109.724 46.3076 108.393 46.3015C107.062 46.2955 105.756 46.6679 104.629 47.3755C103.502 48.083 102.599 49.0965 102.025 50.2978C101.452 51.499 101.232 52.8385 101.391 54.16C101.55 55.4815 102.081 56.7306 102.923 57.7615V57.7459Z" fill="#92E3A9"/>
<path opacity="0.5" d="M102.923 57.7459C102.923 57.7459 106.53 58.1047 108.357 60.3459C108.357 60.3459 110.289 57.7459 113.758 57.8109C114.609 56.7877 115.152 55.5435 115.323 54.2235C115.494 52.9035 115.286 51.5621 114.724 50.3557C114.161 49.1493 113.268 48.1276 112.147 47.4098C111.026 46.6919 109.724 46.3076 108.393 46.3015C107.062 46.2955 105.756 46.6679 104.629 47.3755C103.502 48.083 102.599 49.0965 102.025 50.2978C101.452 51.499 101.232 52.8385 101.391 54.16C101.55 55.4815 102.081 56.7306 102.923 57.7615V57.7459Z" fill="white"/>
<path d="M108.238 46.8156L108.116 64.8934H108.724L108.238 46.8156Z" fill="#263238"/>
<path d="M108.42 59.6569C108.42 59.6569 109.639 57.4677 111.828 56.7969C111.828 56.7969 109.517 57.3455 108.36 59.2331L108.42 59.6569Z" fill="#263238"/>
<path d="M108.42 53.4481C108.42 53.4481 109.639 51.2589 111.828 50.5881C111.828 50.5881 109.517 51.1367 108.36 53.0243L108.42 53.4481Z" fill="#263238"/>
<path d="M108.42 56.5526C108.42 56.5526 109.639 54.3634 111.828 53.6926C111.828 53.6926 109.517 54.2412 108.36 56.1288L108.42 56.5526Z" fill="#263238"/>
<path d="M108.24 55.0315C108.24 55.0315 107.065 52.8397 104.951 52.1715C104.951 52.1715 107.182 52.7201 108.298 54.6051L108.24 55.0315Z" fill="#263238"/>
<path d="M108.24 58.0761C108.24 58.0761 107.065 55.8843 104.951 55.2161C104.951 55.2161 107.182 55.7647 108.298 57.6523L108.24 58.0761Z" fill="#263238"/>
<path d="M24.3854 57.7459C24.3854 57.7459 27.9916 58.1047 29.8194 60.3459C30.4754 59.5503 31.2999 58.9102 32.2333 58.4719C33.1667 58.0335 34.1858 57.8078 35.217 57.8109C36.0682 56.7877 36.611 55.5435 36.782 54.2235C36.9531 52.9035 36.7453 51.5621 36.183 50.3557C35.6207 49.1493 34.7269 48.1276 33.606 47.4098C32.4851 46.6919 31.1833 46.3076 29.8522 46.3015C28.5212 46.2955 27.2159 46.6679 26.0885 47.3755C24.9611 48.083 24.0581 49.0965 23.4848 50.2978C22.9115 51.499 22.6915 52.8385 22.8505 54.16C23.0095 55.4815 23.5409 56.7306 24.3828 57.7615L24.3854 57.7459Z" fill="#92E3A9"/>
<path opacity="0.5" d="M24.3854 57.7459C24.3854 57.7459 27.9916 58.1047 29.8194 60.3459C30.4754 59.5503 31.2999 58.9102 32.2333 58.4719C33.1667 58.0335 34.1858 57.8078 35.217 57.8109C36.0682 56.7877 36.611 55.5435 36.782 54.2235C36.9531 52.9035 36.7453 51.5621 36.183 50.3557C35.6207 49.1493 34.7269 48.1276 33.606 47.4098C32.4851 46.6919 31.1833 46.3076 29.8522 46.3015C28.5212 46.2955 27.2159 46.6679 26.0885 47.3755C24.9611 48.083 24.0581 49.0965 23.4848 50.2978C22.9115 51.499 22.6915 52.8385 22.8505 54.16C23.0095 55.4815 23.5409 56.7306 24.3828 57.7615L24.3854 57.7459Z" fill="white"/>
<path d="M29.6997 46.8156L29.5775 64.8934H30.1859L29.6997 46.8156Z" fill="#263238"/>
<path d="M29.8816 59.6569C29.8816 59.6569 31.0984 57.4677 33.2902 56.7969C33.2902 56.7969 30.9762 57.3455 29.8192 59.2331L29.8816 59.6569Z" fill="#263238"/>
<path d="M29.8816 53.4481C29.8816 53.4481 31.0984 51.2589 33.2902 50.5881C33.2902 50.5881 30.9762 51.1367 29.8192 53.0243L29.8816 53.4481Z" fill="#263238"/>
<path d="M29.8816 56.5526C29.8816 56.5526 31.0984 54.3634 33.2902 53.6926C33.2902 53.6926 30.9762 54.2412 29.8192 56.1288L29.8816 56.5526Z" fill="#263238"/>
<path d="M29.6998 55.0315C29.6998 55.0315 28.5272 52.8397 26.4108 52.1715C26.4108 52.1715 28.6442 52.7201 29.7596 54.6051L29.6998 55.0315Z" fill="#263238"/>
<path d="M29.6998 58.0761C29.6998 58.0761 28.5272 55.8843 26.4108 55.2161C26.4108 55.2161 28.6442 55.7647 29.7596 57.6523L29.6998 58.0761Z" fill="#263238"/>
<path opacity="0.3" d="M93.2174 74.0767C97.2697 74.0767 100.555 73.1838 100.555 72.0825C100.555 70.9811 97.2697 70.0883 93.2174 70.0883C89.1652 70.0883 85.8802 70.9811 85.8802 72.0825C85.8802 73.1838 89.1652 74.0767 93.2174 74.0767Z" fill="black"/>
<path d="M88.3632 72.2931L93.0796 63.8015L97.354 72.9743" stroke="#263238" stroke-width="0.992" stroke-linecap="round" stroke-linejoin="round"/>
<path d="M93.0797 63.8015L92.0215 73.5957" stroke="#263238" stroke-width="0.992" stroke-linecap="round" stroke-linejoin="round"/>
<path d="M98.6887 64.7558C99.2185 61.6531 97.1328 58.7084 94.0301 58.1786C90.9274 57.6488 87.9828 59.7346 87.453 62.8372C86.9232 65.9399 89.0089 68.8846 92.1116 69.4144C95.2142 69.9442 98.1589 67.8585 98.6887 64.7558Z" fill="white" stroke="#263238" stroke-width="0.496" stroke-linecap="round" stroke-linejoin="round"/>
<path d="M94.5215 67.7124C96.6774 66.9141 97.7779 64.5192 96.9796 62.3633C96.1812 60.2075 93.7864 59.107 91.6305 59.9053C89.4746 60.7036 88.3741 63.0985 89.1724 65.2544C89.9708 67.4103 92.3656 68.5108 94.5215 67.7124Z" fill="#263238" stroke="#263238" stroke-width="0.496" stroke-linecap="round" stroke-linejoin="round"/>
<path d="M93.9459 66.1386C95.2406 65.661 95.9029 64.2243 95.4253 62.9296C94.9477 61.635 93.511 60.9726 92.2163 61.4503C90.9217 61.9279 90.2593 63.3646 90.737 64.6592C91.2146 65.9539 92.6513 66.6162 93.9459 66.1386Z" fill="#27AE60" stroke="#263238" stroke-width="0.496" stroke-linecap="round" stroke-linejoin="round"/>
<path d="M93.0795 65.1457C93.8219 65.1457 94.4237 64.5439 94.4237 63.8015C94.4237 63.0591 93.8219 62.4573 93.0795 62.4573C92.3371 62.4573 91.7353 63.0591 91.7353 63.8015C91.7353 64.5439 92.3371 65.1457 93.0795 65.1457Z" fill="#263238" stroke="#263238" stroke-width="0.496" stroke-linecap="round" stroke-linejoin="round"/>
<path d="M65.1171 42.4528C65.0154 42.4528 64.9178 42.4132 64.8449 42.3423C64.7721 42.2714 64.7298 42.1748 64.7271 42.0732C64.7271 42.0212 64.5321 36.829 62.6029 33.1422C62.1531 32.2816 61.7163 31.5822 61.3029 30.8828C59.8573 28.5428 58.8433 23.9174 58.7757 21.2628C58.7757 21.2111 58.7962 21.1615 58.8328 21.1249C58.8694 21.0884 58.919 21.0678 58.9707 21.0678C59.0224 21.0678 59.072 21.0884 59.1086 21.1249C59.1452 21.1615 59.1657 21.2111 59.1657 21.2628C59.2307 23.8186 60.5827 28.2412 61.9659 30.4902C62.3975 31.1896 62.8421 31.9124 63.3023 32.7964C65.3147 36.6444 65.5071 41.8444 65.5149 42.0654C65.5177 42.1684 65.4796 42.2683 65.409 42.3434C65.3383 42.4184 65.2409 42.4624 65.1379 42.4658L65.1171 42.4528Z" fill="#263238"/>
<path d="M57.9229 72.5842C57.8766 72.5842 57.8318 72.5677 57.7965 72.5377C57.7613 72.5076 57.7379 72.4661 57.7304 72.4204C57.5354 71.1984 58.5729 65.2522 60.7153 61.9554C62.8577 58.6586 63.0786 55.9312 63.0812 55.9026C63.0878 55.7991 63.1352 55.7026 63.2129 55.634C63.2907 55.5655 63.3925 55.5307 63.4959 55.5373C63.5994 55.5438 63.696 55.5912 63.7645 55.669C63.833 55.7467 63.8678 55.8485 63.8612 55.952C63.8612 56.069 63.6559 58.8692 61.3731 62.3818C59.1449 65.8086 57.9592 71.3596 58.1204 72.3606C58.1279 72.4116 58.1149 72.4635 58.0842 72.5049C58.0535 72.5463 58.0076 72.5739 57.9567 72.5816L57.9229 72.5842Z" fill="#263238"/>
<path d="M64.5086 41.5428L64.1836 44.9228L64.4436 46.0278C64.4436 46.0278 64.3786 48.5628 64.3136 49.8628C64.2684 50.6759 64.1377 51.482 63.9236 52.2678L63.2086 53.5678L63.0136 56.2328L63.9886 56.2978C63.9886 56.2978 65.2236 49.2128 65.3536 47.5878C65.4836 45.9628 65.4836 41.4128 65.4836 41.4128L64.5086 41.5428Z" fill="#92E3A9" stroke="#263238" stroke-width="0.496" stroke-linecap="round" stroke-linejoin="round"/>
<path opacity="0.3" d="M44.3403 111.267C50.825 111.267 56.0819 109.11 56.0819 106.449C56.0819 103.788 50.825 101.631 44.3403 101.631C37.8556 101.631 32.5987 103.788 32.5987 106.449C32.5987 109.11 37.8556 111.267 44.3403 111.267Z" fill="black"/>
<path d="M34.4136 105.113C34.2583 106.021 34.019 106.913 33.6986 107.778C33.2436 108.883 33.0486 109.728 33.5686 110.053C34.0886 110.378 34.5436 111.093 35.9736 109.728C37.4036 108.363 37.4036 107.518 37.4036 106.803C37.4166 106.238 37.46 105.673 37.5336 105.113C37.5336 105.113 35.5836 104.138 34.4136 105.113Z" fill="white" stroke="#263238" stroke-width="0.496" stroke-linecap="round" stroke-linejoin="round"/>
<path d="M46.9587 100.1C46.9587 100.1 47.0445 100.191 47.1901 100.326C47.6178 100.74 48.1106 101.081 48.6487 101.335C49.5587 101.725 50.4037 101.92 50.4037 102.375C50.4037 102.83 49.4937 102.895 48.3237 102.895C47.1537 102.895 46.2437 102.57 45.5287 102.505C44.8137 102.44 43.5787 102.44 43.3837 102.44C43.1887 102.44 42.7337 101.53 42.9937 100.555C43.2537 99.58 45.1387 99.125 45.7237 99.45C46.3087 99.775 46.9587 100.1 46.9587 100.1Z" fill="white" stroke="#263238" stroke-width="0.496" stroke-linecap="round" stroke-linejoin="round"/>
<path d="M37.9237 66.1128C37.9237 66.1128 37.1437 70.1428 37.0137 71.5728C36.8837 73.0028 37.1437 78.9178 37.0137 79.9578C36.8837 80.9978 35.9737 88.0178 35.9087 89.3828C35.8437 90.7478 34.8687 92.4378 34.8687 94.5828V102.513C34.8687 102.513 34.1537 103.293 34.2837 103.813C34.3695 104.241 34.413 104.676 34.4137 105.113C34.6367 104.981 34.8842 104.895 35.1412 104.862C35.3982 104.828 35.6593 104.847 35.9087 104.918C36.6887 105.178 37.5987 105.568 37.5987 105.568C37.906 104.964 38.0621 104.295 38.0537 103.618C38.0537 102.448 37.9887 101.473 38.1187 101.278C38.2487 101.083 38.8337 95.1028 39.6787 93.2828C40.5237 91.4628 42.0187 80.8028 42.2137 80.2178L43.5787 76.1228C43.5787 76.1228 43.6437 85.8078 43.6437 87.1078C43.6437 88.4078 43.3837 90.3578 43.3837 91.7228C43.3837 93.0878 43.3187 97.4428 43.3187 97.6378C43.3187 97.8328 42.7987 98.7428 42.7987 99.0028C42.7987 99.2628 43.1237 101.148 43.1237 101.148C43.1237 101.148 44.5537 100.368 45.1387 100.238C45.7411 100.148 46.3496 100.104 46.9587 100.108C46.8056 99.6359 46.6097 99.179 46.3737 98.7428C46.1137 98.3528 46.6337 95.7528 46.5687 94.7778C46.5037 93.8028 47.7387 89.6428 48.1287 87.3028C48.5187 84.9628 48.5837 75.5378 48.4537 74.2378C48.3237 72.9378 48.2587 71.3128 48.2587 71.3128V66.1128C48.2587 66.1128 46.5037 67.4778 42.9287 66.5678C39.3537 65.6578 38.0537 65.3328 37.9237 66.1128Z" fill="#263238" stroke="#263238" stroke-width="0.496" stroke-linecap="round" stroke-linejoin="round"/>
<path d="M43.5786 76.1202L44.2936 74.6902L45.7236 73.8452" stroke="white" stroke-width="0.496" stroke-linecap="round" stroke-linejoin="round"/>
<path d="M39.4915 68.094C39.3837 68.9986 39.0803 69.869 38.6023 70.6446L37.8223 71.864" stroke="white" stroke-width="0.496" stroke-linecap="round" stroke-linejoin="round"/>
<path d="M46.1422 68.4268L45.5884 70.0908C45.5884 70.0908 46.1422 71.422 46.1422 71.7522C46.1422 72.0824 45.4766 72.9742 45.4766 72.9742" stroke="white" stroke-width="0.496" stroke-linecap="round" stroke-linejoin="round"/>
<path d="M43.2615 70.3118C43.2615 70.3118 45.9213 70.2 47.4735 68.8714" stroke="white" stroke-width="0.496" stroke-linecap="round" stroke-linejoin="round"/>
<g opacity="0.29">
<path d="M42.206 68.4684C43.8146 68.6146 45.4348 68.3758 46.9328 67.7716L47.0342 66.651C46.1502 66.898 44.7878 67.041 42.9288 66.5678C42.7364 66.5158 42.5492 66.469 42.3698 66.4248L42.206 68.4684Z" fill="white" stroke="#263238" stroke-width="0.496" stroke-linecap="round" stroke-linejoin="round"/>
<path d="M39.0002 67.7378C39.8291 68.051 40.6909 68.2691 41.569 68.3878L41.8446 66.2896C40.7864 66.0296 39.9778 65.832 39.3824 65.7384L39.0002 67.7378Z" fill="white" stroke="#263238" stroke-width="0.496" stroke-linecap="round" stroke-linejoin="round"/>
<path d="M38.8598 65.6786C38.2618 65.6396 37.981 65.7696 37.9238 66.1128L37.7418 67.0748C37.9661 67.2421 38.2065 67.3867 38.4594 67.5064L38.8598 65.6786Z" fill="white" stroke="#263238" stroke-width="0.496" stroke-linecap="round" stroke-linejoin="round"/>
<path d="M47.6297 66.4483L47.5543 67.5013C47.8143 67.3765 48.0535 67.2413 48.2589 67.1295V66.1129C48.0625 66.2481 47.8514 66.3606 47.6297 66.4483Z" fill="white" stroke="#263238" stroke-width="0.496" stroke-linecap="round" stroke-linejoin="round"/>
</g>
<path d="M56.5787 48.0428L63.0137 47.9778L64.3137 47.3278C64.3137 47.3278 65.6787 47.1978 65.8737 47.8478C66.0687 48.4978 66.1987 49.1478 65.8087 49.0828C65.6905 49.0573 65.5808 49.0022 65.4898 48.9226C65.3988 48.843 65.3296 48.7415 65.2887 48.6278C65.0846 48.9039 64.817 49.1269 64.5087 49.2778C64.3298 49.3721 64.1327 49.4267 63.9307 49.438C63.7288 49.4492 63.5269 49.4167 63.3387 49.3428L56.1237 51.0978C56.3467 50.0914 56.4988 49.0705 56.5787 48.0428Z" fill="white" stroke="#263238" stroke-width="0.496" stroke-linecap="round" stroke-linejoin="round"/>
<path d="M53.8486 48.3028C54.1164 48.1614 54.4001 48.0523 54.6936 47.9778C54.8886 47.9778 56.5136 47.2628 57.0336 48.4328C57.5536 49.6028 57.4236 50.7078 56.3836 51.3578C55.3436 52.0078 54.3036 51.5528 54.2386 51.1628C54.1736 50.7728 53.8486 48.3028 53.8486 48.3028Z" fill="#92E3A9" stroke="#263238" stroke-width="0.496" stroke-linecap="round" stroke-linejoin="round"/>
<path d="M26.9775 39.325C27.2314 41.0039 27.6512 42.6534 28.2307 44.2494C29.1719 46.8026 32.6507 49.1296 34.4993 50.8768C35.4944 51.7961 36.4078 52.8 37.2293 53.8772C37.2293 53.8772 38.3057 60.4136 38.0821 62.0256C37.8585 63.6376 37.6323 66.1856 37.7233 66.547C37.8143 66.9084 42.2005 68.0706 44.4391 67.8002C46.6777 67.5298 48.3391 66.638 48.5575 65.832C48.7759 65.026 48.7369 64.22 48.8175 63.232C48.8981 62.244 49.5325 58.1282 49.5325 56.4252C49.5325 54.7222 49.3531 52.5252 49.3531 52.5252C49.3531 52.5252 55.4423 51.5398 55.8011 51.0926C56.1599 50.6454 56.1157 49.0334 55.6217 48.5836C55.1277 48.1338 51.1445 48.1806 50.8767 48.1806C50.6089 48.1806 49.4441 47.645 48.2767 47.645C47.1093 47.645 43.4407 47.1978 42.9493 47.0184C42.1824 46.7751 41.4008 46.5806 40.6093 46.436C39.5355 46.2124 36.7093 45.5858 36.7093 45.5858C36.7093 45.5858 34.2913 44.0258 33.3059 42.9858C32.3205 41.9458 31.1115 40.612 29.4995 39.8502C27.8875 39.0884 27.1569 38.519 26.9775 39.325Z" fill="#27AE60" stroke="#263238" stroke-width="0.496" stroke-linecap="round" stroke-linejoin="round"/>
<path d="M28.6 44.2494L31.2416 42.6374C31.2416 42.6374 29.6816 44.5172 29.2266 45.0996" stroke="#263238" stroke-width="0.496" stroke-linecap="round" stroke-linejoin="round"/>
<path d="M31.5873 42.5022C31.5873 42.5022 31.2311 44.7876 30.6929 45.7262" stroke="#263238" stroke-width="0.496" stroke-linecap="round" stroke-linejoin="round"/>
<path d="M39.7437 51.1628L37.0137 45.8328L39.0287 51.8128" stroke="#263238" stroke-width="0.496" stroke-linecap="round" stroke-linejoin="round"/>
<path d="M49.4286 49.4728L49.3636 52.533L50.3386 49.0178" stroke="#263238" stroke-width="0.496" stroke-linecap="round" stroke-linejoin="round"/>
<path d="M40.8954 62.7146C40.9439 62.855 40.9933 62.985 41.0436 63.1046" stroke="#263238" stroke-width="0.496" stroke-linecap="round" stroke-linejoin="round"/>
<path d="M37.2736 48.7994C37.2736 48.7994 39.1274 57.135 40.482 61.477" stroke="#263238" stroke-width="0.496" stroke-linecap="round" stroke-linejoin="round"/>
<path d="M43.6437 50.1878L44.9437 52.0078L43.1237 64.1628L44.7487 66.9552L46.3087 63.5778L45.5937 51.9428L46.3737 49.7978L44.6837 48.3028L43.6437 50.1878Z" fill="#263238" stroke="#263238" stroke-width="0.496" stroke-linecap="round" stroke-linejoin="round"/>
<path d="M42.1564 45.4142L41.3036 45.773L40.6328 46.4438L42.4242 51.2356L44.7642 49.8602L47.1796 50.6402C47.1796 50.6402 45.7938 47.5488 45.0762 46.5192C44.3586 45.4896 42.1564 45.4142 42.1564 45.4142Z" fill="#92E3A9" stroke="#263238" stroke-width="0.496" stroke-linecap="round" stroke-linejoin="round"/>
<path d="M47.2082 37.44C47.2082 37.44 47.4968 38.0172 48.1442 37.0084C48.7916 35.9996 48.6642 34.6996 48.217 34.9284C47.7698 35.1572 47.7126 35.7942 47.7126 35.7942C47.1848 35.436 46.599 35.1721 45.981 35.0142C45.201 34.8686 42.081 35.0142 41.002 36.0958C39.923 37.1774 39.702 38.9818 40.1362 39.8476C40.5704 40.7134 41.9406 44.031 41.9406 44.031C41.9406 44.031 43.2406 43.5266 44.0336 43.251C44.8266 42.9754 46.2644 40.651 46.41 39.351C46.5556 38.051 46.4854 38.051 46.4854 38.051L47.2082 37.44Z" fill="#263238" stroke="#263238" stroke-width="0.496" stroke-linecap="round" stroke-linejoin="round"/>
<path d="M47.2083 37.44C47.4897 38.0979 47.7302 38.7726 47.9285 39.4602C48.0741 40.1102 47.7855 40.3988 48.0741 40.8304L48.7943 41.9146L48.2171 42.7804C48.2171 42.7804 48.2171 44.8604 48.1443 45.305C48.1391 45.4108 48.112 45.5143 48.0647 45.609C48.0175 45.7038 47.951 45.7876 47.8696 45.8553C47.7882 45.9231 47.6936 45.9731 47.5919 46.0024C47.4901 46.0316 47.3834 46.0394 47.2785 46.0252C46.7413 45.9839 46.2098 45.8872 45.6925 45.7366L44.7539 49.8498L41.9407 45.8822V44.005L43.1679 42.705C43.1679 42.705 42.4451 41.405 42.8065 40.9734C43.1679 40.5418 43.3109 39.8918 43.7451 40.469C43.9939 40.7782 44.1443 41.155 44.1767 41.5506L44.6811 41.4778L44.8267 40.2506C44.8267 40.2506 46.0539 39.7462 45.9811 39.0962C45.9083 38.4462 45.2011 38.0874 45.1153 37.583C45.0295 37.0786 47.2083 37.44 47.2083 37.44Z" fill="white" stroke="#263238" stroke-width="0.496" stroke-linecap="round" stroke-linejoin="round"/>
<path d="M47.7075 39.8164C47.7075 39.8164 47.1251 39.2782 46.5895 39.7722" stroke="#263238" stroke-width="0.496" stroke-linecap="round" stroke-linejoin="round"/>
<path d="M47.4395 40.937C47.4395 41.1346 47.3797 41.2932 47.3043 41.2932C47.2289 41.2932 47.1691 41.1346 47.1691 40.937C47.1691 40.7394 47.2315 40.5782 47.3043 40.5782C47.3771 40.5782 47.4395 40.7394 47.4395 40.937Z" fill="#263238"/>
<path d="M59.137 23.6028L46.2228 45.1828L58.097 70.4002" stroke="#263238" stroke-width="0.496" stroke-linecap="round" stroke-linejoin="round"/>
<path d="M50.7469 45.1828C50.7469 45.1828 49.8161 45.8042 49.4469 45.8666C49.0777 45.929 46.8469 45.4324 46.8469 45.4324L47.4683 43.7528C47.4683 43.7528 49.3949 44.0128 49.8291 44.1272C50.2633 44.2416 50.7469 45.1828 50.7469 45.1828Z" fill="white" stroke="#263238" stroke-width="0.496" stroke-linecap="round" stroke-linejoin="round"/>
<path d="M67.1451 47.385H67.1295L48.2171 44.8448C48.1694 44.8339 48.1275 44.8055 48.0998 44.7652C48.0721 44.7249 48.0605 44.6757 48.0674 44.6273C48.0742 44.5788 48.0991 44.5348 48.1369 44.5038C48.1748 44.4728 48.2229 44.4572 48.2717 44.46L67.1581 47.19C67.1839 47.1938 67.2072 47.2078 67.2228 47.2287C67.2384 47.2497 67.245 47.2759 67.2413 47.3018C67.2376 47.3248 67.226 47.3457 67.2084 47.3609C67.1908 47.3761 67.1684 47.3847 67.1451 47.385Z" fill="#263238"/>
<path d="M45.4246 42.9C45.4246 42.9 47.4396 43.797 47.9752 43.8412C48.5108 43.8854 48.425 44.2 48.2352 44.6472C48.0454 45.0944 47.788 46.527 47.385 46.5738C46.982 46.6206 45.9966 46.215 45.9966 46.0798C45.9966 45.9446 46.3528 45.8562 46.3528 45.8562C46.3528 45.8562 45.37 45.812 45.0112 45.4532C44.6524 45.0944 43.8022 44.1532 43.8022 44.1532C43.8022 44.1532 36.6366 43.3004 35.4302 43.3004C34.2238 43.3004 30.056 43.0768 29.0264 42.9442C27.9968 42.8116 27.6822 42.3618 27.235 41.4206C26.7878 40.4794 26.6968 38.779 27.1908 38.5996C27.6848 38.4202 31.2208 38.8232 32.5182 39.3614C33.8156 39.8996 40.04 41.5558 41.1606 42.0472C42.2812 42.5386 45.4246 42.9 45.4246 42.9Z" fill="white" stroke="#263238" stroke-width="0.496" stroke-linecap="round" stroke-linejoin="round"/>
<path d="M31.7435 43.16C31.5233 42.6102 31.3367 42.0476 31.1845 41.4752C30.9973 40.7264 31.2235 39.6318 31.3795 39.0364C29.7987 38.6828 27.5835 38.4722 27.2013 38.61C26.7073 38.7894 26.7983 40.4898 27.2455 41.431C27.6927 42.3722 28.0073 42.8194 29.0369 42.9546C29.4945 43.0118 30.5787 43.0872 31.7435 43.16Z" fill="#92E3A9" stroke="#263238" stroke-width="0.496" stroke-linecap="round" stroke-linejoin="round"/>
<path d="M29.6634 38.519C29.4141 39.3677 29.4141 40.2703 29.6634 41.119C29.8518 41.9258 30.1696 42.6967 30.6046 43.4018L32.6196 43.5812L32.7964 43.2666C32.7964 43.2666 31.6784 42.1486 31.5874 41.119C31.5635 40.8132 31.6075 40.5059 31.7163 40.2192C31.8251 39.9324 31.9959 39.6732 32.2166 39.4602C32.2166 39.4602 30.381 37.8014 29.6634 38.519Z" fill="#92E3A9" stroke="#263238" stroke-width="0.496" stroke-linecap="round" stroke-linejoin="round"/>
</svg>
