<svg width="125" height="125" viewBox="0 0 125 125" fill="none" xmlns="http://www.w3.org/2000/svg">
<path d="M116.89 29.8275C116.495 29.1608 116.078 28.5025 115.64 27.8525C109.847 19.265 99.8771 13.3925 90.0646 10.75C85.7606 9.60486 81.3389 8.95977 76.8871 8.82749C47.7346 7.82749 36.1221 30.815 26.4871 36.745C16.8521 42.675 2.02713 52.7925 3.01463 74.04C4.00213 95.2875 19.3221 115.29 48.9696 116.54C78.6171 117.79 80.5946 104.427 97.1471 99.5C108.102 96.23 115.897 85.185 119.697 74.9775C124.89 61.055 124.645 42.985 116.89 29.8275Z" fill="#92E3A9"/>
<path opacity="0.7" d="M116.89 29.8275C116.495 29.1608 116.078 28.5025 115.64 27.8525C109.847 19.265 99.8771 13.3925 90.0646 10.75C85.7606 9.60486 81.3389 8.95977 76.8871 8.82749C47.7346 7.82749 36.1221 30.815 26.4871 36.745C16.8521 42.675 2.02713 52.7925 3.01463 74.04C4.00213 95.2875 19.3221 115.29 48.9696 116.54C78.6171 117.79 80.5946 104.427 97.1471 99.5C108.102 96.23 115.897 85.185 119.697 74.9775C124.89 61.055 124.645 42.985 116.89 29.8275Z" fill="white"/>
<path d="M107.565 11.3624C106.93 10.7024 105.815 10.0949 103.91 10.0474C99.6054 9.94244 100.75 12.9999 99.6054 13.7224C98.4604 14.4449 98.1354 13.3024 96.9804 14.0374C95.8254 14.7724 96.3504 16.2424 95.4079 16.4524C94.4654 16.6624 93.2029 15.4999 92.0479 16.2499C90.8929 16.9999 90.8929 17.6149 90.3679 17.6149C89.8429 17.6149 88.7929 17.1949 88.1629 17.6149C87.5329 18.0349 86.7979 18.5599 86.7979 18.5599H98.0704" stroke="#263238" stroke-width="0.316" stroke-linecap="round" stroke-linejoin="round"/>
<path d="M108.75 13.2499C108.648 13.1999 108.54 13.1499 108.425 13.0999C108.374 12.7079 108.243 12.3307 108.038 11.9924" stroke="#263238" stroke-width="0.316" stroke-linecap="round" stroke-linejoin="round"/>
<path d="M99.513 18.5525H113.358C113.358 18.5525 113.673 17.6075 112.518 16.9775C111.363 16.3475 110.84 16.8725 110.42 16.3475C110.045 15.88 111.253 14.7475 109.298 13.54" stroke="#263238" stroke-width="0.316" stroke-linecap="round" stroke-linejoin="round"/>
<path d="M31.1104 15.75C30.8604 15.5 30.4329 15.25 29.6904 15.25C28.0204 15.21 28.4679 16.3925 28.0204 16.6775C27.5729 16.9625 27.4504 16.515 27.0004 16.8C26.5504 17.085 26.7504 17.655 26.3904 17.7375C26.0304 17.82 25.5329 17.37 25.0854 17.655C24.6379 17.94 24.6379 18.185 24.4329 18.185C24.2279 18.185 23.8229 18.0225 23.5779 18.185C23.3329 18.3475 23.0479 18.5525 23.0479 18.5525H27.4229" stroke="#263238" stroke-width="0.316" stroke-linecap="round" stroke-linejoin="round"/>
<path d="M31.5705 16.5L31.443 16.4424C31.4246 16.29 31.3734 16.1433 31.293 16.0125" stroke="#263238" stroke-width="0.316" stroke-linecap="round" stroke-linejoin="round"/>
<path d="M27.9854 18.5525H33.3579C33.3869 18.4283 33.3699 18.2979 33.3102 18.1853C33.2504 18.0727 33.1519 17.9856 33.0329 17.94C32.5854 17.69 32.3804 17.9 32.2179 17.69C32.0554 17.48 32.5404 17.0675 31.7829 16.6" stroke="#263238" stroke-width="0.316" stroke-linecap="round" stroke-linejoin="round"/>
<path d="M91.3279 8.81996C91.0779 8.56996 90.6529 8.31996 89.9079 8.31996C88.2504 8.26996 88.6854 9.45246 88.2504 9.74996C87.8154 10.0475 87.6804 9.58496 87.2304 9.87246C86.7804 10.16 86.9804 10.7275 86.6204 10.81C86.2604 10.8925 85.7629 10.4425 85.3154 10.7275C84.8679 11.0125 84.8554 11.25 84.6504 11.25C84.4454 11.25 84.0404 11.0875 83.7954 11.25C83.5504 11.4125 83.2654 11.6175 83.2654 11.6175H87.6404" stroke="#263238" stroke-width="0.316" stroke-linecap="round" stroke-linejoin="round"/>
<path d="M91.7878 9.54994L91.6603 9.49244C91.6419 9.33997 91.5907 9.19328 91.5103 9.06244" stroke="#263238" stroke-width="0.316" stroke-linecap="round" stroke-linejoin="round"/>
<path d="M88.2029 11.6125H93.5754C93.6044 11.4883 93.5874 11.3579 93.5277 11.2453C93.4679 11.1327 93.3694 11.0456 93.2504 11C92.8029 10.75 92.5979 10.96 92.4354 10.75C92.2729 10.54 92.7504 10.135 92.0004 9.66498" stroke="#263238" stroke-width="0.316" stroke-linecap="round" stroke-linejoin="round"/>
<path d="M65.9997 105.75C90.7145 105.75 110.75 85.7147 110.75 61C110.75 36.2852 90.7145 16.25 65.9997 16.25C41.285 16.25 21.2497 36.2852 21.2497 61C21.2497 85.7147 41.285 105.75 65.9997 105.75Z" stroke="#263238" stroke-width="0.316" stroke-linejoin="round" stroke-dasharray="0.63 0.63"/>
<path d="M99.4078 114.738H109.34" stroke="#263238" stroke-width="0.316" stroke-miterlimit="10"/>
<path d="M19.0653 114.738H97.6403" stroke="#263238" stroke-width="0.316" stroke-miterlimit="10"/>
<path d="M102.29 87.815C102.197 87.8158 102.105 87.7926 102.023 87.7475C101.957 87.7126 101.899 87.665 101.851 87.6074C101.804 87.5499 101.768 87.4835 101.747 87.4122C101.725 87.3408 101.718 87.2659 101.725 87.1917C101.733 87.1176 101.755 87.0456 101.79 86.98L103.643 83.515C103.717 83.3885 103.837 83.2957 103.978 83.256C104.119 83.2162 104.271 83.2327 104.4 83.3018C104.529 83.371 104.627 83.4876 104.672 83.627C104.717 83.7665 104.707 83.9181 104.643 84.05L102.788 87.515C102.74 87.6054 102.668 87.681 102.58 87.7339C102.493 87.7867 102.393 87.8147 102.29 87.815Z" fill="#263238"/>
<path d="M109.462 87.815C109.36 87.8152 109.259 87.7874 109.171 87.7345C109.083 87.6816 109.011 87.6058 108.962 87.515L107.107 84.05C107.043 83.9181 107.033 83.7665 107.078 83.627C107.124 83.4876 107.221 83.371 107.35 83.3018C107.48 83.2327 107.631 83.2162 107.772 83.256C107.913 83.2957 108.033 83.3885 108.107 83.515L109.96 86.98C109.995 87.0456 110.017 87.1176 110.025 87.1917C110.032 87.2659 110.025 87.3408 110.003 87.4122C109.982 87.4835 109.946 87.5499 109.899 87.6074C109.852 87.665 109.793 87.7126 109.727 87.7475C109.646 87.7925 109.555 87.8157 109.462 87.815Z" fill="#263238"/>
<path d="M105.875 85.475C108.679 85.475 110.953 83.2017 110.953 80.3975C110.953 77.5933 108.679 75.32 105.875 75.32C103.071 75.32 100.798 77.5933 100.798 80.3975C100.798 83.2017 103.071 85.475 105.875 85.475Z" fill="#27AE60" stroke="#263238" stroke-width="0.316" stroke-linecap="round" stroke-linejoin="round"/>
<path d="M105.875 84.75C108.279 84.75 110.228 82.8013 110.228 80.3975C110.228 77.9937 108.279 76.045 105.875 76.045C103.471 76.045 101.523 77.9937 101.523 80.3975C101.523 82.8013 103.471 84.75 105.875 84.75Z" fill="white" stroke="#263238" stroke-width="0.316" stroke-linecap="round" stroke-linejoin="round"/>
<path d="M105.955 77.175C105.955 77.175 105.875 80.72 105.875 80.3975L106.76 82.17" stroke="#263238" stroke-width="0.316" stroke-miterlimit="10"/>
<path d="M108.75 75.08C108.654 74.4092 108.318 73.7957 107.806 73.352C107.294 72.9083 106.639 72.664 105.961 72.664C105.284 72.664 104.629 72.9083 104.116 73.352C103.604 73.7957 103.269 74.4092 103.173 75.08H108.75Z" fill="white" stroke="#263238" stroke-width="0.316" stroke-linecap="round" stroke-linejoin="round"/>
<path d="M105.875 80.72C106.053 80.72 106.197 80.5756 106.197 80.3975C106.197 80.2194 106.053 80.075 105.875 80.075C105.697 80.075 105.552 80.2194 105.552 80.3975C105.552 80.5756 105.697 80.72 105.875 80.72Z" fill="#263238" stroke="#263238" stroke-width="0.316" stroke-miterlimit="10"/>
<path d="M114.67 54.7949C114.67 55.5301 114.525 56.2581 114.244 56.9374C113.963 57.6166 113.551 58.2338 113.031 58.7537C112.511 59.2735 111.894 59.6858 111.215 59.967C110.535 60.2482 109.807 60.3927 109.072 60.3924C108.76 60.3937 108.448 60.367 108.14 60.3124C106.838 60.0899 105.656 59.4139 104.804 58.4042C103.952 57.3944 103.485 56.116 103.485 54.7949C103.485 53.4739 103.952 52.1954 104.804 51.1856C105.656 50.1759 106.838 49.5 108.14 49.2774C108.448 49.2249 108.76 49.199 109.072 49.1999C109.807 49.1996 110.535 49.3441 111.214 49.6251C111.893 49.9061 112.51 50.3182 113.03 50.8378C113.55 51.3573 113.962 51.9742 114.244 52.6532C114.525 53.3322 114.67 54.06 114.67 54.7949Z" fill="#27AE60" stroke="#263238" stroke-width="0.316" stroke-linecap="round" stroke-linejoin="round"/>
<path d="M108.527 49.1849C110.977 49.7799 112.805 52.1624 112.805 54.7949C112.805 56.1176 112.336 57.3976 111.482 58.4076C110.628 59.4177 109.444 60.0925 108.14 60.3124" stroke="#263238" stroke-width="0.316" stroke-linecap="round" stroke-linejoin="round"/>
<path d="M105.1 50.7625C106.052 50.7625 107.51 51.075 108.755 52.5975C110.812 55.11 113.552 55.3475 114.467 53.055" stroke="#263238" stroke-width="0.316" stroke-linecap="round" stroke-linejoin="round"/>
<path d="M103.5 55.2249C103.5 55.2249 111.102 58.7074 114.667 54.7949" stroke="#263238" stroke-width="0.316" stroke-linecap="round" stroke-linejoin="round"/>
<path d="M105.64 59.1449C106.619 59.2753 107.615 59.1442 108.527 58.7649C110.355 57.9649 111.977 57.5474 112.752 58.0799C112.862 58.145 112.957 58.2314 113.033 58.3341C113.108 58.4367 113.163 58.5535 113.192 58.6774" stroke="#263238" stroke-width="0.316" stroke-linecap="round" stroke-linejoin="round"/>
<path d="M103.75 32.61C103.75 35.11 101.713 37.745 99.7502 37.745C99.2702 37.745 98.0277 37.745 97.5852 37.5775C95.1652 36.6425 94.2302 34.3275 94.2302 32.3125C94.2302 31.2675 94.5452 30.1275 95.3727 29.43C96.4702 28.505 97.6802 29.0875 98.9552 29.0875C100.065 29.0875 101.62 28.6325 102.455 29.2575C103.548 30.0425 103.75 31.37 103.75 32.61Z" fill="white" stroke="#263238" stroke-width="0.316" stroke-linejoin="round"/>
<path d="M102.445 30.935C102.285 31.215 101.8 31.235 101.363 30.9825C100.925 30.73 100.703 30.3 100.863 30.0225C101.023 29.745 101.508 29.7225 101.945 29.975C102.383 30.2275 102.608 30.6575 102.445 30.935Z" fill="white" stroke="#263238" stroke-width="0.316" stroke-linejoin="round"/>
<path d="M98.7126 29.47L98.7976 29.2725L99.9851 26.505L99.1976 26.3825L98.4101 29.1675L98.7126 29.47Z" fill="#263238" stroke="#263238" stroke-width="0.316" stroke-linejoin="round"/>
<path d="M98.8951 27.5925C98.8951 27.5925 98.3501 26.3825 97.5626 26.2025C96.7751 26.0225 94.5976 27.05 94.5976 27.05C94.5976 27.05 95.6851 27.835 96.5326 28.0775C97.3801 28.32 98.8951 27.5925 98.8951 27.5925Z" fill="#27AE60" stroke="#263238" stroke-width="0.316" stroke-linejoin="round"/>
<path d="M68.9021 24.5525C68.7271 23.565 68.4796 20.9925 68.6921 20.0525C68.8177 19.4782 68.8648 18.8895 68.8321 18.3025V14.825C68.934 14.3599 68.922 13.877 68.7971 13.4175C68.5846 12.6675 66.9646 11.09 66.9646 11.09V10.5275H66.8621L66.4146 10.5H66.2846H66.1546L65.7071 10.5175H65.6046V11.08C65.6046 11.08 63.9846 12.6675 63.7721 13.4075C63.6497 13.8712 63.642 14.3577 63.7496 14.825V18.28C63.717 18.867 63.764 19.4557 63.8896 20.03C64.1021 20.98 63.8546 23.5525 63.6796 24.53C63.5046 25.5075 63.5746 26.2575 64.1371 26.53C64.6071 26.765 65.8871 26.61 66.2971 26.55C66.7096 26.61 67.9871 26.765 68.4571 26.53C68.9996 26.28 69.0796 25.54 68.9021 24.5525Z" fill="white" stroke="#263238" stroke-width="0.316" stroke-linejoin="round"/>
<path d="M68.2146 20.2301C68.3171 19.7371 68.3558 19.2329 68.3296 18.7301V17.0526H64.2496V18.7301C64.2234 19.2329 64.262 19.7371 64.3646 20.2301C64.5321 21.0426 64.3346 23.2301 64.1946 24.0751C64.0546 24.9201 64.1096 25.5476 64.5621 25.7876C64.9396 25.9876 65.9646 25.8551 66.2946 25.8051C66.6246 25.8551 67.6496 25.9876 68.0271 25.7876C68.4796 25.5376 68.5271 24.9176 68.3946 24.0751C68.2621 23.2326 68.0471 21.0426 68.2146 20.2301Z" fill="#27AE60"/>
<path d="M67.1221 9.71503H65.4296V10.6675H67.1221V9.71503Z" fill="#263238" stroke="#263238" stroke-width="0.316" stroke-linejoin="round"/>
<path d="M63.8422 14.4725H68.7772" stroke="#263238" stroke-width="0.316" stroke-linejoin="round"/>
<path d="M65.8346 17.9975H68.5646" stroke="#263238" stroke-width="0.316" stroke-linejoin="round"/>
<path d="M64.0197 17.9975H64.8397" stroke="#263238" stroke-width="0.316" stroke-linejoin="round"/>
<path d="M30.5875 31.48H31.8175L33.1575 28.98L34.5175 31.98L34.75 31.3625H36.4525L38.265 27.245L39.4325 31.08H41.565C42.1605 30.3873 42.4723 29.4952 42.438 28.5824C42.4037 27.6696 42.0258 26.8035 41.38 26.1575C40.6998 25.4772 39.7771 25.095 38.815 25.095C37.853 25.095 36.9303 25.4772 36.25 26.1575L35.875 26.5325L35.5 26.155C34.815 25.4999 33.9007 25.1389 32.9529 25.1494C32.0051 25.1599 31.099 25.5409 30.4286 26.211C29.7582 26.8811 29.3767 27.787 29.3657 28.7348C29.3548 29.6826 29.7153 30.5971 30.37 31.2825L30.5875 31.48Z" fill="#27AE60" stroke="#263238" stroke-width="0.316" stroke-linejoin="round"/>
<path d="M38.9625 31.6924L38.1575 29.0424L36.8675 31.9749H35.1875L34.575 33.6124L33.1125 30.3999L32.1975 32.1149H31.2225L35.875 36.7674L40.9525 31.6924H38.9625Z" fill="#27AE60" stroke="#263238" stroke-width="0.316" stroke-linejoin="round"/>
<path d="M18.8954 53.0399C18.8954 53.0399 18.6679 52.2899 17.9804 52.1249C17.2929 51.9599 15.8454 52.1999 15.6179 51.3624C15.3904 50.5249 16.4554 50.7524 16.2279 50.0649C16.0004 49.3774 14.3229 49.3799 13.9404 48.0824C13.5579 46.7849 14.0929 45.4149 15.0829 45.8724C16.0729 46.3299 16.5329 48.2349 16.9129 48.9974C17.2929 49.7599 17.2179 48.2349 18.2854 48.0824C19.3529 47.9299 20.4204 48.7699 19.7354 49.8324C19.0504 50.8949 19.0754 51.7299 19.2004 52.2724C19.2879 52.6499 19.3104 52.6199 19.3104 52.6199L18.8954 53.0399Z" fill="#27AE60" stroke="#263238" stroke-width="0.316" stroke-linejoin="round"/>
<path d="M15.0855 47.8449C14.8742 47.5378 14.7232 47.1934 14.6405 46.8299" stroke="#263238" stroke-width="0.316" stroke-miterlimit="10"/>
<path d="M19.1455 52.8599C18.9799 52.1942 18.6488 51.581 18.183 51.0774C17.3855 50.1849 16.353 49.5774 15.533 48.4949C15.4655 48.4074 15.4055 48.3249 15.348 48.2449" stroke="#263238" stroke-width="0.316" stroke-miterlimit="10"/>
<path d="M21.2878 51.7975C21.2878 51.7975 17.8028 52.495 17.8028 55.7975C17.8028 59.1 27.2103 65.5475 27.9078 64.3349C28.6053 63.1224 25.1803 55.8949 24.3078 54.335C23.4353 52.775 22.5003 51.6225 21.2878 51.7975Z" fill="white" stroke="#263238" stroke-width="0.316" stroke-miterlimit="10"/>
<path d="M18.8204 58.2224C18.8204 58.2224 20.0404 56.3924 21.1829 55.8599" stroke="#263238" stroke-width="0.316" stroke-miterlimit="10"/>
<path d="M24.918 56.3924C24.0646 56.7491 23.2879 57.2668 22.6305 57.9174" stroke="#263238" stroke-width="0.316" stroke-miterlimit="10"/>
<path d="M23.2503 62.0349C23.6227 61.1698 24.2646 60.4482 25.0803 59.9774" stroke="#263238" stroke-width="0.316" stroke-miterlimit="10"/>
<path d="M23.0128 54.7924L22.2503 55.25" stroke="#263238" stroke-width="0.316" stroke-miterlimit="10"/>
<path d="M26.1378 59.4424L25.6053 59.5949" stroke="#263238" stroke-width="0.316" stroke-miterlimit="10"/>
<path d="M24.9226 85.8575C28.0568 85.8575 30.5976 83.3167 30.5976 80.1825C30.5976 77.0483 28.0568 74.5075 24.9226 74.5075C21.7883 74.5075 19.2476 77.0483 19.2476 80.1825C19.2476 83.3167 21.7883 85.8575 24.9226 85.8575Z" fill="#27AE60" stroke="#263238" stroke-width="0.316" stroke-linecap="round" stroke-linejoin="round"/>
<path d="M26.3999 76.25C26.3999 77.22 25.5174 79.31 24.9224 79.31C24.3274 79.31 23.4449 77.22 23.4449 76.25C23.4449 75.28 24.3274 75 24.9224 75C25.5174 75 26.3999 75.275 26.3999 76.25Z" fill="white" stroke="#263238" stroke-width="0.316" stroke-linecap="round" stroke-linejoin="round"/>
<path d="M22.2499 76.9325C23.0899 77.4175 24.5474 79.015 24.2499 79.53C23.9524 80.045 21.6149 79.9775 20.7724 79.4925C19.9299 79.0075 20.1274 78.1 20.4249 77.585C20.7224 77.07 21.4124 76.4475 22.2499 76.9325Z" fill="white" stroke="#263238" stroke-width="0.316" stroke-linecap="round" stroke-linejoin="round"/>
<path d="M20.7725 80.87C21.6125 80.385 24.0225 79.96 24.3125 80.475C24.6025 80.99 23.0925 82.945 22.2525 83.43C21.4125 83.915 20.7225 83.295 20.425 82.78C20.1275 82.265 19.9325 81.355 20.7725 80.87Z" fill="white" stroke="#263238" stroke-width="0.316" stroke-linecap="round" stroke-linejoin="round"/>
<path d="M23.4449 84.12C23.4449 83.15 24.3274 80.785 24.9224 80.785C25.5174 80.785 26.3999 83.15 26.3999 84.12C26.3999 85.09 25.5174 85.37 24.9224 85.37C24.3274 85.37 23.4449 85.09 23.4449 84.12Z" fill="white" stroke="#263238" stroke-width="0.316" stroke-linecap="round" stroke-linejoin="round"/>
<path d="M27.5924 83.43C26.7524 82.945 25.3699 81.115 25.6699 80.6C25.9699 80.085 28.2299 80.385 29.0699 80.87C29.9099 81.355 29.7174 82.2625 29.4199 82.78C29.1224 83.2975 28.4324 83.915 27.5924 83.43Z" fill="white" stroke="#263238" stroke-width="0.316" stroke-linecap="round" stroke-linejoin="round"/>
<path d="M29.0725 79.5C28.23 79.985 25.9675 80.195 25.67 79.68C25.3725 79.165 26.7525 77.43 27.5925 76.93C28.4325 76.43 29.1225 77.0675 29.42 77.5825C29.7175 78.0975 29.9125 79 29.0725 79.5Z" fill="white" stroke="#263238" stroke-width="0.316" stroke-linecap="round" stroke-linejoin="round"/>
<path d="M108.375 99.86C108.375 99.86 108.585 99.0975 108.592 99.0475C108.672 98.4675 108.487 97.2975 107.897 97.0175C107.798 96.9728 107.691 96.9495 107.582 96.949C107.473 96.9486 107.366 96.971 107.266 97.0148C107.167 97.0587 107.078 97.123 107.005 97.2036C106.932 97.2842 106.876 97.3792 106.842 97.4825C106.685 97.9175 106.885 98.45 107.122 98.8175C107.402 99.25 108.375 99.86 108.375 99.86Z" fill="#263238"/>
<path d="M96.7498 99.6075C97.2198 99.8125 98.3698 99.7875 98.3698 99.7875C98.3698 99.7875 98.1198 99.0375 98.0998 98.99C97.8498 98.4625 97.0498 97.59 96.4023 97.6775C96.2949 97.6954 96.1925 97.7355 96.1016 97.7955C96.0108 97.8554 95.9335 97.9337 95.8748 98.0254C95.8161 98.1171 95.7774 98.22 95.761 98.3276C95.7446 98.4352 95.751 98.5451 95.7798 98.65C95.8873 99.1 96.3498 99.4325 96.7498 99.6075Z" fill="#263238"/>
<path d="M97.1475 102.938C97.6475 103.008 98.66 102.71 98.74 102.688C98.9088 103.274 99.1168 103.849 99.3625 104.408C99.505 104.735 99.6575 105.06 99.8125 105.383C99.72 105.248 99.635 105.133 99.6225 105.11C99.24 104.668 98.24 104.038 97.6375 104.293C97.5385 104.338 97.4501 104.404 97.3782 104.485C97.3062 104.567 97.2522 104.663 97.2197 104.767C97.1871 104.871 97.1768 104.981 97.1893 105.089C97.2019 105.197 97.237 105.301 97.2925 105.395C97.515 105.8 98.0425 106 98.4825 106.063C98.9225 106.125 99.8 105.89 100.032 105.825C100.092 105.948 100.152 106.075 100.215 106.195C100.512 106.788 100.81 107.375 101.087 107.963C101.185 108.17 101.272 108.378 101.36 108.583C101.277 108.463 101.207 108.36 101.195 108.345C100.812 107.903 99.8125 107.273 99.21 107.53C99.111 107.575 99.0227 107.641 98.9508 107.722C98.8788 107.804 98.8248 107.899 98.7923 108.003C98.7597 108.107 98.7494 108.216 98.7619 108.324C98.7744 108.432 98.8095 108.536 98.865 108.63C99.09 109.035 99.615 109.235 100.055 109.3C100.495 109.365 101.287 109.15 101.555 109.073C101.64 109.288 101.725 109.503 101.805 109.715C101.85 109.86 101.905 109.998 101.942 110.145C101.98 110.293 102.025 110.438 102.065 110.583C102.132 110.863 102.202 111.15 102.262 111.425C102.305 111.615 102.34 111.798 102.377 111.98C102.285 111.775 102.09 111.373 102.07 111.343C101.76 110.843 100.867 110.073 100.232 110.235C100.128 110.265 100.031 110.316 99.9482 110.386C99.8651 110.456 99.7978 110.543 99.7505 110.641C99.7033 110.738 99.6773 110.845 99.6742 110.953C99.6711 111.062 99.6909 111.17 99.7325 111.27C99.89 111.705 100.387 111.983 100.805 112.113C101.265 112.253 102.282 112.113 102.41 112.113C102.47 112.415 102.527 112.713 102.575 112.993C102.68 113.578 102.757 114.108 102.825 114.56H103.25C103.177 114.09 103.082 113.538 102.96 112.923C102.9 112.613 102.827 112.283 102.752 111.945C103.059 111.823 103.358 111.682 103.647 111.525C103.982 111.888 104.84 112.313 104.952 112.368C104.835 112.655 104.72 112.933 104.605 113.193C104.382 113.708 104.17 114.165 103.98 114.56H104.442C104.602 114.198 104.78 113.793 104.962 113.345C105.082 113.053 105.212 112.74 105.327 112.415C105.45 112.443 106.457 112.648 106.927 112.54C107.355 112.445 107.87 112.203 108.06 111.79C108.108 111.692 108.136 111.586 108.14 111.477C108.145 111.368 108.126 111.26 108.086 111.158C108.045 111.057 107.984 110.966 107.906 110.89C107.828 110.814 107.735 110.755 107.632 110.718C107.012 110.51 106.065 111.218 105.717 111.685C105.697 111.713 105.507 112.04 105.392 112.248C105.442 112.115 105.492 111.998 105.54 111.85C105.64 111.58 105.73 111.308 105.83 111.015C105.872 110.873 105.915 110.728 105.96 110.58C106.005 110.433 106.037 110.28 106.075 110.128C106.16 109.773 106.227 109.41 106.29 109.043C106.525 109.128 107.37 109.423 107.807 109.393C108.245 109.363 108.79 109.2 109.042 108.813C109.106 108.724 109.149 108.624 109.171 108.517C109.193 108.411 109.192 108.301 109.168 108.196C109.144 108.09 109.099 107.99 109.034 107.903C108.969 107.816 108.887 107.743 108.792 107.69C108.21 107.39 107.167 107.94 106.752 108.355C106.727 108.383 106.462 108.71 106.32 108.895C106.355 108.673 106.392 108.453 106.42 108.228C106.5 107.578 106.562 106.918 106.625 106.26C106.645 106.06 106.667 105.86 106.687 105.658C106.772 105.69 107.77 106.06 108.26 106.025C108.695 105.995 109.24 105.835 109.492 105.448C109.556 105.359 109.599 105.259 109.621 105.152C109.643 105.046 109.642 104.936 109.618 104.831C109.594 104.725 109.549 104.625 109.484 104.538C109.419 104.451 109.337 104.378 109.242 104.325C108.66 104.025 107.617 104.575 107.202 104.99C107.172 105.023 106.792 105.49 106.702 105.62C106.75 105.18 106.8 104.738 106.867 104.308C106.955 103.723 107.081 103.145 107.245 102.578C107.282 102.593 108.322 102.985 108.825 102.948C109.26 102.918 109.805 102.758 110.057 102.37C110.121 102.282 110.164 102.181 110.186 102.075C110.208 101.969 110.207 101.859 110.183 101.753C110.159 101.647 110.114 101.547 110.049 101.46C109.984 101.373 109.902 101.301 109.807 101.248C109.225 100.948 108.182 101.498 107.767 101.913C107.74 101.94 107.452 102.3 107.317 102.475L107.285 102.458C107.464 101.891 107.694 101.342 107.972 100.818C108.12 100.525 108.28 100.255 108.44 99.9951C108.625 100.088 109.48 100.495 109.94 100.523C110.4 100.55 110.94 100.44 111.23 100.083C111.302 100.001 111.356 99.905 111.388 99.8012C111.42 99.6974 111.43 99.5879 111.418 99.48C111.405 99.372 111.37 99.2679 111.314 99.1744C111.258 99.081 111.184 99.0003 111.095 98.9375C110.55 98.575 109.452 99.01 108.995 99.375C108.97 99.395 108.745 99.6251 108.575 99.7926C108.647 99.6776 108.722 99.5576 108.795 99.4476C109.07 99.0351 109.345 98.6726 109.592 98.3551C109.735 98.1776 109.867 98.0176 109.992 97.8701C110.222 97.8701 111.147 97.8375 111.555 97.6475C111.962 97.4575 112.4 97.115 112.497 96.6625C112.523 96.5569 112.527 96.4471 112.508 96.3401C112.488 96.233 112.447 96.1312 112.386 96.0412C112.325 95.9512 112.246 95.875 112.153 95.8176C112.061 95.7601 111.958 95.7226 111.85 95.7075C111.197 95.6375 110.425 96.5301 110.185 97.0651C110.165 97.1101 109.935 97.8701 109.935 97.8701H109.947C109.825 98.0101 109.697 98.1601 109.555 98.3301C109.305 98.6426 109.015 98.9975 108.732 99.405C108.42 99.8416 108.135 100.297 107.877 100.768C107.586 101.292 107.342 101.84 107.147 102.408C107.147 102.408 107.147 102.423 107.147 102.43C107.147 102.238 107.147 101.7 107.147 101.66C107.072 101.08 106.585 100.003 105.942 99.8851C105.833 99.8606 105.719 99.8603 105.609 99.8843C105.499 99.9083 105.395 99.956 105.305 100.024C105.216 100.092 105.142 100.179 105.089 100.278C105.036 100.378 105.006 100.488 105 100.6C104.962 101.063 105.297 101.523 105.622 101.813C105.99 102.143 107.01 102.46 107.09 102.485C106.907 103.067 106.764 103.661 106.66 104.263C106.597 104.613 106.545 104.968 106.497 105.325C106.497 105.16 106.497 105.01 106.497 104.99C106.422 104.41 105.935 103.333 105.292 103.215C105.185 103.198 105.075 103.204 104.97 103.232C104.865 103.26 104.767 103.311 104.683 103.379C104.598 103.448 104.529 103.533 104.48 103.63C104.431 103.728 104.403 103.834 104.397 103.943C104.36 104.405 104.695 104.865 105.02 105.158C105.345 105.45 106.215 105.74 106.442 105.813C106.427 105.95 106.407 106.088 106.392 106.223C106.312 106.88 106.237 107.538 106.142 108.178C106.11 108.405 106.067 108.625 106.027 108.848C106.027 108.7 106.027 108.575 106.027 108.558C105.952 107.978 105.467 106.9 104.822 106.783C104.715 106.766 104.605 106.771 104.5 106.8C104.395 106.828 104.297 106.878 104.213 106.947C104.128 107.015 104.059 107.101 104.01 107.198C103.961 107.295 103.933 107.401 103.927 107.51C103.89 107.97 104.225 108.433 104.55 108.723C104.875 109.013 105.66 109.278 105.932 109.368C105.885 109.593 105.837 109.818 105.782 110.035C105.74 110.183 105.71 110.328 105.66 110.473C105.61 110.618 105.567 110.76 105.52 110.903C105.422 111.173 105.322 111.453 105.22 111.715C105.15 111.895 105.08 112.068 105.01 112.243C105.045 112.018 105.105 111.578 105.105 111.54C105.099 111.025 104.96 110.521 104.702 110.075C104.708 110.018 104.708 109.962 104.702 109.905C104.689 109.797 104.653 109.693 104.596 109.6C104.54 109.507 104.465 109.427 104.375 109.365C104.286 109.303 104.185 109.26 104.078 109.24C103.971 109.22 103.861 109.222 103.755 109.248C103.122 109.415 102.72 110.525 102.69 111.11C102.69 111.145 102.71 111.52 102.73 111.758C102.697 111.62 102.667 111.485 102.632 111.345C102.567 111.065 102.492 110.788 102.412 110.488C102.37 110.345 102.327 110.2 102.282 110.055C102.237 109.91 102.18 109.763 102.13 109.613C102.005 109.27 101.86 108.93 101.71 108.59C101.96 108.53 102.82 108.31 103.17 108.043C103.52 107.775 103.882 107.343 103.88 106.88C103.883 106.771 103.863 106.663 103.821 106.563C103.779 106.462 103.717 106.372 103.638 106.297C103.559 106.222 103.465 106.165 103.362 106.129C103.26 106.093 103.151 106.079 103.042 106.088C102.392 106.158 101.827 107.195 101.707 107.768C101.707 107.803 101.662 108.223 101.645 108.455C101.552 108.25 101.46 108.048 101.36 107.845C101.07 107.258 100.755 106.675 100.447 106.095L100.167 105.558C100.252 105.538 101.29 105.308 101.68 104.998C102.025 104.733 102.392 104.298 102.39 103.835C102.393 103.726 102.373 103.618 102.332 103.517C102.29 103.417 102.228 103.326 102.149 103.251C102.07 103.176 101.976 103.119 101.873 103.083C101.77 103.047 101.661 103.033 101.552 103.043C100.902 103.113 100.337 104.15 100.22 104.723C100.22 104.765 100.155 105.37 100.15 105.525C99.945 105.13 99.7425 104.735 99.5625 104.338C99.3131 103.802 99.0993 103.251 98.9225 102.688C98.9625 102.688 100.045 102.438 100.445 102.125C100.792 101.86 101.16 101.425 101.155 100.963C101.158 100.854 101.138 100.746 101.096 100.645C101.054 100.544 100.992 100.454 100.913 100.379C100.834 100.304 100.74 100.246 100.638 100.21C100.535 100.174 100.426 100.159 100.317 100.168C99.6675 100.24 99.1025 101.278 98.985 101.85C98.985 101.888 98.935 102.35 98.92 102.568H98.8825C98.7203 101.995 98.609 101.41 98.55 100.818C98.5125 100.493 98.495 100.18 98.4875 99.875C98.6925 99.85 99.635 99.7251 100.025 99.4876C100.415 99.2501 100.81 98.8701 100.857 98.4101C100.873 98.3018 100.865 98.1916 100.834 98.0867C100.804 97.9818 100.751 97.8845 100.68 97.8013C100.61 97.7181 100.522 97.651 100.423 97.6042C100.324 97.5574 100.217 97.5322 100.107 97.53C99.455 97.53 98.7775 98.4975 98.6075 99.0525C98.6075 99.085 98.5325 99.4026 98.4875 99.6351C98.4875 99.4976 98.4875 99.3551 98.4875 99.2226C98.4875 98.7226 98.52 98.275 98.55 97.8725C98.57 97.645 98.5925 97.44 98.615 97.2475C98.805 97.1175 99.56 96.5825 99.795 96.2C100.03 95.8175 100.207 95.29 100.045 94.86C100.009 94.7573 99.9512 94.6634 99.8761 94.5844C99.8011 94.5054 99.7102 94.4431 99.6095 94.4016C99.5088 94.36 99.4004 94.3402 99.2915 94.3434C99.1826 94.3466 99.0756 94.3727 98.9775 94.42C98.3975 94.7225 98.2425 95.8926 98.34 96.4701C98.34 96.5201 98.5675 97.285 98.5775 97.2775H98.59C98.565 97.4625 98.5375 97.6601 98.515 97.8776C98.475 98.2776 98.435 98.7326 98.4225 99.2301C98.4045 99.7653 98.417 100.301 98.46 100.835C98.507 101.433 98.6066 102.027 98.7575 102.608V102.628C98.655 102.465 98.35 102.023 98.325 101.993C97.9425 101.55 96.9425 100.92 96.34 101.175C96.241 101.22 96.1526 101.286 96.0807 101.368C96.0087 101.45 95.9547 101.546 95.9222 101.65C95.8896 101.753 95.8793 101.863 95.8918 101.971C95.9044 102.079 95.9395 102.184 95.995 102.278C96.18 102.675 96.715 102.875 97.1475 102.938Z" fill="#263238"/>
<path opacity="0.3" d="M96.7498 99.6075C97.2198 99.8125 98.3698 99.7875 98.3698 99.7875C98.3698 99.7875 98.1198 99.0375 98.0998 98.99C97.8498 98.4625 97.0498 97.59 96.4023 97.6775C96.2949 97.6954 96.1925 97.7355 96.1016 97.7955C96.0108 97.8554 95.9335 97.9337 95.8748 98.0254C95.8161 98.1171 95.7774 98.22 95.761 98.3276C95.7446 98.4352 95.751 98.5451 95.7798 98.65C95.8873 99.1 96.3498 99.4325 96.7498 99.6075Z" fill="#263238"/>
<path opacity="0.3" d="M108.375 99.86C108.375 99.86 108.585 99.0975 108.592 99.0475C108.672 98.4675 108.487 97.2975 107.897 97.0175C107.798 96.9728 107.691 96.9495 107.582 96.949C107.473 96.9486 107.366 96.971 107.266 97.0148C107.167 97.0587 107.078 97.123 107.005 97.2036C106.932 97.2842 106.876 97.3792 106.842 97.4825C106.685 97.9175 106.885 98.45 107.122 98.8175C107.402 99.25 108.375 99.86 108.375 99.86Z" fill="#263238"/>
<path opacity="0.3" d="M97.1475 102.938C97.6475 103.008 98.66 102.71 98.74 102.688C98.9088 103.274 99.1168 103.849 99.3625 104.408C99.505 104.735 99.6575 105.06 99.8125 105.383C99.72 105.248 99.635 105.133 99.6225 105.11C99.24 104.668 98.24 104.038 97.6375 104.293C97.5385 104.338 97.4501 104.404 97.3782 104.485C97.3062 104.567 97.2522 104.663 97.2197 104.767C97.1871 104.871 97.1768 104.981 97.1893 105.089C97.2019 105.197 97.237 105.301 97.2925 105.395C97.515 105.8 98.0425 106 98.4825 106.063C98.9225 106.125 99.8 105.89 100.032 105.825C100.092 105.948 100.152 106.075 100.215 106.195C100.512 106.788 100.81 107.375 101.087 107.963C101.185 108.17 101.272 108.378 101.36 108.583C101.277 108.463 101.207 108.36 101.195 108.345C100.812 107.903 99.8125 107.273 99.21 107.53C99.111 107.575 99.0227 107.641 98.9508 107.722C98.8788 107.804 98.8248 107.899 98.7923 108.003C98.7597 108.107 98.7494 108.216 98.7619 108.324C98.7744 108.432 98.8095 108.536 98.865 108.63C99.09 109.035 99.615 109.235 100.055 109.3C100.495 109.365 101.287 109.15 101.555 109.073C101.64 109.288 101.725 109.503 101.805 109.715C101.85 109.86 101.905 109.998 101.942 110.145C101.98 110.293 102.025 110.438 102.065 110.583C102.132 110.863 102.202 111.15 102.262 111.425C102.305 111.615 102.34 111.798 102.377 111.98C102.285 111.775 102.09 111.373 102.07 111.343C101.76 110.843 100.867 110.073 100.232 110.235C100.128 110.265 100.031 110.316 99.9482 110.386C99.8651 110.456 99.7978 110.543 99.7505 110.641C99.7033 110.738 99.6773 110.845 99.6742 110.953C99.6711 111.062 99.6909 111.17 99.7325 111.27C99.89 111.705 100.387 111.983 100.805 112.113C101.265 112.253 102.282 112.113 102.41 112.113C102.47 112.415 102.527 112.713 102.575 112.993C102.68 113.578 102.757 114.108 102.825 114.56H103.25C103.177 114.09 103.082 113.538 102.96 112.923C102.9 112.613 102.827 112.283 102.752 111.945C103.059 111.823 103.358 111.682 103.647 111.525C103.982 111.888 104.84 112.313 104.952 112.368C104.835 112.655 104.72 112.933 104.605 113.193C104.382 113.708 104.17 114.165 103.98 114.56H104.442C104.602 114.198 104.78 113.793 104.962 113.345C105.082 113.053 105.212 112.74 105.327 112.415C105.45 112.443 106.457 112.648 106.927 112.54C107.355 112.445 107.87 112.203 108.06 111.79C108.108 111.692 108.136 111.586 108.14 111.477C108.145 111.368 108.126 111.26 108.086 111.158C108.045 111.057 107.984 110.966 107.906 110.89C107.828 110.814 107.735 110.755 107.632 110.718C107.012 110.51 106.065 111.218 105.717 111.685C105.697 111.713 105.507 112.04 105.392 112.248C105.442 112.115 105.492 111.998 105.54 111.85C105.64 111.58 105.73 111.308 105.83 111.015C105.872 110.873 105.915 110.728 105.96 110.58C106.005 110.433 106.037 110.28 106.075 110.128C106.16 109.773 106.227 109.41 106.29 109.043C106.525 109.128 107.37 109.423 107.807 109.393C108.245 109.363 108.79 109.2 109.042 108.813C109.106 108.724 109.149 108.624 109.171 108.517C109.193 108.411 109.192 108.301 109.168 108.196C109.144 108.09 109.099 107.99 109.034 107.903C108.969 107.816 108.887 107.743 108.792 107.69C108.21 107.39 107.167 107.94 106.752 108.355C106.727 108.383 106.462 108.71 106.32 108.895C106.355 108.673 106.392 108.453 106.42 108.228C106.5 107.578 106.562 106.918 106.625 106.26C106.645 106.06 106.667 105.86 106.687 105.658C106.772 105.69 107.77 106.06 108.26 106.025C108.695 105.995 109.24 105.835 109.492 105.448C109.556 105.359 109.599 105.259 109.621 105.152C109.643 105.046 109.642 104.936 109.618 104.831C109.594 104.725 109.549 104.625 109.484 104.538C109.419 104.451 109.337 104.378 109.242 104.325C108.66 104.025 107.617 104.575 107.202 104.99C107.172 105.023 106.792 105.49 106.702 105.62C106.75 105.18 106.8 104.738 106.867 104.308C106.955 103.723 107.081 103.145 107.245 102.578C107.282 102.593 108.322 102.985 108.825 102.948C109.26 102.918 109.805 102.758 110.057 102.37C110.121 102.282 110.164 102.181 110.186 102.075C110.208 101.969 110.207 101.859 110.183 101.753C110.159 101.647 110.114 101.547 110.049 101.46C109.984 101.373 109.902 101.301 109.807 101.248C109.225 100.948 108.182 101.498 107.767 101.913C107.74 101.94 107.452 102.3 107.317 102.475L107.285 102.458C107.464 101.891 107.694 101.342 107.972 100.818C108.12 100.525 108.28 100.255 108.44 99.9951C108.625 100.088 109.48 100.495 109.94 100.523C110.4 100.55 110.94 100.44 111.23 100.083C111.302 100.001 111.356 99.905 111.388 99.8012C111.42 99.6974 111.43 99.5879 111.418 99.48C111.405 99.372 111.37 99.2679 111.314 99.1744C111.258 99.081 111.184 99.0003 111.095 98.9375C110.55 98.575 109.452 99.01 108.995 99.375C108.97 99.395 108.745 99.6251 108.575 99.7926C108.647 99.6776 108.722 99.5576 108.795 99.4476C109.07 99.0351 109.345 98.6726 109.592 98.3551C109.735 98.1776 109.867 98.0176 109.992 97.8701C110.222 97.8701 111.147 97.8375 111.555 97.6475C111.962 97.4575 112.4 97.115 112.497 96.6625C112.523 96.5569 112.527 96.4471 112.508 96.3401C112.488 96.233 112.447 96.1312 112.386 96.0412C112.325 95.9512 112.246 95.875 112.153 95.8176C112.061 95.7601 111.958 95.7226 111.85 95.7075C111.197 95.6375 110.425 96.5301 110.185 97.0651C110.165 97.1101 109.935 97.8701 109.935 97.8701H109.947C109.825 98.0101 109.697 98.1601 109.555 98.3301C109.305 98.6426 109.015 98.9975 108.732 99.405C108.42 99.8416 108.135 100.297 107.877 100.768C107.586 101.292 107.342 101.84 107.147 102.408C107.147 102.408 107.147 102.423 107.147 102.43C107.147 102.238 107.147 101.7 107.147 101.66C107.072 101.08 106.585 100.003 105.942 99.8851C105.833 99.8606 105.719 99.8603 105.609 99.8843C105.499 99.9083 105.395 99.956 105.305 100.024C105.216 100.092 105.142 100.179 105.089 100.278C105.036 100.378 105.006 100.488 105 100.6C104.962 101.063 105.297 101.523 105.622 101.813C105.99 102.143 107.01 102.46 107.09 102.485C106.907 103.067 106.764 103.661 106.66 104.263C106.597 104.613 106.545 104.968 106.497 105.325C106.497 105.16 106.497 105.01 106.497 104.99C106.422 104.41 105.935 103.333 105.292 103.215C105.185 103.198 105.075 103.204 104.97 103.232C104.865 103.26 104.767 103.311 104.683 103.379C104.598 103.448 104.529 103.533 104.48 103.63C104.431 103.728 104.403 103.834 104.397 103.943C104.36 104.405 104.695 104.865 105.02 105.158C105.345 105.45 106.215 105.74 106.442 105.813C106.427 105.95 106.407 106.088 106.392 106.223C106.312 106.88 106.237 107.538 106.142 108.178C106.11 108.405 106.067 108.625 106.027 108.848C106.027 108.7 106.027 108.575 106.027 108.558C105.952 107.978 105.467 106.9 104.822 106.783C104.715 106.766 104.605 106.771 104.5 106.8C104.395 106.828 104.297 106.878 104.213 106.947C104.128 107.015 104.059 107.101 104.01 107.198C103.961 107.295 103.933 107.401 103.927 107.51C103.89 107.97 104.225 108.433 104.55 108.723C104.875 109.013 105.66 109.278 105.932 109.368C105.885 109.593 105.837 109.818 105.782 110.035C105.74 110.183 105.71 110.328 105.66 110.473C105.61 110.618 105.567 110.76 105.52 110.903C105.422 111.173 105.322 111.453 105.22 111.715C105.15 111.895 105.08 112.068 105.01 112.243C105.045 112.018 105.105 111.578 105.105 111.54C105.099 111.025 104.96 110.521 104.702 110.075C104.708 110.018 104.708 109.962 104.702 109.905C104.689 109.797 104.653 109.693 104.596 109.6C104.54 109.507 104.465 109.427 104.375 109.365C104.286 109.303 104.185 109.26 104.078 109.24C103.971 109.22 103.861 109.222 103.755 109.248C103.122 109.415 102.72 110.525 102.69 111.11C102.69 111.145 102.71 111.52 102.73 111.758C102.697 111.62 102.667 111.485 102.632 111.345C102.567 111.065 102.492 110.788 102.412 110.488C102.37 110.345 102.327 110.2 102.282 110.055C102.237 109.91 102.18 109.763 102.13 109.613C102.005 109.27 101.86 108.93 101.71 108.59C101.96 108.53 102.82 108.31 103.17 108.043C103.52 107.775 103.882 107.343 103.88 106.88C103.883 106.771 103.863 106.663 103.821 106.563C103.779 106.462 103.717 106.372 103.638 106.297C103.559 106.222 103.465 106.165 103.362 106.129C103.26 106.093 103.151 106.079 103.042 106.088C102.392 106.158 101.827 107.195 101.707 107.768C101.707 107.803 101.662 108.223 101.645 108.455C101.552 108.25 101.46 108.048 101.36 107.845C101.07 107.258 100.755 106.675 100.447 106.095L100.167 105.558C100.252 105.538 101.29 105.308 101.68 104.998C102.025 104.733 102.392 104.298 102.39 103.835C102.393 103.726 102.373 103.618 102.332 103.517C102.29 103.417 102.228 103.326 102.149 103.251C102.07 103.176 101.976 103.119 101.873 103.083C101.77 103.047 101.661 103.033 101.552 103.043C100.902 103.113 100.337 104.15 100.22 104.723C100.22 104.765 100.155 105.37 100.15 105.525C99.945 105.13 99.7425 104.735 99.5625 104.338C99.3131 103.802 99.0993 103.251 98.9225 102.688C98.9625 102.688 100.045 102.438 100.445 102.125C100.792 101.86 101.16 101.425 101.155 100.963C101.158 100.854 101.138 100.746 101.096 100.645C101.054 100.544 100.992 100.454 100.913 100.379C100.834 100.304 100.74 100.246 100.638 100.21C100.535 100.174 100.426 100.159 100.317 100.168C99.6675 100.24 99.1025 101.278 98.985 101.85C98.985 101.888 98.935 102.35 98.92 102.568H98.8825C98.7203 101.995 98.609 101.41 98.55 100.818C98.5125 100.493 98.495 100.18 98.4875 99.875C98.6925 99.85 99.635 99.7251 100.025 99.4876C100.415 99.2501 100.81 98.8701 100.857 98.4101C100.873 98.3018 100.865 98.1916 100.834 98.0867C100.804 97.9818 100.751 97.8845 100.68 97.8013C100.61 97.7181 100.522 97.651 100.423 97.6042C100.324 97.5574 100.217 97.5322 100.107 97.53C99.455 97.53 98.7775 98.4975 98.6075 99.0525C98.6075 99.085 98.5325 99.4026 98.4875 99.6351C98.4875 99.4976 98.4875 99.3551 98.4875 99.2226C98.4875 98.7226 98.52 98.275 98.55 97.8725C98.57 97.645 98.5925 97.44 98.615 97.2475C98.805 97.1175 99.56 96.5825 99.795 96.2C100.03 95.8175 100.207 95.29 100.045 94.86C100.009 94.7573 99.9512 94.6634 99.8761 94.5844C99.8011 94.5054 99.7102 94.4431 99.6095 94.4016C99.5088 94.36 99.4004 94.3402 99.2915 94.3434C99.1826 94.3466 99.0756 94.3727 98.9775 94.42C98.3975 94.7225 98.2425 95.8926 98.34 96.4701C98.34 96.5201 98.5675 97.285 98.5775 97.2775H98.59C98.565 97.4625 98.5375 97.6601 98.515 97.8776C98.475 98.2776 98.435 98.7326 98.4225 99.2301C98.4045 99.7653 98.417 100.301 98.46 100.835C98.507 101.433 98.6066 102.027 98.7575 102.608V102.628C98.655 102.465 98.35 102.023 98.325 101.993C97.9425 101.55 96.9425 100.92 96.34 101.175C96.241 101.22 96.1526 101.286 96.0807 101.368C96.0087 101.45 95.9547 101.546 95.9222 101.65C95.8896 101.753 95.8793 101.863 95.8918 101.971C95.9044 102.079 95.9395 102.184 95.995 102.278C96.18 102.675 96.715 102.875 97.1475 102.938Z" fill="#263238"/>
<path d="M28.6523 99.86C28.6523 99.86 28.8623 99.0975 28.8698 99.0475C28.9498 98.4675 28.7648 97.2975 28.1748 97.0175C28.0756 96.9728 27.9682 96.9495 27.8595 96.949C27.7507 96.9486 27.6431 96.971 27.5436 97.0148C27.4441 97.0587 27.3549 97.123 27.2819 97.2036C27.2089 97.2842 27.1536 97.3792 27.1198 97.4825C26.9623 97.9175 27.1623 98.45 27.3998 98.8175C27.6798 99.25 28.6523 99.86 28.6523 99.86Z" fill="#263238"/>
<path d="M17.0274 99.6075C17.4974 99.8125 18.6449 99.7875 18.6474 99.7875C18.6499 99.7875 18.3974 99.0375 18.3774 98.99C18.1274 98.4625 17.3274 97.59 16.6799 97.6775C16.5725 97.6954 16.4701 97.7355 16.3792 97.7955C16.2883 97.8554 16.2111 97.9337 16.1524 98.0254C16.0937 98.1171 16.0549 98.22 16.0386 98.3276C16.0222 98.4352 16.0286 98.5451 16.0574 98.65C16.1649 99.1 16.6274 99.4325 17.0274 99.6075Z" fill="#263238"/>
<path d="M17.4224 102.938C17.9224 103.008 18.9374 102.71 19.0174 102.688C19.1863 103.274 19.3942 103.849 19.6399 104.408C19.7816 104.741 19.9316 105.066 20.0899 105.383C19.9974 105.248 19.9124 105.133 19.8974 105.11C19.5149 104.668 18.5174 104.038 17.9149 104.293C17.8159 104.338 17.7275 104.404 17.6556 104.485C17.5836 104.567 17.5296 104.663 17.4971 104.767C17.4645 104.871 17.4542 104.981 17.4668 105.089C17.4793 105.197 17.5144 105.301 17.5699 105.395C17.7924 105.8 18.3199 106 18.7574 106.063C19.1949 106.125 20.0774 105.89 20.3099 105.825C20.3699 105.948 20.4299 106.075 20.4924 106.195C20.7899 106.788 21.0874 107.375 21.3624 107.963C21.4599 108.17 21.5499 108.378 21.6374 108.583C21.5549 108.463 21.4824 108.36 21.4699 108.345C21.0874 107.903 20.0899 107.273 19.4874 107.53C19.3885 107.575 19.3002 107.641 19.2282 107.722C19.1562 107.804 19.1022 107.899 19.0697 108.003C19.0372 108.107 19.0268 108.216 19.0393 108.324C19.0519 108.432 19.087 108.537 19.1424 108.63C19.3649 109.035 19.8924 109.235 20.3299 109.3C20.7674 109.365 21.5624 109.15 21.8299 109.073C21.9149 109.288 21.9999 109.503 22.0799 109.715C22.1249 109.86 22.1799 109.998 22.2174 110.145C22.2549 110.293 22.2999 110.438 22.3399 110.583C22.4074 110.863 22.4774 111.15 22.5374 111.425C22.5799 111.615 22.6149 111.798 22.6524 111.98C22.5574 111.775 22.3649 111.373 22.3449 111.343C22.0349 110.843 21.1424 110.073 20.5074 110.235C20.4035 110.266 20.3071 110.317 20.2245 110.387C20.1418 110.458 20.0748 110.544 20.0277 110.642C19.9806 110.739 19.9544 110.845 19.9509 110.954C19.9474 111.062 19.9667 111.17 20.0074 111.27C20.1674 111.705 20.6649 111.983 21.0824 112.113C21.5424 112.253 22.5599 112.113 22.6874 112.113C22.7474 112.415 22.8049 112.713 22.8524 112.993C22.9549 113.578 23.0349 114.108 23.1024 114.56H23.5299C23.4549 114.09 23.3624 113.538 23.2399 112.923C23.1774 112.613 23.1074 112.283 23.0324 111.945C23.3387 111.823 23.6375 111.682 23.9274 111.525C24.2624 111.888 25.1199 112.313 25.2324 112.368C25.1149 112.655 24.9974 112.933 24.8849 113.193C24.6624 113.708 24.4499 114.165 24.2599 114.56H24.7224C24.8824 114.198 25.0599 113.793 25.2424 113.345C25.3624 113.053 25.4924 112.74 25.6074 112.415C25.7299 112.443 26.7374 112.648 27.2074 112.54C27.6324 112.445 28.1499 112.203 28.3399 111.79C28.3884 111.692 28.4157 111.586 28.4202 111.477C28.4246 111.368 28.4061 111.26 28.3657 111.158C28.3254 111.057 28.2642 110.966 28.186 110.89C28.1079 110.814 28.0147 110.755 27.9124 110.718C27.2924 110.51 26.3449 111.218 25.9974 111.685C25.9774 111.713 25.7874 112.04 25.6724 112.248C25.7224 112.115 25.7724 111.998 25.8199 111.85C25.9199 111.58 26.0099 111.308 26.1099 111.015C26.1524 110.873 26.1949 110.728 26.2399 110.58C26.2849 110.433 26.3149 110.28 26.3549 110.128C26.4399 109.773 26.5074 109.41 26.5699 109.043C26.8049 109.128 27.6499 109.423 28.0874 109.393C28.5249 109.363 29.0699 109.2 29.3224 108.813C29.3855 108.724 29.4292 108.624 29.4508 108.517C29.4725 108.411 29.4715 108.301 29.4479 108.196C29.4243 108.09 29.3787 107.99 29.314 107.903C29.2493 107.816 29.167 107.743 29.0724 107.69C28.4899 107.39 27.4474 107.94 27.0324 108.355C27.0074 108.383 26.7424 108.71 26.5999 108.895C26.6349 108.673 26.6724 108.453 26.6999 108.228C26.7799 107.578 26.8399 106.918 26.9049 106.26C26.9249 106.06 26.9474 105.86 26.9674 105.658C27.0524 105.69 28.0474 106.06 28.5374 106.025C28.9749 105.995 29.5199 105.835 29.7724 105.448C29.8355 105.359 29.8792 105.259 29.9008 105.152C29.9225 105.046 29.9215 104.936 29.8979 104.831C29.8743 104.725 29.8287 104.625 29.764 104.538C29.6993 104.451 29.617 104.378 29.5224 104.325C28.9399 104.025 27.8974 104.575 27.4824 104.99C27.4524 105.023 27.0724 105.49 26.9824 105.62C27.0274 105.18 27.0799 104.738 27.1474 104.308C27.235 103.723 27.3611 103.145 27.5249 102.578C27.5624 102.593 28.6024 102.985 29.1049 102.948C29.5399 102.918 30.0849 102.758 30.3374 102.37C30.4005 102.282 30.4442 102.181 30.4658 102.075C30.4875 101.969 30.4865 101.859 30.4629 101.753C30.4393 101.647 30.3937 101.547 30.329 101.46C30.2643 101.373 30.182 101.301 30.0874 101.248C29.5049 100.948 28.4624 101.498 28.0474 101.913C28.0199 101.94 27.7324 102.3 27.5974 102.475L27.5649 102.458C27.7439 101.891 27.9741 101.342 28.2524 100.818C28.3999 100.525 28.5599 100.255 28.7199 99.9951C28.9049 100.088 29.7599 100.495 30.2199 100.523C30.6799 100.55 31.2199 100.44 31.5099 100.083C31.5817 100.001 31.6355 99.9051 31.6679 99.8012C31.7002 99.6974 31.7104 99.588 31.6976 99.48C31.6849 99.372 31.6496 99.2679 31.594 99.1744C31.5384 99.081 31.4637 99.0003 31.3749 98.9376C30.8299 98.5751 29.7324 99.0101 29.2749 99.3751C29.2499 99.3951 29.0249 99.6251 28.8524 99.7926L29.0749 99.4476C29.3499 99.0351 29.6249 98.6726 29.8724 98.3551C30.0149 98.1776 30.1474 98.0176 30.2724 97.8701C30.5024 97.8701 31.4274 97.8376 31.8324 97.6476C32.2374 97.4576 32.6799 97.1151 32.7774 96.6626C32.8033 96.5568 32.8066 96.4467 32.7872 96.3395C32.7678 96.2324 32.7262 96.1305 32.6649 96.0404C32.6036 95.9504 32.5241 95.8742 32.4315 95.8169C32.3389 95.7595 32.2353 95.7223 32.1274 95.7076C31.4774 95.6376 30.7049 96.5301 30.4649 97.0651C30.4449 97.1101 30.2149 97.8701 30.2149 97.8701C30.0924 98.0101 29.9649 98.1601 29.8224 98.3301C29.5724 98.6426 29.2824 98.9976 28.9974 99.4051C28.687 99.8423 28.4024 100.297 28.1449 100.768C27.8535 101.292 27.6092 101.84 27.4149 102.408C27.4149 102.408 27.4149 102.423 27.4149 102.43C27.4149 102.238 27.4149 101.7 27.4149 101.66C27.3399 101.08 26.8524 100.003 26.2099 99.8851C26.1024 99.8681 25.9926 99.8739 25.8875 99.9022C25.7825 99.9305 25.6845 99.9805 25.6001 100.049C25.5157 100.118 25.4467 100.203 25.3975 100.301C25.3484 100.398 25.3202 100.504 25.3149 100.613C25.2774 101.075 25.6124 101.535 25.9374 101.825C26.3049 102.155 27.3249 102.473 27.4049 102.498C27.2211 103.08 27.0775 103.673 26.9749 104.275C26.9124 104.625 26.8599 104.98 26.8124 105.338C26.8124 105.173 26.8124 105.023 26.8124 105.003C26.7374 104.423 26.2524 103.345 25.6074 103.228C25.5001 103.211 25.3905 103.217 25.2858 103.246C25.181 103.274 25.0834 103.324 24.9993 103.393C24.9151 103.461 24.8463 103.547 24.7973 103.644C24.7484 103.741 24.7203 103.847 24.7149 103.955C24.6774 104.418 25.0099 104.878 25.3374 105.17C25.6649 105.463 26.5299 105.753 26.7599 105.825C26.7449 105.963 26.7249 106.1 26.7099 106.235C26.6299 106.893 26.5549 107.55 26.4599 108.19C26.4249 108.418 26.3849 108.638 26.3449 108.86C26.3449 108.713 26.3449 108.588 26.3449 108.57C26.2699 107.99 25.7824 106.913 25.1399 106.795C25.0301 106.769 24.9159 106.767 24.8053 106.79C24.6948 106.812 24.5905 106.859 24.4998 106.926C24.409 106.993 24.3341 107.079 24.2801 107.179C24.2262 107.278 24.1945 107.387 24.1874 107.5C24.1499 107.96 24.4849 108.423 24.8099 108.713C25.1349 109.003 25.9199 109.268 26.1924 109.358C26.1449 109.583 26.0974 109.808 26.0424 110.025C25.9999 110.173 25.9699 110.318 25.9199 110.463C25.8699 110.608 25.8249 110.75 25.7799 110.893C25.6824 111.163 25.5824 111.443 25.4799 111.705C25.4099 111.885 25.3399 112.058 25.2699 112.233C25.3049 112.008 25.3649 111.568 25.3649 111.53C25.3586 111.015 25.22 110.511 24.9624 110.065C24.9674 110.009 24.9674 109.952 24.9624 109.895C24.9475 109.787 24.9099 109.683 24.8519 109.59C24.7939 109.497 24.7169 109.417 24.626 109.356C24.5351 109.295 24.4322 109.254 24.3243 109.236C24.2164 109.218 24.1058 109.223 23.9999 109.25C23.3649 109.418 22.9649 110.528 22.9349 111.113C22.9349 111.148 22.9549 111.523 22.9749 111.76C22.9424 111.623 22.9124 111.488 22.8774 111.348C22.8124 111.068 22.7374 110.79 22.6574 110.49C22.6149 110.348 22.5724 110.203 22.5274 110.058C22.4824 109.913 22.4249 109.765 22.3749 109.615C22.2499 109.273 22.1049 108.933 21.9524 108.593C22.2024 108.533 23.0649 108.313 23.4124 108.045C23.7599 107.778 24.1274 107.345 24.1249 106.883C24.1277 106.774 24.1076 106.666 24.0659 106.565C24.0242 106.465 23.9618 106.374 23.8828 106.3C23.8038 106.225 23.71 106.168 23.6074 106.131C23.5048 106.095 23.3958 106.081 23.2874 106.09C22.6349 106.16 22.0699 107.198 21.9524 107.77C21.9524 107.805 21.9074 108.225 21.8899 108.458C21.7974 108.253 21.7049 108.05 21.6049 107.848C21.3124 107.26 20.9999 106.678 20.6924 106.098L20.4099 105.56C20.4974 105.54 21.5349 105.31 21.9249 105C22.2699 104.735 22.6374 104.3 22.6349 103.838C22.6381 103.729 22.6183 103.62 22.5767 103.52C22.5351 103.419 22.4728 103.329 22.3937 103.254C22.3146 103.179 22.2206 103.122 22.1178 103.086C22.0151 103.05 21.9059 103.036 21.7974 103.045C21.1474 103.115 20.5824 104.153 20.4649 104.725C20.4649 104.768 20.3999 105.373 20.3949 105.528C20.1899 105.133 19.9874 104.738 19.8049 104.34C19.5574 103.804 19.3444 103.253 19.1674 102.69C19.2074 102.69 20.2899 102.44 20.6899 102.128C21.0349 101.863 21.4024 101.428 21.3999 100.965C21.4027 100.856 21.3826 100.748 21.3409 100.648C21.2992 100.547 21.2369 100.456 21.1579 100.381C21.079 100.306 20.9852 100.249 20.8826 100.212C20.78 100.176 20.6709 100.162 20.5624 100.17C19.9124 100.243 19.3474 101.28 19.2299 101.853C19.2299 101.89 19.1799 102.353 19.1649 102.57H19.1274C18.964 101.998 18.8527 101.412 18.7949 100.82C18.7574 100.495 18.7399 100.183 18.7324 99.8776C18.9374 99.8526 19.8799 99.7276 20.2699 99.4901C20.6599 99.2526 21.0549 98.8726 21.1024 98.4126C21.1176 98.3043 21.1097 98.1941 21.0792 98.0892C21.0487 97.9843 20.9962 97.887 20.9254 97.8038C20.8545 97.7207 20.7668 97.6535 20.668 97.6067C20.5692 97.5599 20.4616 97.5347 20.3524 97.5326C19.6974 97.5326 19.0224 98.5001 18.8524 99.0551C18.8524 99.0876 18.7774 99.4051 18.7324 99.6376C18.7324 99.5001 18.7324 99.3576 18.7324 99.2251C18.7324 98.7251 18.7624 98.2776 18.7949 97.8751C18.8149 97.6476 18.8349 97.4426 18.8599 97.2501C19.0474 97.1201 19.8049 96.5851 20.0399 96.2026C20.2749 95.8201 20.4524 95.2926 20.2899 94.8626C20.2533 94.7601 20.1956 94.6664 20.1205 94.5876C20.0454 94.5088 19.9546 94.4467 19.854 94.4052C19.7533 94.3637 19.6451 94.3438 19.5363 94.3468C19.4275 94.3498 19.3206 94.3756 19.2224 94.4226C18.6424 94.7251 18.4874 95.8951 18.5849 96.4726C18.5849 96.5226 18.8124 97.2876 18.8224 97.2801H18.8349C18.8074 97.4651 18.7824 97.6626 18.7599 97.8801C18.7199 98.2801 18.6799 98.7351 18.6674 99.2326C18.6494 99.7678 18.6619 100.304 18.7049 100.838C18.7505 101.433 18.8493 102.023 18.9999 102.6V102.62C18.8974 102.458 18.5924 102.015 18.5649 101.985C18.1824 101.543 17.1849 100.913 16.5824 101.168C16.4834 101.213 16.395 101.279 16.3231 101.36C16.2511 101.442 16.1971 101.538 16.1646 101.642C16.132 101.746 16.1217 101.856 16.1343 101.964C16.1468 102.072 16.1819 102.176 16.2374 102.27C16.4574 102.675 16.9999 102.875 17.4224 102.938Z" fill="#263238"/>
<path opacity="0.3" d="M17.0274 99.6075C17.4974 99.8125 18.6449 99.7875 18.6474 99.7875C18.6499 99.7875 18.3974 99.0375 18.3774 98.99C18.1274 98.4625 17.3274 97.59 16.6799 97.6775C16.5725 97.6954 16.4701 97.7355 16.3792 97.7955C16.2883 97.8554 16.2111 97.9337 16.1524 98.0254C16.0937 98.1171 16.0549 98.22 16.0386 98.3276C16.0222 98.4352 16.0286 98.5451 16.0574 98.65C16.1649 99.1 16.6274 99.4325 17.0274 99.6075Z" fill="#263238"/>
<path opacity="0.3" d="M28.6523 99.86C28.6523 99.86 28.8623 99.0975 28.8698 99.0475C28.9498 98.4675 28.7648 97.2975 28.1748 97.0175C28.0756 96.9728 27.9682 96.9495 27.8595 96.949C27.7507 96.9486 27.6431 96.971 27.5436 97.0148C27.4441 97.0587 27.3549 97.123 27.2819 97.2036C27.2089 97.2842 27.1536 97.3792 27.1198 97.4825C26.9623 97.9175 27.1623 98.45 27.3998 98.8175C27.6798 99.25 28.6523 99.86 28.6523 99.86Z" fill="#263238"/>
<path opacity="0.3" d="M17.4224 102.938C17.9224 103.008 18.9374 102.71 19.0174 102.688C19.1863 103.274 19.3942 103.849 19.6399 104.408C19.7816 104.741 19.9316 105.066 20.0899 105.383C19.9974 105.248 19.9124 105.133 19.8974 105.11C19.5149 104.668 18.5174 104.038 17.9149 104.293C17.8159 104.338 17.7275 104.404 17.6556 104.485C17.5836 104.567 17.5296 104.663 17.4971 104.767C17.4645 104.871 17.4542 104.981 17.4668 105.089C17.4793 105.197 17.5144 105.301 17.5699 105.395C17.7924 105.8 18.3199 106 18.7574 106.063C19.1949 106.125 20.0774 105.89 20.3099 105.825C20.3699 105.948 20.4299 106.075 20.4924 106.195C20.7899 106.788 21.0874 107.375 21.3624 107.963C21.4599 108.17 21.5499 108.378 21.6374 108.583C21.5549 108.463 21.4824 108.36 21.4699 108.345C21.0874 107.903 20.0899 107.273 19.4874 107.53C19.3885 107.575 19.3002 107.641 19.2282 107.722C19.1562 107.804 19.1022 107.899 19.0697 108.003C19.0372 108.107 19.0268 108.216 19.0393 108.324C19.0519 108.432 19.087 108.537 19.1424 108.63C19.3649 109.035 19.8924 109.235 20.3299 109.3C20.7674 109.365 21.5624 109.15 21.8299 109.073C21.9149 109.288 21.9999 109.503 22.0799 109.715C22.1249 109.86 22.1799 109.998 22.2174 110.145C22.2549 110.293 22.2999 110.438 22.3399 110.583C22.4074 110.863 22.4774 111.15 22.5374 111.425C22.5799 111.615 22.6149 111.798 22.6524 111.98C22.5574 111.775 22.3649 111.373 22.3449 111.343C22.0349 110.843 21.1424 110.073 20.5074 110.235C20.4035 110.266 20.3071 110.317 20.2245 110.387C20.1418 110.458 20.0748 110.544 20.0277 110.642C19.9806 110.739 19.9544 110.845 19.9509 110.954C19.9474 111.062 19.9667 111.17 20.0074 111.27C20.1674 111.705 20.6649 111.983 21.0824 112.113C21.5424 112.253 22.5599 112.113 22.6874 112.113C22.7474 112.415 22.8049 112.713 22.8524 112.993C22.9549 113.578 23.0349 114.108 23.1024 114.56H23.5299C23.4549 114.09 23.3624 113.538 23.2399 112.923C23.1774 112.613 23.1074 112.283 23.0324 111.945C23.3387 111.823 23.6375 111.682 23.9274 111.525C24.2624 111.888 25.1199 112.313 25.2324 112.368C25.1149 112.655 24.9974 112.933 24.8849 113.193C24.6624 113.708 24.4499 114.165 24.2599 114.56H24.7224C24.8824 114.198 25.0599 113.793 25.2424 113.345C25.3624 113.053 25.4924 112.74 25.6074 112.415C25.7299 112.443 26.7374 112.648 27.2074 112.54C27.6324 112.445 28.1499 112.203 28.3399 111.79C28.3884 111.692 28.4157 111.586 28.4202 111.477C28.4246 111.368 28.4061 111.26 28.3657 111.158C28.3254 111.057 28.2642 110.966 28.186 110.89C28.1079 110.814 28.0147 110.755 27.9124 110.718C27.2924 110.51 26.3449 111.218 25.9974 111.685C25.9774 111.713 25.7874 112.04 25.6724 112.248C25.7224 112.115 25.7724 111.998 25.8199 111.85C25.9199 111.58 26.0099 111.308 26.1099 111.015C26.1524 110.873 26.1949 110.728 26.2399 110.58C26.2849 110.433 26.3149 110.28 26.3549 110.128C26.4399 109.773 26.5074 109.41 26.5699 109.043C26.8049 109.128 27.6499 109.423 28.0874 109.393C28.5249 109.363 29.0699 109.2 29.3224 108.813C29.3855 108.724 29.4292 108.624 29.4508 108.517C29.4725 108.411 29.4715 108.301 29.4479 108.196C29.4243 108.09 29.3787 107.99 29.314 107.903C29.2493 107.816 29.167 107.743 29.0724 107.69C28.4899 107.39 27.4474 107.94 27.0324 108.355C27.0074 108.383 26.7424 108.71 26.5999 108.895C26.6349 108.673 26.6724 108.453 26.6999 108.228C26.7799 107.578 26.8399 106.918 26.9049 106.26C26.9249 106.06 26.9474 105.86 26.9674 105.658C27.0524 105.69 28.0474 106.06 28.5374 106.025C28.9749 105.995 29.5199 105.835 29.7724 105.448C29.8355 105.359 29.8792 105.259 29.9008 105.152C29.9225 105.046 29.9215 104.936 29.8979 104.831C29.8743 104.725 29.8287 104.625 29.764 104.538C29.6993 104.451 29.617 104.378 29.5224 104.325C28.9399 104.025 27.8974 104.575 27.4824 104.99C27.4524 105.023 27.0724 105.49 26.9824 105.62C27.0274 105.18 27.0799 104.738 27.1474 104.308C27.235 103.723 27.3611 103.145 27.5249 102.578C27.5624 102.593 28.6024 102.985 29.1049 102.948C29.5399 102.918 30.0849 102.758 30.3374 102.37C30.4005 102.282 30.4442 102.181 30.4658 102.075C30.4875 101.969 30.4865 101.859 30.4629 101.753C30.4393 101.647 30.3937 101.547 30.329 101.46C30.2643 101.373 30.182 101.301 30.0874 101.248C29.5049 100.948 28.4624 101.498 28.0474 101.913C28.0199 101.94 27.7324 102.3 27.5974 102.475L27.5649 102.458C27.7439 101.891 27.9741 101.342 28.2524 100.818C28.3999 100.525 28.5599 100.255 28.7199 99.9951C28.9049 100.088 29.7599 100.495 30.2199 100.523C30.6799 100.55 31.2199 100.44 31.5099 100.083C31.5817 100.001 31.6355 99.9051 31.6679 99.8012C31.7002 99.6974 31.7104 99.588 31.6976 99.48C31.6849 99.372 31.6496 99.2679 31.594 99.1744C31.5384 99.081 31.4637 99.0003 31.3749 98.9376C30.8299 98.5751 29.7324 99.0101 29.2749 99.3751C29.2499 99.3951 29.0249 99.6251 28.8524 99.7926L29.0749 99.4476C29.3499 99.0351 29.6249 98.6726 29.8724 98.3551C30.0149 98.1776 30.1474 98.0176 30.2724 97.8701C30.5024 97.8701 31.4274 97.8376 31.8324 97.6476C32.2374 97.4576 32.6799 97.1151 32.7774 96.6626C32.8033 96.5568 32.8066 96.4467 32.7872 96.3395C32.7678 96.2324 32.7262 96.1305 32.6649 96.0404C32.6036 95.9504 32.5241 95.8742 32.4315 95.8169C32.3389 95.7595 32.2353 95.7223 32.1274 95.7076C31.4774 95.6376 30.7049 96.5301 30.4649 97.0651C30.4449 97.1101 30.2149 97.8701 30.2149 97.8701C30.0924 98.0101 29.9649 98.1601 29.8224 98.3301C29.5724 98.6426 29.2824 98.9976 28.9974 99.4051C28.687 99.8423 28.4024 100.297 28.1449 100.768C27.8535 101.292 27.6092 101.84 27.4149 102.408C27.4149 102.408 27.4149 102.423 27.4149 102.43C27.4149 102.238 27.4149 101.7 27.4149 101.66C27.3399 101.08 26.8524 100.003 26.2099 99.8851C26.1024 99.8681 25.9926 99.8739 25.8875 99.9022C25.7825 99.9305 25.6845 99.9805 25.6001 100.049C25.5157 100.118 25.4467 100.203 25.3975 100.301C25.3484 100.398 25.3202 100.504 25.3149 100.613C25.2774 101.075 25.6124 101.535 25.9374 101.825C26.3049 102.155 27.3249 102.473 27.4049 102.498C27.2211 103.08 27.0775 103.673 26.9749 104.275C26.9124 104.625 26.8599 104.98 26.8124 105.338C26.8124 105.173 26.8124 105.023 26.8124 105.003C26.7374 104.423 26.2524 103.345 25.6074 103.228C25.5001 103.211 25.3905 103.217 25.2858 103.246C25.181 103.274 25.0834 103.324 24.9993 103.393C24.9151 103.461 24.8463 103.547 24.7973 103.644C24.7484 103.741 24.7203 103.847 24.7149 103.955C24.6774 104.418 25.0099 104.878 25.3374 105.17C25.6649 105.463 26.5299 105.753 26.7599 105.825C26.7449 105.963 26.7249 106.1 26.7099 106.235C26.6299 106.893 26.5549 107.55 26.4599 108.19C26.4249 108.418 26.3849 108.638 26.3449 108.86C26.3449 108.713 26.3449 108.588 26.3449 108.57C26.2699 107.99 25.7824 106.913 25.1399 106.795C25.0301 106.769 24.9159 106.767 24.8053 106.79C24.6948 106.812 24.5905 106.859 24.4998 106.926C24.409 106.993 24.3341 107.079 24.2801 107.179C24.2262 107.278 24.1945 107.387 24.1874 107.5C24.1499 107.96 24.4849 108.423 24.8099 108.713C25.1349 109.003 25.9199 109.268 26.1924 109.358C26.1449 109.583 26.0974 109.808 26.0424 110.025C25.9999 110.173 25.9699 110.318 25.9199 110.463C25.8699 110.608 25.8249 110.75 25.7799 110.893C25.6824 111.163 25.5824 111.443 25.4799 111.705C25.4099 111.885 25.3399 112.058 25.2699 112.233C25.3049 112.008 25.3649 111.568 25.3649 111.53C25.3586 111.015 25.22 110.511 24.9624 110.065C24.9674 110.009 24.9674 109.952 24.9624 109.895C24.9475 109.787 24.9099 109.683 24.8519 109.59C24.7939 109.497 24.7169 109.417 24.626 109.356C24.5351 109.295 24.4322 109.254 24.3243 109.236C24.2164 109.218 24.1058 109.223 23.9999 109.25C23.3649 109.418 22.9649 110.528 22.9349 111.113C22.9349 111.148 22.9549 111.523 22.9749 111.76C22.9424 111.623 22.9124 111.488 22.8774 111.348C22.8124 111.068 22.7374 110.79 22.6574 110.49C22.6149 110.348 22.5724 110.203 22.5274 110.058C22.4824 109.913 22.4249 109.765 22.3749 109.615C22.2499 109.273 22.1049 108.933 21.9524 108.593C22.2024 108.533 23.0649 108.313 23.4124 108.045C23.7599 107.778 24.1274 107.345 24.1249 106.883C24.1277 106.774 24.1076 106.666 24.0659 106.565C24.0242 106.465 23.9618 106.374 23.8828 106.3C23.8038 106.225 23.71 106.168 23.6074 106.131C23.5048 106.095 23.3958 106.081 23.2874 106.09C22.6349 106.16 22.0699 107.198 21.9524 107.77C21.9524 107.805 21.9074 108.225 21.8899 108.458C21.7974 108.253 21.7049 108.05 21.6049 107.848C21.3124 107.26 20.9999 106.678 20.6924 106.098L20.4099 105.56C20.4974 105.54 21.5349 105.31 21.9249 105C22.2699 104.735 22.6374 104.3 22.6349 103.838C22.6381 103.729 22.6183 103.62 22.5767 103.52C22.5351 103.419 22.4728 103.329 22.3937 103.254C22.3146 103.179 22.2206 103.122 22.1178 103.086C22.0151 103.05 21.9059 103.036 21.7974 103.045C21.1474 103.115 20.5824 104.153 20.4649 104.725C20.4649 104.768 20.3999 105.373 20.3949 105.528C20.1899 105.133 19.9874 104.738 19.8049 104.34C19.5574 103.804 19.3444 103.253 19.1674 102.69C19.2074 102.69 20.2899 102.44 20.6899 102.128C21.0349 101.863 21.4024 101.428 21.3999 100.965C21.4027 100.856 21.3826 100.748 21.3409 100.648C21.2992 100.547 21.2369 100.456 21.1579 100.381C21.079 100.306 20.9852 100.249 20.8826 100.212C20.78 100.176 20.6709 100.162 20.5624 100.17C19.9124 100.243 19.3474 101.28 19.2299 101.853C19.2299 101.89 19.1799 102.353 19.1649 102.57H19.1274C18.964 101.998 18.8527 101.412 18.7949 100.82C18.7574 100.495 18.7399 100.183 18.7324 99.8776C18.9374 99.8526 19.8799 99.7276 20.2699 99.4901C20.6599 99.2526 21.0549 98.8726 21.1024 98.4126C21.1176 98.3043 21.1097 98.1941 21.0792 98.0892C21.0487 97.9843 20.9962 97.887 20.9254 97.8038C20.8545 97.7207 20.7668 97.6535 20.668 97.6067C20.5692 97.5599 20.4616 97.5347 20.3524 97.5326C19.6974 97.5326 19.0224 98.5001 18.8524 99.0551C18.8524 99.0876 18.7774 99.4051 18.7324 99.6376C18.7324 99.5001 18.7324 99.3576 18.7324 99.2251C18.7324 98.7251 18.7624 98.2776 18.7949 97.8751C18.8149 97.6476 18.8349 97.4426 18.8599 97.2501C19.0474 97.1201 19.8049 96.5851 20.0399 96.2026C20.2749 95.8201 20.4524 95.2926 20.2899 94.8626C20.2533 94.7601 20.1956 94.6664 20.1205 94.5876C20.0454 94.5088 19.9546 94.4467 19.854 94.4052C19.7533 94.3637 19.6451 94.3438 19.5363 94.3468C19.4275 94.3498 19.3206 94.3756 19.2224 94.4226C18.6424 94.7251 18.4874 95.8951 18.5849 96.4726C18.5849 96.5226 18.8124 97.2876 18.8224 97.2801H18.8349C18.8074 97.4651 18.7824 97.6626 18.7599 97.8801C18.7199 98.2801 18.6799 98.7351 18.6674 99.2326C18.6494 99.7678 18.6619 100.304 18.7049 100.838C18.7505 101.433 18.8493 102.023 18.9999 102.6V102.62C18.8974 102.458 18.5924 102.015 18.5649 101.985C18.1824 101.543 17.1849 100.913 16.5824 101.168C16.4834 101.213 16.395 101.279 16.3231 101.36C16.2511 101.442 16.1971 101.538 16.1646 101.642C16.132 101.746 16.1217 101.856 16.1343 101.964C16.1468 102.072 16.1819 102.176 16.2374 102.27C16.4574 102.675 16.9999 102.875 17.4224 102.938Z" fill="#263238"/>
<path d="M84.5902 110.937L86.3402 114.13C86.9798 114.275 87.6501 114.186 88.2302 113.88C89.2077 113.357 90.2502 112.575 90.9677 112.315C91.6852 112.055 93.8352 110.685 94.4227 109.642C95.0102 108.6 95.2027 107.892 94.2252 108.142C93.3909 108.372 92.5424 108.545 91.6852 108.662C90.7727 108.795 88.8827 108.662 88.8827 108.662L84.5902 110.937Z" fill="white" stroke="#263238" stroke-width="0.316" stroke-miterlimit="10"/>
<path d="M62.1225 109.937C62.6361 110.714 63.301 111.379 64.0775 111.892C65.2525 112.61 67.2075 113.067 67.0775 113.717C66.9475 114.367 65.5775 114.89 64.2125 114.695C62.3762 114.352 60.5678 113.873 58.8025 113.262C58.02 112.935 57.565 112.87 57.565 112.35C57.565 111.83 59 108.18 59 108.18L62.1225 109.937Z" fill="white" stroke="#263238" stroke-width="0.316" stroke-miterlimit="10"/>
<path d="M69.6001 51.9999C69.6001 51.9999 67.1876 54.7249 66.2726 56.4999C65.3576 58.2749 61.6076 64.0974 62.1301 64.9749C62.6526 65.8524 65.3426 68.6574 66.7176 69.5999C68.0926 70.5424 69.2926 71.5574 69.2926 71.5574L70.3326 70.7724C70.3326 70.7724 68.4376 68.1024 67.3326 66.2899C66.2276 64.4774 65.5626 63.5399 65.5626 63.5399C65.5626 63.5399 68.6176 59.7899 69.3951 58.8124C70.1726 57.8349 70.4451 53.5624 70.4801 53.1799C70.5151 52.7974 70.2151 51.4999 69.6001 51.9999Z" fill="white" stroke="#263238" stroke-width="0.316" stroke-miterlimit="10"/>
<path d="M77.9651 38.775C77.9651 38.775 78.8176 39.6925 78.8901 40.665C78.9626 41.6375 78.7052 42.575 79.3227 42.9875C79.9402 43.4 80.6651 43.4875 80.2951 43.765C79.9251 44.0425 79.2426 44.56 79.2426 44.56C79.2426 44.56 78.9401 47.5225 78.6251 47.6775C78.3101 47.8325 75.7176 48.155 75.7176 48.155C75.7176 48.155 74.7902 49.725 74.9877 50.625C75.1852 51.525 76.7751 54.48 77.7576 56.3025C78.7401 58.125 78.7951 58.8375 78.4051 60.6325C78.0151 62.4275 76.7851 70.0575 76.8501 71.295C76.9151 72.5325 77.8276 74.3575 77.8276 74.3575C77.8276 74.3575 83.0427 88.695 83.6277 90.3225C84.2127 91.95 84.0202 95.7975 84.4102 97.23C84.8002 98.6625 87.3426 103.682 87.7351 104.595C88.1276 105.507 89.6076 107.482 89.6076 107.482L89.9327 108.135C89.9327 108.135 89.0201 108.917 87.9776 109.697C87.1408 110.315 86.2131 110.799 85.2276 111.132C84.7726 111.262 84.1851 111.457 84.1851 111.457C84.1851 111.457 82.1852 107.917 81.4002 106.027C80.6152 104.137 79.3151 102.052 79.0551 99.3175C78.7951 96.5825 77.9477 94.1025 77.2302 91.9525C76.5127 89.8025 74.1677 86.0225 74.1677 86.0225C74.1677 86.0225 72.2776 93.5825 70.7776 95.4075C69.2776 97.2325 67.1302 102.117 65.7602 104.595C64.3902 107.072 63.7401 107.657 63.6101 108.83C63.5367 109.519 63.384 110.196 63.1551 110.85C63.1551 110.85 60.8726 110.395 59.7001 109.612C58.9244 109.077 58.2041 108.466 57.5501 107.787C57.5501 107.787 60.8002 100.815 62.3727 97.7525C63.9452 94.69 65.8251 87.9125 65.8901 87.455C65.9551 86.9975 66.6076 83.155 66.8676 82.3075C67.1276 81.46 67.1951 81.395 67.1301 80.94C67.0651 80.485 65.3051 77.7475 66.0201 75.075C66.7351 72.4025 68.6801 69.78 68.6801 69.78C68.6801 69.78 69.8201 65.78 69.8101 64.73C69.8001 63.68 68.7051 61.2825 68.4026 58.9525C68.1001 56.6225 68.2451 53.28 69.2976 51.6325C70.3501 49.985 72.0477 47.3825 72.1427 46.785C72.2377 46.1875 72.5601 45.38 71.7576 43.35C70.9551 41.32 72.8476 39.545 74.1651 38.7925C75.4826 38.04 77.9651 38.775 77.9651 38.775Z" fill="white" stroke="#263238" stroke-width="0.316" stroke-miterlimit="10"/>
<path d="M78.1601 43.1049C78.283 43.1049 78.3826 42.8565 78.3826 42.5499C78.3826 42.2434 78.283 41.9949 78.1601 41.9949C78.0372 41.9949 77.9376 42.2434 77.9376 42.5499C77.9376 42.8565 78.0372 43.1049 78.1601 43.1049Z" fill="#263238"/>
<path d="M77.5701 41.6274C77.5701 41.6274 78.0126 41.1099 78.4576 41.5524" stroke="#263238" stroke-width="0.316" stroke-miterlimit="10"/>
<path d="M79.0475 45.545C78.8241 45.5752 78.5968 45.5342 78.398 45.4278C78.1991 45.3214 78.0389 45.1551 77.94 44.9525" stroke="#263238" stroke-width="0.316" stroke-miterlimit="10"/>
<path d="M76.3301 77.6149L74.3751 85.2399" stroke="#263238" stroke-width="0.316" stroke-miterlimit="10"/>
<path d="M81.1526 95.34C81.1526 95.34 80.7501 100.685 80.5001 102.5" stroke="#263238" stroke-width="0.316" stroke-miterlimit="10"/>
<path d="M81.9352 98.405C81.9352 98.405 81.3477 102.64 81.3477 103.03" stroke="#263238" stroke-width="0.316" stroke-miterlimit="10"/>
<path d="M74.4352 43.1524C74.4352 43.1524 73.3352 41.5349 72.5052 42.7074C71.6752 43.8799 72.4202 45.0649 72.8877 45.2274C73.0012 45.277 73.1238 45.3026 73.2477 45.3026C73.3716 45.3026 73.4942 45.277 73.6077 45.2274C73.3302 46.0559 72.9253 46.8361 72.4077 47.5399C71.5752 48.6474 69.3677 49.7249 67.5777 49.3999C65.7877 49.0749 62.4152 45.8599 63.0627 43.1324C63.7102 40.4049 64.3952 39.0499 65.1752 38.9899C65.9552 38.9299 66.4252 39.9449 67.3327 39.8774C68.2402 39.8099 69.3527 36.2649 72.5677 35.5699C75.7827 34.8749 78.5127 36.4374 78.8552 37.5224C79.1977 38.6074 78.7202 39.2324 78.3952 39.2549C78.0702 39.2774 76.7777 38.5899 76.0302 39.1024C75.2827 39.6149 75.7802 40.1674 75.8802 40.6174C75.9802 41.0674 75.2227 41.4499 75.2577 41.9049C75.2927 42.3599 75.3952 42.8749 75.1352 42.9049C74.8907 42.9516 74.6547 43.0351 74.4352 43.1524Z" fill="#263238" stroke="#263238" stroke-width="0.316" stroke-miterlimit="10"/>
<path d="M77.7501 56.3025C77.5001 55.835 77.2051 55.3025 76.9076 54.73C76.8099 54.779 76.7039 54.8095 76.5951 54.82C75.7501 54.8825 73.8451 52.0825 71.9351 50.9825C71.0301 50.46 70.3176 50.57 69.8176 50.83C69.7301 50.97 69.6426 51.105 69.5676 51.2375C69.9549 51.0705 70.3773 51.0014 70.7976 51.0363C71.2179 51.0712 71.6231 51.2089 71.9776 51.4375C73.8251 52.5425 75.3026 54.85 75.6826 56.455C76.0626 58.06 74.2301 60.68 71.7926 61.3175C70.2526 61.72 69.2401 61.115 68.5876 59.935C69.0076 61.935 69.8151 63.8325 69.8376 64.73C69.8376 65.775 68.7076 69.78 68.7076 69.78C68.7076 69.78 68.6076 69.955 68.4576 70.255C71.5351 71.16 75.4201 71.595 76.9251 71.295C77.0901 68.965 78.0901 62.18 78.4251 60.6325C78.7951 58.8375 78.7501 58.125 77.7501 56.3025Z" fill="#263238" stroke="#263238" stroke-width="0.316" stroke-miterlimit="10"/>
<path d="M71.1451 51.6949C71.1451 51.6949 72.9151 51.7599 73.8001 53.1299C74.6851 54.4999 78.7076 60.2824 79.2701 60.8299C79.8326 61.3774 80.6251 62.3624 80.6251 62.3624C80.6251 62.3624 86.8876 58.6974 88.0001 57.8324C89.1126 56.9674 90.1751 55.4499 90.1751 55.4499C90.1751 55.4499 90.2951 54.3949 90.3351 54.0649C90.3751 53.7349 91.3501 53.6624 91.3501 53.6624C91.3501 53.6624 92.0076 52.8299 92.5326 52.8574C93.0576 52.8849 93.1801 53.6574 93.1801 53.6574C93.1801 53.6574 93.8576 54.8499 93.9001 55.4349C93.9426 56.0199 92.7301 57.2849 92.2251 57.5199C91.7473 57.706 91.2548 57.8515 90.7526 57.9549C90.7526 57.9549 86.7226 62.6299 85.3876 64.0374C84.1885 65.242 82.8381 66.2858 81.3701 67.1424C80.8701 67.3774 78.8276 66.3499 78.4901 66.1799C78.1526 66.0099 69.5826 57.9524 69.5826 57.9524" fill="white"/>
<path d="M71.1451 51.6949C71.1451 51.6949 72.9151 51.7599 73.8001 53.1299C74.6851 54.4999 78.7076 60.2824 79.2701 60.8299C79.8326 61.3774 80.6251 62.3624 80.6251 62.3624C80.6251 62.3624 86.8876 58.6974 88.0001 57.8324C89.1126 56.9674 90.1751 55.4499 90.1751 55.4499C90.1751 55.4499 90.2951 54.3949 90.3351 54.0649C90.3751 53.7349 91.3501 53.6624 91.3501 53.6624C91.3501 53.6624 92.0076 52.8299 92.5326 52.8574C93.0576 52.8849 93.1801 53.6574 93.1801 53.6574C93.1801 53.6574 93.8576 54.8499 93.9001 55.4349C93.9426 56.0199 92.7301 57.2849 92.2251 57.5199C91.7473 57.706 91.2548 57.8515 90.7526 57.9549C90.7526 57.9549 86.7226 62.6299 85.3876 64.0374C84.1885 65.242 82.8381 66.2858 81.3701 67.1424C80.8701 67.3774 78.8276 66.3499 78.4901 66.1799C78.1526 66.0099 69.5826 57.9524 69.5826 57.9524" stroke="#263238" stroke-width="0.316" stroke-miterlimit="10"/>
<path d="M57.5001 54.4799C57.5001 54.4799 59.7001 57.9549 60.6926 59.4449C61.5119 60.5969 62.4134 61.6881 63.3901 62.7099C63.3901 62.7099 65.1626 61.1474 66.5826 59.7299C68.0026 58.3124 68.7101 55.8974 68.7101 55.8974C68.7101 55.8974 67.8576 54.3974 67.8576 54.1249C67.8576 53.8524 68.6401 52.9899 68.8576 52.7774C68.9358 52.7133 69.0272 52.6672 69.1254 52.6426C69.2235 52.6179 69.3259 52.6153 69.4251 52.6349C69.5257 52.5324 69.6479 52.4536 69.7829 52.4043C69.9178 52.3549 70.0621 52.3364 70.2051 52.3499C70.7726 52.3499 72.1201 53.6999 72.2626 54.6924C72.4051 55.6849 71.4126 56.7499 70.9851 57.3874C70.5576 58.0249 68.6451 61.5749 67.8626 63.2774C67.0801 64.9799 64.4576 67.8899 63.6126 68.0274C62.7676 68.1649 58.6451 64.6924 58.1476 64.0549C57.6501 63.4174 58.1476 58.2374 57.7926 57.3849C57.4376 56.5324 57.5001 54.4799 57.5001 54.4799Z" fill="white" stroke="#263238" stroke-width="0.316" stroke-miterlimit="10"/>
<path d="M69.4275 52.635C69.4275 52.635 71.2 53.9825 70.4925 54.2675C70.3991 54.3078 70.2984 54.3286 70.1967 54.3288C70.095 54.3289 69.9943 54.3084 69.9007 54.2684C69.8072 54.2284 69.7228 54.1698 69.6526 54.0962C69.5824 54.0225 69.5279 53.9353 69.4925 53.84C69.4925 53.84 70.2025 54.6925 69.92 55.4025" stroke="#263238" stroke-width="0.316" stroke-miterlimit="10"/>
<path d="M70.065 54.4075C70.065 54.4075 71.065 55.4075 71.565 55.4725" stroke="#263238" stroke-width="0.316" stroke-miterlimit="10"/>
<path d="M47.7875 79.81C47.7875 79.81 45.445 88.81 44.665 89.81C43.885 90.81 40.125 94.1375 39.415 96.0599C38.705 97.9825 35.2675 105.56 34.8425 106.767C34.4175 107.975 34.0625 108.327 34.0625 108.327L37.0425 109.96C37.0425 109.96 40.195 104.147 41.8975 102.02C43.6 99.8925 45.8 96.555 47.3625 94.995C48.925 93.435 53.535 86.9775 53.535 86.9775L47.7875 79.81Z" fill="white" stroke="#263238" stroke-width="0.316" stroke-miterlimit="10"/>
<path d="M53.5351 86.975L47.7851 79.81C47.7851 79.81 45.7151 87.775 44.8176 89.56C46.0234 90.991 47.6439 92.0122 49.4551 92.4825C51.3326 90.055 53.5351 86.975 53.5351 86.975Z" fill="#263238" stroke="#263238" stroke-width="0.316" stroke-miterlimit="10"/>
<path d="M37.0426 109.957C37.0426 109.957 37.7726 108.67 38.6301 106.957C37.4652 106.614 36.3562 106.104 35.3376 105.442C35.0876 106.16 34.9351 106.497 34.8376 106.765C34.4101 107.972 34.0576 108.325 34.0576 108.325L37.0426 109.957Z" fill="white" stroke="#263238" stroke-width="0.316" stroke-miterlimit="10"/>
<path d="M38.3176 111.092C38.3176 111.092 38.0351 110.952 37.9626 109.815C37.8901 108.677 37.7501 107.9 37.3251 108.61L36.9001 109.32L34.1326 107.687C34.1326 107.687 33.6326 108.112 33.6326 108.54C33.6326 108.967 31.6476 110.88 32.0726 111.447C32.4976 112.015 33.9876 112.015 35.4776 113.01C36.9676 114.005 37.2526 114.51 39.0976 114.57C40.9426 114.63 41.2951 114.002 41.2951 113.647C41.2951 113.292 39.7951 112.725 39.3101 112.227C38.9591 111.867 38.6278 111.488 38.3176 111.092Z" fill="white" stroke="#263238" stroke-width="0.316" stroke-miterlimit="10"/>
<path d="M41.2975 113.647C41.2975 113.557 41.205 113.457 41.0475 113.345C40.685 113.577 39.88 113.912 38.38 113.717C36.18 113.435 36.18 112.795 34.975 111.732C34.165 111.017 32.975 110.687 32.275 110.547C32.0475 110.925 31.925 111.26 32.065 111.447C32.49 112.015 33.98 112.015 35.47 113.01C36.96 114.005 37.245 114.51 39.09 114.57C40.935 114.63 41.2975 114 41.2975 113.647Z" fill="white" stroke="#263238" stroke-width="0.316" stroke-miterlimit="10"/>
<path d="M46.935 74.63C46.935 74.63 46.155 77.1825 47.575 80.8025C48.995 84.4225 54.81 90.735 56.655 92.3025L58.5 93.865C58.5 93.865 58.785 98.115 60.8425 101.03L67.865 110.965L70.2075 109.19C70.2075 109.19 68.2925 106.92 67.725 104.72C67.1575 102.52 64.105 95.9225 63.61 93.72C63.115 91.5175 61.2675 87.69 61.055 87.335C60.8425 86.98 57 79.75 57 79.75L57.5775 76.25L46.935 74.63Z" fill="white" stroke="#263238" stroke-width="0.316" stroke-miterlimit="10"/>
<path d="M56.3975 92.0699C56.9525 91.3199 58.55 89.6174 61.9475 89.1974C61.5125 88.2224 61.1425 87.4774 61.055 87.3299C60.8425 86.9749 57 79.7499 57 79.7499L57.5775 76.2499L46.935 74.6199C46.935 74.6199 46.155 77.1725 47.575 80.7924C48.9325 84.2675 54.3225 90.2024 56.3975 92.0699Z" fill="#263238" stroke="#263238" stroke-width="0.316" stroke-miterlimit="10"/>
<path d="M65.6426 107.81C66.8926 109.587 67.8651 110.957 67.8651 110.957L70.2076 109.182C69.4441 108.245 68.7899 107.223 68.2576 106.137C67.4819 106.832 66.5988 107.397 65.6426 107.81Z" fill="white" stroke="#263238" stroke-width="0.316" stroke-miterlimit="10"/>
<path d="M70.065 107.195C70.065 107.195 69.0025 106.195 69.1425 107.48C69.2825 108.765 69.71 109.182 69.71 109.182C69.71 109.182 66.8025 110.53 67.085 111.17C67.2534 111.549 67.4684 111.906 67.725 112.232C67.725 112.232 69.5 115 70.2775 114.717C71.055 114.435 72.4075 112.66 73.6125 112.092C74.8175 111.525 76.31 109.607 76.665 108.472C77.02 107.337 76.805 106.912 75.955 107.407C75.105 107.902 73.9675 108.545 72.69 108.545C71.9029 108.534 71.1374 108.286 70.4925 107.835L70.065 107.195Z" fill="white" stroke="#263238" stroke-width="0.316" stroke-miterlimit="10"/>
<path d="M76.4675 107.207C76.461 107.227 76.456 107.247 76.4525 107.267C76.025 109.182 73.6125 110.53 72.4775 111.595C71.5475 112.465 69.765 113.67 69.1475 114.077C69.5675 114.51 69.99 114.827 70.2775 114.717C71.06 114.432 72.4075 112.66 73.6125 112.092C74.8175 111.525 76.31 109.607 76.665 108.472C76.9325 107.617 76.875 107.165 76.4675 107.207Z" fill="white" stroke="#263238" stroke-width="0.316" stroke-miterlimit="10"/>
<path d="M59.8926 37.6999C60.2809 38.4148 60.5399 39.1925 60.6576 39.9974C60.8226 41.2474 60.7676 41.9699 61.2601 42.5724C61.7526 43.1749 62.1926 43.5574 62.0826 43.8849C61.9726 44.2124 61.2051 44.5974 61.2051 44.5974C61.2051 44.5974 60.5501 47.2799 59.9551 47.7174C59.3601 48.1549 57.3251 47.6099 57.3251 47.6099C56.8341 48.3556 56.5861 49.2351 56.6151 50.1274C56.6701 51.6049 57.8651 53.9049 58.5851 56.0399C59.3051 58.1749 59.4076 59.9824 58.6951 62.8299C57.9826 65.6774 57.7101 71.8099 57.7651 73.4524C57.8201 75.0949 57.8176 75.9699 57.8176 75.9699C57.8176 75.9699 58.6401 76.8999 54.8626 76.8999C51.0851 76.8999 47.5251 75.4774 47.1426 75.3124C46.9267 75.2348 46.7482 75.0786 46.6426 74.8749C46.6426 74.8749 47.5176 65.2924 47.2451 64.5274C46.9726 63.7624 46.6976 60.2499 46.6976 60.2499C46.6976 60.2499 46.8051 54.2799 48.5026 52.0349C50.2001 49.7899 52.1726 48.8049 52.8826 47.6549C53.3101 46.9099 53.4656 46.0395 53.3226 45.1924C52.0503 44.1447 51.1011 42.7578 50.5851 41.1924C49.7076 38.5649 52.1726 35.7174 53.9776 35.0599C55.7826 34.4024 59.5076 35.2799 60.0551 35.9374C60.6026 36.5949 59.8926 37.6999 59.8926 37.6999Z" fill="white" stroke="#263238" stroke-width="0.316" stroke-miterlimit="10"/>
<path d="M60.0551 35.9475C59.5076 35.29 55.7851 34.4125 53.9776 35.07C52.1701 35.7275 49.7076 38.57 50.5851 41.2025C51.1011 42.7678 52.0503 44.1547 53.3226 45.2025C53.3226 45.2025 53.3376 45.28 53.3526 45.4125C53.8137 45.274 54.2614 45.0941 54.6901 44.875C54.4719 44.7126 54.2701 44.5292 54.0876 44.3275C53.9251 44.1075 53.4851 42.5775 54.3626 42.3C55.2401 42.0225 55.4576 42.63 55.6126 42.9575C55.7676 43.285 56.2151 42.9575 56.3801 42.7925C56.5451 42.6275 56.4351 41.37 56.4351 41.37C56.8468 41.056 57.2315 40.7082 57.5851 40.33C58.0851 39.7825 56.2151 38.5225 56.2151 38.5225C56.2151 38.5225 57.5851 38.4675 58.2976 38.3575C58.8591 38.2278 59.3955 38.0065 59.8851 37.7025C59.8851 37.7025 60.6026 36.605 60.0551 35.9475Z" fill="#263238" stroke="#263238" stroke-width="0.316" stroke-miterlimit="10"/>
<path d="M57.3175 47.61L55.95 46.9525L56.88 48.43L57.3175 47.61Z" fill="#263238" stroke="#263238" stroke-width="0.316" stroke-miterlimit="10"/>
<path d="M60.4399 42.2274C60.4624 42.5299 60.3949 42.7799 60.2899 42.7899C60.1849 42.7999 60.0799 42.5599 60.0574 42.2574C60.0349 41.9549 60.0999 41.7049 60.2049 41.6974C60.3099 41.6899 60.4149 41.9274 60.4399 42.2274Z" fill="#263238"/>
<path d="M59.5625 41.2025C59.5625 41.2025 59.9475 40.6 60.33 40.93" stroke="#263238" stroke-width="0.316" stroke-miterlimit="10"/>
<path d="M60.6025 45.365C60.6025 45.365 59.7825 45.035 59.7825 44.8175" stroke="#263238" stroke-width="0.316" stroke-miterlimit="10"/>
<path d="M57.8126 75.97C57.8126 75.97 57.8126 75.095 57.7576 73.4525C57.7026 71.81 57.9751 65.6775 58.6876 62.83C59.4001 59.9825 59.2901 58.175 58.5776 56.04C58.3451 55.34 58.0576 54.6225 57.7751 53.92C56.4976 54.185 55.0476 52.2475 54.1726 50.79C53.885 50.2849 53.4569 49.8743 52.9403 49.608C52.4236 49.3418 51.8408 49.2313 51.2626 49.29H51.2476C51.0676 49.4425 50.8801 49.6 50.6851 49.77C51.3539 49.9321 51.9747 50.2508 52.4963 50.6998C53.0178 51.1487 53.4253 51.7152 53.6851 52.3525C54.7501 54.9075 52.9776 58.1025 50.8476 59.1025C49.2976 59.8275 47.5976 59.1575 46.7901 58.7425C46.7176 59.6525 46.7076 60.27 46.7076 60.27C46.7076 60.27 46.9801 63.77 47.2551 64.54C47.5301 65.31 46.6526 74.8875 46.6526 74.8875C46.7582 75.0911 46.9368 75.2474 47.1526 75.325C47.5351 75.49 51.0951 76.9125 54.8726 76.9125C58.6501 76.9125 57.8126 75.97 57.8126 75.97Z" fill="#27AE60" stroke="#263238" stroke-width="0.316" stroke-miterlimit="10"/>
<path d="M51.5474 50.435C51.5474 50.435 48.7099 50.2925 47.5024 51.7825C46.2949 53.2725 40.4799 62.2125 40.1949 62.9225C39.9099 63.6325 40.6199 64.695 40.6199 64.695C40.6199 64.695 49.4899 72.6425 49.7724 72.7125C50.0549 72.7825 51.6899 74.7 52.1849 74.8425C52.6799 74.985 54.3149 74.5575 54.5274 74.3425C54.7399 74.1275 55.7324 73.2075 55.3074 72.8425C54.8824 72.4775 54.5974 72.275 54.5974 72.0625C54.5974 71.85 54.8099 71.0625 54.0299 70.9275C53.2499 70.7925 50.8374 70.785 50.8374 70.785C50.8374 70.785 49.6324 69.3675 48.0699 67.1675C47.1724 65.9125 46.3437 64.6098 45.5874 63.265L52.1149 56.95" fill="white"/>
<path d="M51.5474 50.435C51.5474 50.435 48.7099 50.2925 47.5024 51.7825C46.2949 53.2725 40.4799 62.2125 40.1949 62.9225C39.9099 63.6325 40.6199 64.695 40.6199 64.695C40.6199 64.695 49.4899 72.6425 49.7724 72.7125C50.0549 72.7825 51.6899 74.7 52.1849 74.8425C52.6799 74.985 54.3149 74.5575 54.5274 74.3425C54.7399 74.1275 55.7324 73.2075 55.3074 72.8425C54.8824 72.4775 54.5974 72.275 54.5974 72.0625C54.5974 71.85 54.8099 71.0625 54.0299 70.9275C53.2499 70.7925 50.8374 70.785 50.8374 70.785C50.8374 70.785 49.6324 69.3675 48.0699 67.1675C47.1724 65.9125 46.3437 64.6098 45.5874 63.265L52.1149 56.95" stroke="#263238" stroke-width="0.316" stroke-miterlimit="10"/>
</svg>
